G04 ================== begin FILE IDENTIFICATION RECORD ==================*
G04 Layout Name:  F407_BIKE_V10A.brd*
G04 Film Name:    ADB*
G04 File Format:  Gerber RS274X*
G04 File Origin:  Cadence Allegro 17.2-S033*
G04 Origin Date:  Mon Feb 26 21:27:33 2018*
G04 *
G04 Layer:  REF DES/SILKSCREEN_BOTTOM*
G04 Layer:  PIN/BOTTOM*
G04 Layer:  PACKAGE GEOMETRY/SILKSCREEN_BOTTOM*
G04 Layer:  BOARD GEOMETRY/SILKSCREEN_BOTTOM*
G04 Layer:  BOARD GEOMETRY/OUTLINE*
G04 *
G04 Offset:    (0.0000 0.0000)*
G04 Mirror:    No*
G04 Mode:      Positive*
G04 Rotation:  0*
G04 FullContactRelief:  No*
G04 UndefLineWidth:     0.1524*
G04 ================== end FILE IDENTIFICATION RECORD ====================*
%FSLAX55Y55*MOMM*%
%IR0*IPPOS*OFA0.00000B0.00000*MIA0B0*SFA1.00000B1.00000*%
%ADD28R,1.6X.3*%
%ADD24R,.4X1.4*%
%ADD35R,1.4X.8*%
%ADD32R,.8X1.4*%
%ADD23O,.254X2.032*%
%ADD33R,2.6X.8*%
%ADD20O,2.032X.254*%
%ADD30R,.6604X1.016*%
%ADD17R,2.3X4.*%
%ADD13R,1.8X1.*%
%ADD12R,1.X1.8*%
%ADD27R,1.5X1.5*%
%ADD21R,1.8X2.*%
%ADD26R,1.8X2.5*%
%ADD25R,1.6X2.7*%
%ADD31R,.8X.25*%
%ADD19R,1.27X1.27*%
%ADD11C,1.524*%
%ADD34R,.508X.635*%
%ADD18R,1.524X1.524*%
%ADD16C,1.778*%
%ADD22R,.8128X.4318*%
%ADD10R,.9144X.9144*%
%ADD29R,1.1938X1.1938*%
%ADD15R,2.6924X1.6256*%
%ADD14R,1.778X1.778*%
%ADD36C,.2*%
%ADD37C,.2032*%
%ADD38C,.17*%
%ADD39C,.127*%
%ADD40C,.254*%
%ADD41C,.1524*%
%ADD42C,.1999*%
G75*
%LPD*%
G75*
G36*
G01X819000Y1220000D02*
Y1270000D01*
X869000D01*
Y1220000D01*
X819000D01*
G37*
G36*
G01X1824000Y430000D02*
Y380000D01*
X1774000D01*
Y430000D01*
X1824000D01*
G37*
G36*
G01X1973900Y3730000D02*
G03I-53900J0D01*
G37*
G36*
G01X2352200Y816500D02*
G03I-25400J0D01*
G37*
G36*
G01X2163900Y3540000D02*
G03I-53900J0D01*
G37*
G36*
G01X3570000Y720000D02*
G03I-30000J0D01*
G37*
G36*
G01X4460000Y1405000D02*
G03I-20000J0D01*
G37*
G36*
G01X5070000Y10000D02*
X5020000D01*
Y60000D01*
X5070000D01*
Y10000D01*
G37*
G54D10*
X406200Y130000D03*
X253800D03*
X863800Y1510000D03*
X696200Y1360000D03*
X543800D03*
X696200Y1510000D03*
X543800D03*
X863800Y1360000D03*
X1353800Y130000D03*
X1016200Y1510000D03*
Y1360000D03*
X1183800D03*
X1336200D03*
X1393800Y2430000D03*
Y2890000D03*
X1383800Y3340000D03*
Y3490000D03*
Y3190000D03*
Y3790000D03*
Y3640000D03*
X1506200Y130000D03*
X1886200D03*
X1733800D03*
X1766200Y1550000D03*
X1613800D03*
X1546200Y2430000D03*
Y2890000D03*
X1536200Y3340000D03*
Y3490000D03*
Y3190000D03*
Y3790000D03*
Y3640000D03*
X2063800Y500000D03*
X2216200D03*
X2063800Y650000D03*
X2216200D03*
X2063800Y800000D03*
X2216200D03*
X2063800Y950000D03*
X2216200D03*
X2276200Y4120000D03*
X2123800D03*
X2393800Y4640000D03*
X2773800Y1190000D03*
X2473800Y4120000D03*
X2626200D03*
X2823800D03*
X2546200Y4640000D03*
X2926200Y1190000D03*
X3263800Y1200000D03*
X2976200Y4120000D03*
X3136200Y4270000D03*
X2983800D03*
X3333800D03*
X3153800Y4120000D03*
X3306200D03*
X3836200Y130000D03*
X3683800D03*
X3416200Y1200000D03*
X3643800Y1270000D03*
X3796200D03*
X3643800Y1120000D03*
X3796200D03*
X3763800Y4120000D03*
X3486200Y4270000D03*
X3906200Y4680000D03*
X3753800D03*
X4216200Y130000D03*
X4063800D03*
X4343800Y720000D03*
Y920000D03*
X4316200Y1490000D03*
X4163800D03*
X4343800Y1070000D03*
X4163800Y1340000D03*
X4316200D03*
Y1640000D03*
X4163800D03*
X4353800Y2120000D03*
X3916200Y4120000D03*
X4496200Y720000D03*
Y920000D03*
Y1070000D03*
X4443800Y1770000D03*
X4596200D03*
X4506200Y2120000D03*
X4503800Y2300000D03*
X4656200D03*
X4498660Y2517900D03*
X4651060D03*
X4493800Y2970000D03*
X4646200D03*
X4833800D03*
X4646200Y2670000D03*
X4493800D03*
X4646200Y2820000D03*
X4493800D03*
Y3480000D03*
X4646200D03*
Y3120000D03*
X4493800D03*
X4833800D03*
X4986200Y2970000D03*
Y3120000D03*
G54D11*
X315000Y710000D03*
X565000D03*
X815000D03*
X1315000D03*
X1065000D03*
X5350000Y515000D03*
G54D20*
X1880000Y1945000D03*
Y1895000D03*
Y1845000D03*
Y1795000D03*
Y2445000D03*
Y2395000D03*
Y2345000D03*
Y2295000D03*
Y2245000D03*
Y2195000D03*
Y2145000D03*
Y2095000D03*
Y2045000D03*
Y1995000D03*
Y2945000D03*
Y2895000D03*
Y2845000D03*
Y2795000D03*
Y2745000D03*
Y2695000D03*
Y2645000D03*
Y2595000D03*
Y2545000D03*
Y2495000D03*
Y3445000D03*
Y3395000D03*
Y3345000D03*
Y3295000D03*
Y3245000D03*
Y3195000D03*
Y3145000D03*
Y3095000D03*
Y3045000D03*
Y2995000D03*
Y3545000D03*
Y3495000D03*
X4080000Y1795000D03*
Y1845000D03*
Y1895000D03*
Y1945000D03*
Y1995000D03*
Y2045000D03*
Y2095000D03*
Y2145000D03*
Y2195000D03*
Y2245000D03*
Y2295000D03*
Y2345000D03*
Y2395000D03*
Y2445000D03*
Y2495000D03*
Y2545000D03*
Y2595000D03*
Y2645000D03*
Y2695000D03*
Y2745000D03*
Y2795000D03*
Y2845000D03*
Y2895000D03*
Y2945000D03*
Y2995000D03*
Y3045000D03*
Y3095000D03*
Y3145000D03*
Y3195000D03*
Y3245000D03*
Y3295000D03*
Y3345000D03*
Y3395000D03*
Y3445000D03*
Y3495000D03*
Y3545000D03*
G54D21*
X2450000Y220000D03*
X2940000D03*
X2690000D03*
X3200000D03*
G54D12*
X110000Y1090000D03*
X280000D03*
X110000Y1630000D03*
X280000D03*
X110000Y2160000D03*
X280000D03*
X110000Y2700000D03*
X280000D03*
X110000Y3630000D03*
X280000D03*
X110000Y4170000D03*
X280000D03*
X2255000Y4330000D03*
X2505000D03*
X5250000Y1630000D03*
Y2170000D03*
Y3620000D03*
Y4160000D03*
X5420000Y1630000D03*
Y2170000D03*
Y3620000D03*
Y4160000D03*
G54D30*
X4868400Y957000D03*
X5071600D03*
X4970000Y703000D03*
G54D40*
G01X1834000Y970000D02*
Y370000D01*
X54000D01*
Y970000D01*
X234000D01*
Y920000D01*
X394000D01*
Y970000D01*
X1494000D01*
Y920000D01*
X1654000D01*
Y970000D01*
X1834000D01*
G01X394000D02*
X234000D01*
G01X1654000D02*
X393840D01*
G01X54000D02*
X104000D01*
Y710000D01*
X54000D01*
G01X393840Y970000D02*
X734000D01*
G01X-40000Y1230000D02*
Y1510000D01*
X-80000D01*
Y1210000D01*
X-40000D01*
Y1230000D01*
G01X20000D02*
Y1490000D01*
X-80000D01*
Y1230000D01*
X20000D01*
G01X270000Y1290000D02*
Y1430000D01*
G03X240000Y1460000I-30000J0D01*
G01X120000D01*
Y1400000D01*
X210000D01*
Y1320000D01*
X120000D01*
Y1260000D01*
X240000D01*
G03X270000Y1290000I0J30000D01*
G01X20000Y1090000D02*
Y1630000D01*
X370000D01*
Y1090000D01*
X20000D01*
G01X-40000Y2300000D02*
Y2580000D01*
X-80000D01*
Y2280000D01*
X-40000D01*
Y2300000D01*
G01X20000D02*
Y2560000D01*
X-80000D01*
Y2300000D01*
X20000D01*
G01X270000Y2360000D02*
Y2500000D01*
G03X240000Y2530000I-30000J0D01*
G01X120000D01*
Y2470000D01*
X210000D01*
Y2390000D01*
X120000D01*
Y2330000D01*
X240000D01*
G03X270000Y2360000I0J30000D01*
G01X20000Y2160000D02*
Y2700000D01*
X370000D01*
Y2160000D01*
X20000D01*
G01X-40000Y3770000D02*
Y4050000D01*
X-80000D01*
Y3750000D01*
X-40000D01*
Y3770000D01*
G01X20000D02*
Y4030000D01*
X-80000D01*
Y3770000D01*
X20000D01*
G01X270000Y3830000D02*
Y3970000D01*
G03X240000Y4000000I-30000J0D01*
G01X120000D01*
Y3940000D01*
X210000D01*
Y3860000D01*
X120000D01*
Y3800000D01*
X240000D01*
G03X270000Y3830000I0J30000D01*
G01X20000Y3630000D02*
Y4170000D01*
X370000D01*
Y3630000D01*
X20000D01*
G01X1790000Y4760000D02*
Y4410000D01*
X370000D01*
Y4760000D01*
X1790000D01*
G01X1880000Y5210000D02*
G03I-800000J0D01*
G01X1010000Y-40000D02*
X730000D01*
Y-80000D01*
X1030000D01*
Y-40000D01*
X1010000D01*
G01Y20000D02*
X750000D01*
Y-80000D01*
X1010000D01*
Y20000D01*
G01X950000Y270000D02*
X810000D01*
G03X780000Y240000I0J-30000D01*
G01Y120000D01*
X840000D01*
Y210000D01*
X920000D01*
Y120000D01*
X980000D01*
Y240000D01*
G03X950000Y270000I-30000J0D01*
G01X1150000Y20000D02*
X610000D01*
Y370000D01*
X1150000D01*
Y20000D01*
G01X822000Y1267000D02*
Y1013000D01*
G01X1838000Y1267000D02*
X822000D01*
G01Y1013000D02*
X1838000D01*
G01X1784000Y970000D02*
Y710000D01*
X1834000D01*
G01X1838000Y1013000D02*
Y1267000D01*
G01X2570500Y4444300D02*
X2176800D01*
Y4215700D01*
X2583200D01*
Y4444300D01*
X2570500D01*
G01X3194000Y-20000D02*
X2454000D01*
Y480000D01*
X3194000D01*
Y-20000D01*
G01Y354000D02*
X2463000D01*
G01X3020000Y120000D02*
X2620000D01*
Y310000D01*
X3020000D01*
Y120000D01*
G01X2860000Y310000D02*
Y120000D01*
G01X2770000Y310000D02*
Y120000D01*
G01X2991080Y677440D02*
X3488920D01*
Y1002560D01*
X2991080D01*
Y677440D01*
G01X3255400Y4664300D02*
X3204600D01*
Y4435700D01*
X3255400D01*
Y4664300D01*
G01X3530000Y4700000D02*
Y4730000D01*
X2930000D01*
Y4370000D01*
X3530000D01*
Y4700000D01*
G01X3166500Y4626200D02*
Y4473800D01*
G01X3293500Y4626200D02*
Y4473800D01*
G01X3141100Y4550000D02*
X3166500D01*
G01X3318900D02*
X3293500D01*
G01X3930000Y660000D02*
G03X3850000I-40000J0D01*
G01D02*
X3770000D01*
Y980000D01*
X4010000D01*
Y660000D01*
X3930000D01*
G01X4010000Y4210000D02*
Y4590000D01*
X3850000D01*
Y4210000D01*
X4010000D01*
G01X3820000D02*
Y4590000D01*
X3660000D01*
Y4210000D01*
X3820000D01*
G01X5400000Y5200000D02*
G03I-610000J0D01*
G01X4800000Y-40000D02*
X4520000D01*
Y-80000D01*
X4820000D01*
Y-40000D01*
X4800000D01*
G01Y20000D02*
X4540000D01*
Y-80000D01*
X4800000D01*
Y20000D01*
G01X4740000Y270000D02*
X4600000D01*
G03X4570000Y240000I0J-30000D01*
G01Y120000D01*
X4630000D01*
Y210000D01*
X4710000D01*
Y120000D01*
X4770000D01*
Y240000D01*
G03X4740000Y270000I-30000J0D01*
G01X4940000Y20000D02*
X4400000D01*
Y370000D01*
X4940000D01*
Y20000D01*
G01X4500000Y1360000D02*
X4680000D01*
Y1600000D01*
X4500000D01*
Y1360000D01*
G01X4723800Y1071100D02*
X5193700D01*
Y1248900D01*
X4723800D01*
Y1071100D01*
G01X4850000Y5200000D02*
G03I-100000J0D01*
G01X5610000Y50000D02*
X5350000D01*
Y0D01*
G01X5610000D02*
X5010000D01*
Y780000D01*
X5610000D01*
G01X5448900Y883800D02*
Y1353700D01*
X5271100D01*
Y883800D01*
X5448900D01*
G01X5610000Y730000D02*
X5350000D01*
G01D02*
Y780000D01*
G01X5193700Y1071100D02*
X5231800D01*
Y1248900D01*
X5193700D01*
G01X4990500Y1172700D02*
X4965100D01*
Y1134600D01*
X4952400Y1121900D01*
Y1210800D01*
X4927000D01*
Y1109200D01*
X4952400D01*
X5003200Y1160000D01*
X4914300Y1248900D01*
Y1071100D01*
X5003200Y1160000D01*
X4965100D01*
G01X5003200Y1071100D02*
Y1248900D01*
G01X5448900Y1353700D02*
Y1391800D01*
X5271100D01*
Y1353700D01*
G01X5347300Y1150500D02*
Y1125100D01*
X5385400D01*
X5398100Y1112400D01*
X5309200D01*
Y1087000D01*
X5410800D01*
Y1112400D01*
X5360000Y1163200D01*
X5271100Y1074300D01*
X5448900D01*
X5360000Y1163200D01*
Y1125100D01*
G01X5448900Y1163200D02*
X5271100D01*
G01X5260000Y1970000D02*
Y1830000D01*
G03X5290000Y1800000I30000J0D01*
G01X5410000D01*
Y1860000D01*
X5320000D01*
Y1940000D01*
X5410000D01*
Y2000000D01*
X5290000D01*
G03X5260000Y1970000I0J-30000D01*
G01X5510000Y2170000D02*
Y1630000D01*
X5160000D01*
Y2170000D01*
X5510000D01*
G01X5260000Y3960000D02*
Y3820000D01*
G03X5290000Y3790000I30000J0D01*
G01X5410000D01*
Y3850000D01*
X5320000D01*
Y3930000D01*
X5410000D01*
Y3990000D01*
X5290000D01*
G03X5260000Y3960000I0J-30000D01*
G01X5510000Y4160000D02*
Y3620000D01*
X5160000D01*
Y4160000D01*
X5510000D01*
G01X5310000Y5270000D02*
Y5130000D01*
G01X5370000Y5200000D02*
X5240000D01*
G01X5380000D02*
G03I-70000J0D01*
G01X5610000Y280000D02*
Y600000D01*
G01Y780000D02*
Y340000D01*
X5560000D01*
Y180000D01*
X5610000D01*
Y0D01*
G01X5560000Y440000D02*
X5610000D01*
G01X5560000Y600000D02*
Y440000D01*
G01X5610000Y180000D02*
Y780000D01*
G01Y600000D02*
X5560000D01*
G01X5610000Y780000D02*
Y730000D01*
G01X5570000Y2030000D02*
Y1750000D01*
X5610000D01*
Y2050000D01*
X5570000D01*
Y2030000D01*
G01X5510000D02*
Y1770000D01*
X5610000D01*
Y2030000D01*
X5510000D01*
G01X5570000Y4020000D02*
Y3740000D01*
X5610000D01*
Y4040000D01*
X5570000D01*
Y4020000D01*
G01X5510000D02*
Y3760000D01*
X5610000D01*
Y4020000D01*
X5510000D01*
G54D22*
X2420780Y816500D03*
Y880000D03*
Y943500D03*
X2639220D03*
Y880000D03*
Y816500D03*
G54D31*
X4665000Y1405000D03*
Y1455000D03*
X4515000D03*
Y1405000D03*
X4665000Y1505000D03*
Y1555000D03*
X4515000D03*
Y1505000D03*
G54D13*
X610000Y110000D03*
Y280000D03*
X1150000Y110000D03*
Y280000D03*
X4400000Y110000D03*
Y280000D03*
X4940000Y110000D03*
Y280000D03*
G54D41*
G01X5390000Y0D02*
X140000D01*
G02X0Y140000I0J140000D01*
G01Y8560000D01*
G02X140000Y8700000I140000J0D01*
G01X5390000D01*
G02X5530000Y8560000I0J-140000D01*
G01Y140000D01*
G02X5390000Y0I-140000J0D01*
G01X450000Y230000D02*
Y320000D01*
X425000D01*
X417000Y315500D01*
X412000Y309500D01*
X410000Y297500D01*
X412000Y285500D01*
X418000Y278000D01*
X425000Y273500D01*
X450000D01*
G01X425000D02*
X410000Y230000D01*
G01X360000D02*
Y320000D01*
X372000Y302000D01*
G01Y230000D02*
X348000D01*
G01X278000D02*
Y320000D01*
X315000Y255500D01*
X265000D01*
G01X100000Y1360000D02*
G03I-40000J0D01*
G01X375000D02*
G03I-40000J0D01*
G01X414660Y1642000D02*
X405500Y1652670D01*
X400000Y1664670D01*
Y1675330D01*
X405500Y1686000D01*
X414660Y1694000D01*
X427500Y1698000D01*
X440330Y1695330D01*
X451330Y1688670D01*
X458670Y1676670D01*
X462330Y1660670D01*
X469670Y1651330D01*
X482500Y1647330D01*
X495330Y1650000D01*
X504500Y1656670D01*
X510000Y1666000D01*
Y1675330D01*
X506330Y1684670D01*
X497170Y1692670D01*
G01X510000Y1720000D02*
X400000Y1738670D01*
X510000Y1760000D01*
X400000Y1781330D01*
X510000Y1800000D01*
G01X400000Y1866000D02*
X510000D01*
X431170Y1816670D01*
Y1883330D01*
G01X424660Y2152000D02*
X415500Y2162670D01*
X410000Y2174670D01*
Y2185330D01*
X415500Y2196000D01*
X424660Y2204000D01*
X437500Y2208000D01*
X450330Y2205330D01*
X461330Y2198670D01*
X468670Y2186670D01*
X472330Y2170670D01*
X479670Y2161330D01*
X492500Y2157330D01*
X505330Y2160000D01*
X514500Y2166670D01*
X520000Y2176000D01*
Y2185330D01*
X516330Y2194670D01*
X507170Y2202670D01*
G01X520000Y2230000D02*
X410000Y2248670D01*
X520000Y2270000D01*
X410000Y2291330D01*
X520000Y2310000D01*
G01X432000Y2330670D02*
X419160Y2338670D01*
X411830Y2349330D01*
X410000Y2361330D01*
X411830Y2372000D01*
X421000Y2382670D01*
X432000Y2389330D01*
X443000Y2390670D01*
X455830Y2388000D01*
X465000Y2378670D01*
X468670Y2369330D01*
Y2357330D01*
G01Y2369330D02*
X474170Y2377330D01*
X483330Y2384000D01*
X494330Y2386670D01*
X505330Y2384000D01*
X514500Y2377330D01*
X520000Y2365330D01*
X518170Y2353330D01*
X510830Y2341330D01*
G01X100000Y2430000D02*
G03I-40000J0D01*
G01X375000D02*
G03I-40000J0D01*
G01X424660Y3622000D02*
X415500Y3632670D01*
X410000Y3644670D01*
Y3655330D01*
X415500Y3666000D01*
X424660Y3674000D01*
X437500Y3678000D01*
X450330Y3675330D01*
X461330Y3668670D01*
X468670Y3656670D01*
X472330Y3640670D01*
X479670Y3631330D01*
X492500Y3627330D01*
X505330Y3630000D01*
X514500Y3636670D01*
X520000Y3646000D01*
Y3655330D01*
X516330Y3664670D01*
X507170Y3672670D01*
G01X520000Y3700000D02*
X410000Y3718670D01*
X520000Y3740000D01*
X410000Y3761330D01*
X520000Y3780000D01*
G01X501670Y3804670D02*
X512660Y3812670D01*
X518170Y3822000D01*
X520000Y3832670D01*
X516330Y3846000D01*
X507170Y3855330D01*
X496170Y3858000D01*
X485160Y3856670D01*
X476000Y3851330D01*
X457670Y3824670D01*
X444830Y3812670D01*
X426500Y3804670D01*
X410000Y3802000D01*
Y3858000D01*
G01X100000Y3900000D02*
G03I-40000J0D01*
G01X375000D02*
G03I-40000J0D01*
G01X290670Y6620830D02*
X298670Y6626330D01*
X308000Y6630000D01*
X318670D01*
X330670Y6624500D01*
X340000Y6615330D01*
X346670Y6604330D01*
X352000Y6586000D01*
X353330Y6569500D01*
X350670Y6553000D01*
X346670Y6542000D01*
X338670Y6531000D01*
X329330Y6523670D01*
X320000Y6520000D01*
X310670D01*
X301330Y6523670D01*
X293330Y6529160D01*
X286670Y6536500D01*
G01X256670Y6630000D02*
Y6520000D01*
X203330D01*
G01X169330D02*
Y6630000D01*
G01X118670D02*
X169330Y6562160D01*
G01X110670Y6520000D02*
X146670Y6593330D01*
G01X920000Y60000D02*
G03I-40000J0D01*
G01Y335000D02*
G03I-40000J0D01*
G01X728000Y1252500D02*
X734000Y1257000D01*
X741000Y1260000D01*
X749000D01*
X758000Y1255500D01*
X765000Y1248000D01*
X770000Y1239000D01*
X774000Y1224000D01*
X775000Y1210500D01*
X773000Y1197000D01*
X770000Y1188000D01*
X764000Y1179000D01*
X757000Y1173000D01*
X750000Y1170000D01*
X743000D01*
X736000Y1173000D01*
X730000Y1177500D01*
X725000Y1183500D01*
G01X699000Y1245000D02*
X693000Y1254000D01*
X686000Y1258500D01*
X678000Y1260000D01*
X668000Y1257000D01*
X661000Y1249500D01*
X659000Y1240500D01*
X660000Y1231500D01*
X664000Y1224000D01*
X684000Y1209000D01*
X693000Y1198500D01*
X699000Y1183500D01*
X701000Y1170000D01*
X659000D01*
G01X610000Y1260000D02*
X618000Y1257000D01*
X624000Y1249500D01*
X628000Y1240500D01*
X631000Y1228500D01*
X632000Y1215000D01*
X631000Y1201500D01*
X628000Y1189500D01*
X624000Y1180500D01*
X618000Y1173000D01*
X610000Y1170000D01*
X602000Y1173000D01*
X596000Y1180500D01*
X592000Y1189500D01*
X589000Y1201500D01*
X588000Y1215000D01*
X589000Y1228500D01*
X592000Y1240500D01*
X596000Y1249500D01*
X602000Y1257000D01*
X610000Y1260000D01*
G01X540000Y1040000D02*
Y1130000D01*
X515000D01*
X507000Y1125500D01*
X502000Y1119500D01*
X500000Y1107500D01*
X502000Y1095500D01*
X508000Y1088000D01*
X515000Y1083500D01*
X540000D01*
G01X515000D02*
X500000Y1040000D01*
G01X438000D02*
Y1130000D01*
X475000Y1065500D01*
X425000D01*
G01X540000Y1170000D02*
Y1260000D01*
X515000D01*
X507000Y1255500D01*
X502000Y1249500D01*
X500000Y1237500D01*
X502000Y1225500D01*
X508000Y1218000D01*
X515000Y1213500D01*
X540000D01*
G01X515000D02*
X500000Y1170000D01*
G01X472000Y1183500D02*
X466000Y1176000D01*
X459000Y1171500D01*
X450000Y1170000D01*
X441000Y1173000D01*
X434000Y1179000D01*
X429000Y1189500D01*
X428000Y1201500D01*
X430000Y1213500D01*
X435000Y1221000D01*
X442000Y1227000D01*
X449000Y1228500D01*
X456000Y1227000D01*
X465000Y1221000D01*
X462000Y1260000D01*
X435000D01*
G01X760000Y1040000D02*
Y1130000D01*
X735000D01*
X727000Y1125500D01*
X722000Y1119500D01*
X720000Y1107500D01*
X722000Y1095500D01*
X728000Y1088000D01*
X735000Y1083500D01*
X760000D01*
G01X735000D02*
X720000Y1040000D01*
G01X670000D02*
Y1130000D01*
X682000Y1112000D01*
G01Y1040000D02*
X658000D01*
G01X600000D02*
Y1130000D01*
X612000Y1112000D01*
G01Y1040000D02*
X588000D01*
G01X922000Y6755000D02*
X895330D01*
Y6722000D01*
X903330Y6711000D01*
X912670Y6703670D01*
X926000Y6700000D01*
X939330Y6703670D01*
X948670Y6711000D01*
X956670Y6722000D01*
X962000Y6734830D01*
X964670Y6749500D01*
Y6762330D01*
X962000Y6773330D01*
X956670Y6786170D01*
X948670Y6797170D01*
X940670Y6804500D01*
X930000Y6810000D01*
X920670D01*
X910000Y6806330D01*
X902000Y6799000D01*
G01X870670Y6700000D02*
Y6810000D01*
X809330Y6700000D01*
Y6810000D01*
G01X779330Y6700000D02*
Y6810000D01*
X752670D01*
X742000Y6804500D01*
X734000Y6797170D01*
X727330Y6786170D01*
X722000Y6773330D01*
X720670Y6755000D01*
X722000Y6736670D01*
X727330Y6723830D01*
X734000Y6712830D01*
X742000Y6705500D01*
X752670Y6700000D01*
X779330D01*
G01X659330Y6520000D02*
Y6630000D01*
X632670D01*
X622000Y6624500D01*
X614000Y6617170D01*
X607330Y6606170D01*
X602000Y6593330D01*
X600670Y6575000D01*
X602000Y6556670D01*
X607330Y6543830D01*
X614000Y6532830D01*
X622000Y6525500D01*
X632670Y6520000D01*
X659330D01*
G01X556000Y6630000D02*
X524000D01*
G01X540000D02*
Y6520000D01*
G01X556000D02*
X524000D01*
G01X450000D02*
X460670Y6521830D01*
X470000Y6529160D01*
X478000Y6540170D01*
X483330Y6553000D01*
X486000Y6567670D01*
Y6582330D01*
X483330Y6597000D01*
X478000Y6609830D01*
X470000Y6620830D01*
X460670Y6628170D01*
X450000Y6630000D01*
X439330Y6628170D01*
X430000Y6620830D01*
X422000Y6609830D01*
X416670Y6597000D01*
X414000Y6582330D01*
Y6567670D01*
X416670Y6553000D01*
X422000Y6540170D01*
X430000Y6529160D01*
X439330Y6521830D01*
X450000Y6520000D01*
G01X920670D02*
Y6630000D01*
X859330Y6520000D01*
Y6630000D01*
G01X770670Y6620830D02*
X778670Y6626330D01*
X788000Y6630000D01*
X798670D01*
X810670Y6624500D01*
X820000Y6615330D01*
X826670Y6604330D01*
X832000Y6586000D01*
X833330Y6569500D01*
X830670Y6553000D01*
X826670Y6542000D01*
X818670Y6531000D01*
X809330Y6523670D01*
X800000Y6520000D01*
X790670D01*
X781330Y6523670D01*
X773330Y6529160D01*
X766670Y6536500D01*
G01X1511000Y242000D02*
X1503000Y234500D01*
X1494000Y230000D01*
X1486000D01*
X1478000Y234500D01*
X1472000Y242000D01*
X1469000Y252500D01*
X1471000Y263000D01*
X1476000Y272000D01*
X1485000Y278000D01*
X1497000Y281000D01*
X1504000Y287000D01*
X1507000Y297500D01*
X1505000Y308000D01*
X1500000Y315500D01*
X1493000Y320000D01*
X1486000D01*
X1479000Y317000D01*
X1473000Y309500D01*
G01X1450000Y320000D02*
X1436000Y230000D01*
X1420000Y320000D01*
X1404000Y230000D01*
X1390000Y320000D01*
G01X1372000Y243500D02*
X1366000Y236000D01*
X1359000Y231500D01*
X1350000Y230000D01*
X1341000Y233000D01*
X1334000Y239000D01*
X1329000Y249500D01*
X1328000Y261500D01*
X1330000Y273500D01*
X1335000Y281000D01*
X1342000Y287000D01*
X1349000Y288500D01*
X1356000Y287000D01*
X1365000Y281000D01*
X1362000Y320000D01*
X1335000D01*
G01X1390000Y1450000D02*
Y1540000D01*
X1365000D01*
X1357000Y1535500D01*
X1352000Y1529500D01*
X1350000Y1517500D01*
X1352000Y1505500D01*
X1358000Y1498000D01*
X1365000Y1493500D01*
X1390000D01*
G01X1365000D02*
X1350000Y1450000D01*
G01X1322000Y1468000D02*
X1316000Y1457500D01*
X1308000Y1451500D01*
X1299000Y1450000D01*
X1291000Y1451500D01*
X1283000Y1459000D01*
X1278000Y1468000D01*
X1277000Y1477000D01*
X1279000Y1487500D01*
X1286000Y1495000D01*
X1293000Y1498000D01*
X1302000D01*
G01X1293000D02*
X1287000Y1502500D01*
X1282000Y1510000D01*
X1280000Y1519000D01*
X1282000Y1528000D01*
X1287000Y1535500D01*
X1296000Y1540000D01*
X1305000Y1538500D01*
X1314000Y1532500D01*
G01X1220670Y2470830D02*
X1228670Y2476330D01*
X1238000Y2480000D01*
X1248670D01*
X1260670Y2474500D01*
X1270000Y2465330D01*
X1276670Y2454330D01*
X1282000Y2436000D01*
X1283330Y2419500D01*
X1280670Y2403000D01*
X1276670Y2392000D01*
X1268670Y2381000D01*
X1259330Y2373670D01*
X1250000Y2370000D01*
X1240670D01*
X1231330Y2373670D01*
X1223330Y2379160D01*
X1216670Y2386500D01*
G01X1160000Y2370000D02*
Y2480000D01*
X1176000Y2458000D01*
G01Y2370000D02*
X1144000D01*
G01X1099330Y2392000D02*
X1091330Y2379160D01*
X1080670Y2371830D01*
X1068670Y2370000D01*
X1058000Y2371830D01*
X1047330Y2381000D01*
X1040670Y2392000D01*
X1039330Y2403000D01*
X1042000Y2415830D01*
X1051330Y2425000D01*
X1060670Y2428670D01*
X1072670D01*
G01X1060670D02*
X1052670Y2434170D01*
X1046000Y2443330D01*
X1043330Y2454330D01*
X1046000Y2465330D01*
X1052670Y2474500D01*
X1064670Y2480000D01*
X1076670Y2478170D01*
X1088670Y2470830D01*
G01X1338000Y2064660D02*
X1327330Y2055500D01*
X1315330Y2050000D01*
X1304670D01*
X1294000Y2055500D01*
X1286000Y2064660D01*
X1282000Y2077500D01*
X1284670Y2090330D01*
X1291330Y2101330D01*
X1303330Y2108670D01*
X1319330Y2112330D01*
X1328670Y2119670D01*
X1332670Y2132500D01*
X1330000Y2145330D01*
X1323330Y2154500D01*
X1314000Y2160000D01*
X1304670D01*
X1295330Y2156330D01*
X1287330Y2147170D01*
G01X1220000Y2050000D02*
Y2160000D01*
X1236000Y2138000D01*
G01Y2050000D02*
X1204000D01*
G01X1220670Y2930830D02*
X1228670Y2936330D01*
X1238000Y2940000D01*
X1248670D01*
X1260670Y2934500D01*
X1270000Y2925330D01*
X1276670Y2914330D01*
X1282000Y2896000D01*
X1283330Y2879500D01*
X1280670Y2863000D01*
X1276670Y2852000D01*
X1268670Y2841000D01*
X1259330Y2833670D01*
X1250000Y2830000D01*
X1240670D01*
X1231330Y2833670D01*
X1223330Y2839160D01*
X1216670Y2846500D01*
G01X1160000Y2830000D02*
Y2940000D01*
X1176000Y2918000D01*
G01Y2830000D02*
X1144000D01*
G01X1095330Y2921670D02*
X1087330Y2932660D01*
X1078000Y2938170D01*
X1067330Y2940000D01*
X1054000Y2936330D01*
X1044670Y2927170D01*
X1042000Y2916170D01*
X1043330Y2905160D01*
X1048670Y2896000D01*
X1075330Y2877670D01*
X1087330Y2864830D01*
X1095330Y2846500D01*
X1098000Y2830000D01*
X1042000D01*
G01X1256670Y3280000D02*
Y3390000D01*
X1223330D01*
X1212670Y3384500D01*
X1206000Y3377170D01*
X1203330Y3362500D01*
X1206000Y3347830D01*
X1214000Y3338670D01*
X1223330Y3333170D01*
X1256670D01*
G01X1223330D02*
X1203330Y3280000D01*
G01X1162670Y3292830D02*
X1153330Y3283670D01*
X1142670Y3280000D01*
X1132000Y3283670D01*
X1122670Y3294660D01*
X1116000Y3311170D01*
X1113330Y3327670D01*
Y3347830D01*
X1116000Y3364330D01*
X1122670Y3379000D01*
X1130670Y3386330D01*
X1140000Y3390000D01*
X1150670Y3386330D01*
X1158670Y3379000D01*
X1164000Y3368000D01*
X1166670Y3353330D01*
X1164000Y3340500D01*
X1157330Y3327670D01*
X1149330Y3320330D01*
X1140000Y3318500D01*
X1129330Y3322160D01*
X1121330Y3331330D01*
X1113330Y3347830D01*
G01X1256670Y3430000D02*
Y3540000D01*
X1223330D01*
X1212670Y3534500D01*
X1206000Y3527170D01*
X1203330Y3512500D01*
X1206000Y3497830D01*
X1214000Y3488670D01*
X1223330Y3483170D01*
X1256670D01*
G01X1223330D02*
X1203330Y3430000D01*
G01X1165330Y3521670D02*
X1157330Y3532660D01*
X1148000Y3538170D01*
X1137330Y3540000D01*
X1124000Y3536330D01*
X1114670Y3527170D01*
X1112000Y3516170D01*
X1113330Y3505160D01*
X1118670Y3496000D01*
X1145330Y3477670D01*
X1157330Y3464830D01*
X1165330Y3446500D01*
X1168000Y3430000D01*
X1112000D01*
G01X1256670Y3130000D02*
Y3240000D01*
X1223330D01*
X1212670Y3234500D01*
X1206000Y3227170D01*
X1203330Y3212500D01*
X1206000Y3197830D01*
X1214000Y3188670D01*
X1223330Y3183170D01*
X1256670D01*
G01X1223330D02*
X1203330Y3130000D01*
G01X1140000D02*
Y3240000D01*
X1156000Y3218000D01*
G01Y3130000D02*
X1124000D01*
G01X1050000Y3240000D02*
X1060670Y3236330D01*
X1068670Y3227170D01*
X1074000Y3216170D01*
X1078000Y3201500D01*
X1079330Y3185000D01*
X1078000Y3168500D01*
X1074000Y3153830D01*
X1068670Y3142830D01*
X1060670Y3133670D01*
X1050000Y3130000D01*
X1039330Y3133670D01*
X1031330Y3142830D01*
X1026000Y3153830D01*
X1022000Y3168500D01*
X1020670Y3185000D01*
X1022000Y3201500D01*
X1026000Y3216170D01*
X1031330Y3227170D01*
X1039330Y3236330D01*
X1050000Y3240000D01*
G01X1210670Y3840830D02*
X1218670Y3846330D01*
X1228000Y3850000D01*
X1238670D01*
X1250670Y3844500D01*
X1260000Y3835330D01*
X1266670Y3824330D01*
X1272000Y3806000D01*
X1273330Y3789500D01*
X1270670Y3773000D01*
X1266670Y3762000D01*
X1258670Y3751000D01*
X1249330Y3743670D01*
X1240000Y3740000D01*
X1230670D01*
X1221330Y3743670D01*
X1213330Y3749160D01*
X1206670Y3756500D01*
G01X1150000Y3740000D02*
Y3850000D01*
X1166000Y3828000D01*
G01Y3740000D02*
X1134000D01*
G01X1060000D02*
Y3850000D01*
X1076000Y3828000D01*
G01Y3740000D02*
X1044000D01*
G01X1256670Y3580000D02*
Y3690000D01*
X1223330D01*
X1212670Y3684500D01*
X1206000Y3677170D01*
X1203330Y3662500D01*
X1206000Y3647830D01*
X1214000Y3638670D01*
X1223330Y3633170D01*
X1256670D01*
G01X1223330D02*
X1203330Y3580000D01*
G01X1140000D02*
Y3690000D01*
X1156000Y3668000D01*
G01Y3580000D02*
X1124000D01*
G01X1273330Y6810000D02*
X1240000Y6700000D01*
X1206670Y6810000D01*
G01X1120670Y6800830D02*
X1128670Y6806330D01*
X1138000Y6810000D01*
X1148670D01*
X1160670Y6804500D01*
X1170000Y6795330D01*
X1176670Y6784330D01*
X1182000Y6766000D01*
X1183330Y6749500D01*
X1180670Y6733000D01*
X1176670Y6722000D01*
X1168670Y6711000D01*
X1159330Y6703670D01*
X1150000Y6700000D01*
X1140670D01*
X1131330Y6703670D01*
X1123330Y6709160D01*
X1116670Y6716500D01*
G01X1030670Y6800830D02*
X1038670Y6806330D01*
X1048000Y6810000D01*
X1058670D01*
X1070670Y6804500D01*
X1080000Y6795330D01*
X1086670Y6784330D01*
X1092000Y6766000D01*
X1093330Y6749500D01*
X1090670Y6733000D01*
X1086670Y6722000D01*
X1078670Y6711000D01*
X1069330Y6703670D01*
X1060000Y6700000D01*
X1050670D01*
X1041330Y6703670D01*
X1033330Y6709160D01*
X1026670Y6716500D01*
G01X1266670Y6520000D02*
Y6630000D01*
X1233330D01*
X1222670Y6624500D01*
X1216000Y6617170D01*
X1213330Y6602500D01*
X1216000Y6587830D01*
X1224000Y6578670D01*
X1233330Y6573170D01*
X1266670D01*
G01X1233330D02*
X1213330Y6520000D01*
G01X1178000Y6534660D02*
X1167330Y6525500D01*
X1155330Y6520000D01*
X1144670D01*
X1134000Y6525500D01*
X1126000Y6534660D01*
X1122000Y6547500D01*
X1124670Y6560330D01*
X1131330Y6571330D01*
X1143330Y6578670D01*
X1159330Y6582330D01*
X1168670Y6589670D01*
X1172670Y6602500D01*
X1170000Y6615330D01*
X1163330Y6624500D01*
X1154000Y6630000D01*
X1144670D01*
X1135330Y6626330D01*
X1127330Y6617170D01*
G01X1060000Y6630000D02*
Y6520000D01*
G01X1090670Y6630000D02*
X1029330D01*
G01X1593330D02*
X1560000Y6520000D01*
X1526670Y6630000D01*
G01X1440670Y6620830D02*
X1448670Y6626330D01*
X1458000Y6630000D01*
X1468670D01*
X1480670Y6624500D01*
X1490000Y6615330D01*
X1496670Y6604330D01*
X1502000Y6586000D01*
X1503330Y6569500D01*
X1500670Y6553000D01*
X1496670Y6542000D01*
X1488670Y6531000D01*
X1479330Y6523670D01*
X1470000Y6520000D01*
X1460670D01*
X1451330Y6523670D01*
X1443330Y6529160D01*
X1436670Y6536500D01*
G01X1350670Y6620830D02*
X1358670Y6626330D01*
X1368000Y6630000D01*
X1378670D01*
X1390670Y6624500D01*
X1400000Y6615330D01*
X1406670Y6604330D01*
X1412000Y6586000D01*
X1413330Y6569500D01*
X1410670Y6553000D01*
X1406670Y6542000D01*
X1398670Y6531000D01*
X1389330Y6523670D01*
X1380000Y6520000D01*
X1370670D01*
X1361330Y6523670D01*
X1353330Y6529160D01*
X1346670Y6536500D01*
G01X1780000Y230000D02*
Y320000D01*
X1755000D01*
X1747000Y315500D01*
X1742000Y309500D01*
X1740000Y297500D01*
X1742000Y285500D01*
X1748000Y278000D01*
X1755000Y273500D01*
X1780000D01*
G01X1755000D02*
X1740000Y230000D01*
G01X1690000D02*
Y320000D01*
X1702000Y302000D01*
G01Y230000D02*
X1678000D01*
G01X1639000Y305000D02*
X1633000Y314000D01*
X1626000Y318500D01*
X1618000Y320000D01*
X1608000Y317000D01*
X1601000Y309500D01*
X1599000Y300500D01*
X1600000Y291500D01*
X1604000Y284000D01*
X1624000Y269000D01*
X1633000Y258500D01*
X1639000Y243500D01*
X1641000Y230000D01*
X1599000D01*
G01X2050000D02*
Y320000D01*
X2025000D01*
X2017000Y315500D01*
X2012000Y309500D01*
X2010000Y297500D01*
X2012000Y285500D01*
X2018000Y278000D01*
X2025000Y273500D01*
X2050000D01*
G01X2025000D02*
X2010000Y230000D01*
G01X1960000D02*
Y320000D01*
X1972000Y302000D01*
G01Y230000D02*
X1948000D01*
G01X1912000Y248000D02*
X1906000Y237500D01*
X1898000Y231500D01*
X1889000Y230000D01*
X1881000Y231500D01*
X1873000Y239000D01*
X1868000Y248000D01*
X1867000Y257000D01*
X1869000Y267500D01*
X1876000Y275000D01*
X1883000Y278000D01*
X1892000D01*
G01X1883000D02*
X1877000Y282500D01*
X1872000Y290000D01*
X1870000Y299000D01*
X1872000Y308000D01*
X1877000Y315500D01*
X1886000Y320000D01*
X1895000Y318500D01*
X1904000Y312500D01*
G01X1960000Y868000D02*
X1955000Y859000D01*
X1949000Y853000D01*
X1942000Y850000D01*
X1934000Y853000D01*
X1928000Y859000D01*
X1922000Y868000D01*
X1920000Y880000D01*
Y940000D01*
G01X1870000Y850000D02*
Y940000D01*
X1882000Y922000D01*
G01Y850000D02*
X1858000D01*
G01X1980000Y1208000D02*
X1975000Y1199000D01*
X1969000Y1193000D01*
X1962000Y1190000D01*
X1954000Y1193000D01*
X1948000Y1199000D01*
X1942000Y1208000D01*
X1940000Y1220000D01*
Y1280000D01*
G01X1909000Y1265000D02*
X1903000Y1274000D01*
X1896000Y1278500D01*
X1888000Y1280000D01*
X1878000Y1277000D01*
X1871000Y1269500D01*
X1869000Y1260500D01*
X1870000Y1251500D01*
X1874000Y1244000D01*
X1894000Y1229000D01*
X1903000Y1218500D01*
X1909000Y1203500D01*
X1911000Y1190000D01*
X1869000D01*
G01X1698000Y1842500D02*
X1704000Y1847000D01*
X1711000Y1850000D01*
X1719000D01*
X1728000Y1845500D01*
X1735000Y1838000D01*
X1740000Y1829000D01*
X1744000Y1814000D01*
X1745000Y1800500D01*
X1743000Y1787000D01*
X1740000Y1778000D01*
X1734000Y1769000D01*
X1727000Y1763000D01*
X1720000Y1760000D01*
X1713000D01*
X1706000Y1763000D01*
X1700000Y1767500D01*
X1695000Y1773500D01*
G01X1650000Y1760000D02*
Y1850000D01*
X1662000Y1832000D01*
G01Y1760000D02*
X1638000D01*
G01X1568000D02*
Y1850000D01*
X1605000Y1785500D01*
X1555000D01*
G01X1698000Y1722500D02*
X1704000Y1727000D01*
X1711000Y1730000D01*
X1719000D01*
X1728000Y1725500D01*
X1735000Y1718000D01*
X1740000Y1709000D01*
X1744000Y1694000D01*
X1745000Y1680500D01*
X1743000Y1667000D01*
X1740000Y1658000D01*
X1734000Y1649000D01*
X1727000Y1643000D01*
X1720000Y1640000D01*
X1713000D01*
X1706000Y1643000D01*
X1700000Y1647500D01*
X1695000Y1653500D01*
G01X1672000D02*
X1666000Y1646000D01*
X1659000Y1641500D01*
X1650000Y1640000D01*
X1641000Y1643000D01*
X1634000Y1649000D01*
X1629000Y1659500D01*
X1628000Y1671500D01*
X1630000Y1683500D01*
X1635000Y1691000D01*
X1642000Y1697000D01*
X1649000Y1698500D01*
X1656000Y1697000D01*
X1665000Y1691000D01*
X1662000Y1730000D01*
X1635000D01*
G01X1559330Y6100000D02*
Y6021170D01*
X1554000Y6004660D01*
X1543330Y5993670D01*
X1530000Y5990000D01*
X1516670Y5993670D01*
X1506000Y6004660D01*
X1500670Y6021170D01*
Y6100000D01*
G01X1465330Y6081670D02*
X1457330Y6092660D01*
X1448000Y6098170D01*
X1437330Y6100000D01*
X1424000Y6096330D01*
X1414670Y6087170D01*
X1412000Y6076170D01*
X1413330Y6065160D01*
X1418670Y6056000D01*
X1445330Y6037670D01*
X1457330Y6024830D01*
X1465330Y6006500D01*
X1468000Y5990000D01*
X1412000D01*
G01X1836670Y6710000D02*
Y6820000D01*
X1803330D01*
X1792670Y6814500D01*
X1786000Y6807170D01*
X1783330Y6792500D01*
X1786000Y6777830D01*
X1794000Y6768670D01*
X1803330Y6763170D01*
X1836670D01*
G01X1803330D02*
X1783330Y6710000D01*
G01X1748000D02*
X1692000Y6820000D01*
G01X1748000D02*
X1692000Y6710000D01*
G01X1520000Y6810000D02*
Y6700000D01*
G01X1550670Y6810000D02*
X1489330D01*
G01X1458000Y6700000D02*
X1402000Y6810000D01*
G01X1458000D02*
X1402000Y6700000D01*
G01X1872000Y6585000D02*
X1845330D01*
Y6552000D01*
X1853330Y6541000D01*
X1862670Y6533670D01*
X1876000Y6530000D01*
X1889330Y6533670D01*
X1898670Y6541000D01*
X1906670Y6552000D01*
X1912000Y6564830D01*
X1914670Y6579500D01*
Y6592330D01*
X1912000Y6603330D01*
X1906670Y6616170D01*
X1898670Y6627170D01*
X1890670Y6634500D01*
X1880000Y6640000D01*
X1870670D01*
X1860000Y6636330D01*
X1852000Y6629000D01*
G01X1820670Y6530000D02*
Y6640000D01*
X1759330Y6530000D01*
Y6640000D01*
G01X1729330Y6530000D02*
Y6640000D01*
X1702670D01*
X1692000Y6634500D01*
X1684000Y6627170D01*
X1677330Y6616170D01*
X1672000Y6603330D01*
X1670670Y6585000D01*
X1672000Y6566670D01*
X1677330Y6553830D01*
X1684000Y6542830D01*
X1692000Y6535500D01*
X1702670Y6530000D01*
X1729330D01*
G01X3860670Y8200000D02*
Y8310000D01*
X3799330Y8200000D01*
Y8310000D01*
G01X3773330Y8200000D02*
X3740000Y8310000D01*
X3706670Y8200000D01*
G01X3718670Y8238500D02*
X3761330D01*
G01X3684670Y8200000D02*
Y8310000D01*
X3650000Y8218330D01*
X3615330Y8310000D01*
Y8200000D01*
G01X3533330D02*
X3586670D01*
Y8310000D01*
X3533330D01*
G01X3554670Y8256830D02*
X3586670D01*
G01X3470000Y8196330D02*
X3472670Y8198170D01*
Y8201830D01*
X3470000Y8203670D01*
X3467330Y8201830D01*
Y8198170D01*
X3470000Y8196330D01*
G01Y8245830D02*
X3472670Y8247670D01*
Y8251330D01*
X3470000Y8253170D01*
X3467330Y8251330D01*
Y8247670D01*
X3470000Y8245830D01*
G01X3405330Y8200000D02*
Y8310000D01*
X3354670D01*
G01X3373330Y8256830D02*
X3405330D01*
G01X3274000Y8200000D02*
Y8310000D01*
X3323330Y8231170D01*
X3256670D01*
G01X3200000Y8310000D02*
X3210670Y8306330D01*
X3218670Y8297170D01*
X3224000Y8286170D01*
X3228000Y8271500D01*
X3229330Y8255000D01*
X3228000Y8238500D01*
X3224000Y8223830D01*
X3218670Y8212830D01*
X3210670Y8203670D01*
X3200000Y8200000D01*
X3189330Y8203670D01*
X3181330Y8212830D01*
X3176000Y8223830D01*
X3172000Y8238500D01*
X3170670Y8255000D01*
X3172000Y8271500D01*
X3176000Y8286170D01*
X3181330Y8297170D01*
X3189330Y8306330D01*
X3200000Y8310000D01*
G01X3112670Y8200000D02*
X3110000Y8223830D01*
X3106000Y8244000D01*
X3100670Y8262330D01*
X3094000Y8282500D01*
X3083330Y8310000D01*
X3136670D01*
G01X3060000Y8163330D02*
X2980000D01*
G01X2919330Y8258670D02*
X2914000Y8264170D01*
X2910000Y8273330D01*
X2907330Y8286170D01*
X2910000Y8297170D01*
X2915330Y8304500D01*
X2924670Y8310000D01*
X2960670D01*
Y8200000D01*
X2916670D01*
X2907330Y8207330D01*
X2902000Y8218330D01*
X2899330Y8231170D01*
X2902000Y8244000D01*
X2910000Y8255000D01*
X2919330Y8258670D01*
X2960670D01*
G01X2856000Y8310000D02*
X2824000D01*
G01X2840000D02*
Y8200000D01*
G01X2856000D02*
X2824000D01*
G01X2779330D02*
Y8310000D01*
G01X2728670D02*
X2779330Y8242160D01*
G01X2720670Y8200000D02*
X2756670Y8273330D01*
G01X2633330Y8200000D02*
X2686670D01*
Y8310000D01*
X2633330D01*
G01X2654670Y8256830D02*
X2686670D01*
G01X2610000Y8163330D02*
X2530000D01*
G01X2513330Y8310000D02*
X2480000Y8200000D01*
X2446670Y8310000D01*
G01X2390000Y8200000D02*
Y8310000D01*
X2406000Y8288000D01*
G01Y8200000D02*
X2374000D01*
G01X2300000Y8310000D02*
X2310670Y8306330D01*
X2318670Y8297170D01*
X2324000Y8286170D01*
X2328000Y8271500D01*
X2329330Y8255000D01*
X2328000Y8238500D01*
X2324000Y8223830D01*
X2318670Y8212830D01*
X2310670Y8203670D01*
X2300000Y8200000D01*
X2289330Y8203670D01*
X2281330Y8212830D01*
X2276000Y8223830D01*
X2272000Y8238500D01*
X2270670Y8255000D01*
X2272000Y8271500D01*
X2276000Y8286170D01*
X2281330Y8297170D01*
X2289330Y8306330D01*
X2300000Y8310000D01*
G01X2243330Y8200000D02*
X2210000Y8310000D01*
X2176670Y8200000D01*
G01X2188670Y8238500D02*
X2231330D01*
G01X2120000Y8196330D02*
X2122670Y8198170D01*
Y8201830D01*
X2120000Y8203670D01*
X2117330Y8201830D01*
Y8198170D01*
X2120000Y8196330D01*
G01X2019330Y8258670D02*
X2014000Y8264170D01*
X2010000Y8273330D01*
X2007330Y8286170D01*
X2010000Y8297170D01*
X2015330Y8304500D01*
X2024670Y8310000D01*
X2060670D01*
Y8200000D01*
X2016670D01*
X2007330Y8207330D01*
X2002000Y8218330D01*
X1999330Y8231170D01*
X2002000Y8244000D01*
X2010000Y8255000D01*
X2019330Y8258670D01*
X2060670D01*
G01X1966670Y8200000D02*
Y8310000D01*
X1933330D01*
X1922670Y8304500D01*
X1916000Y8297170D01*
X1913330Y8282500D01*
X1916000Y8267830D01*
X1924000Y8258670D01*
X1933330Y8253170D01*
X1966670D01*
G01X1933330D02*
X1913330Y8200000D01*
G01X1879330D02*
Y8310000D01*
X1852670D01*
X1842000Y8304500D01*
X1834000Y8297170D01*
X1827330Y8286170D01*
X1822000Y8273330D01*
X1820670Y8255000D01*
X1822000Y8236670D01*
X1827330Y8223830D01*
X1834000Y8212830D01*
X1842000Y8205500D01*
X1852670Y8200000D01*
X1879330D01*
G01X2470000Y1130000D02*
Y1220000D01*
X2445000D01*
X2437000Y1215500D01*
X2432000Y1209500D01*
X2430000Y1197500D01*
X2432000Y1185500D01*
X2438000Y1178000D01*
X2445000Y1173500D01*
X2470000D01*
G01X2445000D02*
X2430000Y1130000D01*
G01X2402000Y1143500D02*
X2396000Y1136000D01*
X2389000Y1131500D01*
X2380000Y1130000D01*
X2371000Y1133000D01*
X2364000Y1139000D01*
X2359000Y1149500D01*
X2358000Y1161500D01*
X2360000Y1173500D01*
X2365000Y1181000D01*
X2372000Y1187000D01*
X2379000Y1188500D01*
X2386000Y1187000D01*
X2395000Y1181000D01*
X2392000Y1220000D01*
X2365000D01*
G01X2310000Y1130000D02*
Y1220000D01*
X2322000Y1202000D01*
G01Y1130000D02*
X2298000D01*
G01X2470000Y1010000D02*
Y1100000D01*
X2445000D01*
X2437000Y1095500D01*
X2432000Y1089500D01*
X2430000Y1077500D01*
X2432000Y1065500D01*
X2438000Y1058000D01*
X2445000Y1053500D01*
X2470000D01*
G01X2445000D02*
X2430000Y1010000D01*
G01X2402000Y1023500D02*
X2396000Y1016000D01*
X2389000Y1011500D01*
X2380000Y1010000D01*
X2371000Y1013000D01*
X2364000Y1019000D01*
X2359000Y1029500D01*
X2358000Y1041500D01*
X2360000Y1053500D01*
X2365000Y1061000D01*
X2372000Y1067000D01*
X2379000Y1068500D01*
X2386000Y1067000D01*
X2395000Y1061000D01*
X2392000Y1100000D01*
X2365000D01*
G01X2329000Y1085000D02*
X2323000Y1094000D01*
X2316000Y1098500D01*
X2308000Y1100000D01*
X2298000Y1097000D01*
X2291000Y1089500D01*
X2289000Y1080500D01*
X2290000Y1071500D01*
X2294000Y1064000D01*
X2314000Y1049000D01*
X2323000Y1038500D01*
X2329000Y1023500D01*
X2331000Y1010000D01*
X2289000D01*
G01X2470000Y1250000D02*
Y1340000D01*
X2445000D01*
X2437000Y1335500D01*
X2432000Y1329500D01*
X2430000Y1317500D01*
X2432000Y1305500D01*
X2438000Y1298000D01*
X2445000Y1293500D01*
X2470000D01*
G01X2445000D02*
X2430000Y1250000D01*
G01X2402000Y1263500D02*
X2396000Y1256000D01*
X2389000Y1251500D01*
X2380000Y1250000D01*
X2371000Y1253000D01*
X2364000Y1259000D01*
X2359000Y1269500D01*
X2358000Y1281500D01*
X2360000Y1293500D01*
X2365000Y1301000D01*
X2372000Y1307000D01*
X2379000Y1308500D01*
X2386000Y1307000D01*
X2395000Y1301000D01*
X2392000Y1340000D01*
X2365000D01*
G01X2298000Y1250000D02*
Y1340000D01*
X2335000Y1275500D01*
X2285000D01*
G01X2470000Y1370000D02*
Y1460000D01*
X2445000D01*
X2437000Y1455500D01*
X2432000Y1449500D01*
X2430000Y1437500D01*
X2432000Y1425500D01*
X2438000Y1418000D01*
X2445000Y1413500D01*
X2470000D01*
G01X2445000D02*
X2430000Y1370000D01*
G01X2402000Y1383500D02*
X2396000Y1376000D01*
X2389000Y1371500D01*
X2380000Y1370000D01*
X2371000Y1373000D01*
X2364000Y1379000D01*
X2359000Y1389500D01*
X2358000Y1401500D01*
X2360000Y1413500D01*
X2365000Y1421000D01*
X2372000Y1427000D01*
X2379000Y1428500D01*
X2386000Y1427000D01*
X2395000Y1421000D01*
X2392000Y1460000D01*
X2365000D01*
G01X2329000Y1407500D02*
X2322000Y1418000D01*
X2316000Y1424000D01*
X2308000Y1427000D01*
X2301000Y1424000D01*
X2296000Y1418000D01*
X2292000Y1409000D01*
X2291000Y1398500D01*
X2292000Y1389500D01*
X2296000Y1380500D01*
X2302000Y1373000D01*
X2309000Y1370000D01*
X2317000Y1373000D01*
X2324000Y1382000D01*
X2328000Y1395500D01*
X2329000Y1410500D01*
X2327000Y1430000D01*
X2324000Y1440500D01*
X2319000Y1451000D01*
X2312000Y1458500D01*
X2305000Y1460000D01*
X2298000Y1457000D01*
X2293000Y1449500D01*
G01X2280670Y4020830D02*
X2288670Y4026330D01*
X2298000Y4030000D01*
X2308670D01*
X2320670Y4024500D01*
X2330000Y4015330D01*
X2336670Y4004330D01*
X2342000Y3986000D01*
X2343330Y3969500D01*
X2340670Y3953000D01*
X2336670Y3942000D01*
X2328670Y3931000D01*
X2319330Y3923670D01*
X2310000Y3920000D01*
X2300670D01*
X2291330Y3923670D01*
X2283330Y3929160D01*
X2276670Y3936500D01*
G01X2220000Y3920000D02*
Y4030000D01*
X2236000Y4008000D01*
G01Y3920000D02*
X2204000D01*
G01X2210670Y4680830D02*
X2218670Y4686330D01*
X2228000Y4690000D01*
X2238670D01*
X2250670Y4684500D01*
X2260000Y4675330D01*
X2266670Y4664330D01*
X2272000Y4646000D01*
X2273330Y4629500D01*
X2270670Y4613000D01*
X2266670Y4602000D01*
X2258670Y4591000D01*
X2249330Y4583670D01*
X2240000Y4580000D01*
X2230670D01*
X2221330Y4583670D01*
X2213330Y4589160D01*
X2206670Y4596500D01*
G01X2175330Y4671670D02*
X2167330Y4682660D01*
X2158000Y4688170D01*
X2147330Y4690000D01*
X2134000Y4686330D01*
X2124670Y4677170D01*
X2122000Y4666170D01*
X2123330Y4655160D01*
X2128670Y4646000D01*
X2155330Y4627670D01*
X2167330Y4614830D01*
X2175330Y4596500D01*
X2178000Y4580000D01*
X2122000D01*
G01X2060000D02*
X2050670Y4581830D01*
X2040000Y4587330D01*
X2033330Y4596500D01*
X2030670Y4609330D01*
X2033330Y4622160D01*
X2041330Y4633170D01*
X2053330Y4638670D01*
X2066670D01*
X2074670Y4642330D01*
X2081330Y4651500D01*
X2084000Y4664330D01*
X2080000Y4677170D01*
X2070670Y4686330D01*
X2060000Y4690000D01*
X2049330Y4686330D01*
X2040000Y4677170D01*
X2036000Y4664330D01*
X2038670Y4651500D01*
X2045330Y4642330D01*
X2053330Y4638670D01*
X2066670D01*
X2078670Y4633170D01*
X2086670Y4622160D01*
X2089330Y4609330D01*
X2086670Y4596500D01*
X2080000Y4587330D01*
X2069330Y4581830D01*
X2060000Y4580000D01*
G01X2190670Y5040830D02*
X2198670Y5046330D01*
X2208000Y5050000D01*
X2218670D01*
X2230670Y5044500D01*
X2240000Y5035330D01*
X2246670Y5024330D01*
X2252000Y5006000D01*
X2253330Y4989500D01*
X2250670Y4973000D01*
X2246670Y4962000D01*
X2238670Y4951000D01*
X2229330Y4943670D01*
X2220000Y4940000D01*
X2210670D01*
X2201330Y4943670D01*
X2193330Y4949160D01*
X2186670Y4956500D01*
G01X2155330Y5031670D02*
X2147330Y5042660D01*
X2138000Y5048170D01*
X2127330Y5050000D01*
X2114000Y5046330D01*
X2104670Y5037170D01*
X2102000Y5026170D01*
X2103330Y5015160D01*
X2108670Y5006000D01*
X2135330Y4987670D01*
X2147330Y4974830D01*
X2155330Y4956500D01*
X2158000Y4940000D01*
X2102000D01*
G01X2042670D02*
X2040000Y4963830D01*
X2036000Y4984000D01*
X2030670Y5002330D01*
X2024000Y5022500D01*
X2013330Y5050000D01*
X2066670D01*
G01X2702000Y690000D02*
Y625500D01*
X2698000Y612000D01*
X2690000Y603000D01*
X2680000Y600000D01*
X2670000Y603000D01*
X2662000Y612000D01*
X2658000Y625500D01*
Y690000D01*
G01X2631000Y612000D02*
X2623000Y604500D01*
X2614000Y600000D01*
X2606000D01*
X2598000Y604500D01*
X2592000Y612000D01*
X2589000Y622500D01*
X2591000Y633000D01*
X2596000Y642000D01*
X2605000Y648000D01*
X2617000Y651000D01*
X2624000Y657000D01*
X2627000Y667500D01*
X2625000Y678000D01*
X2620000Y685500D01*
X2613000Y690000D01*
X2606000D01*
X2599000Y687000D01*
X2593000Y679500D01*
G01X2532000Y648000D02*
X2528000Y652500D01*
X2525000Y660000D01*
X2523000Y670500D01*
X2525000Y679500D01*
X2529000Y685500D01*
X2536000Y690000D01*
X2563000D01*
Y600000D01*
X2530000D01*
X2523000Y606000D01*
X2519000Y615000D01*
X2517000Y625500D01*
X2519000Y636000D01*
X2525000Y645000D01*
X2532000Y648000D01*
X2563000D01*
G01X2470000Y600000D02*
Y690000D01*
X2482000Y672000D01*
G01Y600000D02*
X2458000D01*
G01X2949000Y890000D02*
Y980000D01*
X2911000D01*
G01X2925000Y936500D02*
X2949000D01*
G01X2860000Y890000D02*
Y980000D01*
X2872000Y962000D01*
G01Y890000D02*
X2848000D01*
G01X2712000Y1100000D02*
Y1035500D01*
X2708000Y1022000D01*
X2700000Y1013000D01*
X2690000Y1010000D01*
X2680000Y1013000D01*
X2672000Y1022000D01*
X2668000Y1035500D01*
Y1100000D01*
G01X2620000Y1010000D02*
Y1100000D01*
X2632000Y1082000D01*
G01Y1010000D02*
X2608000D01*
G01X2552000D02*
X2550000Y1029500D01*
X2547000Y1046000D01*
X2543000Y1061000D01*
X2538000Y1077500D01*
X2530000Y1100000D01*
X2570000D01*
G01X2948000Y1372500D02*
X2954000Y1377000D01*
X2961000Y1380000D01*
X2969000D01*
X2978000Y1375500D01*
X2985000Y1368000D01*
X2990000Y1359000D01*
X2994000Y1344000D01*
X2995000Y1330500D01*
X2993000Y1317000D01*
X2990000Y1308000D01*
X2984000Y1299000D01*
X2977000Y1293000D01*
X2970000Y1290000D01*
X2963000D01*
X2956000Y1293000D01*
X2950000Y1297500D01*
X2945000Y1303500D01*
G01X2900000Y1290000D02*
Y1380000D01*
X2912000Y1362000D01*
G01Y1290000D02*
X2888000D01*
G01X2849000Y1327500D02*
X2842000Y1338000D01*
X2836000Y1344000D01*
X2828000Y1347000D01*
X2821000Y1344000D01*
X2816000Y1338000D01*
X2812000Y1329000D01*
X2811000Y1318500D01*
X2812000Y1309500D01*
X2816000Y1300500D01*
X2822000Y1293000D01*
X2829000Y1290000D01*
X2837000Y1293000D01*
X2844000Y1302000D01*
X2848000Y1315500D01*
X2849000Y1330500D01*
X2847000Y1350000D01*
X2844000Y1360500D01*
X2839000Y1371000D01*
X2832000Y1378500D01*
X2825000Y1380000D01*
X2818000Y1377000D01*
X2813000Y1369500D01*
G01X2640670Y4020830D02*
X2648670Y4026330D01*
X2658000Y4030000D01*
X2668670D01*
X2680670Y4024500D01*
X2690000Y4015330D01*
X2696670Y4004330D01*
X2702000Y3986000D01*
X2703330Y3969500D01*
X2700670Y3953000D01*
X2696670Y3942000D01*
X2688670Y3931000D01*
X2679330Y3923670D01*
X2670000Y3920000D01*
X2660670D01*
X2651330Y3923670D01*
X2643330Y3929160D01*
X2636670Y3936500D01*
G01X2605330Y4011670D02*
X2597330Y4022660D01*
X2588000Y4028170D01*
X2577330Y4030000D01*
X2564000Y4026330D01*
X2554670Y4017170D01*
X2552000Y4006170D01*
X2553330Y3995160D01*
X2558670Y3986000D01*
X2585330Y3967670D01*
X2597330Y3954830D01*
X2605330Y3936500D01*
X2608000Y3920000D01*
X2552000D01*
G01X2758000Y4340000D02*
X2702000Y4450000D01*
G01X2758000D02*
X2702000Y4340000D01*
G01X2640000D02*
Y4450000D01*
X2656000Y4428000D01*
G01Y4340000D02*
X2624000D01*
G01X3859330Y7970000D02*
Y8080000D01*
X3832670D01*
X3822000Y8074500D01*
X3814000Y8067170D01*
X3807330Y8056170D01*
X3802000Y8043330D01*
X3800670Y8025000D01*
X3802000Y8006670D01*
X3807330Y7993830D01*
X3814000Y7982830D01*
X3822000Y7975500D01*
X3832670Y7970000D01*
X3859330D01*
G01X3773330D02*
X3740000Y8080000D01*
X3706670Y7970000D01*
G01X3718670Y8008500D02*
X3761330D01*
G01X3650000Y8080000D02*
Y7970000D01*
G01X3680670Y8080000D02*
X3619330D01*
G01X3533330Y7970000D02*
X3586670D01*
Y8080000D01*
X3533330D01*
G01X3554670Y8026830D02*
X3586670D01*
G01X3470000Y7966330D02*
X3472670Y7968170D01*
Y7971830D01*
X3470000Y7973670D01*
X3467330Y7971830D01*
Y7968170D01*
X3470000Y7966330D01*
G01Y8015830D02*
X3472670Y8017670D01*
Y8021330D01*
X3470000Y8023170D01*
X3467330Y8021330D01*
Y8017670D01*
X3470000Y8015830D01*
G01X3405330Y8061670D02*
X3397330Y8072660D01*
X3388000Y8078170D01*
X3377330Y8080000D01*
X3364000Y8076330D01*
X3354670Y8067170D01*
X3352000Y8056170D01*
X3353330Y8045160D01*
X3358670Y8036000D01*
X3385330Y8017670D01*
X3397330Y8004830D01*
X3405330Y7986500D01*
X3408000Y7970000D01*
X3352000D01*
G01X3290000Y8080000D02*
X3300670Y8076330D01*
X3308670Y8067170D01*
X3314000Y8056170D01*
X3318000Y8041500D01*
X3319330Y8025000D01*
X3318000Y8008500D01*
X3314000Y7993830D01*
X3308670Y7982830D01*
X3300670Y7973670D01*
X3290000Y7970000D01*
X3279330Y7973670D01*
X3271330Y7982830D01*
X3266000Y7993830D01*
X3262000Y8008500D01*
X3260670Y8025000D01*
X3262000Y8041500D01*
X3266000Y8056170D01*
X3271330Y8067170D01*
X3279330Y8076330D01*
X3290000Y8080000D01*
G01X3200000Y7970000D02*
Y8080000D01*
X3216000Y8058000D01*
G01Y7970000D02*
X3184000D01*
G01X3110000D02*
X3100670Y7971830D01*
X3090000Y7977330D01*
X3083330Y7986500D01*
X3080670Y7999330D01*
X3083330Y8012160D01*
X3091330Y8023170D01*
X3103330Y8028670D01*
X3116670D01*
X3124670Y8032330D01*
X3131330Y8041500D01*
X3134000Y8054330D01*
X3130000Y8067170D01*
X3120670Y8076330D01*
X3110000Y8080000D01*
X3099330Y8076330D01*
X3090000Y8067170D01*
X3086000Y8054330D01*
X3088670Y8041500D01*
X3095330Y8032330D01*
X3103330Y8028670D01*
X3116670D01*
X3128670Y8023170D01*
X3136670Y8012160D01*
X3139330Y7999330D01*
X3136670Y7986500D01*
X3130000Y7977330D01*
X3119330Y7971830D01*
X3110000Y7970000D01*
G01X3060000Y7933330D02*
X2980000D01*
G01X2930000Y8080000D02*
X2940670Y8076330D01*
X2948670Y8067170D01*
X2954000Y8056170D01*
X2958000Y8041500D01*
X2959330Y8025000D01*
X2958000Y8008500D01*
X2954000Y7993830D01*
X2948670Y7982830D01*
X2940670Y7973670D01*
X2930000Y7970000D01*
X2919330Y7973670D01*
X2911330Y7982830D01*
X2906000Y7993830D01*
X2902000Y8008500D01*
X2900670Y8025000D01*
X2902000Y8041500D01*
X2906000Y8056170D01*
X2911330Y8067170D01*
X2919330Y8076330D01*
X2930000Y8080000D01*
G01X2865330Y8061670D02*
X2857330Y8072660D01*
X2848000Y8078170D01*
X2837330Y8080000D01*
X2824000Y8076330D01*
X2814670Y8067170D01*
X2812000Y8056170D01*
X2813330Y8045160D01*
X2818670Y8036000D01*
X2845330Y8017670D01*
X2857330Y8004830D01*
X2865330Y7986500D01*
X2868000Y7970000D01*
X2812000D01*
G01X2790000Y7933330D02*
X2710000D01*
G01X2685330Y8061670D02*
X2677330Y8072660D01*
X2668000Y8078170D01*
X2657330Y8080000D01*
X2644000Y8076330D01*
X2634670Y8067170D01*
X2632000Y8056170D01*
X2633330Y8045160D01*
X2638670Y8036000D01*
X2665330Y8017670D01*
X2677330Y8004830D01*
X2685330Y7986500D01*
X2688000Y7970000D01*
X2632000D01*
G01X2595330Y8015830D02*
X2586000Y8028670D01*
X2578000Y8036000D01*
X2567330Y8039670D01*
X2558000Y8036000D01*
X2551330Y8028670D01*
X2546000Y8017670D01*
X2544670Y8004830D01*
X2546000Y7993830D01*
X2551330Y7982830D01*
X2559330Y7973670D01*
X2568670Y7970000D01*
X2579330Y7973670D01*
X2588670Y7984660D01*
X2594000Y8001170D01*
X2595330Y8019500D01*
X2592670Y8043330D01*
X2588670Y8056170D01*
X2582000Y8069000D01*
X2572670Y8078170D01*
X2563330Y8080000D01*
X2554000Y8076330D01*
X2547330Y8067170D01*
G01X3218000Y1372500D02*
X3224000Y1377000D01*
X3231000Y1380000D01*
X3239000D01*
X3248000Y1375500D01*
X3255000Y1368000D01*
X3260000Y1359000D01*
X3264000Y1344000D01*
X3265000Y1330500D01*
X3263000Y1317000D01*
X3260000Y1308000D01*
X3254000Y1299000D01*
X3247000Y1293000D01*
X3240000Y1290000D01*
X3233000D01*
X3226000Y1293000D01*
X3220000Y1297500D01*
X3215000Y1303500D01*
G01X3170000Y1290000D02*
Y1380000D01*
X3182000Y1362000D01*
G01Y1290000D02*
X3158000D01*
G01X3102000D02*
X3100000Y1309500D01*
X3097000Y1326000D01*
X3093000Y1341000D01*
X3088000Y1357500D01*
X3080000Y1380000D01*
X3120000D01*
G01X3560000Y1310000D02*
Y1400000D01*
X3535000D01*
X3527000Y1395500D01*
X3522000Y1389500D01*
X3520000Y1377500D01*
X3522000Y1365500D01*
X3528000Y1358000D01*
X3535000Y1353500D01*
X3560000D01*
G01X3535000D02*
X3520000Y1310000D01*
G01X3492000Y1323500D02*
X3486000Y1316000D01*
X3479000Y1311500D01*
X3470000Y1310000D01*
X3461000Y1313000D01*
X3454000Y1319000D01*
X3449000Y1329500D01*
X3448000Y1341500D01*
X3450000Y1353500D01*
X3455000Y1361000D01*
X3462000Y1367000D01*
X3469000Y1368500D01*
X3476000Y1367000D01*
X3485000Y1361000D01*
X3482000Y1400000D01*
X3455000D01*
G01X3402000Y1310000D02*
X3400000Y1329500D01*
X3397000Y1346000D01*
X3393000Y1361000D01*
X3388000Y1377500D01*
X3380000Y1400000D01*
X3420000D01*
G01X3560000Y1020000D02*
Y1110000D01*
X3535000D01*
X3527000Y1105500D01*
X3522000Y1099500D01*
X3520000Y1087500D01*
X3522000Y1075500D01*
X3528000Y1068000D01*
X3535000Y1063500D01*
X3560000D01*
G01X3535000D02*
X3520000Y1020000D01*
G01X3492000Y1033500D02*
X3486000Y1026000D01*
X3479000Y1021500D01*
X3470000Y1020000D01*
X3461000Y1023000D01*
X3454000Y1029000D01*
X3449000Y1039500D01*
X3448000Y1051500D01*
X3450000Y1063500D01*
X3455000Y1071000D01*
X3462000Y1077000D01*
X3469000Y1078500D01*
X3476000Y1077000D01*
X3485000Y1071000D01*
X3482000Y1110000D01*
X3455000D01*
G01X3400000Y1020000D02*
X3393000Y1021500D01*
X3385000Y1026000D01*
X3380000Y1033500D01*
X3378000Y1044000D01*
X3380000Y1054500D01*
X3386000Y1063500D01*
X3395000Y1068000D01*
X3405000D01*
X3411000Y1071000D01*
X3416000Y1078500D01*
X3418000Y1089000D01*
X3415000Y1099500D01*
X3408000Y1107000D01*
X3400000Y1110000D01*
X3392000Y1107000D01*
X3385000Y1099500D01*
X3382000Y1089000D01*
X3384000Y1078500D01*
X3389000Y1071000D01*
X3395000Y1068000D01*
X3405000D01*
X3414000Y1063500D01*
X3420000Y1054500D01*
X3422000Y1044000D01*
X3420000Y1033500D01*
X3415000Y1026000D01*
X3407000Y1021500D01*
X3400000Y1020000D01*
G01X2990670Y4020830D02*
X2998670Y4026330D01*
X3008000Y4030000D01*
X3018670D01*
X3030670Y4024500D01*
X3040000Y4015330D01*
X3046670Y4004330D01*
X3052000Y3986000D01*
X3053330Y3969500D01*
X3050670Y3953000D01*
X3046670Y3942000D01*
X3038670Y3931000D01*
X3029330Y3923670D01*
X3020000Y3920000D01*
X3010670D01*
X3001330Y3923670D01*
X2993330Y3929160D01*
X2986670Y3936500D01*
G01X2930000Y3920000D02*
X2920670Y3921830D01*
X2910000Y3927330D01*
X2903330Y3936500D01*
X2900670Y3949330D01*
X2903330Y3962160D01*
X2911330Y3973170D01*
X2923330Y3978670D01*
X2936670D01*
X2944670Y3982330D01*
X2951330Y3991500D01*
X2954000Y4004330D01*
X2950000Y4017170D01*
X2940670Y4026330D01*
X2930000Y4030000D01*
X2919330Y4026330D01*
X2910000Y4017170D01*
X2906000Y4004330D01*
X2908670Y3991500D01*
X2915330Y3982330D01*
X2923330Y3978670D01*
X2936670D01*
X2948670Y3973170D01*
X2956670Y3962160D01*
X2959330Y3949330D01*
X2956670Y3936500D01*
X2950000Y3927330D01*
X2939330Y3921830D01*
X2930000Y3920000D01*
G01X3356670D02*
Y4030000D01*
X3323330D01*
X3312670Y4024500D01*
X3306000Y4017170D01*
X3303330Y4002500D01*
X3306000Y3987830D01*
X3314000Y3978670D01*
X3323330Y3973170D01*
X3356670D01*
G01X3323330D02*
X3303330Y3920000D01*
G01X3265330Y3965830D02*
X3256000Y3978670D01*
X3248000Y3986000D01*
X3237330Y3989670D01*
X3228000Y3986000D01*
X3221330Y3978670D01*
X3216000Y3967670D01*
X3214670Y3954830D01*
X3216000Y3943830D01*
X3221330Y3932830D01*
X3229330Y3923670D01*
X3238670Y3920000D01*
X3249330Y3923670D01*
X3258670Y3934660D01*
X3264000Y3951170D01*
X3265330Y3969500D01*
X3262670Y3993330D01*
X3258670Y4006170D01*
X3252000Y4019000D01*
X3242670Y4028170D01*
X3233330Y4030000D01*
X3224000Y4026330D01*
X3217330Y4017170D01*
G01X3160670Y4870830D02*
X3168670Y4876330D01*
X3178000Y4880000D01*
X3188670D01*
X3200670Y4874500D01*
X3210000Y4865330D01*
X3216670Y4854330D01*
X3222000Y4836000D01*
X3223330Y4819500D01*
X3220670Y4803000D01*
X3216670Y4792000D01*
X3208670Y4781000D01*
X3199330Y4773670D01*
X3190000Y4770000D01*
X3180670D01*
X3171330Y4773670D01*
X3163330Y4779160D01*
X3156670Y4786500D01*
G01X3129330Y4792000D02*
X3121330Y4779160D01*
X3110670Y4771830D01*
X3098670Y4770000D01*
X3088000Y4771830D01*
X3077330Y4781000D01*
X3070670Y4792000D01*
X3069330Y4803000D01*
X3072000Y4815830D01*
X3081330Y4825000D01*
X3090670Y4828670D01*
X3102670D01*
G01X3090670D02*
X3082670Y4834170D01*
X3076000Y4843330D01*
X3073330Y4854330D01*
X3076000Y4865330D01*
X3082670Y4874500D01*
X3094670Y4880000D01*
X3106670Y4878170D01*
X3118670Y4870830D01*
G01X3350670D02*
X3358670Y4876330D01*
X3368000Y4880000D01*
X3378670D01*
X3390670Y4874500D01*
X3400000Y4865330D01*
X3406670Y4854330D01*
X3412000Y4836000D01*
X3413330Y4819500D01*
X3410670Y4803000D01*
X3406670Y4792000D01*
X3398670Y4781000D01*
X3389330Y4773670D01*
X3380000Y4770000D01*
X3370670D01*
X3361330Y4773670D01*
X3353330Y4779160D01*
X3346670Y4786500D01*
G01X3274000Y4770000D02*
Y4880000D01*
X3323330Y4801170D01*
X3256670D01*
G01X3298000Y4920000D02*
X3242000Y5030000D01*
G01X3298000D02*
X3242000Y4920000D01*
G01X3205330Y5011670D02*
X3197330Y5022660D01*
X3188000Y5028170D01*
X3177330Y5030000D01*
X3164000Y5026330D01*
X3154670Y5017170D01*
X3152000Y5006170D01*
X3153330Y4995160D01*
X3158670Y4986000D01*
X3185330Y4967670D01*
X3197330Y4954830D01*
X3205330Y4936500D01*
X3208000Y4920000D01*
X3152000D01*
G01X3648000Y392500D02*
X3654000Y397000D01*
X3661000Y400000D01*
X3669000D01*
X3678000Y395500D01*
X3685000Y388000D01*
X3690000Y379000D01*
X3694000Y364000D01*
X3695000Y350500D01*
X3693000Y337000D01*
X3690000Y328000D01*
X3684000Y319000D01*
X3677000Y313000D01*
X3670000Y310000D01*
X3663000D01*
X3656000Y313000D01*
X3650000Y317500D01*
X3645000Y323500D01*
G01X3622000D02*
X3616000Y316000D01*
X3609000Y311500D01*
X3600000Y310000D01*
X3591000Y313000D01*
X3584000Y319000D01*
X3579000Y329500D01*
X3578000Y341500D01*
X3580000Y353500D01*
X3585000Y361000D01*
X3592000Y367000D01*
X3599000Y368500D01*
X3606000Y367000D01*
X3615000Y361000D01*
X3612000Y400000D01*
X3585000D01*
G01X3530000D02*
X3538000Y397000D01*
X3544000Y389500D01*
X3548000Y380500D01*
X3551000Y368500D01*
X3552000Y355000D01*
X3551000Y341500D01*
X3548000Y329500D01*
X3544000Y320500D01*
X3538000Y313000D01*
X3530000Y310000D01*
X3522000Y313000D01*
X3516000Y320500D01*
X3512000Y329500D01*
X3509000Y341500D01*
X3508000Y355000D01*
X3509000Y368500D01*
X3512000Y380500D01*
X3516000Y389500D01*
X3522000Y397000D01*
X3530000Y400000D01*
G01X3890000Y210000D02*
Y300000D01*
X3865000D01*
X3857000Y295500D01*
X3852000Y289500D01*
X3850000Y277500D01*
X3852000Y265500D01*
X3858000Y258000D01*
X3865000Y253500D01*
X3890000D01*
G01X3865000D02*
X3850000Y210000D01*
G01X3822000Y223500D02*
X3816000Y216000D01*
X3809000Y211500D01*
X3800000Y210000D01*
X3791000Y213000D01*
X3784000Y219000D01*
X3779000Y229500D01*
X3778000Y241500D01*
X3780000Y253500D01*
X3785000Y261000D01*
X3792000Y267000D01*
X3799000Y268500D01*
X3806000Y267000D01*
X3815000Y261000D01*
X3812000Y300000D01*
X3785000D01*
G01X3730000D02*
X3738000Y297000D01*
X3744000Y289500D01*
X3748000Y280500D01*
X3751000Y268500D01*
X3752000Y255000D01*
X3751000Y241500D01*
X3748000Y229500D01*
X3744000Y220500D01*
X3738000Y213000D01*
X3730000Y210000D01*
X3722000Y213000D01*
X3716000Y220500D01*
X3712000Y229500D01*
X3709000Y241500D01*
X3708000Y255000D01*
X3709000Y268500D01*
X3712000Y280500D01*
X3716000Y289500D01*
X3722000Y297000D01*
X3730000Y300000D01*
G01X4052000Y1090000D02*
Y1025500D01*
X4048000Y1012000D01*
X4040000Y1003000D01*
X4030000Y1000000D01*
X4020000Y1003000D01*
X4012000Y1012000D01*
X4008000Y1025500D01*
Y1090000D01*
G01X3960000Y1000000D02*
Y1090000D01*
X3972000Y1072000D01*
G01Y1000000D02*
X3948000D01*
G01X3890000D02*
X3883000Y1001500D01*
X3875000Y1006000D01*
X3870000Y1013500D01*
X3868000Y1024000D01*
X3870000Y1034500D01*
X3876000Y1043500D01*
X3885000Y1048000D01*
X3895000D01*
X3901000Y1051000D01*
X3906000Y1058500D01*
X3908000Y1069000D01*
X3905000Y1079500D01*
X3898000Y1087000D01*
X3890000Y1090000D01*
X3882000Y1087000D01*
X3875000Y1079500D01*
X3872000Y1069000D01*
X3874000Y1058500D01*
X3879000Y1051000D01*
X3885000Y1048000D01*
X3895000D01*
X3904000Y1043500D01*
X3910000Y1034500D01*
X3912000Y1024000D01*
X3910000Y1013500D01*
X3905000Y1006000D01*
X3897000Y1001500D01*
X3890000Y1000000D01*
G01X3790800Y4400000D02*
X3689200D01*
G01X4038000Y402500D02*
X4044000Y407000D01*
X4051000Y410000D01*
X4059000D01*
X4068000Y405500D01*
X4075000Y398000D01*
X4080000Y389000D01*
X4084000Y374000D01*
X4085000Y360500D01*
X4083000Y347000D01*
X4080000Y338000D01*
X4074000Y329000D01*
X4067000Y323000D01*
X4060000Y320000D01*
X4053000D01*
X4046000Y323000D01*
X4040000Y327500D01*
X4035000Y333500D01*
G01X3978000Y320000D02*
Y410000D01*
X4015000Y345500D01*
X3965000D01*
G01X3937000Y330500D02*
X3930000Y323000D01*
X3922000Y320000D01*
X3914000Y323000D01*
X3907000Y332000D01*
X3902000Y345500D01*
X3900000Y359000D01*
Y375500D01*
X3902000Y389000D01*
X3907000Y401000D01*
X3913000Y407000D01*
X3920000Y410000D01*
X3928000Y407000D01*
X3934000Y401000D01*
X3938000Y392000D01*
X3940000Y380000D01*
X3938000Y369500D01*
X3933000Y359000D01*
X3927000Y353000D01*
X3920000Y351500D01*
X3912000Y354500D01*
X3906000Y362000D01*
X3900000Y375500D01*
G01X4270000Y220000D02*
Y310000D01*
X4245000D01*
X4237000Y305500D01*
X4232000Y299500D01*
X4230000Y287500D01*
X4232000Y275500D01*
X4238000Y268000D01*
X4245000Y263500D01*
X4270000D01*
G01X4245000D02*
X4230000Y220000D01*
G01X4168000D02*
Y310000D01*
X4205000Y245500D01*
X4155000D01*
G01X4110000Y220000D02*
X4103000Y221500D01*
X4095000Y226000D01*
X4090000Y233500D01*
X4088000Y244000D01*
X4090000Y254500D01*
X4096000Y263500D01*
X4105000Y268000D01*
X4115000D01*
X4121000Y271000D01*
X4126000Y278500D01*
X4128000Y289000D01*
X4125000Y299500D01*
X4118000Y307000D01*
X4110000Y310000D01*
X4102000Y307000D01*
X4095000Y299500D01*
X4092000Y289000D01*
X4094000Y278500D01*
X4099000Y271000D01*
X4105000Y268000D01*
X4115000D01*
X4124000Y263500D01*
X4130000Y254500D01*
X4132000Y244000D01*
X4130000Y233500D01*
X4125000Y226000D01*
X4117000Y221500D01*
X4110000Y220000D01*
G01X4560000Y540000D02*
Y630000D01*
X4535000D01*
X4527000Y625500D01*
X4522000Y619500D01*
X4520000Y607500D01*
X4522000Y595500D01*
X4528000Y588000D01*
X4535000Y583500D01*
X4560000D01*
G01X4535000D02*
X4520000Y540000D01*
G01X4492000Y553500D02*
X4486000Y546000D01*
X4479000Y541500D01*
X4470000Y540000D01*
X4461000Y543000D01*
X4454000Y549000D01*
X4449000Y559500D01*
X4448000Y571500D01*
X4450000Y583500D01*
X4455000Y591000D01*
X4462000Y597000D01*
X4469000Y598500D01*
X4476000Y597000D01*
X4485000Y591000D01*
X4482000Y630000D01*
X4455000D01*
G01X4417000Y550500D02*
X4410000Y543000D01*
X4402000Y540000D01*
X4394000Y543000D01*
X4387000Y552000D01*
X4382000Y565500D01*
X4380000Y579000D01*
Y595500D01*
X4382000Y609000D01*
X4387000Y621000D01*
X4393000Y627000D01*
X4400000Y630000D01*
X4408000Y627000D01*
X4414000Y621000D01*
X4418000Y612000D01*
X4420000Y600000D01*
X4418000Y589500D01*
X4413000Y579000D01*
X4407000Y573000D01*
X4400000Y571500D01*
X4392000Y574500D01*
X4386000Y582000D01*
X4380000Y595500D01*
G01X4070000Y1450000D02*
Y1540000D01*
X4045000D01*
X4037000Y1535500D01*
X4032000Y1529500D01*
X4030000Y1517500D01*
X4032000Y1505500D01*
X4038000Y1498000D01*
X4045000Y1493500D01*
X4070000D01*
G01X4045000D02*
X4030000Y1450000D01*
G01X3999000Y1487500D02*
X3992000Y1498000D01*
X3986000Y1504000D01*
X3978000Y1507000D01*
X3971000Y1504000D01*
X3966000Y1498000D01*
X3962000Y1489000D01*
X3961000Y1478500D01*
X3962000Y1469500D01*
X3966000Y1460500D01*
X3972000Y1453000D01*
X3979000Y1450000D01*
X3987000Y1453000D01*
X3994000Y1462000D01*
X3998000Y1475500D01*
X3999000Y1490500D01*
X3997000Y1510000D01*
X3994000Y1520500D01*
X3989000Y1531000D01*
X3982000Y1538500D01*
X3975000Y1540000D01*
X3968000Y1537000D01*
X3963000Y1529500D01*
G01X3898000Y1450000D02*
Y1540000D01*
X3935000Y1475500D01*
X3885000D01*
G01X4250000Y1160000D02*
Y1250000D01*
X4225000D01*
X4217000Y1245500D01*
X4212000Y1239500D01*
X4210000Y1227500D01*
X4212000Y1215500D01*
X4218000Y1208000D01*
X4225000Y1203500D01*
X4250000D01*
G01X4225000D02*
X4210000Y1160000D01*
G01X4179000Y1197500D02*
X4172000Y1208000D01*
X4166000Y1214000D01*
X4158000Y1217000D01*
X4151000Y1214000D01*
X4146000Y1208000D01*
X4142000Y1199000D01*
X4141000Y1188500D01*
X4142000Y1179500D01*
X4146000Y1170500D01*
X4152000Y1163000D01*
X4159000Y1160000D01*
X4167000Y1163000D01*
X4174000Y1172000D01*
X4178000Y1185500D01*
X4179000Y1200500D01*
X4177000Y1220000D01*
X4174000Y1230500D01*
X4169000Y1241000D01*
X4162000Y1248500D01*
X4155000Y1250000D01*
X4148000Y1247000D01*
X4143000Y1239500D01*
G01X4090000Y1160000D02*
Y1250000D01*
X4102000Y1232000D01*
G01Y1160000D02*
X4078000D01*
G01X4250000Y1050000D02*
Y1140000D01*
X4225000D01*
X4217000Y1135500D01*
X4212000Y1129500D01*
X4210000Y1117500D01*
X4212000Y1105500D01*
X4218000Y1098000D01*
X4225000Y1093500D01*
X4250000D01*
G01X4225000D02*
X4210000Y1050000D01*
G01X4179000Y1087500D02*
X4172000Y1098000D01*
X4166000Y1104000D01*
X4158000Y1107000D01*
X4151000Y1104000D01*
X4146000Y1098000D01*
X4142000Y1089000D01*
X4141000Y1078500D01*
X4142000Y1069500D01*
X4146000Y1060500D01*
X4152000Y1053000D01*
X4159000Y1050000D01*
X4167000Y1053000D01*
X4174000Y1062000D01*
X4178000Y1075500D01*
X4179000Y1090500D01*
X4177000Y1110000D01*
X4174000Y1120500D01*
X4169000Y1131000D01*
X4162000Y1138500D01*
X4155000Y1140000D01*
X4148000Y1137000D01*
X4143000Y1129500D01*
G01X4090000Y1140000D02*
X4098000Y1137000D01*
X4104000Y1129500D01*
X4108000Y1120500D01*
X4111000Y1108500D01*
X4112000Y1095000D01*
X4111000Y1081500D01*
X4108000Y1069500D01*
X4104000Y1060500D01*
X4098000Y1053000D01*
X4090000Y1050000D01*
X4082000Y1053000D01*
X4076000Y1060500D01*
X4072000Y1069500D01*
X4069000Y1081500D01*
X4068000Y1095000D01*
X4069000Y1108500D01*
X4072000Y1120500D01*
X4076000Y1129500D01*
X4082000Y1137000D01*
X4090000Y1140000D01*
G01X4070000Y1320000D02*
Y1410000D01*
X4045000D01*
X4037000Y1405500D01*
X4032000Y1399500D01*
X4030000Y1387500D01*
X4032000Y1375500D01*
X4038000Y1368000D01*
X4045000Y1363500D01*
X4070000D01*
G01X4045000D02*
X4030000Y1320000D01*
G01X3999000Y1357500D02*
X3992000Y1368000D01*
X3986000Y1374000D01*
X3978000Y1377000D01*
X3971000Y1374000D01*
X3966000Y1368000D01*
X3962000Y1359000D01*
X3961000Y1348500D01*
X3962000Y1339500D01*
X3966000Y1330500D01*
X3972000Y1323000D01*
X3979000Y1320000D01*
X3987000Y1323000D01*
X3994000Y1332000D01*
X3998000Y1345500D01*
X3999000Y1360500D01*
X3997000Y1380000D01*
X3994000Y1390500D01*
X3989000Y1401000D01*
X3982000Y1408500D01*
X3975000Y1410000D01*
X3968000Y1407000D01*
X3963000Y1399500D01*
G01X3929000Y1395000D02*
X3923000Y1404000D01*
X3916000Y1408500D01*
X3908000Y1410000D01*
X3898000Y1407000D01*
X3891000Y1399500D01*
X3889000Y1390500D01*
X3890000Y1381500D01*
X3894000Y1374000D01*
X3914000Y1359000D01*
X3923000Y1348500D01*
X3929000Y1333500D01*
X3931000Y1320000D01*
X3889000D01*
G01X4070000Y1580000D02*
Y1670000D01*
X4045000D01*
X4037000Y1665500D01*
X4032000Y1659500D01*
X4030000Y1647500D01*
X4032000Y1635500D01*
X4038000Y1628000D01*
X4045000Y1623500D01*
X4070000D01*
G01X4045000D02*
X4030000Y1580000D01*
G01X3999000Y1617500D02*
X3992000Y1628000D01*
X3986000Y1634000D01*
X3978000Y1637000D01*
X3971000Y1634000D01*
X3966000Y1628000D01*
X3962000Y1619000D01*
X3961000Y1608500D01*
X3962000Y1599500D01*
X3966000Y1590500D01*
X3972000Y1583000D01*
X3979000Y1580000D01*
X3987000Y1583000D01*
X3994000Y1592000D01*
X3998000Y1605500D01*
X3999000Y1620500D01*
X3997000Y1640000D01*
X3994000Y1650500D01*
X3989000Y1661000D01*
X3982000Y1668500D01*
X3975000Y1670000D01*
X3968000Y1667000D01*
X3963000Y1659500D01*
G01X3932000Y1598000D02*
X3926000Y1587500D01*
X3918000Y1581500D01*
X3909000Y1580000D01*
X3901000Y1581500D01*
X3893000Y1589000D01*
X3888000Y1598000D01*
X3887000Y1607000D01*
X3889000Y1617500D01*
X3896000Y1625000D01*
X3903000Y1628000D01*
X3912000D01*
G01X3903000D02*
X3897000Y1632500D01*
X3892000Y1640000D01*
X3890000Y1649000D01*
X3892000Y1658000D01*
X3897000Y1665500D01*
X3906000Y1670000D01*
X3915000Y1668500D01*
X3924000Y1662500D01*
G01X4358000Y2562500D02*
X4364000Y2567000D01*
X4371000Y2570000D01*
X4379000D01*
X4388000Y2565500D01*
X4395000Y2558000D01*
X4400000Y2549000D01*
X4404000Y2534000D01*
X4405000Y2520500D01*
X4403000Y2507000D01*
X4400000Y2498000D01*
X4394000Y2489000D01*
X4387000Y2483000D01*
X4380000Y2480000D01*
X4373000D01*
X4366000Y2483000D01*
X4360000Y2487500D01*
X4355000Y2493500D01*
G01X4310000Y2480000D02*
Y2570000D01*
X4322000Y2552000D01*
G01Y2480000D02*
X4298000D01*
G01X4262000Y2493500D02*
X4256000Y2486000D01*
X4249000Y2481500D01*
X4240000Y2480000D01*
X4231000Y2483000D01*
X4224000Y2489000D01*
X4219000Y2499500D01*
X4218000Y2511500D01*
X4220000Y2523500D01*
X4225000Y2531000D01*
X4232000Y2537000D01*
X4239000Y2538500D01*
X4246000Y2537000D01*
X4255000Y2531000D01*
X4252000Y2570000D01*
X4225000D01*
G01X4358000Y2342500D02*
X4364000Y2347000D01*
X4371000Y2350000D01*
X4379000D01*
X4388000Y2345500D01*
X4395000Y2338000D01*
X4400000Y2329000D01*
X4404000Y2314000D01*
X4405000Y2300500D01*
X4403000Y2287000D01*
X4400000Y2278000D01*
X4394000Y2269000D01*
X4387000Y2263000D01*
X4380000Y2260000D01*
X4373000D01*
X4366000Y2263000D01*
X4360000Y2267500D01*
X4355000Y2273500D01*
G01X4310000Y2260000D02*
Y2350000D01*
X4322000Y2332000D01*
G01Y2260000D02*
X4298000D01*
G01X4240000D02*
X4233000Y2261500D01*
X4225000Y2266000D01*
X4220000Y2273500D01*
X4218000Y2284000D01*
X4220000Y2294500D01*
X4226000Y2303500D01*
X4235000Y2308000D01*
X4245000D01*
X4251000Y2311000D01*
X4256000Y2318500D01*
X4258000Y2329000D01*
X4255000Y2339500D01*
X4248000Y2347000D01*
X4240000Y2350000D01*
X4232000Y2347000D01*
X4225000Y2339500D01*
X4222000Y2329000D01*
X4224000Y2318500D01*
X4229000Y2311000D01*
X4235000Y2308000D01*
X4245000D01*
X4254000Y2303500D01*
X4260000Y2294500D01*
X4262000Y2284000D01*
X4260000Y2273500D01*
X4255000Y2266000D01*
X4247000Y2261500D01*
X4240000Y2260000D01*
G01X4400000Y2930000D02*
Y3020000D01*
X4375000D01*
X4367000Y3015500D01*
X4362000Y3009500D01*
X4360000Y2997500D01*
X4362000Y2985500D01*
X4368000Y2978000D01*
X4375000Y2973500D01*
X4400000D01*
G01X4375000D02*
X4360000Y2930000D01*
G01X4332000Y2943500D02*
X4326000Y2936000D01*
X4319000Y2931500D01*
X4310000Y2930000D01*
X4301000Y2933000D01*
X4294000Y2939000D01*
X4289000Y2949500D01*
X4288000Y2961500D01*
X4290000Y2973500D01*
X4295000Y2981000D01*
X4302000Y2987000D01*
X4309000Y2988500D01*
X4316000Y2987000D01*
X4325000Y2981000D01*
X4322000Y3020000D01*
X4295000D01*
G01X4262000Y2948000D02*
X4256000Y2937500D01*
X4248000Y2931500D01*
X4239000Y2930000D01*
X4231000Y2931500D01*
X4223000Y2939000D01*
X4218000Y2948000D01*
X4217000Y2957000D01*
X4219000Y2967500D01*
X4226000Y2975000D01*
X4233000Y2978000D01*
X4242000D01*
G01X4233000D02*
X4227000Y2982500D01*
X4222000Y2990000D01*
X4220000Y2999000D01*
X4222000Y3008000D01*
X4227000Y3015500D01*
X4236000Y3020000D01*
X4245000Y3018500D01*
X4254000Y3012500D01*
G01X4390000Y2630000D02*
Y2720000D01*
X4365000D01*
X4357000Y2715500D01*
X4352000Y2709500D01*
X4350000Y2697500D01*
X4352000Y2685500D01*
X4358000Y2678000D01*
X4365000Y2673500D01*
X4390000D01*
G01X4365000D02*
X4350000Y2630000D01*
G01X4302000D02*
X4300000Y2649500D01*
X4297000Y2666000D01*
X4293000Y2681000D01*
X4288000Y2697500D01*
X4280000Y2720000D01*
X4320000D01*
G01X4390000Y2780000D02*
Y2870000D01*
X4365000D01*
X4357000Y2865500D01*
X4352000Y2859500D01*
X4350000Y2847500D01*
X4352000Y2835500D01*
X4358000Y2828000D01*
X4365000Y2823500D01*
X4390000D01*
G01X4365000D02*
X4350000Y2780000D01*
G01X4300000D02*
X4293000Y2781500D01*
X4285000Y2786000D01*
X4280000Y2793500D01*
X4278000Y2804000D01*
X4280000Y2814500D01*
X4286000Y2823500D01*
X4295000Y2828000D01*
X4305000D01*
X4311000Y2831000D01*
X4316000Y2838500D01*
X4318000Y2849000D01*
X4315000Y2859500D01*
X4308000Y2867000D01*
X4300000Y2870000D01*
X4292000Y2867000D01*
X4285000Y2859500D01*
X4282000Y2849000D01*
X4284000Y2838500D01*
X4289000Y2831000D01*
X4295000Y2828000D01*
X4305000D01*
X4314000Y2823500D01*
X4320000Y2814500D01*
X4322000Y2804000D01*
X4320000Y2793500D01*
X4315000Y2786000D01*
X4307000Y2781500D01*
X4300000Y2780000D01*
G01X4400000Y3080000D02*
Y3170000D01*
X4375000D01*
X4367000Y3165500D01*
X4362000Y3159500D01*
X4360000Y3147500D01*
X4362000Y3135500D01*
X4368000Y3128000D01*
X4375000Y3123500D01*
X4400000D01*
G01X4375000D02*
X4360000Y3080000D01*
G01X4298000D02*
Y3170000D01*
X4335000Y3105500D01*
X4285000D01*
G01X4242000Y3080000D02*
X4240000Y3099500D01*
X4237000Y3116000D01*
X4233000Y3131000D01*
X4228000Y3147500D01*
X4220000Y3170000D01*
X4260000D01*
G01X4362000Y3220000D02*
Y3310000D01*
X4342000D01*
X4334000Y3305500D01*
X4328000Y3299500D01*
X4323000Y3290500D01*
X4319000Y3280000D01*
X4318000Y3265000D01*
X4319000Y3250000D01*
X4323000Y3239500D01*
X4328000Y3230500D01*
X4334000Y3224500D01*
X4342000Y3220000D01*
X4362000D01*
G01X4270000D02*
X4263000Y3221500D01*
X4255000Y3226000D01*
X4250000Y3233500D01*
X4248000Y3244000D01*
X4250000Y3254500D01*
X4256000Y3263500D01*
X4265000Y3268000D01*
X4275000D01*
X4281000Y3271000D01*
X4286000Y3278500D01*
X4288000Y3289000D01*
X4285000Y3299500D01*
X4278000Y3307000D01*
X4270000Y3310000D01*
X4262000Y3307000D01*
X4255000Y3299500D01*
X4252000Y3289000D01*
X4254000Y3278500D01*
X4259000Y3271000D01*
X4265000Y3268000D01*
X4275000D01*
X4284000Y3263500D01*
X4290000Y3254500D01*
X4292000Y3244000D01*
X4290000Y3233500D01*
X4285000Y3226000D01*
X4277000Y3221500D01*
X4270000Y3220000D01*
G01X4099330Y3800000D02*
Y3721170D01*
X4094000Y3704660D01*
X4083330Y3693670D01*
X4070000Y3690000D01*
X4056670Y3693670D01*
X4046000Y3704660D01*
X4040670Y3721170D01*
Y3800000D01*
G01X3980000Y3690000D02*
Y3800000D01*
X3996000Y3778000D01*
G01Y3690000D02*
X3964000D01*
G01X4220670Y4170830D02*
X4228670Y4176330D01*
X4238000Y4180000D01*
X4248670D01*
X4260670Y4174500D01*
X4270000Y4165330D01*
X4276670Y4154330D01*
X4282000Y4136000D01*
X4283330Y4119500D01*
X4280670Y4103000D01*
X4276670Y4092000D01*
X4268670Y4081000D01*
X4259330Y4073670D01*
X4250000Y4070000D01*
X4240670D01*
X4231330Y4073670D01*
X4223330Y4079160D01*
X4216670Y4086500D01*
G01X4162670Y4070000D02*
X4160000Y4093830D01*
X4156000Y4114000D01*
X4150670Y4132330D01*
X4144000Y4152500D01*
X4133330Y4180000D01*
X4186670D01*
G01X4370000Y4243330D02*
X4260000D01*
Y4296670D01*
G01Y4360000D02*
X4370000D01*
X4348000Y4344000D01*
G01X4260000D02*
Y4376000D01*
G01X3980800Y4400000D02*
X3879200D01*
G01X4180000Y4243330D02*
X4070000D01*
Y4296670D01*
G01X4161670Y4334670D02*
X4172660Y4342670D01*
X4178170Y4352000D01*
X4180000Y4362670D01*
X4176330Y4376000D01*
X4167170Y4385330D01*
X4156170Y4388000D01*
X4145160Y4386670D01*
X4136000Y4381330D01*
X4117670Y4354670D01*
X4104830Y4342670D01*
X4086500Y4334670D01*
X4070000Y4332000D01*
Y4388000D01*
G01X4210670Y4730830D02*
X4218670Y4736330D01*
X4228000Y4740000D01*
X4238670D01*
X4250670Y4734500D01*
X4260000Y4725330D01*
X4266670Y4714330D01*
X4272000Y4696000D01*
X4273330Y4679500D01*
X4270670Y4663000D01*
X4266670Y4652000D01*
X4258670Y4641000D01*
X4249330Y4633670D01*
X4240000Y4630000D01*
X4230670D01*
X4221330Y4633670D01*
X4213330Y4639160D01*
X4206670Y4646500D01*
G01X4150000Y4630000D02*
Y4740000D01*
X4166000Y4718000D01*
G01Y4630000D02*
X4134000D01*
G01X4060000Y4740000D02*
X4070670Y4736330D01*
X4078670Y4727170D01*
X4084000Y4716170D01*
X4088000Y4701500D01*
X4089330Y4685000D01*
X4088000Y4668500D01*
X4084000Y4653830D01*
X4078670Y4642830D01*
X4070670Y4633670D01*
X4060000Y4630000D01*
X4049330Y4633670D01*
X4041330Y4642830D01*
X4036000Y4653830D01*
X4032000Y4668500D01*
X4030670Y4685000D01*
X4032000Y4701500D01*
X4036000Y4716170D01*
X4041330Y4727170D01*
X4049330Y4736330D01*
X4060000Y4740000D01*
G01X4951000Y412000D02*
X4943000Y404500D01*
X4934000Y400000D01*
X4926000D01*
X4918000Y404500D01*
X4912000Y412000D01*
X4909000Y422500D01*
X4911000Y433000D01*
X4916000Y442000D01*
X4925000Y448000D01*
X4937000Y451000D01*
X4944000Y457000D01*
X4947000Y467500D01*
X4945000Y478000D01*
X4940000Y485500D01*
X4933000Y490000D01*
X4926000D01*
X4919000Y487000D01*
X4913000Y479500D01*
G01X4890000Y490000D02*
X4876000Y400000D01*
X4860000Y490000D01*
X4844000Y400000D01*
X4830000Y490000D01*
G01X4809000Y437500D02*
X4802000Y448000D01*
X4796000Y454000D01*
X4788000Y457000D01*
X4781000Y454000D01*
X4776000Y448000D01*
X4772000Y439000D01*
X4771000Y428500D01*
X4772000Y419500D01*
X4776000Y410500D01*
X4782000Y403000D01*
X4789000Y400000D01*
X4797000Y403000D01*
X4804000Y412000D01*
X4808000Y425500D01*
X4809000Y440500D01*
X4807000Y460000D01*
X4804000Y470500D01*
X4799000Y481000D01*
X4792000Y488500D01*
X4785000Y490000D01*
X4778000Y487000D01*
X4773000Y479500D01*
G01X4710000Y60000D02*
G03I-40000J0D01*
G01Y335000D02*
G03I-40000J0D01*
G01X4720000Y770000D02*
X4728000Y771500D01*
X4735000Y777500D01*
X4741000Y786500D01*
X4745000Y797000D01*
X4747000Y809000D01*
Y821000D01*
X4745000Y833000D01*
X4741000Y843500D01*
X4735000Y852500D01*
X4728000Y858500D01*
X4720000Y860000D01*
X4712000Y858500D01*
X4705000Y852500D01*
X4699000Y843500D01*
X4695000Y833000D01*
X4693000Y821000D01*
Y809000D01*
X4695000Y797000D01*
X4699000Y786500D01*
X4705000Y777500D01*
X4712000Y771500D01*
X4720000Y770000D01*
G01X4712000Y794000D02*
X4700000Y770000D01*
G01X4672000Y788000D02*
X4666000Y777500D01*
X4658000Y771500D01*
X4649000Y770000D01*
X4641000Y771500D01*
X4633000Y779000D01*
X4628000Y788000D01*
X4627000Y797000D01*
X4629000Y807500D01*
X4636000Y815000D01*
X4643000Y818000D01*
X4652000D01*
G01X4643000D02*
X4637000Y822500D01*
X4632000Y830000D01*
X4630000Y839000D01*
X4632000Y848000D01*
X4637000Y855500D01*
X4646000Y860000D01*
X4655000Y858500D01*
X4664000Y852500D01*
G01X4922000Y568000D02*
X4918000Y572500D01*
X4915000Y580000D01*
X4913000Y590500D01*
X4915000Y599500D01*
X4919000Y605500D01*
X4926000Y610000D01*
X4953000D01*
Y520000D01*
X4920000D01*
X4913000Y526000D01*
X4909000Y535000D01*
X4907000Y545500D01*
X4909000Y556000D01*
X4915000Y565000D01*
X4922000Y568000D01*
X4953000D01*
G01X4885000Y520000D02*
X4860000Y610000D01*
X4835000Y520000D01*
G01X4844000Y551500D02*
X4876000D01*
G01X4790000Y610000D02*
Y520000D01*
G01X4813000Y610000D02*
X4767000D01*
G01X4720000Y520000D02*
Y610000D01*
X4732000Y592000D01*
G01Y520000D02*
X4708000D01*
G01X4592000Y1340000D02*
Y1275500D01*
X4588000Y1262000D01*
X4580000Y1253000D01*
X4570000Y1250000D01*
X4560000Y1253000D01*
X4552000Y1262000D01*
X4548000Y1275500D01*
Y1340000D01*
G01X4500000Y1250000D02*
Y1340000D01*
X4512000Y1322000D01*
G01Y1250000D02*
X4488000D01*
G01X4447000Y1260500D02*
X4440000Y1253000D01*
X4432000Y1250000D01*
X4424000Y1253000D01*
X4417000Y1262000D01*
X4412000Y1275500D01*
X4410000Y1289000D01*
Y1305500D01*
X4412000Y1319000D01*
X4417000Y1331000D01*
X4423000Y1337000D01*
X4430000Y1340000D01*
X4438000Y1337000D01*
X4444000Y1331000D01*
X4448000Y1322000D01*
X4450000Y1310000D01*
X4448000Y1299500D01*
X4443000Y1289000D01*
X4437000Y1283000D01*
X4430000Y1281500D01*
X4422000Y1284500D01*
X4416000Y1292000D01*
X4410000Y1305500D01*
G01X4702000Y1150000D02*
Y1240000D01*
X4682000D01*
X4674000Y1235500D01*
X4668000Y1229500D01*
X4663000Y1220500D01*
X4659000Y1210000D01*
X4658000Y1195000D01*
X4659000Y1180000D01*
X4663000Y1169500D01*
X4668000Y1160500D01*
X4674000Y1154500D01*
X4682000Y1150000D01*
X4702000D01*
G01X4610000D02*
Y1240000D01*
X4622000Y1222000D01*
G01Y1150000D02*
X4598000D01*
G01X4562000Y1168000D02*
X4556000Y1157500D01*
X4548000Y1151500D01*
X4539000Y1150000D01*
X4531000Y1151500D01*
X4523000Y1159000D01*
X4518000Y1168000D01*
X4517000Y1177000D01*
X4519000Y1187500D01*
X4526000Y1195000D01*
X4533000Y1198000D01*
X4542000D01*
G01X4533000D02*
X4527000Y1202500D01*
X4522000Y1210000D01*
X4520000Y1219000D01*
X4522000Y1228000D01*
X4527000Y1235500D01*
X4536000Y1240000D01*
X4545000Y1238500D01*
X4554000Y1232500D01*
G01X4940000Y1660000D02*
G03X4880000I-30000J0D01*
G01X4830000D01*
G01X5130000Y1490000D02*
Y1830000D01*
X4810000D01*
Y1490000D01*
X5130000D01*
G01X4938000Y2572500D02*
X4944000Y2577000D01*
X4951000Y2580000D01*
X4959000D01*
X4968000Y2575500D01*
X4975000Y2568000D01*
X4980000Y2559000D01*
X4984000Y2544000D01*
X4985000Y2530500D01*
X4983000Y2517000D01*
X4980000Y2508000D01*
X4974000Y2499000D01*
X4967000Y2493000D01*
X4960000Y2490000D01*
X4953000D01*
X4946000Y2493000D01*
X4940000Y2497500D01*
X4935000Y2503500D01*
G01X4890000Y2490000D02*
Y2580000D01*
X4902000Y2562000D01*
G01Y2490000D02*
X4878000D01*
G01X4837000Y2500500D02*
X4830000Y2493000D01*
X4822000Y2490000D01*
X4814000Y2493000D01*
X4807000Y2502000D01*
X4802000Y2515500D01*
X4800000Y2529000D01*
Y2545500D01*
X4802000Y2559000D01*
X4807000Y2571000D01*
X4813000Y2577000D01*
X4820000Y2580000D01*
X4828000Y2577000D01*
X4834000Y2571000D01*
X4838000Y2562000D01*
X4840000Y2550000D01*
X4838000Y2539500D01*
X4833000Y2529000D01*
X4827000Y2523000D01*
X4820000Y2521500D01*
X4812000Y2524500D01*
X4806000Y2532000D01*
X4800000Y2545500D01*
G01X4938000Y2812500D02*
X4944000Y2817000D01*
X4951000Y2820000D01*
X4959000D01*
X4968000Y2815500D01*
X4975000Y2808000D01*
X4980000Y2799000D01*
X4984000Y2784000D01*
X4985000Y2770500D01*
X4983000Y2757000D01*
X4980000Y2748000D01*
X4974000Y2739000D01*
X4967000Y2733000D01*
X4960000Y2730000D01*
X4953000D01*
X4946000Y2733000D01*
X4940000Y2737500D01*
X4935000Y2743500D01*
G01X4912000D02*
X4906000Y2736000D01*
X4899000Y2731500D01*
X4890000Y2730000D01*
X4881000Y2733000D01*
X4874000Y2739000D01*
X4869000Y2749500D01*
X4868000Y2761500D01*
X4870000Y2773500D01*
X4875000Y2781000D01*
X4882000Y2787000D01*
X4889000Y2788500D01*
X4896000Y2787000D01*
X4905000Y2781000D01*
X4902000Y2820000D01*
X4875000D01*
G01X4808000Y2730000D02*
Y2820000D01*
X4845000Y2755500D01*
X4795000D01*
G01X4938000Y2692500D02*
X4944000Y2697000D01*
X4951000Y2700000D01*
X4959000D01*
X4968000Y2695500D01*
X4975000Y2688000D01*
X4980000Y2679000D01*
X4984000Y2664000D01*
X4985000Y2650500D01*
X4983000Y2637000D01*
X4980000Y2628000D01*
X4974000Y2619000D01*
X4967000Y2613000D01*
X4960000Y2610000D01*
X4953000D01*
X4946000Y2613000D01*
X4940000Y2617500D01*
X4935000Y2623500D01*
G01X4909000Y2647500D02*
X4902000Y2658000D01*
X4896000Y2664000D01*
X4888000Y2667000D01*
X4881000Y2664000D01*
X4876000Y2658000D01*
X4872000Y2649000D01*
X4871000Y2638500D01*
X4872000Y2629500D01*
X4876000Y2620500D01*
X4882000Y2613000D01*
X4889000Y2610000D01*
X4897000Y2613000D01*
X4904000Y2622000D01*
X4908000Y2635500D01*
X4909000Y2650500D01*
X4907000Y2670000D01*
X4904000Y2680500D01*
X4899000Y2691000D01*
X4892000Y2698500D01*
X4885000Y2700000D01*
X4878000Y2697000D01*
X4873000Y2689500D01*
G01X4630670Y3690830D02*
X4638670Y3696330D01*
X4648000Y3700000D01*
X4658670D01*
X4670670Y3694500D01*
X4680000Y3685330D01*
X4686670Y3674330D01*
X4692000Y3656000D01*
X4693330Y3639500D01*
X4690670Y3623000D01*
X4686670Y3612000D01*
X4678670Y3601000D01*
X4669330Y3593670D01*
X4660000Y3590000D01*
X4650670D01*
X4641330Y3593670D01*
X4633330Y3599160D01*
X4626670Y3606500D01*
G01X4592670Y3602830D02*
X4583330Y3593670D01*
X4572670Y3590000D01*
X4562000Y3593670D01*
X4552670Y3604660D01*
X4546000Y3621170D01*
X4543330Y3637670D01*
Y3657830D01*
X4546000Y3674330D01*
X4552670Y3689000D01*
X4560670Y3696330D01*
X4570000Y3700000D01*
X4580670Y3696330D01*
X4588670Y3689000D01*
X4594000Y3678000D01*
X4596670Y3663330D01*
X4594000Y3650500D01*
X4587330Y3637670D01*
X4579330Y3630330D01*
X4570000Y3628500D01*
X4559330Y3632160D01*
X4551330Y3641330D01*
X4543330Y3657830D01*
G01X5108000Y4074660D02*
X5097330Y4065500D01*
X5085330Y4060000D01*
X5074670D01*
X5064000Y4065500D01*
X5056000Y4074660D01*
X5052000Y4087500D01*
X5054670Y4100330D01*
X5061330Y4111330D01*
X5073330Y4118670D01*
X5089330Y4122330D01*
X5098670Y4129670D01*
X5102670Y4142500D01*
X5100000Y4155330D01*
X5093330Y4164500D01*
X5084000Y4170000D01*
X5074670D01*
X5065330Y4166330D01*
X5057330Y4157170D01*
G01X5030000Y4170000D02*
X5011330Y4060000D01*
X4990000Y4170000D01*
X4968670Y4060000D01*
X4950000Y4170000D01*
G01X4900000Y4060000D02*
X4890670Y4061830D01*
X4880000Y4067330D01*
X4873330Y4076500D01*
X4870670Y4089330D01*
X4873330Y4102160D01*
X4881330Y4113170D01*
X4893330Y4118670D01*
X4906670D01*
X4914670Y4122330D01*
X4921330Y4131500D01*
X4924000Y4144330D01*
X4920000Y4157170D01*
X4910670Y4166330D01*
X4900000Y4170000D01*
X4889330Y4166330D01*
X4880000Y4157170D01*
X4876000Y4144330D01*
X4878670Y4131500D01*
X4885330Y4122330D01*
X4893330Y4118670D01*
X4906670D01*
X4918670Y4113170D01*
X4926670Y4102160D01*
X4929330Y4089330D01*
X4926670Y4076500D01*
X4920000Y4067330D01*
X4909330Y4061830D01*
X4900000Y4060000D01*
G01X5452000Y1420000D02*
Y1510000D01*
X5432000D01*
X5424000Y1505500D01*
X5418000Y1499500D01*
X5413000Y1490500D01*
X5409000Y1480000D01*
X5408000Y1465000D01*
X5409000Y1450000D01*
X5413000Y1439500D01*
X5418000Y1430500D01*
X5424000Y1424500D01*
X5432000Y1420000D01*
X5452000D01*
G01X5360000D02*
Y1510000D01*
X5372000Y1492000D01*
G01Y1420000D02*
X5348000D01*
G01X5309000Y1495000D02*
X5303000Y1504000D01*
X5296000Y1508500D01*
X5288000Y1510000D01*
X5278000Y1507000D01*
X5271000Y1499500D01*
X5269000Y1490500D01*
X5270000Y1481500D01*
X5274000Y1474000D01*
X5294000Y1459000D01*
X5303000Y1448500D01*
X5309000Y1433500D01*
X5311000Y1420000D01*
X5269000D01*
G01X5000000Y1660000D02*
G02X5060000I30000J0D01*
G01X5110000D01*
G01X5000000D02*
G03X4940000I-30000J0D01*
G01X5235000Y1900000D02*
G03I-40000J0D01*
G01X5190000Y2570000D02*
Y2480000D01*
X5150000D01*
G01X5117000Y2490500D02*
X5110000Y2483000D01*
X5102000Y2480000D01*
X5094000Y2483000D01*
X5087000Y2492000D01*
X5082000Y2505500D01*
X5080000Y2519000D01*
Y2535500D01*
X5082000Y2549000D01*
X5087000Y2561000D01*
X5093000Y2567000D01*
X5100000Y2570000D01*
X5108000Y2567000D01*
X5114000Y2561000D01*
X5118000Y2552000D01*
X5120000Y2540000D01*
X5118000Y2529500D01*
X5113000Y2519000D01*
X5107000Y2513000D01*
X5100000Y2511500D01*
X5092000Y2514500D01*
X5086000Y2522000D01*
X5080000Y2535500D01*
G01X5178000Y2432500D02*
X5184000Y2437000D01*
X5191000Y2440000D01*
X5199000D01*
X5208000Y2435500D01*
X5215000Y2428000D01*
X5220000Y2419000D01*
X5224000Y2404000D01*
X5225000Y2390500D01*
X5223000Y2377000D01*
X5220000Y2368000D01*
X5214000Y2359000D01*
X5207000Y2353000D01*
X5200000Y2350000D01*
X5193000D01*
X5186000Y2353000D01*
X5180000Y2357500D01*
X5175000Y2363500D01*
G01X5152000D02*
X5146000Y2356000D01*
X5139000Y2351500D01*
X5130000Y2350000D01*
X5121000Y2353000D01*
X5114000Y2359000D01*
X5109000Y2369500D01*
X5108000Y2381500D01*
X5110000Y2393500D01*
X5115000Y2401000D01*
X5122000Y2407000D01*
X5129000Y2408500D01*
X5136000Y2407000D01*
X5145000Y2401000D01*
X5142000Y2440000D01*
X5115000D01*
G01X5060000Y2350000D02*
Y2440000D01*
X5072000Y2422000D01*
G01Y2350000D02*
X5048000D01*
G01X5382000Y2309000D02*
X5374500Y2317000D01*
X5370000Y2326000D01*
Y2334000D01*
X5374500Y2342000D01*
X5382000Y2348000D01*
X5392500Y2351000D01*
X5403000Y2349000D01*
X5412000Y2344000D01*
X5418000Y2335000D01*
X5421000Y2323000D01*
X5427000Y2316000D01*
X5437500Y2313000D01*
X5448000Y2315000D01*
X5455500Y2320000D01*
X5460000Y2327000D01*
Y2334000D01*
X5457000Y2341000D01*
X5449500Y2347000D01*
G01X5460000Y2370000D02*
X5370000Y2384000D01*
X5460000Y2400000D01*
X5370000Y2416000D01*
X5460000Y2430000D01*
G01X5370000Y2468000D02*
X5389500Y2470000D01*
X5406000Y2473000D01*
X5421000Y2477000D01*
X5437500Y2482000D01*
X5460000Y2490000D01*
Y2450000D01*
G01X5178000Y2812500D02*
X5184000Y2817000D01*
X5191000Y2820000D01*
X5199000D01*
X5208000Y2815500D01*
X5215000Y2808000D01*
X5220000Y2799000D01*
X5224000Y2784000D01*
X5225000Y2770500D01*
X5223000Y2757000D01*
X5220000Y2748000D01*
X5214000Y2739000D01*
X5207000Y2733000D01*
X5200000Y2730000D01*
X5193000D01*
X5186000Y2733000D01*
X5180000Y2737500D01*
X5175000Y2743500D01*
G01X5152000D02*
X5146000Y2736000D01*
X5139000Y2731500D01*
X5130000Y2730000D01*
X5121000Y2733000D01*
X5114000Y2739000D01*
X5109000Y2749500D01*
X5108000Y2761500D01*
X5110000Y2773500D01*
X5115000Y2781000D01*
X5122000Y2787000D01*
X5129000Y2788500D01*
X5136000Y2787000D01*
X5145000Y2781000D01*
X5142000Y2820000D01*
X5115000D01*
G01X5079000Y2805000D02*
X5073000Y2814000D01*
X5066000Y2818500D01*
X5058000Y2820000D01*
X5048000Y2817000D01*
X5041000Y2809500D01*
X5039000Y2800500D01*
X5040000Y2791500D01*
X5044000Y2784000D01*
X5064000Y2769000D01*
X5073000Y2758500D01*
X5079000Y2743500D01*
X5081000Y2730000D01*
X5039000D01*
G01X5178000Y2692500D02*
X5184000Y2697000D01*
X5191000Y2700000D01*
X5199000D01*
X5208000Y2695500D01*
X5215000Y2688000D01*
X5220000Y2679000D01*
X5224000Y2664000D01*
X5225000Y2650500D01*
X5223000Y2637000D01*
X5220000Y2628000D01*
X5214000Y2619000D01*
X5207000Y2613000D01*
X5200000Y2610000D01*
X5193000D01*
X5186000Y2613000D01*
X5180000Y2617500D01*
X5175000Y2623500D01*
G01X5152000D02*
X5146000Y2616000D01*
X5139000Y2611500D01*
X5130000Y2610000D01*
X5121000Y2613000D01*
X5114000Y2619000D01*
X5109000Y2629500D01*
X5108000Y2641500D01*
X5110000Y2653500D01*
X5115000Y2661000D01*
X5122000Y2667000D01*
X5129000Y2668500D01*
X5136000Y2667000D01*
X5145000Y2661000D01*
X5142000Y2700000D01*
X5115000D01*
G01X5082000Y2628000D02*
X5076000Y2617500D01*
X5068000Y2611500D01*
X5059000Y2610000D01*
X5051000Y2611500D01*
X5043000Y2619000D01*
X5038000Y2628000D01*
X5037000Y2637000D01*
X5039000Y2647500D01*
X5046000Y2655000D01*
X5053000Y2658000D01*
X5062000D01*
G01X5053000D02*
X5047000Y2662500D01*
X5042000Y2670000D01*
X5040000Y2679000D01*
X5042000Y2688000D01*
X5047000Y2695500D01*
X5056000Y2700000D01*
X5065000Y2698500D01*
X5074000Y2692500D01*
G01X5316670Y2920000D02*
Y3030000D01*
X5283330D01*
X5272670Y3024500D01*
X5266000Y3017170D01*
X5263330Y3002500D01*
X5266000Y2987830D01*
X5274000Y2978670D01*
X5283330Y2973170D01*
X5316670D01*
G01X5283330D02*
X5263330Y2920000D01*
G01X5229330Y2936500D02*
X5221330Y2927330D01*
X5212000Y2921830D01*
X5200000Y2920000D01*
X5188000Y2923670D01*
X5178670Y2931000D01*
X5172000Y2943830D01*
X5170670Y2958500D01*
X5173330Y2973170D01*
X5180000Y2982330D01*
X5189330Y2989670D01*
X5198670Y2991500D01*
X5208000Y2989670D01*
X5220000Y2982330D01*
X5216000Y3030000D01*
X5180000D01*
G01X5139330Y2936500D02*
X5131330Y2927330D01*
X5122000Y2921830D01*
X5110000Y2920000D01*
X5098000Y2923670D01*
X5088670Y2931000D01*
X5082000Y2943830D01*
X5080670Y2958500D01*
X5083330Y2973170D01*
X5090000Y2982330D01*
X5099330Y2989670D01*
X5108670Y2991500D01*
X5118000Y2989670D01*
X5130000Y2982330D01*
X5126000Y3030000D01*
X5090000D01*
G01X5316670Y3060000D02*
Y3170000D01*
X5283330D01*
X5272670Y3164500D01*
X5266000Y3157170D01*
X5263330Y3142500D01*
X5266000Y3127830D01*
X5274000Y3118670D01*
X5283330Y3113170D01*
X5316670D01*
G01X5283330D02*
X5263330Y3060000D01*
G01X5184000D02*
Y3170000D01*
X5233330Y3091170D01*
X5166670D01*
G01X5132670Y3072830D02*
X5123330Y3063670D01*
X5112670Y3060000D01*
X5102000Y3063670D01*
X5092670Y3074660D01*
X5086000Y3091170D01*
X5083330Y3107670D01*
Y3127830D01*
X5086000Y3144330D01*
X5092670Y3159000D01*
X5100670Y3166330D01*
X5110000Y3170000D01*
X5120670Y3166330D01*
X5128670Y3159000D01*
X5134000Y3148000D01*
X5136670Y3133330D01*
X5134000Y3120500D01*
X5127330Y3107670D01*
X5119330Y3100330D01*
X5110000Y3098500D01*
X5099330Y3102160D01*
X5091330Y3111330D01*
X5083330Y3127830D01*
G01X5319330Y3210000D02*
Y3320000D01*
X5292670D01*
X5282000Y3314500D01*
X5274000Y3307170D01*
X5267330Y3296170D01*
X5262000Y3283330D01*
X5260670Y3265000D01*
X5262000Y3246670D01*
X5267330Y3233830D01*
X5274000Y3222830D01*
X5282000Y3215500D01*
X5292670Y3210000D01*
X5319330D01*
G01X5200000D02*
Y3320000D01*
X5216000Y3298000D01*
G01Y3210000D02*
X5184000D01*
G01X5110000Y3320000D02*
X5120670Y3316330D01*
X5128670Y3307170D01*
X5134000Y3296170D01*
X5138000Y3281500D01*
X5139330Y3265000D01*
X5138000Y3248500D01*
X5134000Y3233830D01*
X5128670Y3222830D01*
X5120670Y3213670D01*
X5110000Y3210000D01*
X5099330Y3213670D01*
X5091330Y3222830D01*
X5086000Y3233830D01*
X5082000Y3248500D01*
X5080670Y3265000D01*
X5082000Y3281500D01*
X5086000Y3296170D01*
X5091330Y3307170D01*
X5099330Y3316330D01*
X5110000Y3320000D01*
G01X5235000Y3890000D02*
G03I-40000J0D01*
G01X5314330Y5788670D02*
X5309000Y5794170D01*
X5305000Y5803330D01*
X5302330Y5816170D01*
X5305000Y5827170D01*
X5310330Y5834500D01*
X5319670Y5840000D01*
X5355670D01*
Y5730000D01*
X5311670D01*
X5302330Y5737330D01*
X5297000Y5748330D01*
X5294330Y5761170D01*
X5297000Y5774000D01*
X5305000Y5785000D01*
X5314330Y5788670D01*
X5355670D01*
G01X5235000Y5730000D02*
Y5840000D01*
X5251000Y5818000D01*
G01Y5730000D02*
X5219000D01*
G01X5510000Y1900000D02*
G03I-40000J0D01*
G01Y3890000D02*
G03I-40000J0D01*
G54D14*
X949000Y1140000D03*
G54D23*
X2105000Y1570000D03*
X2155000D03*
X2205000D03*
X2255000D03*
X2305000D03*
X2355000D03*
Y3770000D03*
X2305000D03*
X2255000D03*
X2205000D03*
X2155000D03*
X2105000D03*
X2405000Y1570000D03*
X2455000D03*
X2505000D03*
X2555000D03*
X2605000D03*
X2655000D03*
X2705000D03*
X2755000D03*
X2805000D03*
X2855000D03*
Y3770000D03*
X2805000D03*
X2755000D03*
X2705000D03*
X2655000D03*
X2605000D03*
X2555000D03*
X2505000D03*
X2455000D03*
X2405000D03*
X2905000Y1570000D03*
X2955000D03*
X3005000D03*
X3055000D03*
X3105000D03*
X3155000D03*
X3205000D03*
X3255000D03*
X3305000D03*
X3355000D03*
Y3770000D03*
X3305000D03*
X3255000D03*
X3205000D03*
X3155000D03*
X3105000D03*
X3055000D03*
X3005000D03*
X2955000D03*
X2905000D03*
X3405000Y1570000D03*
X3455000D03*
X3505000D03*
X3555000D03*
X3605000D03*
X3655000D03*
X3705000D03*
X3755000D03*
X3805000D03*
X3855000D03*
Y3770000D03*
X3805000D03*
X3755000D03*
X3705000D03*
X3655000D03*
X3605000D03*
X3555000D03*
X3505000D03*
X3455000D03*
X3405000D03*
G54D32*
X4787300Y1160000D03*
X5132700D03*
G54D42*
G01X730000Y2020000D02*
X1350000D01*
G01X730000Y1640000D02*
X1350000D01*
G54D15*
X717000Y1830000D03*
X1363000D03*
G54D33*
X4970000Y1775000D03*
Y1545000D03*
G54D24*
X2886000Y483000D03*
X2821000D03*
X2756000D03*
X2691000D03*
X2951000D03*
G54D16*
X1457000Y1140000D03*
X1203000D03*
X1711000D03*
X4370000Y5200000D03*
X5130000D03*
G54D34*
X4656200Y3270000D03*
X4503800D03*
X4843800D03*
X4996200D03*
G54D25*
X3380000Y840000D03*
X3100000D03*
G54D26*
X3040000Y4550000D03*
X3420000D03*
G54D17*
X1080000Y4420000D03*
Y6020000D03*
G54D35*
X5360000Y947300D03*
Y1292700D03*
G54D36*
G01X730000Y1940000D02*
Y2020000D01*
G01X1350000D02*
Y1940000D01*
G01X730000Y1720000D02*
Y1640000D01*
G01X1350000D02*
Y1720000D01*
G01X2020000Y3600000D02*
Y1710000D01*
X3940000D01*
Y3630000D01*
X2020000D01*
Y3590000D01*
G54D18*
X1565000Y710000D03*
X5350000Y265000D03*
G54D27*
X3890000Y820000D03*
G54D37*
G01X190300Y193500D02*
Y66500D01*
G01D02*
X469700D01*
Y193500D01*
X190300D01*
G01X470000Y4820000D02*
G03I-50000J0D01*
G01Y5620000D02*
G03I-50000J0D01*
G01X1950000Y6870000D02*
X690000D01*
Y6670000D01*
X80000D01*
Y6470000D01*
X1950000D01*
Y6870000D01*
G01Y6670000D02*
X80000D01*
G01X380000D02*
Y6470000D01*
G01X1079700Y1446500D02*
X800300D01*
G01X797760Y1573500D02*
G03Y1446500I73330J-63500D01*
G01X480300Y1423500D02*
Y1296500D01*
G01D02*
X759700D01*
Y1423500D01*
X480300D01*
G01Y1573500D02*
Y1446500D01*
G01D02*
X759700D01*
Y1573500D01*
X480300D01*
G01X800300Y1423500D02*
Y1296500D01*
G01D02*
X1079700D01*
Y1423500D01*
X800300D01*
G01Y1573500D02*
X1079700D01*
G01X690000Y6870000D02*
Y6470000D01*
G01X1290300Y193500D02*
Y66500D01*
G01D02*
X1569700D01*
Y193500D01*
X1290300D01*
G01X1079700Y1573500D02*
G02Y1446500I-71651J-63500D01*
G01X1399700Y1423500D02*
X1120300D01*
Y1296500D01*
X1399700D01*
G01X1609700Y2366500D02*
X1330300D01*
G01D02*
G02Y2493500I71651J63500D01*
G01X1609700Y2826500D02*
X1330300D01*
G01Y2953500D02*
X1609700D01*
G01X1330300Y2826500D02*
G02Y2953500I71651J63500D01*
G01Y2493500D02*
X1609700D01*
G01X1599700Y3403500D02*
X1320300D01*
Y3276500D01*
X1599700D01*
G01X1320300Y3553500D02*
Y3426500D01*
G01D02*
X1599700D01*
Y3553500D01*
X1320300D01*
G01X1599700Y3253500D02*
X1320300D01*
Y3126500D01*
X1599700D01*
G01Y3726500D02*
X1320300D01*
G01Y3853500D02*
X1599700D01*
G01X1320300Y3726500D02*
G02Y3853500I71651J63500D01*
G01Y3703500D02*
Y3576500D01*
G01D02*
X1599700D01*
Y3703500D01*
X1320300D01*
G01X1310000Y6870000D02*
Y6470000D01*
G01X990000Y6870000D02*
Y6470000D01*
G01X1670300Y193500D02*
Y66500D01*
G01D02*
X1949700D01*
Y193500D01*
X1670300D01*
G01X1835420Y1461280D02*
G02Y1298720I-106888J-81280D01*
G01X1462040Y1461280D02*
G03Y1298720I106888J-81280D01*
G01X1835420D02*
X1464580D01*
G01Y1461280D02*
X1835420D01*
G01X1399700Y1296500D02*
Y1423500D01*
G01X1829700Y1486500D02*
X1550300D01*
G01Y1613500D02*
X1829700D01*
G01X1832240Y1486500D02*
G03Y1613500I-73330J63500D01*
G01X1550300Y1486500D02*
G02Y1613500I71651J63500D01*
G01X1612240Y2366500D02*
G03Y2493500I-73330J63500D01*
G01Y2826500D02*
G03Y2953500I-73330J63500D01*
G01X1599700Y3276500D02*
Y3403500D01*
G01Y3126500D02*
Y3253500D01*
G01X1602240Y3726500D02*
G03Y3853500I-73330J63500D01*
G01X1640000Y6870000D02*
Y6470000D01*
G01X2279700Y436500D02*
Y563500D01*
G01D02*
X2000300D01*
Y436500D01*
X2279700D01*
G01X2364900Y778400D02*
X2695100D01*
Y981600D01*
X2364900D01*
Y778400D01*
G01X2279700Y586500D02*
Y713500D01*
G01D02*
X2000300D01*
Y586500D01*
X2279700D01*
G01Y736500D02*
Y863500D01*
G01D02*
X2000300D01*
Y736500D01*
X2279700D01*
G01Y886500D02*
Y1013500D01*
G01D02*
X2000300D01*
Y886500D01*
X2279700D01*
G01X2407760Y4183500D02*
G03Y4056500I73330J-63500D01*
G01X2339700D02*
X2060300D01*
G01Y4183500D02*
X2339700D01*
G01X2342240Y4056500D02*
G03Y4183500I-73330J63500D01*
G01X2060300Y4056500D02*
G02Y4183500I71651J63500D01*
G01X2609700Y4576500D02*
X2330300D01*
G01Y4703500D02*
X2609700D01*
G01X2330300Y4576500D02*
G02Y4703500I71651J63500D01*
G01X2312040Y5071280D02*
G03Y4908720I106888J-81280D01*
G01X2685420D02*
X2314580D01*
G01Y5071280D02*
X2685420D01*
G01X2504600Y803800D02*
G02X2555400I25400J0D01*
G01D02*
X2580800D01*
Y956200D01*
X2479200D01*
Y803800D01*
X2504600D01*
G01X2710300Y1253500D02*
X2989700D01*
G01Y1126500D02*
X2710300D01*
G01X2707760Y1253500D02*
G03Y1126500I73330J-63500D01*
G01X2410300Y4183500D02*
X2689700D01*
G01Y4056500D02*
X2410300D01*
G01X2689700Y4183500D02*
G02Y4056500I-71651J-63500D01*
G01X2760300Y4183500D02*
X3039700D01*
G01Y4056500D02*
X2760300D01*
G01X2757760Y4183500D02*
G03Y4056500I73330J-63500D01*
G01X2612240Y4576500D02*
G03Y4703500I-73330J63500D01*
G01X2685420Y5071280D02*
G02Y4908720I-106888J-81280D01*
G01X2989700Y1253500D02*
G02Y1126500I-71651J-63500D01*
G01X3479700Y1136500D02*
X3200300D01*
G01Y1263500D02*
X3479700D01*
G01X3200300Y1136500D02*
G02Y1263500I71651J63500D01*
G01X3039700Y4183500D02*
G02Y4056500I-71651J-63500D01*
G01X3199700Y4206500D02*
X2920300D01*
G01Y4333500D02*
X3199700D01*
G01X3202240Y4206500D02*
G03Y4333500I-73330J63500D01*
G01X2920300Y4206500D02*
G02Y4333500I71651J63500D01*
G01X3270300D02*
X3549700D01*
G01Y4206500D02*
X3270300D01*
G01X3267760Y4333500D02*
G03Y4206500I73330J-63500D01*
G01X3369700Y4056500D02*
Y4183500D01*
G01D02*
X3090300D01*
Y4056500D01*
X3369700D01*
G01X3484580Y428720D02*
G02Y591280I106888J81280D01*
G01X3857960Y428720D02*
G03Y591280I-106888J81280D01*
G01X3855420Y428720D02*
X3484580D01*
G01X3620300Y193500D02*
Y66500D01*
G01D02*
X3899700D01*
Y193500D01*
X3620300D01*
G01X3484580Y591280D02*
X3855420D01*
G01X3482240Y1136500D02*
G03Y1263500I-73330J63500D01*
G01X3859700Y1206500D02*
Y1333500D01*
G01D02*
X3580300D01*
Y1206500D01*
X3859700D01*
G01Y1056500D02*
Y1183500D01*
G01D02*
X3580300D01*
Y1056500D01*
X3859700D01*
G01X3979700Y4056500D02*
X3700300D01*
G01Y4183500D02*
X3979700D01*
G01X3700300Y4056500D02*
G02Y4183500I71651J63500D01*
G01X3549700Y4333500D02*
G02Y4206500I-71651J-63500D01*
G01X3969700Y4616500D02*
X3690300D01*
G01Y4743500D02*
X3969700D01*
G01X3690300Y4616500D02*
G02Y4743500I71651J63500D01*
G01X4305420Y591280D02*
G02Y428720I-106888J-81280D01*
G01X3932040Y591280D02*
G03Y428720I106888J-81280D01*
G01X4305420D02*
X3934580D01*
G01X4000300Y193500D02*
Y66500D01*
G01D02*
X4279700D01*
Y193500D01*
X4000300D01*
G01X3934580Y591280D02*
X4305420D01*
G01X4559700Y783500D02*
X4280300D01*
Y656500D01*
X4559700D01*
G01Y983500D02*
X4280300D01*
Y856500D01*
X4559700D01*
G01X4100300Y1553500D02*
Y1426500D01*
G01D02*
X4379700D01*
Y1553500D01*
X4100300D01*
G01X4280300Y1133500D02*
Y1006500D01*
G01D02*
X4559700D01*
Y1133500D01*
X4280300D01*
G01X4379700Y1403500D02*
X4100300D01*
Y1276500D01*
X4379700D01*
G01X4377760Y1833500D02*
G03Y1706500I73330J-63500D01*
G01X4284580Y1858720D02*
G02Y2021280I106888J81280D01*
G01X4655420Y1858720D02*
X4284580D01*
G01X4100300Y1703500D02*
Y1576500D01*
G01D02*
X4379700D01*
Y1703500D01*
X4100300D01*
G01X4290300Y2183500D02*
X4569700D01*
G01Y2056500D02*
X4290300D01*
G01X4287760Y2183500D02*
G03Y2056500I73330J-63500D01*
G01X4284580Y2021280D02*
X4655420D01*
G01X3982240Y4056500D02*
G03Y4183500I-73330J63500D01*
G01X3972240Y4616500D02*
G03Y4743500I-73330J63500D01*
G01X4775690Y957000D02*
X4805320D01*
Y987480D01*
X4796430Y997640D01*
X4786060Y1004410D01*
X4771250Y1007800D01*
X4756430Y1004410D01*
X4746060Y997640D01*
X4737170Y987480D01*
X4731240Y975630D01*
X4728280Y962080D01*
Y950230D01*
X4731240Y940070D01*
X4737170Y928210D01*
X4746060Y918050D01*
X4754950Y911280D01*
X4766800Y906200D01*
X4777170D01*
X4789020Y909590D01*
X4797920Y916360D01*
G01X4919200Y753800D02*
X4792200D01*
Y880800D01*
X5147800D01*
Y753800D01*
X5020800D01*
G01X4559700Y656500D02*
Y783500D01*
G01Y856500D02*
Y983500D01*
G01X4814580Y1298720D02*
G02Y1461280I106888J81280D01*
G01D02*
X5185420D01*
G01Y1298720D02*
X4814580D01*
G01X4379700Y1276500D02*
Y1403500D01*
G01X4380300Y1833500D02*
X4659700D01*
G01Y1706500D02*
X4380300D01*
G01X4659700Y1833500D02*
G02Y1706500I-71651J-63500D01*
G01X4714580Y1858720D02*
G02Y2021280I106888J81280D01*
G01X5085420Y1858720D02*
X4714580D01*
G01X4657960D02*
G03Y2021280I-106888J81280D01*
G01X4569700Y2183500D02*
G02Y2056500I-71651J-63500D01*
G01X4714560Y2454400D02*
X4435160D01*
G01X4432620Y2581400D02*
G03Y2454400I73330J-63500D01*
G01X4714560Y2581400D02*
G02Y2454400I-71651J-63500D01*
G01X4440300Y2363500D02*
X4719700D01*
G01Y2236500D02*
X4440300D01*
G01X4437760Y2363500D02*
G03Y2236500I73330J-63500D01*
G01X4719700Y2363500D02*
G02Y2236500I-71651J-63500D01*
G01X4714580Y2048720D02*
G02Y2211280I106888J81280D01*
G01D02*
X5085420D01*
G01Y2048720D02*
X4714580D01*
G01Y2021280D02*
X5085420D01*
G01X4435160Y2581400D02*
X4714560D01*
G01X4709700Y2906500D02*
Y3033500D01*
G01D02*
X4430300D01*
Y2906500D01*
X4709700D01*
G01X5049700Y3033500D02*
X4770300D01*
Y2906500D01*
X5049700D01*
G01X4430300Y2733500D02*
Y2606500D01*
G01D02*
X4709700D01*
Y2733500D01*
X4430300D01*
G01Y2883500D02*
Y2756500D01*
G01D02*
X4709700D01*
Y2883500D01*
X4430300D01*
G01X4709700Y3416500D02*
X4430300D01*
G01X4427760Y3543500D02*
G03Y3416500I73330J-63500D01*
G01X4709700Y3543500D02*
G02Y3416500I-71651J-63500D01*
G01X4430300Y3183500D02*
Y3056500D01*
G01D02*
X4709700D01*
Y3183500D01*
X4430300D01*
G01X4770300D02*
Y3056500D01*
G01D02*
X5049700D01*
Y3183500D01*
X4770300D01*
G01X4560000Y3270000D02*
X4600000Y3230000D01*
Y3310000D01*
X4560000Y3270000D01*
G01X4450000Y3210000D02*
X4410000D01*
Y3330000D01*
X4450000D01*
G01X4480000Y3210000D02*
X4710000D01*
Y3330000D01*
X4450000D01*
Y3210000D01*
X4480000D01*
G01X4790000D02*
X4750000D01*
Y3330000D01*
X4790000D01*
G01X4820000Y3210000D02*
X5050000D01*
Y3330000D01*
X4790000D01*
Y3210000D01*
X4820000D01*
G01X4430300Y3543500D02*
X4709700D01*
G01X5210000Y270000D02*
X5090000D01*
G01X5150000Y320000D02*
Y200000D01*
G01X5210000Y520000D02*
X5090000D01*
G01X5129380Y994260D02*
X5141240Y1002720D01*
X5154570Y1007800D01*
X5166430D01*
X5178280Y1002720D01*
X5187170Y994260D01*
X5191620Y982400D01*
X5188650Y970550D01*
X5181240Y960390D01*
X5167910Y953610D01*
X5150130Y950230D01*
X5139760Y943450D01*
X5135310Y931600D01*
X5138280Y919750D01*
X5145680Y911280D01*
X5156050Y906200D01*
X5166430D01*
X5176800Y909590D01*
X5185690Y918050D01*
G01X5026300Y728400D02*
Y626800D01*
X5055940D01*
X5067790Y631880D01*
X5076680Y638650D01*
X5084090Y648810D01*
X5090020Y660670D01*
X5091500Y677600D01*
X5090020Y694530D01*
X5084090Y706390D01*
X5076680Y716550D01*
X5067790Y723320D01*
X5055940Y728400D01*
X5026300D01*
G01X5187960Y1298720D02*
G03Y1461280I-106888J81280D01*
G01X5087960Y1858720D02*
G03Y2021280I-106888J81280D01*
G01Y2048720D02*
G03Y2211280I-106888J81280D01*
G01X5049700Y2906500D02*
Y3033500D01*
G01X4900000Y3270000D02*
X4940000Y3230000D01*
Y3310000D01*
X4900000Y3270000D01*
G54D19*
X1545860Y1380000D03*
X1754140D03*
X2395860Y4990000D03*
X2604140D03*
X3774140Y510000D03*
X3565860D03*
X4015860D03*
X4224140D03*
X4365860Y1940000D03*
X4895860Y1380000D03*
X4795860Y1940000D03*
X4574140D03*
X4795860Y2130000D03*
X5104140Y1380000D03*
X5004140Y1940000D03*
Y2130000D03*
G54D28*
X3660000Y920000D03*
Y870000D03*
Y820000D03*
Y770000D03*
Y720000D03*
X4120000D03*
Y770000D03*
Y820000D03*
Y870000D03*
Y920000D03*
G54D38*
G01X2650000Y430000D02*
G03I-30000J0D01*
G01X3050000D02*
G03I-30000J0D01*
G54D29*
X3930000Y4504140D03*
Y4295860D03*
X3740000Y4504140D03*
Y4295860D03*
G54D39*
G01X1155000Y4830000D02*
G03I-75000J0D01*
G01Y5580000D02*
G03I-75000J0D01*
M02*
