G04 ================== begin FILE IDENTIFICATION RECORD ==================*
G04 Layout Name:  F407_BIKE_V10A.brd*
G04 Film Name:    Drill_Legend*
G04 File Format:  Gerber RS274X*
G04 File Origin:  Cadence Allegro 17.2-S033*
G04 Origin Date:  Mon Feb 26 21:27:33 2018*
G04 *
G04 Layer:  BOARD GEOMETRY/OUTLINE*
G04 Layer:  MANUFACTURING/NCDRILL_FIGURE*
G04 Layer:  BOARD GEOMETRY/DIMENSION*
G04 Layer:  MANUFACTURING/NCDRILL_LEGEND*
G04 Layer:  MANUFACTURING/NCLEGEND-1-2*
G04 *
G04 Offset:    (0.0000 0.0000)*
G04 Mirror:    No*
G04 Mode:      Positive*
G04 Rotation:  0*
G04 FullContactRelief:  No*
G04 UndefLineWidth:     0.1524*
G04 ================== end FILE IDENTIFICATION RECORD ====================*
%FSLAX55Y55*MOMM*%
%IR0*IPPOS*OFA0.00000B0.00000*MIA0B0*SFA1.00000B1.00000*%
%AMMACRO11*
1,1,.1524,.21042,-.508*
20,1,.1524,.21042,-.508,-.21042,-.508,0.0*
1,1,.1524,-.21042,-.508*
20,1,.1524,-.21042,-.508,-.508,-.21042,0.0*
1,1,.1524,-.508,-.21042*
20,1,.1524,-.508,-.21042,-.508,.21042,0.0*
1,1,.1524,-.508,.21042*
20,1,.1524,-.508,.21042,-.21042,.508,0.0*
1,1,.1524,-.21042,.508*
20,1,.1524,-.21042,.508,.21042,.508,0.0*
1,1,.1524,.21042,.508*
20,1,.1524,.21042,.508,.508,.21042,0.0*
1,1,.1524,.508,.21042*
20,1,.1524,.508,.21042,.508,-.21042,0.0*
1,1,.1524,.508,-.21042*
20,1,.1524,.508,-.21042,.21042,-.508,0.0*
1,1,.1524,.21042,-.508*
%
%ADD11MACRO11*%
%AMMACRO10*
1,1,.1524,.1524,0.0*
20,1,.1524,.1524,0.0,-.1524,0.0,0.0*
1,1,.1524,-.1524,0.0*
1,1,.1524,0.0,.1524*
20,1,.1524,0.0,.1524,0.0,-.1524,0.0*
1,1,.1524,0.0,-.1524*
%
%ADD10MACRO10*%
%AMMACRO14*
1,1,.1524,.2286,.2286*
20,1,.1524,.2286,.2286,.2286,-.2286,0.0*
1,1,.1524,.2286,-.2286*
20,1,.1524,.2286,-.2286,-.2286,-.2286,0.0*
1,1,.1524,-.2286,-.2286*
20,1,.1524,-.2286,-.2286,-.2286,.2286,0.0*
1,1,.1524,-.2286,.2286*
20,1,.1524,-.2286,.2286,.2286,.2286,0.0*
1,1,.1524,.2286,.2286*
%
%ADD14MACRO14*%
%AMMACRO13*
1,1,.1524,.4445,0.0*
20,1,.1524,.4445,0.0,.22225,.384948,0.0*
1,1,.1524,.22225,.384948*
20,1,.1524,.22225,.384948,-.22225,.384948,0.0*
1,1,.1524,-.22225,.384948*
20,1,.1524,-.22225,.384948,-.4445,0.0,0.0*
1,1,.1524,-.4445,0.0*
20,1,.1524,-.4445,0.0,-.22225,-.384948,0.0*
1,1,.1524,-.22225,-.384948*
20,1,.1524,-.22225,-.384948,.22225,-.384948,0.0*
1,1,.1524,.22225,-.384948*
20,1,.1524,.22225,-.384948,.4445,0.0,0.0*
1,1,.1524,.4445,0.0*
%
%ADD13MACRO13*%
%AMMACRO12*
1,1,.1524,0.0,.4445*
20,1,.1524,0.0,.4445,-.384948,.22225,0.0*
1,1,.1524,-.384948,.22225*
20,1,.1524,-.384948,.22225,-.384948,-.22225,0.0*
1,1,.1524,-.384948,-.22225*
20,1,.1524,-.384948,-.22225,0.0,-.4445,0.0*
1,1,.1524,0.0,-.4445*
20,1,.1524,0.0,-.4445,.384948,-.22225,0.0*
1,1,.1524,.384948,-.22225*
20,1,.1524,.384948,-.22225,.384948,.22225,0.0*
1,1,.1524,.384948,.22225*
20,1,.1524,.384948,.22225,0.0,.4445,0.0*
1,1,.1524,0.0,.4445*
%
%ADD12MACRO12*%
%ADD15C,.2032*%
%ADD16C,.17*%
%ADD17C,.127*%
%ADD18C,.1524*%
G75*
%LPD*%
G75*
G54D10*
X100000Y300000D03*
Y460000D03*
X406200Y236200D03*
X229580Y240000D03*
X280000Y1980000D03*
Y1830000D03*
X320000Y3390000D03*
X330000Y3200000D03*
X160000Y3490000D03*
X420000Y3200000D03*
X418850Y3627620D03*
Y3827620D03*
Y4027620D03*
X410000Y4170000D03*
X328850Y4947620D03*
Y5147620D03*
Y5347620D03*
Y5547620D03*
X272380Y7930880D03*
X72380Y7928850D03*
X790000Y150000D03*
X780000Y360000D03*
X790000Y1980000D03*
X690000D03*
X880000Y2090000D03*
X790000D03*
X590000Y2780000D03*
Y3410000D03*
Y3110000D03*
X510000Y3340000D03*
X588850Y3627620D03*
Y3827620D03*
Y4027620D03*
X910000Y4170000D03*
X498850Y4947620D03*
Y5147620D03*
Y5347620D03*
Y5547620D03*
X468850Y6527620D03*
X638850D03*
X468850Y6927620D03*
X638850D03*
X468850Y6727620D03*
X638850D03*
X852380Y7298850D03*
Y7128850D03*
X652380Y7298850D03*
Y7128850D03*
X872380Y7928850D03*
X672380D03*
X472380D03*
X852380Y7708850D03*
Y7538850D03*
X652380Y7708850D03*
Y7538850D03*
X950000Y150000D03*
X980000Y360000D03*
X1338400Y240000D03*
X940000Y1610000D03*
X1170000Y1510000D03*
X1330000D03*
X970000Y2090000D03*
X1110000Y2660000D03*
X1390000Y2778160D03*
X1280000Y3410000D03*
Y3640000D03*
Y3510000D03*
X1078850Y5217620D03*
Y5017620D03*
Y5417620D03*
X1077620Y5721150D03*
X1277620D03*
X1287620Y6811150D03*
X1052380Y7298850D03*
X1252380D03*
X1052380Y7128850D03*
X1252380D03*
X1272380Y7928850D03*
X1072380D03*
X1052380Y7708850D03*
X1252380D03*
X1052380Y7538850D03*
X1252380D03*
X1470000Y240000D03*
X1718400Y238400D03*
X1650000Y970000D03*
X1810000D03*
X1900000Y760000D03*
X1560000Y1827000D03*
X1680000Y2895000D03*
X1460000Y2590000D03*
X1563000D03*
X1536200Y3940000D03*
X1670000Y3560000D03*
X1680000Y4894000D03*
X1600000Y4680000D03*
X1750000Y5200000D03*
X1640000Y5334000D03*
X1680000Y5000000D03*
X1910000Y6300000D03*
X1830000D03*
X1427620Y6061150D03*
X1627620D03*
X1487620Y6811150D03*
X1690000Y7320000D03*
X1684120Y7050000D03*
X1672380Y7928850D03*
X1472380D03*
X2260000Y350000D03*
X2060000D03*
X2260000Y200000D03*
X2060000D03*
X2260000Y70000D03*
X2060000D03*
X2320000Y880000D03*
X1960000Y650000D03*
X2080000Y1080000D03*
X2240000D03*
X2380000Y1140000D03*
X2160000Y1950000D03*
X1960000Y1560000D03*
X2060000Y1990000D03*
X2160000Y2140000D03*
Y2040000D03*
X2380000Y2140000D03*
Y2050000D03*
X2060000Y2090000D03*
X2055000Y2845000D03*
X2163000Y2580000D03*
X2263000Y2577000D03*
X2363000D03*
X2060000Y3020000D03*
X2040000Y3770000D03*
X2330000Y3510000D03*
X2150000D03*
X2240000D03*
X2380000Y4330000D03*
X2120000Y4230000D03*
Y4350000D03*
X2310000Y4810000D03*
X2400000D03*
X2320000Y5190000D03*
X2350000Y5890000D03*
X2376500Y6323500D03*
X2380000Y6200000D03*
Y6450500D03*
X1990000Y6922150D03*
X2320000Y6610000D03*
X2350000Y7250000D03*
X2000000Y7120000D03*
X2380000Y7960000D03*
Y7850000D03*
X2340000Y7540000D03*
X2347800Y7740000D03*
X1921150Y8012380D03*
Y8212380D03*
X2061150Y8012380D03*
Y8212380D03*
X2210000Y8010000D03*
Y8140000D03*
X2730000Y720000D03*
X2570000D03*
X2530000Y880000D03*
X2470000Y1240000D03*
X2690000Y1060000D03*
X2820000D03*
X2755000Y1310000D03*
X2905000Y1380000D03*
X2820000D03*
X2570000Y1410000D03*
X2490000Y1350000D03*
X2859980Y1859400D03*
X2463000Y1927000D03*
X2560000Y1930000D03*
X2663000Y1933000D03*
X2763000D03*
X2863000D03*
X2810000Y2600000D03*
X2430000Y2895000D03*
X2542380Y2998850D03*
X2742380D03*
X2462380Y3158850D03*
X2662380D03*
X2750000Y3440000D03*
X2420000Y3510000D03*
X2880000Y4370000D03*
X2650000Y4020000D03*
X2823800Y4016200D03*
X2780000Y4820000D03*
X2662020Y4857980D03*
X2680000Y4640000D03*
X2490000Y4810000D03*
X2880000Y5380000D03*
X2487620Y5581150D03*
Y5751150D03*
X2560000Y5850000D03*
X2680000Y6030000D03*
X2820000D03*
X2840000Y6323500D03*
X2559500Y6080000D03*
X2420000Y6610000D03*
Y7350000D03*
Y7090000D03*
X2810000Y7250000D03*
X2837750Y7330000D03*
X2532380Y8248850D03*
X2732380Y8250880D03*
X2650000Y8080000D03*
X2810000D03*
X3400000Y80000D03*
X3390000Y1410000D03*
X3120000Y1210000D03*
X2930000Y1060000D03*
X3305000Y1311200D03*
X2990000Y1384810D03*
X3050000Y1090000D03*
X3100000Y1040000D03*
X3150000Y1090000D03*
X3200000Y1040000D03*
X3380000Y1050000D03*
X2970000Y1860000D03*
X3063000Y1920000D03*
X3160000Y1870000D03*
X3263000Y1800000D03*
X2963000Y1937000D03*
X3360000Y2600000D03*
X3110000D03*
X3082380Y3008850D03*
X3282380D03*
X3023800Y3360000D03*
X3180000Y3120000D03*
X3312500Y3292500D03*
X3296620Y3370000D03*
X3060000Y3930000D03*
X3320000Y3590000D03*
X3140000Y3930000D03*
X3330000Y3940000D03*
X3240000Y4390000D03*
X2940000Y4020000D03*
X3405000Y4005000D03*
X2987620Y4791150D03*
Y4961150D03*
X3167620Y4791150D03*
Y4961150D03*
X3340000Y4790000D03*
X3230000Y4560000D03*
X2987620Y5131150D03*
X3167620D03*
X3406200Y6086200D03*
X3180000Y6840000D03*
Y6680000D03*
X3090000Y7370000D03*
X3180000Y6980000D03*
X2933800Y7454070D03*
X2932380Y7808850D03*
X3132380D03*
X3332380D03*
X3090000Y7490000D03*
X2932380Y8248850D03*
X3132380D03*
X3332380D03*
X3342380Y7978850D03*
X3560000Y340000D03*
X3410000D03*
Y220000D03*
X3770000Y380000D03*
X3851600Y238400D03*
X3890000Y820000D03*
X3840000Y770000D03*
Y870000D03*
X3660000Y990000D03*
X3800000Y2810000D03*
X3550680Y3162500D03*
X3580000Y3290000D03*
X3460000Y4140000D03*
X3562380Y5388850D03*
X3762380D03*
X3562380Y5208850D03*
X3762380D03*
X3560000Y5020000D03*
X3660000D03*
X3578850Y5767620D03*
Y5967620D03*
X3880000Y6170000D03*
X3540000Y7000000D03*
X3730000D03*
X3532380Y7808850D03*
X3732380D03*
X3870000Y7810000D03*
X3532380Y8248850D03*
X3732380D03*
X3422380Y8108850D03*
X3622380D03*
X3822380D03*
X3542380Y7978850D03*
X3742380D03*
X3920000Y380000D03*
X4231600Y238400D03*
X3940000Y770000D03*
Y870000D03*
X3990000Y1420000D03*
Y1530000D03*
X3910000Y1750000D03*
Y1830000D03*
X4224780Y1948300D03*
X3910000Y1920000D03*
X4240000Y2150000D03*
Y2070000D03*
X4224780Y3445000D03*
X4200000Y3620000D03*
X4192380Y4858850D03*
X4392380D03*
X4192380Y5008850D03*
X4392380D03*
X3906200Y5380000D03*
X4282380Y5938850D03*
Y6278850D03*
Y6108850D03*
X4052380Y7338850D03*
X4252380D03*
X4052380Y7168850D03*
Y6998850D03*
X4252380Y7168850D03*
Y6998850D03*
X4052380Y7508850D03*
X4252380D03*
X4132380Y8248850D03*
X3932380D03*
X4340000Y8250000D03*
X4022380Y8108850D03*
X4222380D03*
X3942380Y7978850D03*
X4142380D03*
X4560000Y140000D03*
X4770000D03*
X4600000Y720000D03*
X4790000D03*
X4600000Y820000D03*
Y1200000D03*
X4680000D03*
Y1130000D03*
X4600000D03*
X4420000Y1520090D03*
X4740000Y1820000D03*
Y1740000D03*
X4660000Y1660000D03*
X4580000D03*
X4500000D03*
X4800000Y2430000D03*
X4780000Y2530000D03*
Y2680000D03*
X4790000Y3480000D03*
X4822380Y4428850D03*
Y4638850D03*
X4540000Y4690000D03*
X4822380Y5048850D03*
X4610000Y6380000D03*
X4652380Y7338850D03*
X4452380D03*
Y7168850D03*
X4652380D03*
X4452380Y6998850D03*
X4652380D03*
Y7508850D03*
X4452380D03*
X4892380Y8238850D03*
X4762380Y7988850D03*
Y8118850D03*
X4430000Y8110000D03*
X5080000Y280000D03*
X5130000Y700000D03*
X5180000Y2312180D03*
X5144120Y2220000D03*
X4910000Y2840000D03*
X5000000Y2750000D03*
X5100000Y3040000D03*
Y3440000D03*
X4900000Y3770000D03*
X5022380Y4428850D03*
X5120000Y4160000D03*
X5022380Y4638850D03*
Y5048850D03*
X5072380Y5738850D03*
Y5908850D03*
X5272380Y6078850D03*
Y6248850D03*
Y6418850D03*
X5072380Y6078850D03*
X5030000Y6380000D03*
X5112380Y6628850D03*
Y6798850D03*
Y6968850D03*
X5100000Y8240000D03*
X4942380Y8118850D03*
X5150000Y8120000D03*
X4942380Y7988850D03*
X5150000Y7990000D03*
X5386200Y8136200D03*
X5300000Y8370000D03*
X5402380Y4648850D03*
Y4858850D03*
Y5288850D03*
Y5078850D03*
X7231730Y2882500D03*
G54D11*
X315000Y710000D03*
X565000D03*
X815000D03*
X1315000D03*
X1065000D03*
X1565000D03*
X5350000Y515000D03*
Y265000D03*
X7231730Y342500D03*
G54D12*
X949000Y1140000D03*
X7231730Y977500D03*
G54D13*
X1457000Y1140000D03*
X1203000D03*
X1711000D03*
X4370000Y5200000D03*
X5130000D03*
X7231730Y1612500D03*
G54D14*
X2560000Y7470000D03*
X2700000D03*
X2630000Y7540000D03*
X2700000Y7610000D03*
X2560000D03*
X7231730Y2247500D03*
G54D15*
G01X470000Y4820000D02*
G03I-50000J0D01*
G01Y5620000D02*
G03I-50000J0D01*
G54D16*
G01X2650000Y430000D02*
G03I-30000J0D01*
G01X3050000D02*
G03I-30000J0D01*
G54D17*
G01X1155000Y4830000D02*
G03I-75000J0D01*
G01Y5580000D02*
G03I-75000J0D01*
G54D18*
G01X-845250Y4094750D02*
X-828660Y4097920D01*
X-809690Y4107450D01*
X-797840Y4123320D01*
X-793100Y4145550D01*
X-797840Y4167770D01*
X-812060Y4186820D01*
X-833400Y4196350D01*
X-857100D01*
X-871330Y4202700D01*
X-883180Y4218570D01*
X-887920Y4240800D01*
X-880810Y4263020D01*
X-864220Y4278900D01*
X-845250Y4285250D01*
X-826290Y4278900D01*
X-809690Y4263020D01*
X-802580Y4240800D01*
X-807320Y4218570D01*
X-819170Y4202700D01*
X-833400Y4196350D01*
X-857100D01*
X-878440Y4186820D01*
X-892660Y4167770D01*
X-897400Y4145550D01*
X-892660Y4123320D01*
X-880810Y4107450D01*
X-861840Y4097920D01*
X-845250Y4094750D01*
G01X-659490D02*
X-654750Y4136020D01*
X-647640Y4170950D01*
X-638160Y4202700D01*
X-626300Y4237620D01*
X-607340Y4285250D01*
X-702160D01*
G01X5390000Y0D02*
X140000D01*
G02X0Y140000I0J140000D01*
G01Y8560000D01*
G02X140000Y8700000I140000J0D01*
G01X5390000D01*
G02X5530000Y8560000I0J-140000D01*
G01Y140000D01*
G02X5390000Y0I-140000J0D01*
G01X100000Y1360000D02*
G03I-40000J0D01*
G01X375000D02*
G03I-40000J0D01*
G01X100000Y2430000D02*
G03I-40000J0D01*
G01X375000D02*
G03I-40000J0D01*
G01X100000Y3900000D02*
G03I-40000J0D01*
G01X375000D02*
G03I-40000J0D01*
G01X920000Y60000D02*
G03I-40000J0D01*
G01Y335000D02*
G03I-40000J0D01*
G01X2362100Y-426680D02*
X2376320Y-442550D01*
X2392910Y-452080D01*
X2414250Y-455250D01*
X2435590Y-448900D01*
X2452180Y-436200D01*
X2464030Y-413980D01*
X2466400Y-388580D01*
X2461660Y-363180D01*
X2449810Y-347300D01*
X2433210Y-334600D01*
X2416620Y-331430D01*
X2400030Y-334600D01*
X2378690Y-347300D01*
X2385800Y-264750D01*
X2449810D01*
G01X2552600Y-426680D02*
X2566820Y-442550D01*
X2583410Y-452080D01*
X2604750Y-455250D01*
X2626090Y-448900D01*
X2642680Y-436200D01*
X2654530Y-413980D01*
X2656900Y-388580D01*
X2652160Y-363180D01*
X2640310Y-347300D01*
X2623710Y-334600D01*
X2607120Y-331430D01*
X2590530Y-334600D01*
X2569190Y-347300D01*
X2576300Y-264750D01*
X2640310D01*
G01X2795250Y-461600D02*
X2790510Y-458420D01*
Y-452080D01*
X2795250Y-448900D01*
X2799990Y-452080D01*
Y-458420D01*
X2795250Y-461600D01*
G01X2933600Y-417150D02*
X2947820Y-439380D01*
X2966780Y-452080D01*
X2988120Y-455250D01*
X3007090Y-452080D01*
X3026050Y-436200D01*
X3037900Y-417150D01*
X3040270Y-398100D01*
X3035530Y-375880D01*
X3018940Y-360000D01*
X3002340Y-353650D01*
X2981010D01*
G01X3002340D02*
X3016570Y-344130D01*
X3028420Y-328250D01*
X3033160Y-309200D01*
X3028420Y-290150D01*
X3016570Y-274280D01*
X2995230Y-264750D01*
X2973900Y-267920D01*
X2952560Y-280630D01*
G01X4710000Y60000D02*
G03I-40000J0D01*
G01Y335000D02*
G03I-40000J0D01*
G01X5235000Y1900000D02*
G03I-40000J0D01*
G01Y3890000D02*
G03I-40000J0D01*
G01X5510000Y1900000D02*
G03I-40000J0D01*
G01Y3890000D02*
G03I-40000J0D01*
G01X-250000Y0D02*
X-1000000D01*
G01X-750000Y3944260D02*
Y0D01*
G01X-812500Y400000D02*
X-750000Y0D01*
X-687500Y400000D01*
X-812500D01*
G01X-750000Y4435740D02*
Y8700000D01*
G01X-687500Y8300000D02*
X-750000Y8700000D01*
X-812500Y8300000D01*
X-687500D01*
G01X-90000Y8700000D02*
X-1000000D01*
G01X0Y-250000D02*
Y-610000D01*
G01X2192640Y-360000D02*
X0D01*
G01X400000Y-297500D02*
X0Y-360000D01*
X400000Y-422500D01*
Y-297500D01*
G01X3207360Y-360000D02*
X5530000D01*
G01X5130000Y-422500D02*
X5530000Y-360000D01*
X5130000Y-297500D01*
Y-422500D01*
G01X5530000Y-80000D02*
Y-610000D01*
G01X6090000Y25000D02*
Y5120000D01*
X18688400D01*
Y25000D01*
X6090000D01*
G01Y660000D02*
X18688400D01*
G01X6090000Y1295000D02*
X18688400D01*
G01X6090000Y1930000D02*
X18688400D01*
G01X6090000Y2565000D02*
X18688400D01*
G01X6369520Y3358750D02*
Y3676250D01*
X6519140D01*
G01X6464010Y3522800D02*
X6369520D01*
G01X6712050Y3676250D02*
X6806530D01*
G01X6759290D02*
Y3358750D01*
G01X6712050D02*
X6806530D01*
G01X7097870Y3517500D02*
X7176620D01*
Y3422250D01*
X7152990Y3390490D01*
X7125430Y3369330D01*
X7086060Y3358750D01*
X7046690Y3369330D01*
X7019130Y3390490D01*
X6995510Y3422250D01*
X6979760Y3459290D01*
X6971880Y3501620D01*
Y3538670D01*
X6979760Y3570410D01*
X6995510Y3607460D01*
X7019130Y3639210D01*
X7042750Y3660370D01*
X7074250Y3676250D01*
X7101810D01*
X7133300Y3665670D01*
X7156930Y3644500D01*
G01X7302600Y3676250D02*
Y3448710D01*
X7318340Y3401070D01*
X7349840Y3369330D01*
X7389210Y3358750D01*
X7428580Y3369330D01*
X7460080Y3401070D01*
X7475820Y3448710D01*
Y3676250D01*
G01X7625430Y3358750D02*
Y3676250D01*
X7723850D01*
X7755350Y3660370D01*
X7775040Y3639210D01*
X7782910Y3596870D01*
X7775040Y3554540D01*
X7751410Y3528090D01*
X7723850Y3512200D01*
X7625430D01*
G01X7723850D02*
X7782910Y3358750D01*
G01X8097870D02*
X7940390D01*
Y3676250D01*
X8097870D01*
G01X8034880Y3522800D02*
X7940390D01*
G01X6090000Y3200000D02*
X18688400D01*
G01X6090000Y3835000D02*
X18688400D01*
G01X6090000Y4470000D02*
X18688400D01*
G01X8038810Y3993750D02*
X8137240Y4311250D01*
X8235670Y3993750D01*
G01X8200230Y4104870D02*
X8074240D01*
G01X8373460Y4311250D02*
Y3993750D01*
X8530940D01*
G01X8688420Y4311250D02*
Y3993750D01*
X8845900D01*
G01X9310470Y4311250D02*
Y4083710D01*
X9326210Y4036070D01*
X9357710Y4004330D01*
X9397080Y3993750D01*
X9436450Y4004330D01*
X9467950Y4036070D01*
X9483690Y4083710D01*
Y4311250D01*
G01X9621490Y3993750D02*
Y4311250D01*
X9802590Y3993750D01*
Y4311250D01*
G01X9979760D02*
X10074240D01*
G01X10027000D02*
Y3993750D01*
G01X9979760D02*
X10074240D01*
G01X10341960Y4311250D02*
Y3993750D01*
G01X10251410Y4311250D02*
X10432510D01*
G01X10574240Y4036070D02*
X10605740Y4009620D01*
X10641170Y3993750D01*
X10672670D01*
X10704160Y4009620D01*
X10727790Y4036070D01*
X10739600Y4073130D01*
X10731730Y4110160D01*
X10712040Y4141910D01*
X10676600Y4163090D01*
X10629360Y4173670D01*
X10601800Y4194830D01*
X10589990Y4231870D01*
X10597870Y4268920D01*
X10617550Y4295370D01*
X10645110Y4311250D01*
X10672670D01*
X10700230Y4300670D01*
X10723850Y4274210D01*
G01X11188410Y3993750D02*
X11286840Y4311250D01*
X11385270Y3993750D01*
G01X11349830Y4104870D02*
X11223840D01*
G01X11523060Y3993750D02*
Y4311250D01*
X11621480D01*
X11652980Y4295370D01*
X11672670Y4274210D01*
X11680540Y4231870D01*
X11672670Y4189540D01*
X11649040Y4163090D01*
X11621480Y4147200D01*
X11523060D01*
G01X11621480D02*
X11680540Y3993750D01*
G01X11995500D02*
X11838020D01*
Y4311250D01*
X11995500D01*
G01X11932510Y4157800D02*
X11838020D01*
G01X12499440Y4311250D02*
X12593920D01*
G01X12546680D02*
Y3993750D01*
G01X12499440D02*
X12593920D01*
G01X12771090D02*
Y4311250D01*
X12952190Y3993750D01*
Y4311250D01*
G01X13389190Y3993750D02*
Y4311250D01*
X13491560Y4046670D01*
X13593930Y4311250D01*
Y3993750D01*
G01X13759280Y4311250D02*
X13853760D01*
G01X13806520D02*
Y3993750D01*
G01X13759280D02*
X13853760D01*
G01X14042740Y4311250D02*
Y3993750D01*
X14200220D01*
G01X14357700Y4311250D02*
Y3993750D01*
X14515180D01*
G01X14704160Y4311250D02*
X14798640D01*
G01X14751400D02*
Y3993750D01*
G01X14704160D02*
X14798640D01*
G01X14963990D02*
Y4311250D01*
X15066360Y4046670D01*
X15168730Y4311250D01*
Y3993750D01*
G01X15460060D02*
X15302580D01*
Y4311250D01*
X15460060D01*
G01X15397070Y4157800D02*
X15302580D01*
G01X15696280Y4311250D02*
Y3993750D01*
G01X15605730Y4311250D02*
X15786830D01*
G01X16089980Y3993750D02*
X15932500D01*
Y4311250D01*
X16089980D01*
G01X16026990Y4157800D02*
X15932500D01*
G01X16247460Y3993750D02*
Y4311250D01*
X16345880D01*
X16377380Y4295370D01*
X16397070Y4274210D01*
X16404940Y4231870D01*
X16397070Y4189540D01*
X16373440Y4163090D01*
X16345880Y4147200D01*
X16247460D01*
G01X16345880D02*
X16404940Y3993750D01*
G01X16558480Y4036070D02*
X16589980Y4009620D01*
X16625410Y3993750D01*
X16656910D01*
X16688400Y4009620D01*
X16712030Y4036070D01*
X16723840Y4073130D01*
X16715970Y4110160D01*
X16696280Y4141910D01*
X16660840Y4163090D01*
X16613600Y4173670D01*
X16586040Y4194830D01*
X16574230Y4231870D01*
X16582110Y4268920D01*
X16601790Y4295370D01*
X16629350Y4311250D01*
X16656910D01*
X16684470Y4300670D01*
X16708090Y4274210D01*
G01X8365590Y4643750D02*
Y4961250D01*
X8444320D01*
X8475820Y4945370D01*
X8499440Y4924210D01*
X8519130Y4892460D01*
X8534880Y4855410D01*
X8538810Y4802500D01*
X8534880Y4749580D01*
X8519130Y4712540D01*
X8499440Y4680780D01*
X8475820Y4659620D01*
X8444320Y4643750D01*
X8365590D01*
G01X8688420D02*
Y4961250D01*
X8786840D01*
X8818340Y4945370D01*
X8838030Y4924210D01*
X8845900Y4881870D01*
X8838030Y4839540D01*
X8814400Y4813090D01*
X8786840Y4797200D01*
X8688420D01*
G01X8786840D02*
X8845900Y4643750D01*
G01X9034880Y4961250D02*
X9129360D01*
G01X9082120D02*
Y4643750D01*
G01X9034880D02*
X9129360D01*
G01X9318340Y4961250D02*
Y4643750D01*
X9475820D01*
G01X9633300Y4961250D02*
Y4643750D01*
X9790780D01*
G01X10428570Y4934790D02*
X10404950Y4950670D01*
X10377400Y4961250D01*
X10345900D01*
X10310460Y4945370D01*
X10282910Y4918920D01*
X10263220Y4887160D01*
X10247470Y4834250D01*
X10243530Y4786620D01*
X10251410Y4739000D01*
X10263220Y4707250D01*
X10286840Y4675490D01*
X10314400Y4654330D01*
X10341960Y4643750D01*
X10369520D01*
X10397080Y4654330D01*
X10420700Y4670200D01*
X10440390Y4691360D01*
G01X10574240Y4643750D02*
Y4961250D01*
G01X10739600D02*
Y4643750D01*
G01Y4802500D02*
X10574240D01*
G01X10873450Y4643750D02*
X10971880Y4961250D01*
X11070310Y4643750D01*
G01X11034870Y4754870D02*
X10908880D01*
G01X11208100Y4643750D02*
Y4961250D01*
X11306520D01*
X11338020Y4945370D01*
X11357710Y4924210D01*
X11365580Y4881870D01*
X11357710Y4839540D01*
X11334080Y4813090D01*
X11306520Y4797200D01*
X11208100D01*
G01X11306520D02*
X11365580Y4643750D01*
G01X11601800Y4961250D02*
Y4643750D01*
G01X11511250Y4961250D02*
X11692350D01*
G01X11916760Y4633170D02*
X11908880Y4638460D01*
Y4649040D01*
X11916760Y4654330D01*
X11924640Y4649040D01*
Y4638460D01*
X11916760Y4633170D01*
G01Y4776030D02*
X11908880Y4781330D01*
Y4791910D01*
X11916760Y4797200D01*
X11924640Y4791910D01*
Y4781330D01*
X11916760Y4776030D01*
G01X12546680Y4961250D02*
Y4643750D01*
G01X12456130Y4961250D02*
X12637230D01*
G01X12861640Y4643750D02*
X12830140Y4649040D01*
X12802590Y4670200D01*
X12778960Y4701960D01*
X12763210Y4739000D01*
X12755340Y4781330D01*
Y4823670D01*
X12763210Y4866000D01*
X12778960Y4903040D01*
X12802590Y4934790D01*
X12830140Y4955960D01*
X12861640Y4961250D01*
X12893130Y4955960D01*
X12920690Y4934790D01*
X12944320Y4903040D01*
X12960070Y4866000D01*
X12967940Y4823670D01*
Y4781330D01*
X12960070Y4739000D01*
X12944320Y4701960D01*
X12920690Y4670200D01*
X12893130Y4649040D01*
X12861640Y4643750D01*
G01X13097860D02*
Y4961250D01*
X13192350D01*
X13223840Y4945370D01*
X13247470Y4908330D01*
X13255340Y4866000D01*
X13247470Y4823670D01*
X13227780Y4791910D01*
X13192350Y4776030D01*
X13097860D01*
G01X13806520Y4961250D02*
Y4643750D01*
G01X13751400Y4855410D02*
X13861640D01*
G01X14121480Y4643750D02*
X14097860Y4649040D01*
X14074240Y4670200D01*
X14058480Y4707250D01*
X14050610Y4749580D01*
X14058480Y4791910D01*
X14074240Y4828960D01*
X14097860Y4850120D01*
X14121480Y4855410D01*
X14145100Y4850120D01*
X14168720Y4828960D01*
X14184470Y4791910D01*
X14188410Y4749580D01*
X14184470Y4707250D01*
X14168720Y4670200D01*
X14145100Y4649040D01*
X14121480Y4643750D01*
G01X14782890Y4813090D02*
X14798640Y4828960D01*
X14810450Y4855410D01*
X14818330Y4892460D01*
X14810450Y4924210D01*
X14794710Y4945370D01*
X14767150Y4961250D01*
X14660850D01*
Y4643750D01*
X14790770D01*
X14818330Y4664910D01*
X14834080Y4696670D01*
X14841950Y4733710D01*
X14834080Y4770740D01*
X14810450Y4802500D01*
X14782890Y4813090D01*
X14660850D01*
G01X15066360Y4643750D02*
X15034860Y4649040D01*
X15007310Y4670200D01*
X14983680Y4701960D01*
X14967930Y4739000D01*
X14960060Y4781330D01*
Y4823670D01*
X14967930Y4866000D01*
X14983680Y4903040D01*
X15007310Y4934790D01*
X15034860Y4955960D01*
X15066360Y4961250D01*
X15097850Y4955960D01*
X15125410Y4934790D01*
X15149040Y4903040D01*
X15164790Y4866000D01*
X15172660Y4823670D01*
Y4781330D01*
X15164790Y4739000D01*
X15149040Y4701960D01*
X15125410Y4670200D01*
X15097850Y4649040D01*
X15066360Y4643750D01*
G01X15381320Y4961250D02*
Y4643750D01*
G01X15290770Y4961250D02*
X15471870D01*
G01X15696280D02*
Y4643750D01*
G01X15605730Y4961250D02*
X15786830D01*
G01X16011240Y4643750D02*
X15979740Y4649040D01*
X15952190Y4670200D01*
X15928560Y4701960D01*
X15912810Y4739000D01*
X15904940Y4781330D01*
Y4823670D01*
X15912810Y4866000D01*
X15928560Y4903040D01*
X15952190Y4934790D01*
X15979740Y4955960D01*
X16011240Y4961250D01*
X16042730Y4955960D01*
X16070290Y4934790D01*
X16093920Y4903040D01*
X16109670Y4866000D01*
X16117540Y4823670D01*
Y4781330D01*
X16109670Y4739000D01*
X16093920Y4701960D01*
X16070290Y4670200D01*
X16042730Y4649040D01*
X16011240Y4643750D01*
G01X16223830D02*
Y4961250D01*
X16326200Y4696670D01*
X16428570Y4961250D01*
Y4643750D01*
G01X8373460Y3835000D02*
Y25000D01*
G01X8967940Y3358750D02*
Y3676250D01*
X9117560D01*
G01X9062430Y3522800D02*
X8967940D01*
G01X9310470Y3676250D02*
X9404950D01*
G01X9357710D02*
Y3358750D01*
G01X9310470D02*
X9404950D01*
G01X9582120D02*
Y3676250D01*
X9763220Y3358750D01*
Y3676250D01*
G01X9940390D02*
X10034870D01*
G01X9987630D02*
Y3358750D01*
G01X9940390D02*
X10034870D01*
G01X10219910Y3401070D02*
X10251410Y3374620D01*
X10286840Y3358750D01*
X10318340D01*
X10349830Y3374620D01*
X10373460Y3401070D01*
X10385270Y3438130D01*
X10377400Y3475160D01*
X10357710Y3506910D01*
X10322270Y3528090D01*
X10275030Y3538670D01*
X10247470Y3559830D01*
X10235660Y3596870D01*
X10243540Y3633920D01*
X10263220Y3660370D01*
X10290780Y3676250D01*
X10318340D01*
X10345900Y3665670D01*
X10369520Y3639210D01*
G01X10534870Y3358750D02*
Y3676250D01*
G01X10700230D02*
Y3358750D01*
G01Y3517500D02*
X10534870D01*
G01X11011250Y3358750D02*
X10853770D01*
Y3676250D01*
X11011250D01*
G01X10948260Y3522800D02*
X10853770D01*
G01X11160860Y3358750D02*
Y3676250D01*
X11239590D01*
X11271090Y3660370D01*
X11294710Y3639210D01*
X11314400Y3607460D01*
X11330150Y3570410D01*
X11334080Y3517500D01*
X11330150Y3464580D01*
X11314400Y3427540D01*
X11294710Y3395780D01*
X11271090Y3374620D01*
X11239590Y3358750D01*
X11160860D01*
G01X11444320Y3252920D02*
X11680540D01*
G01X11794710Y3401070D02*
X11826210Y3374620D01*
X11861640Y3358750D01*
X11893140D01*
X11924630Y3374620D01*
X11948260Y3401070D01*
X11960070Y3438130D01*
X11952200Y3475160D01*
X11932510Y3506910D01*
X11897070Y3528090D01*
X11849830Y3538670D01*
X11822270Y3559830D01*
X11810460Y3596870D01*
X11818340Y3633920D01*
X11838020Y3660370D01*
X11865580Y3676250D01*
X11893140D01*
X11920700Y3665670D01*
X11944320Y3639210D01*
G01X12145110Y3676250D02*
X12239590D01*
G01X12192350D02*
Y3358750D01*
G01X12145110D02*
X12239590D01*
G01X12432500Y3676250D02*
X12582120D01*
X12432500Y3358750D01*
X12582120D01*
G01X12901010D02*
X12743530D01*
Y3676250D01*
X12901010D01*
G01X12838020Y3522800D02*
X12743530D01*
G01X10302590Y183750D02*
Y501250D01*
X10255350Y437750D01*
G01Y183750D02*
X10349830D01*
G01X10617550Y173170D02*
X10609670Y178460D01*
Y189040D01*
X10617550Y194330D01*
X10625430Y189040D01*
Y178460D01*
X10617550Y173170D01*
G01X10932510Y501250D02*
X10901010Y490670D01*
X10877390Y464210D01*
X10861640Y432460D01*
X10849830Y390120D01*
X10845900Y342500D01*
X10849830Y294870D01*
X10861640Y252540D01*
X10877390Y220780D01*
X10901010Y194330D01*
X10932510Y183750D01*
X10964000Y194330D01*
X10987630Y220780D01*
X11003380Y252540D01*
X11015190Y294870D01*
X11019120Y342500D01*
X11015190Y390120D01*
X11003380Y432460D01*
X10987630Y464210D01*
X10964000Y490670D01*
X10932510Y501250D01*
G01X11247470Y183750D02*
Y501250D01*
X11200230Y437750D01*
G01Y183750D02*
X11294710D01*
G01X11487620Y316030D02*
X11515190Y353090D01*
X11538810Y374250D01*
X11570310Y384830D01*
X11597870Y374250D01*
X11617550Y353090D01*
X11633300Y321330D01*
X11637240Y284290D01*
X11633300Y252540D01*
X11617550Y220780D01*
X11593920Y194330D01*
X11566370Y183750D01*
X11534870Y194330D01*
X11507310Y226070D01*
X11491560Y273710D01*
X11487620Y326620D01*
X11495500Y395410D01*
X11507310Y432460D01*
X11526990Y469500D01*
X11554550Y495960D01*
X11582110Y501250D01*
X11609670Y490670D01*
X11629360Y464210D01*
G01X10302590Y1136250D02*
X10271090Y1125670D01*
X10247470Y1099210D01*
X10231720Y1067460D01*
X10219910Y1025120D01*
X10215980Y977500D01*
X10219910Y929870D01*
X10231720Y887540D01*
X10247470Y855780D01*
X10271090Y829330D01*
X10302590Y818750D01*
X10334080Y829330D01*
X10357710Y855780D01*
X10373460Y887540D01*
X10385270Y929870D01*
X10389200Y977500D01*
X10385270Y1025120D01*
X10373460Y1067460D01*
X10357710Y1099210D01*
X10334080Y1125670D01*
X10302590Y1136250D01*
G01X10617550Y808170D02*
X10609670Y813460D01*
Y824040D01*
X10617550Y829330D01*
X10625430Y824040D01*
Y813460D01*
X10617550Y808170D01*
G01X10932510Y818750D02*
X10960070Y824040D01*
X10991560Y839910D01*
X11011250Y866360D01*
X11019120Y903420D01*
X11011250Y940450D01*
X10987630Y972200D01*
X10952190Y988090D01*
X10912830D01*
X10889200Y998670D01*
X10869510Y1025120D01*
X10861640Y1062160D01*
X10873460Y1099210D01*
X10901010Y1125670D01*
X10932510Y1136250D01*
X10964000Y1125670D01*
X10991560Y1099210D01*
X11003380Y1062160D01*
X10995500Y1025120D01*
X10975820Y998670D01*
X10952190Y988090D01*
X10912830D01*
X10877390Y972200D01*
X10853770Y940450D01*
X10845900Y903420D01*
X10853770Y866360D01*
X10873460Y839910D01*
X10904950Y824040D01*
X10932510Y818750D01*
G01X11247470D02*
X11275030Y824040D01*
X11306520Y839910D01*
X11326210Y866360D01*
X11334080Y903420D01*
X11326210Y940450D01*
X11302590Y972200D01*
X11267150Y988090D01*
X11227790D01*
X11204160Y998670D01*
X11184470Y1025120D01*
X11176600Y1062160D01*
X11188420Y1099210D01*
X11215970Y1125670D01*
X11247470Y1136250D01*
X11278960Y1125670D01*
X11306520Y1099210D01*
X11318340Y1062160D01*
X11310460Y1025120D01*
X11290780Y998670D01*
X11267150Y988090D01*
X11227790D01*
X11192350Y972200D01*
X11168730Y940450D01*
X11160860Y903420D01*
X11168730Y866360D01*
X11188420Y839910D01*
X11219910Y824040D01*
X11247470Y818750D01*
G01X11495500Y855780D02*
X11523060Y829330D01*
X11554550Y818750D01*
X11586050Y829330D01*
X11613610Y861070D01*
X11633300Y908710D01*
X11641170Y956330D01*
Y1014540D01*
X11633300Y1062160D01*
X11613610Y1104500D01*
X11589990Y1125670D01*
X11562430Y1136250D01*
X11530930Y1125670D01*
X11507310Y1104500D01*
X11491560Y1072750D01*
X11483690Y1030410D01*
X11491560Y993380D01*
X11511250Y956330D01*
X11534870Y935160D01*
X11562430Y929870D01*
X11593920Y940450D01*
X11617550Y966910D01*
X11641170Y1014540D01*
G01X10302590Y1771250D02*
X10271090Y1760670D01*
X10247470Y1734210D01*
X10231720Y1702460D01*
X10219910Y1660120D01*
X10215980Y1612500D01*
X10219910Y1564870D01*
X10231720Y1522540D01*
X10247470Y1490780D01*
X10271090Y1464330D01*
X10302590Y1453750D01*
X10334080Y1464330D01*
X10357710Y1490780D01*
X10373460Y1522540D01*
X10385270Y1564870D01*
X10389200Y1612500D01*
X10385270Y1660120D01*
X10373460Y1702460D01*
X10357710Y1734210D01*
X10334080Y1760670D01*
X10302590Y1771250D01*
G01X10617550Y1443170D02*
X10609670Y1448460D01*
Y1459040D01*
X10617550Y1464330D01*
X10625430Y1459040D01*
Y1448460D01*
X10617550Y1443170D01*
G01X10932510Y1453750D02*
X10960070Y1459040D01*
X10991560Y1474910D01*
X11011250Y1501360D01*
X11019120Y1538420D01*
X11011250Y1575450D01*
X10987630Y1607200D01*
X10952190Y1623090D01*
X10912830D01*
X10889200Y1633670D01*
X10869510Y1660120D01*
X10861640Y1697160D01*
X10873460Y1734210D01*
X10901010Y1760670D01*
X10932510Y1771250D01*
X10964000Y1760670D01*
X10991560Y1734210D01*
X11003380Y1697160D01*
X10995500Y1660120D01*
X10975820Y1633670D01*
X10952190Y1623090D01*
X10912830D01*
X10877390Y1607200D01*
X10853770Y1575450D01*
X10845900Y1538420D01*
X10853770Y1501360D01*
X10873460Y1474910D01*
X10904950Y1459040D01*
X10932510Y1453750D01*
G01X11247470D02*
X11275030Y1459040D01*
X11306520Y1474910D01*
X11326210Y1501360D01*
X11334080Y1538420D01*
X11326210Y1575450D01*
X11302590Y1607200D01*
X11267150Y1623090D01*
X11227790D01*
X11204160Y1633670D01*
X11184470Y1660120D01*
X11176600Y1697160D01*
X11188420Y1734210D01*
X11215970Y1760670D01*
X11247470Y1771250D01*
X11278960Y1760670D01*
X11306520Y1734210D01*
X11318340Y1697160D01*
X11310460Y1660120D01*
X11290780Y1633670D01*
X11267150Y1623090D01*
X11227790D01*
X11192350Y1607200D01*
X11168730Y1575450D01*
X11160860Y1538420D01*
X11168730Y1501360D01*
X11188420Y1474910D01*
X11219910Y1459040D01*
X11247470Y1453750D01*
G01X11495500Y1490780D02*
X11523060Y1464330D01*
X11554550Y1453750D01*
X11586050Y1464330D01*
X11613610Y1496070D01*
X11633300Y1543710D01*
X11641170Y1591330D01*
Y1649540D01*
X11633300Y1697160D01*
X11613610Y1739500D01*
X11589990Y1760670D01*
X11562430Y1771250D01*
X11530930Y1760670D01*
X11507310Y1739500D01*
X11491560Y1707750D01*
X11483690Y1665410D01*
X11491560Y1628380D01*
X11511250Y1591330D01*
X11534870Y1570160D01*
X11562430Y1564870D01*
X11593920Y1575450D01*
X11617550Y1601910D01*
X11641170Y1649540D01*
G01X10145110Y2406250D02*
X10113610Y2395670D01*
X10089990Y2369210D01*
X10074240Y2337460D01*
X10062430Y2295120D01*
X10058500Y2247500D01*
X10062430Y2199870D01*
X10074240Y2157540D01*
X10089990Y2125780D01*
X10113610Y2099330D01*
X10145110Y2088750D01*
X10176600Y2099330D01*
X10200230Y2125780D01*
X10215980Y2157540D01*
X10227790Y2199870D01*
X10231720Y2247500D01*
X10227790Y2295120D01*
X10215980Y2337460D01*
X10200230Y2369210D01*
X10176600Y2395670D01*
X10145110Y2406250D01*
G01X10460070Y2078170D02*
X10452190Y2083460D01*
Y2094040D01*
X10460070Y2099330D01*
X10467950Y2094040D01*
Y2083460D01*
X10460070Y2078170D01*
G01X10822270Y2088750D02*
Y2406250D01*
X10676600Y2178710D01*
X10873460D01*
G01X11003380Y2136360D02*
X11026990Y2109910D01*
X11054550Y2094040D01*
X11089990Y2088750D01*
X11125430Y2099330D01*
X11152980Y2120490D01*
X11172670Y2157540D01*
X11176600Y2199870D01*
X11168730Y2242200D01*
X11149040Y2268670D01*
X11121480Y2289830D01*
X11093930Y2295120D01*
X11066370Y2289830D01*
X11030940Y2268670D01*
X11042750Y2406250D01*
X11149040D01*
G01X11397070Y2088750D02*
X11404950Y2157540D01*
X11416760Y2215740D01*
X11432510Y2268670D01*
X11452190Y2326870D01*
X11483690Y2406250D01*
X11326210D01*
G01X11645100Y2353330D02*
X11668730Y2385080D01*
X11696290Y2400960D01*
X11727790Y2406250D01*
X11767150Y2395670D01*
X11794720Y2369210D01*
X11802590Y2337460D01*
X11798650Y2305700D01*
X11782900Y2279250D01*
X11704160Y2226330D01*
X11668730Y2189290D01*
X11645100Y2136360D01*
X11637230Y2088750D01*
X11802590D01*
G01X10145110Y3041250D02*
X10113610Y3030670D01*
X10089990Y3004210D01*
X10074240Y2972460D01*
X10062430Y2930120D01*
X10058500Y2882500D01*
X10062430Y2834870D01*
X10074240Y2792540D01*
X10089990Y2760780D01*
X10113610Y2734330D01*
X10145110Y2723750D01*
X10176600Y2734330D01*
X10200230Y2760780D01*
X10215980Y2792540D01*
X10227790Y2834870D01*
X10231720Y2882500D01*
X10227790Y2930120D01*
X10215980Y2972460D01*
X10200230Y3004210D01*
X10176600Y3030670D01*
X10145110Y3041250D01*
G01X10460070Y2713170D02*
X10452190Y2718460D01*
Y2729040D01*
X10460070Y2734330D01*
X10467950Y2729040D01*
Y2718460D01*
X10460070Y2713170D01*
G01X10688420Y2787250D02*
X10712030Y2750200D01*
X10743530Y2729040D01*
X10778970Y2723750D01*
X10810470Y2729040D01*
X10841960Y2755490D01*
X10861640Y2787250D01*
X10865580Y2819000D01*
X10857710Y2856030D01*
X10830150Y2882500D01*
X10802590Y2893090D01*
X10767150D01*
G01X10802590D02*
X10826210Y2908960D01*
X10845900Y2935410D01*
X10853770Y2967160D01*
X10845900Y2998920D01*
X10826210Y3025370D01*
X10790780Y3041250D01*
X10755350Y3035960D01*
X10719910Y3014790D01*
G01X11089990Y3041250D02*
X11058490Y3030670D01*
X11034870Y3004210D01*
X11019120Y2972460D01*
X11007310Y2930120D01*
X11003380Y2882500D01*
X11007310Y2834870D01*
X11019120Y2792540D01*
X11034870Y2760780D01*
X11058490Y2734330D01*
X11089990Y2723750D01*
X11121480Y2734330D01*
X11145110Y2760780D01*
X11160860Y2792540D01*
X11172670Y2834870D01*
X11176600Y2882500D01*
X11172670Y2930120D01*
X11160860Y2972460D01*
X11145110Y3004210D01*
X11121480Y3030670D01*
X11089990Y3041250D01*
G01X11452190Y2723750D02*
Y3041250D01*
X11306520Y2813710D01*
X11503380D01*
G01X11719910Y2723750D02*
X11747470Y2729040D01*
X11778960Y2744910D01*
X11798650Y2771360D01*
X11806520Y2808420D01*
X11798650Y2845450D01*
X11775030Y2877200D01*
X11739590Y2893090D01*
X11700230D01*
X11676600Y2903670D01*
X11656910Y2930120D01*
X11649040Y2967160D01*
X11660860Y3004210D01*
X11688410Y3030670D01*
X11719910Y3041250D01*
X11751400Y3030670D01*
X11778960Y3004210D01*
X11790780Y2967160D01*
X11782900Y2930120D01*
X11763220Y2903670D01*
X11739590Y2893090D01*
X11700230D01*
X11664790Y2877200D01*
X11641170Y2845450D01*
X11633300Y2808420D01*
X11641170Y2771360D01*
X11660860Y2744910D01*
X11692350Y2729040D01*
X11719910Y2723750D01*
G01X13491560Y3835000D02*
Y25000D01*
G01X14239590Y183750D02*
Y501250D01*
X14334080D01*
X14365570Y485370D01*
X14389200Y448330D01*
X14397070Y406000D01*
X14389200Y363670D01*
X14369510Y331910D01*
X14334080Y316030D01*
X14239590D01*
G01X14554550Y501250D02*
Y183750D01*
X14712030D01*
G01X14849820D02*
X14948250Y501250D01*
X15046680Y183750D01*
G01X15011240Y294870D02*
X14885250D01*
G01X15263210Y501250D02*
Y183750D01*
G01X15172660Y501250D02*
X15353760D01*
G01X15656910Y183750D02*
X15499430D01*
Y501250D01*
X15656910D01*
G01X15593920Y347800D02*
X15499430D01*
G01X15806520Y183750D02*
Y501250D01*
X15885250D01*
X15916750Y485370D01*
X15940370Y464210D01*
X15960060Y432460D01*
X15975810Y395410D01*
X15979740Y342500D01*
X15975810Y289580D01*
X15960060Y252540D01*
X15940370Y220780D01*
X15916750Y199620D01*
X15885250Y183750D01*
X15806520D01*
G01X14239590Y818750D02*
Y1136250D01*
X14334080D01*
X14365570Y1120370D01*
X14389200Y1083330D01*
X14397070Y1041000D01*
X14389200Y998670D01*
X14369510Y966910D01*
X14334080Y951030D01*
X14239590D01*
G01X14554550Y1136250D02*
Y818750D01*
X14712030D01*
G01X14849820D02*
X14948250Y1136250D01*
X15046680Y818750D01*
G01X15011240Y929870D02*
X14885250D01*
G01X15263210Y1136250D02*
Y818750D01*
G01X15172660Y1136250D02*
X15353760D01*
G01X15656910Y818750D02*
X15499430D01*
Y1136250D01*
X15656910D01*
G01X15593920Y982800D02*
X15499430D01*
G01X15806520Y818750D02*
Y1136250D01*
X15885250D01*
X15916750Y1120370D01*
X15940370Y1099210D01*
X15960060Y1067460D01*
X15975810Y1030410D01*
X15979740Y977500D01*
X15975810Y924580D01*
X15960060Y887540D01*
X15940370Y855780D01*
X15916750Y834620D01*
X15885250Y818750D01*
X15806520D01*
G01X14239590Y1453750D02*
Y1771250D01*
X14334080D01*
X14365570Y1755370D01*
X14389200Y1718330D01*
X14397070Y1676000D01*
X14389200Y1633670D01*
X14369510Y1601910D01*
X14334080Y1586030D01*
X14239590D01*
G01X14554550Y1771250D02*
Y1453750D01*
X14712030D01*
G01X14849820D02*
X14948250Y1771250D01*
X15046680Y1453750D01*
G01X15011240Y1564870D02*
X14885250D01*
G01X15263210Y1771250D02*
Y1453750D01*
G01X15172660Y1771250D02*
X15353760D01*
G01X15656910Y1453750D02*
X15499430D01*
Y1771250D01*
X15656910D01*
G01X15593920Y1617800D02*
X15499430D01*
G01X15806520Y1453750D02*
Y1771250D01*
X15885250D01*
X15916750Y1755370D01*
X15940370Y1734210D01*
X15960060Y1702460D01*
X15975810Y1665410D01*
X15979740Y1612500D01*
X15975810Y1559580D01*
X15960060Y1522540D01*
X15940370Y1490780D01*
X15916750Y1469620D01*
X15885250Y1453750D01*
X15806520D01*
G01X14239590Y2088750D02*
Y2406250D01*
X14334080D01*
X14365570Y2390370D01*
X14389200Y2353330D01*
X14397070Y2311000D01*
X14389200Y2268670D01*
X14369510Y2236910D01*
X14334080Y2221030D01*
X14239590D01*
G01X14554550Y2406250D02*
Y2088750D01*
X14712030D01*
G01X14849820D02*
X14948250Y2406250D01*
X15046680Y2088750D01*
G01X15011240Y2199870D02*
X14885250D01*
G01X15263210Y2406250D02*
Y2088750D01*
G01X15172660Y2406250D02*
X15353760D01*
G01X15656910Y2088750D02*
X15499430D01*
Y2406250D01*
X15656910D01*
G01X15593920Y2252800D02*
X15499430D01*
G01X15806520Y2088750D02*
Y2406250D01*
X15885250D01*
X15916750Y2390370D01*
X15940370Y2369210D01*
X15960060Y2337460D01*
X15975810Y2300410D01*
X15979740Y2247500D01*
X15975810Y2194580D01*
X15960060Y2157540D01*
X15940370Y2125780D01*
X15916750Y2104620D01*
X15885250Y2088750D01*
X15806520D01*
G01X14239590Y2723750D02*
Y3041250D01*
X14334080D01*
X14365570Y3025370D01*
X14389200Y2988330D01*
X14397070Y2946000D01*
X14389200Y2903670D01*
X14369510Y2871910D01*
X14334080Y2856030D01*
X14239590D01*
G01X14554550Y3041250D02*
Y2723750D01*
X14712030D01*
G01X14849820D02*
X14948250Y3041250D01*
X15046680Y2723750D01*
G01X15011240Y2834870D02*
X14885250D01*
G01X15263210Y3041250D02*
Y2723750D01*
G01X15172660Y3041250D02*
X15353760D01*
G01X15656910Y2723750D02*
X15499430D01*
Y3041250D01*
X15656910D01*
G01X15593920Y2887800D02*
X15499430D01*
G01X15806520Y2723750D02*
Y3041250D01*
X15885250D01*
X15916750Y3025370D01*
X15940370Y3004210D01*
X15960060Y2972460D01*
X15975810Y2935410D01*
X15979740Y2882500D01*
X15975810Y2829580D01*
X15960060Y2792540D01*
X15940370Y2760780D01*
X15916750Y2739620D01*
X15885250Y2723750D01*
X15806520D01*
G01X14239590Y3358750D02*
Y3676250D01*
X14334080D01*
X14365570Y3660370D01*
X14389200Y3623330D01*
X14397070Y3581000D01*
X14389200Y3538670D01*
X14369510Y3506910D01*
X14334080Y3491030D01*
X14239590D01*
G01X14554550Y3676250D02*
Y3358750D01*
X14712030D01*
G01X14849820D02*
X14948250Y3676250D01*
X15046680Y3358750D01*
G01X15011240Y3469870D02*
X14885250D01*
G01X15263210Y3676250D02*
Y3358750D01*
G01X15172660Y3676250D02*
X15353760D01*
G01X15656910Y3358750D02*
X15499430D01*
Y3676250D01*
X15656910D01*
G01X15593920Y3522800D02*
X15499430D01*
G01X15806520Y3358750D02*
Y3676250D01*
X15885250D01*
X15916750Y3660370D01*
X15940370Y3639210D01*
X15960060Y3607460D01*
X15975810Y3570410D01*
X15979740Y3517500D01*
X15975810Y3464580D01*
X15960060Y3427540D01*
X15940370Y3395780D01*
X15916750Y3374620D01*
X15885250Y3358750D01*
X15806520D01*
G01X16719900Y3835000D02*
Y25000D01*
G01X17436430Y2723750D02*
Y3041250D01*
X17290760Y2813710D01*
X17487620D01*
G01X17704150Y3041250D02*
X17672650Y3030670D01*
X17649030Y3004210D01*
X17633280Y2972460D01*
X17621470Y2930120D01*
X17617540Y2882500D01*
X17621470Y2834870D01*
X17633280Y2792540D01*
X17649030Y2760780D01*
X17672650Y2734330D01*
X17704150Y2723750D01*
X17735640Y2734330D01*
X17759270Y2760780D01*
X17775020Y2792540D01*
X17786830Y2834870D01*
X17790760Y2882500D01*
X17786830Y2930120D01*
X17775020Y2972460D01*
X17759270Y3004210D01*
X17735640Y3030670D01*
X17704150Y3041250D01*
G01X17932500Y2787250D02*
X17956110Y2750200D01*
X17987610Y2729040D01*
X18023050Y2723750D01*
X18054550Y2729040D01*
X18086040Y2755490D01*
X18105720Y2787250D01*
X18109660Y2819000D01*
X18101790Y2856030D01*
X18074230Y2882500D01*
X18046670Y2893090D01*
X18011230D01*
G01X18046670D02*
X18070290Y2908960D01*
X18089980Y2935410D01*
X18097850Y2967160D01*
X18089980Y2998920D01*
X18070290Y3025370D01*
X18034860Y3041250D01*
X17999430Y3035960D01*
X17963990Y3014790D01*
G01X17389190Y3358750D02*
X17357690Y3364040D01*
X17330140Y3385200D01*
X17306510Y3416960D01*
X17290760Y3454000D01*
X17282890Y3496330D01*
Y3538670D01*
X17290760Y3581000D01*
X17306510Y3618040D01*
X17330140Y3649790D01*
X17357690Y3670960D01*
X17389190Y3676250D01*
X17420680Y3670960D01*
X17448240Y3649790D01*
X17471870Y3618040D01*
X17487620Y3581000D01*
X17495490Y3538670D01*
Y3496330D01*
X17487620Y3454000D01*
X17471870Y3416960D01*
X17448240Y3385200D01*
X17420680Y3364040D01*
X17389190Y3358750D01*
G01X17420680Y3443420D02*
X17467930Y3358750D01*
G01X17704150Y3676250D02*
Y3358750D01*
G01X17613600Y3676250D02*
X17794700D01*
G01X18019110Y3358750D02*
Y3501620D01*
X17940370Y3676250D01*
G01X18097850D02*
X18019110Y3501620D01*
G01X17704150Y183750D02*
X17731710Y189040D01*
X17763200Y204910D01*
X17782890Y231360D01*
X17790760Y268420D01*
X17782890Y305450D01*
X17759270Y337200D01*
X17723830Y353090D01*
X17684470D01*
X17660840Y363670D01*
X17641150Y390120D01*
X17633280Y427160D01*
X17645100Y464210D01*
X17672650Y490670D01*
X17704150Y501250D01*
X17735640Y490670D01*
X17763200Y464210D01*
X17775020Y427160D01*
X17767140Y390120D01*
X17747460Y363670D01*
X17723830Y353090D01*
X17684470D01*
X17649030Y337200D01*
X17625410Y305450D01*
X17617540Y268420D01*
X17625410Y231360D01*
X17645100Y204910D01*
X17676590Y189040D01*
X17704150Y183750D01*
G01Y818750D02*
Y1136250D01*
X17656910Y1072750D01*
G01Y818750D02*
X17751390D01*
G01X17617540Y1501360D02*
X17641150Y1474910D01*
X17668710Y1459040D01*
X17704150Y1453750D01*
X17739590Y1464330D01*
X17767140Y1485490D01*
X17786830Y1522540D01*
X17790760Y1564870D01*
X17782890Y1607200D01*
X17763200Y1633670D01*
X17735640Y1654830D01*
X17708090Y1660120D01*
X17680530Y1654830D01*
X17645100Y1633670D01*
X17656910Y1771250D01*
X17763200D01*
G01X17617540Y2136360D02*
X17641150Y2109910D01*
X17668710Y2094040D01*
X17704150Y2088750D01*
X17739590Y2099330D01*
X17767140Y2120490D01*
X17786830Y2157540D01*
X17790760Y2199870D01*
X17782890Y2242200D01*
X17763200Y2268670D01*
X17735640Y2289830D01*
X17708090Y2295120D01*
X17680530Y2289830D01*
X17645100Y2268670D01*
X17656910Y2406250D01*
X17763200D01*
M02*
