M48
METRIC,TZ
T01C.3048
T02C.4572
T03C.889
T04C1.016
;LEADER: 12 
;HEADER: 
;CODE  : ASCII 
;FILE  : F407_BIKE_V10A-1-2.drl for board H:/GitHub/Multi-function_bicycle_data_test/HARDWARE/F407_BIKE_V10A/PCB/#Taaaabh12620.tmp ... layers TOP and BOTTOM
;T01 Holesize 1. = 0.304800 Tolerance = +0.000000/-0.000000 PLATED MM Quantity = 403
;T02 Holesize 2. = 0.457200 Tolerance = +0.000000/-0.000000 PLATED MM Quantity = 5
;T03 Holesize 3. = 0.889000 Tolerance = +0.000000/-0.000000 PLATED MM Quantity = 6
;T04 Holesize 4. = 1.016000 Tolerance = +0.000000/-0.000000 PLATED MM Quantity = 8
%
G90
T01
X100000Y300000
X100000Y460000
X229580Y240000
X406200Y236200
X780000Y360000
X790000Y150000
X950000Y150000
X980000Y360000
X1338400Y240000
X1470000Y240000
X1718400Y238400
X1900000Y760000
X1960000Y650000
X2060000Y70000
X2060000Y200000
X2060000Y350000
X2260000Y70000
X2260000Y200000
X2260000Y350000
X2570000Y720000
X2730000Y720000
X3400000Y80000
X3410000Y220000
X3410000Y340000
X3560000Y340000
X3770000Y380000
X3851600Y238400
X3920000Y380000
X4231600Y238400
X4560000Y140000
X4600000Y720000
X4770000Y140000
X4790000Y720000
X5080000Y280000
X5130000Y700000
X4680000Y1200000
X4680000Y1130000
X4600000Y1200000
X4600000Y1130000
X4600000Y820000
X4420000Y1520090
X3990000Y1420000
X3940000Y870000
X3940000Y770000
X3890000Y820000
X3840000Y870000
X3840000Y770000
X3660000Y990000
X3390000Y1410000
X3380000Y1050000
X3305000Y1311200
X3200000Y1040000
X3150000Y1090000
X3120000Y1210000
X3100000Y1040000
X3050000Y1090000
X2990000Y1384810
X2930000Y1060000
X2905000Y1380000
X2820000Y1380000
X2820000Y1060000
X2755000Y1310000
X2690000Y1060000
X2570000Y1410000
X2530000Y880000
X2490000Y1350000
X2470000Y1240000
X2380000Y1140000
X2320000Y880000
X2240000Y1080000
X2080000Y1080000
X1810000Y970000
X1650000Y970000
X1330000Y1510000
X1170000Y1510000
X280000Y1830000
X280000Y1980000
X690000Y1980000
X790000Y1980000
X790000Y2090000
X880000Y2090000
X940000Y1610000
X970000Y2090000
X1560000Y1827000
X1960000Y1560000
X2060000Y1990000
X2060000Y2090000
X2160000Y1950000
X2160000Y2040000
X2160000Y2140000
X2380000Y2050000
X2380000Y2140000
X2463000Y1927000
X2560000Y1930000
X2663000Y1933000
X2763000Y1933000
X2859980Y1859400
X2863000Y1933000
X2963000Y1937000
X2970000Y1860000
X3063000Y1920000
X3160000Y1870000
X3263000Y1800000
X3910000Y1750000
X3910000Y1830000
X3910000Y1920000
X3990000Y1530000
X4224780Y1948300
X4240000Y2070000
X4240000Y2150000
X4500000Y1660000
X4580000Y1660000
X4660000Y1660000
X4740000Y1740000
X4740000Y1820000
X5144120Y2220000
X5180000Y2312180
X5100000Y3040000
X5000000Y2750000
X4910000Y2840000
X4800000Y2430000
X4780000Y2680000
X4780000Y2530000
X3800000Y2810000
X3360000Y2600000
X3282380Y3008850
X3110000Y2600000
X3082380Y3008850
X2810000Y2600000
X2742380Y2998850
X2542380Y2998850
X2430000Y2895000
X2363000Y2577000
X2263000Y2577000
X2163000Y2580000
X2060000Y3020000
X2055000Y2845000
X1680000Y2895000
X1563000Y2590000
X1460000Y2590000
X1390000Y2778160
X1110000Y2660000
X590000Y2780000
X160000Y3490000
X320000Y3390000
X330000Y3200000
X420000Y3200000
X418850Y3627620
X510000Y3340000
X590000Y3110000
X590000Y3410000
X588850Y3627620
X1280000Y3410000
X1280000Y3510000
X1280000Y3640000
X1670000Y3560000
X2040000Y3770000
X2150000Y3510000
X2240000Y3510000
X2330000Y3510000
X2420000Y3510000
X2462380Y3158850
X2662380Y3158850
X2750000Y3440000
X3023800Y3360000
X3180000Y3120000
X3296620Y3370000
X3312500Y3292500
X3320000Y3590000
X3550680Y3162500
X3580000Y3290000
X4200000Y3620000
X4224780Y3445000
X4790000Y3480000
X4900000Y3770000
X5100000Y3440000
X5120000Y4160000
X5022380Y4428850
X4822380Y4428850
X3460000Y4140000
X3405000Y4005000
X3330000Y3940000
X3240000Y4390000
X3230000Y4560000
X3140000Y3930000
X3060000Y3930000
X2940000Y4020000
X2880000Y4370000
X2823800Y4016200
X2650000Y4020000
X2380000Y4330000
X2120000Y4350000
X2120000Y4230000
X1536200Y3940000
X910000Y4170000
X588850Y4027620
X588850Y3827620
X418850Y4027620
X418850Y3827620
X410000Y4170000
X328850Y4947620
X328850Y5147620
X498850Y4947620
X498850Y5147620
X1078850Y5017620
X1078850Y5217620
X1600000Y4680000
X1680000Y4894000
X1680000Y5000000
X1750000Y5200000
X2310000Y4810000
X2320000Y5190000
X2400000Y4810000
X2490000Y4810000
X2662020Y4857980
X2680000Y4640000
X2780000Y4820000
X2987620Y4791150
X2987620Y4961150
X2987620Y5131150
X3167620Y4791150
X3167620Y4961150
X3167620Y5131150
X3340000Y4790000
X3560000Y5020000
X3562380Y5208850
X3660000Y5020000
X3762380Y5208850
X4192380Y4858850
X4192380Y5008850
X4392380Y4858850
X4392380Y5008850
X4540000Y4690000
X4822380Y4638850
X4822380Y5048850
X5022380Y4638850
X5022380Y5048850
X5402380Y4648850
X5402380Y4858850
X5402380Y5078850
X5402380Y5288850
X5272380Y6078850
X5072380Y6078850
X5072380Y5908850
X5072380Y5738850
X4282380Y5938850
X3906200Y5380000
X3762380Y5388850
X3578850Y5967620
X3578850Y5767620
X3562380Y5388850
X3406200Y6086200
X2880000Y5380000
X2820000Y6030000
X2680000Y6030000
X2559500Y6080000
X2560000Y5850000
X2487620Y5751150
X2487620Y5581150
X2350000Y5890000
X1640000Y5334000
X1627620Y6061150
X1427620Y6061150
X1277620Y5721150
X1078850Y5417620
X1077620Y5721150
X498850Y5547620
X498850Y5347620
X328850Y5547620
X328850Y5347620
X468850Y6527620
X468850Y6727620
X638850Y6527620
X638850Y6727620
X1287620Y6811150
X1487620Y6811150
X1830000Y6300000
X1910000Y6300000
X2320000Y6610000
X2376500Y6323500
X2380000Y6200000
X2380000Y6450500
X2420000Y6610000
X2840000Y6323500
X3180000Y6680000
X3180000Y6840000
X3880000Y6170000
X4282380Y6108850
X4282380Y6278850
X4610000Y6380000
X5030000Y6380000
X5112380Y6628850
X5112380Y6798850
X5272380Y6248850
X5272380Y6418850
X5112380Y6968850
X4652380Y7508850
X4652380Y7338850
X4652380Y7168850
X4652380Y6998850
X4452380Y7508850
X4452380Y7338850
X4452380Y7168850
X4452380Y6998850
X4252380Y7508850
X4252380Y7338850
X4252380Y7168850
X4252380Y6998850
X4052380Y7508850
X4052380Y7338850
X4052380Y7168850
X4052380Y6998850
X3730000Y7000000
X3540000Y7000000
X3180000Y6980000
X3090000Y7490000
X3090000Y7370000
X2933800Y7454070
X2837750Y7330000
X2810000Y7250000
X2420000Y7350000
X2420000Y7090000
X2350000Y7250000
X2340000Y7540000
X2000000Y7120000
X1990000Y6922150
X1690000Y7320000
X1684120Y7050000
X1252380Y7538850
X1252380Y7298850
X1252380Y7128850
X1052380Y7538850
X1052380Y7298850
X1052380Y7128850
X852380Y7538850
X852380Y7298850
X852380Y7128850
X652380Y7538850
X652380Y7298850
X652380Y7128850
X638850Y6927620
X468850Y6927620
X72380Y7928850
X272380Y7930880
X472380Y7928850
X652380Y7708850
X672380Y7928850
X852380Y7708850
X872380Y7928850
X1052380Y7708850
X1072380Y7928850
X1252380Y7708850
X1272380Y7928850
X1472380Y7928850
X1672380Y7928850
X1921150Y8012380
X1921150Y8212380
X2061150Y8012380
X2061150Y8212380
X2210000Y8010000
X2210000Y8140000
X2347800Y7740000
X2380000Y7850000
X2380000Y7960000
X2532380Y8248850
X2650000Y8080000
X2732380Y8250880
X2810000Y8080000
X2932380Y7808850
X2932380Y8248850
X3132380Y7808850
X3132380Y8248850
X3332380Y7808850
X3332380Y8248850
X3342380Y7978850
X3422380Y8108850
X3532380Y7808850
X3532380Y8248850
X3542380Y7978850
X3622380Y8108850
X3732380Y7808850
X3732380Y8248850
X3742380Y7978850
X3822380Y8108850
X3870000Y7810000
X3932380Y8248850
X3942380Y7978850
X4022380Y8108850
X4132380Y8248850
X4142380Y7978850
X4222380Y8108850
X4340000Y8250000
X4430000Y8110000
X4762380Y7988850
X4762380Y8118850
X4892380Y8238850
X4942380Y7988850
X4942380Y8118850
X5100000Y8240000
X5150000Y7990000
X5150000Y8120000
X5300000Y8370000
X5386200Y8136200
T02
X2560000Y7470000
X2560000Y7610000
X2630000Y7540000
X2700000Y7470000
X2700000Y7610000
T03
X949000Y1140000
X1203000Y1140000
X1457000Y1140000
X1711000Y1140000
X4370000Y5200000
X5130000Y5200000
T04
X5350000Y265000
X5350000Y515000
X1565000Y710000
X1315000Y710000
X1065000Y710000
X815000Y710000
X565000Y710000
X315000Y710000
M30
