G04 ================== begin FILE IDENTIFICATION RECORD ==================*
G04 Layout Name:  F407_BIKE_V10A.brd*
G04 Film Name:    SolderMask_Bottom*
G04 File Format:  Gerber RS274X*
G04 File Origin:  Cadence Allegro 17.2-S033*
G04 Origin Date:  Mon Feb 26 21:27:33 2018*
G04 *
G04 Layer:  BOARD GEOMETRY/OUTLINE*
G04 Layer:  PIN/SOLDERMASK_BOTTOM*
G04 Layer:  PACKAGE GEOMETRY/SOLDERMASK_BOTTOM*
G04 Layer:  BOARD GEOMETRY/SOLDERMASK_BOTTOM*
G04 *
G04 Offset:    (0.0000 0.0000)*
G04 Mirror:    No*
G04 Mode:      Positive*
G04 Rotation:  0*
G04 FullContactRelief:  No*
G04 UndefLineWidth:     0.1524*
G04 ================== end FILE IDENTIFICATION RECORD ====================*
%FSLAX55Y55*MOMM*%
%IR0*IPPOS*OFA0.00000B0.00000*MIA0B0*SFA1.00000B1.00000*%
%ADD15R,2.8956X1.8288*%
%ADD28R,1.7X.4*%
%ADD24R,.6X1.6*%
%ADD35R,1.5X.9*%
%ADD23O,.254X2.032*%
%ADD32R,.9X1.5*%
%ADD20O,2.032X.254*%
%ADD33R,2.7X.9*%
%ADD10R,.9144X.9144*%
%ADD30R,.8128X1.1684*%
%ADD22R,1.0668X.6858*%
%ADD17R,2.4X4.1*%
%ADD13R,1.9X1.1*%
%ADD12R,1.1X1.9*%
%ADD27R,1.6X1.6*%
%ADD21R,1.9X2.1*%
%ADD26R,1.9X2.6*%
%ADD25R,1.7X2.8*%
%ADD31R,.9X.35*%
%ADD11C,1.524*%
%ADD19R,1.4224X1.4224*%
%ADD16C,1.905*%
%ADD18R,1.651X1.651*%
%ADD14R,1.905X1.905*%
%ADD29R,1.2954X1.2954*%
%ADD34R,.6604X.7874*%
%ADD36C,.2032*%
%ADD37C,.17*%
%ADD38C,.127*%
%ADD39C,.1524*%
G75*
%LPD*%
G75*
G36*
G01X2490000Y7670000D02*
Y7410000D01*
X2760000D01*
Y7670000D01*
X2490000D01*
G37*
G54D10*
X406200Y130000D03*
X253800D03*
X863800Y1510000D03*
X696200Y1360000D03*
X543800D03*
X696200Y1510000D03*
X543800D03*
X863800Y1360000D03*
X1353800Y130000D03*
X1016200Y1510000D03*
Y1360000D03*
X1183800D03*
X1336200D03*
X1393800Y2430000D03*
Y2890000D03*
X1383800Y3340000D03*
Y3490000D03*
Y3190000D03*
Y3790000D03*
Y3640000D03*
X1506200Y130000D03*
X1886200D03*
X1733800D03*
X1766200Y1550000D03*
X1613800D03*
X1546200Y2430000D03*
Y2890000D03*
X1536200Y3340000D03*
Y3490000D03*
Y3190000D03*
Y3790000D03*
Y3640000D03*
X2063800Y500000D03*
X2216200D03*
X2063800Y650000D03*
X2216200D03*
X2063800Y800000D03*
X2216200D03*
X2063800Y950000D03*
X2216200D03*
X2276200Y4120000D03*
X2123800D03*
X2393800Y4640000D03*
X2773800Y1190000D03*
X2473800Y4120000D03*
X2626200D03*
X2823800D03*
X2546200Y4640000D03*
X2926200Y1190000D03*
X3263800Y1200000D03*
X2976200Y4120000D03*
X3136200Y4270000D03*
X2983800D03*
X3333800D03*
X3153800Y4120000D03*
X3306200D03*
X3836200Y130000D03*
X3683800D03*
X3416200Y1200000D03*
X3643800Y1270000D03*
X3796200D03*
X3643800Y1120000D03*
X3796200D03*
X3763800Y4120000D03*
X3486200Y4270000D03*
X3906200Y4680000D03*
X3753800D03*
X4216200Y130000D03*
X4063800D03*
X4343800Y720000D03*
Y920000D03*
X4316200Y1490000D03*
X4163800D03*
X4343800Y1070000D03*
X4163800Y1340000D03*
X4316200D03*
Y1640000D03*
X4163800D03*
X4353800Y2120000D03*
X3916200Y4120000D03*
X4496200Y720000D03*
Y920000D03*
Y1070000D03*
X4443800Y1770000D03*
X4596200D03*
X4506200Y2120000D03*
X4503800Y2300000D03*
X4656200D03*
X4498660Y2517900D03*
X4651060D03*
X4493800Y2970000D03*
X4646200D03*
X4833800D03*
X4646200Y2670000D03*
X4493800D03*
X4646200Y2820000D03*
X4493800D03*
Y3480000D03*
X4646200D03*
Y3120000D03*
X4493800D03*
X4833800D03*
X4986200Y2970000D03*
Y3120000D03*
G54D11*
X315000Y710000D03*
X565000D03*
X815000D03*
X1315000D03*
X1065000D03*
X5350000Y515000D03*
G54D20*
X1880000Y1945000D03*
Y1895000D03*
Y1845000D03*
Y1795000D03*
Y2445000D03*
Y2395000D03*
Y2345000D03*
Y2295000D03*
Y2245000D03*
Y2195000D03*
Y2145000D03*
Y2095000D03*
Y2045000D03*
Y1995000D03*
Y2945000D03*
Y2895000D03*
Y2845000D03*
Y2795000D03*
Y2745000D03*
Y2695000D03*
Y2645000D03*
Y2595000D03*
Y2545000D03*
Y2495000D03*
Y3445000D03*
Y3395000D03*
Y3345000D03*
Y3295000D03*
Y3245000D03*
Y3195000D03*
Y3145000D03*
Y3095000D03*
Y3045000D03*
Y2995000D03*
Y3545000D03*
Y3495000D03*
X4080000Y1795000D03*
Y1845000D03*
Y1895000D03*
Y1945000D03*
Y1995000D03*
Y2045000D03*
Y2095000D03*
Y2145000D03*
Y2195000D03*
Y2245000D03*
Y2295000D03*
Y2345000D03*
Y2395000D03*
Y2445000D03*
Y2495000D03*
Y2545000D03*
Y2595000D03*
Y2645000D03*
Y2695000D03*
Y2745000D03*
Y2795000D03*
Y2845000D03*
Y2895000D03*
Y2945000D03*
Y2995000D03*
Y3045000D03*
Y3095000D03*
Y3145000D03*
Y3195000D03*
Y3245000D03*
Y3295000D03*
Y3345000D03*
Y3395000D03*
Y3445000D03*
Y3495000D03*
Y3545000D03*
G54D21*
X2450000Y220000D03*
X2940000D03*
X2690000D03*
X3200000D03*
G54D12*
X110000Y1090000D03*
X280000D03*
X110000Y1630000D03*
X280000D03*
X110000Y2160000D03*
X280000D03*
X110000Y2700000D03*
X280000D03*
X110000Y3630000D03*
X280000D03*
X110000Y4170000D03*
X280000D03*
X2255000Y4330000D03*
X2505000D03*
X5250000Y1630000D03*
Y2170000D03*
Y3620000D03*
Y4160000D03*
X5420000Y1630000D03*
Y2170000D03*
Y3620000D03*
Y4160000D03*
G54D30*
X4868400Y957000D03*
X5071600D03*
X4970000Y703000D03*
G54D31*
X4665000Y1405000D03*
Y1455000D03*
X4515000D03*
Y1405000D03*
X4665000Y1505000D03*
Y1555000D03*
X4515000D03*
Y1505000D03*
G54D13*
X610000Y110000D03*
Y280000D03*
X1150000Y110000D03*
Y280000D03*
X4400000Y110000D03*
Y280000D03*
X4940000Y110000D03*
Y280000D03*
G54D22*
X2420780Y816500D03*
Y880000D03*
Y943500D03*
X2639220D03*
Y880000D03*
Y816500D03*
G54D14*
X949000Y1140000D03*
G54D32*
X4787300Y1160000D03*
X5132700D03*
G54D23*
X2105000Y1570000D03*
X2155000D03*
X2205000D03*
X2255000D03*
X2305000D03*
X2355000D03*
Y3770000D03*
X2305000D03*
X2255000D03*
X2205000D03*
X2155000D03*
X2105000D03*
X2405000Y1570000D03*
X2455000D03*
X2505000D03*
X2555000D03*
X2605000D03*
X2655000D03*
X2705000D03*
X2755000D03*
X2805000D03*
X2855000D03*
Y3770000D03*
X2805000D03*
X2755000D03*
X2705000D03*
X2655000D03*
X2605000D03*
X2555000D03*
X2505000D03*
X2455000D03*
X2405000D03*
X2905000Y1570000D03*
X2955000D03*
X3005000D03*
X3055000D03*
X3105000D03*
X3155000D03*
X3205000D03*
X3255000D03*
X3305000D03*
X3355000D03*
Y3770000D03*
X3305000D03*
X3255000D03*
X3205000D03*
X3155000D03*
X3105000D03*
X3055000D03*
X3005000D03*
X2955000D03*
X2905000D03*
X3405000Y1570000D03*
X3455000D03*
X3505000D03*
X3555000D03*
X3605000D03*
X3655000D03*
X3705000D03*
X3755000D03*
X3805000D03*
X3855000D03*
Y3770000D03*
X3805000D03*
X3755000D03*
X3705000D03*
X3655000D03*
X3605000D03*
X3555000D03*
X3505000D03*
X3455000D03*
X3405000D03*
G54D33*
X4970000Y1775000D03*
Y1545000D03*
G54D24*
X2886000Y483000D03*
X2821000D03*
X2756000D03*
X2691000D03*
X2951000D03*
G54D15*
X717000Y1830000D03*
X1363000D03*
G54D34*
X4656200Y3270000D03*
X4503800D03*
X4843800D03*
X4996200D03*
G54D16*
X1457000Y1140000D03*
X1203000D03*
X1711000D03*
X4370000Y5200000D03*
X5130000D03*
G54D25*
X3380000Y840000D03*
X3100000D03*
G54D26*
X3040000Y4550000D03*
X3420000D03*
G54D17*
X1080000Y4420000D03*
Y6020000D03*
G54D35*
X5360000Y947300D03*
Y1292700D03*
G54D36*
G01X470000Y4820000D02*
G03I-50000J0D01*
G01Y5620000D02*
G03I-50000J0D01*
G54D18*
X1565000Y710000D03*
X5350000Y265000D03*
G54D27*
X3890000Y820000D03*
G54D37*
G01X2650000Y430000D02*
G03I-30000J0D01*
G01X3050000D02*
G03I-30000J0D01*
G54D19*
X1545860Y1380000D03*
X1754140D03*
X2395860Y4990000D03*
X2604140D03*
X3774140Y510000D03*
X3565860D03*
X4015860D03*
X4224140D03*
X4365860Y1940000D03*
X4895860Y1380000D03*
X4795860Y1940000D03*
X4574140D03*
X4795860Y2130000D03*
X5104140Y1380000D03*
X5004140Y1940000D03*
Y2130000D03*
G54D28*
X3660000Y920000D03*
Y870000D03*
Y820000D03*
Y770000D03*
Y720000D03*
X4120000D03*
Y770000D03*
Y820000D03*
Y870000D03*
Y920000D03*
G54D38*
G01X1155000Y4830000D02*
G03I-75000J0D01*
G01Y5580000D02*
G03I-75000J0D01*
G54D29*
X3930000Y4504140D03*
Y4295860D03*
X3740000Y4504140D03*
Y4295860D03*
G54D39*
G01X5390000Y0D02*
X140000D01*
G02X0Y140000I0J140000D01*
G01Y8560000D01*
G02X140000Y8700000I140000J0D01*
G01X5390000D01*
G02X5530000Y8560000I0J-140000D01*
G01Y140000D01*
G02X5390000Y0I-140000J0D01*
G01X100000Y1360000D02*
G03I-40000J0D01*
G01X375000D02*
G03I-40000J0D01*
G01X100000Y2430000D02*
G03I-40000J0D01*
G01X375000D02*
G03I-40000J0D01*
G01X100000Y3900000D02*
G03I-40000J0D01*
G01X375000D02*
G03I-40000J0D01*
G01X920000Y60000D02*
G03I-40000J0D01*
G01Y335000D02*
G03I-40000J0D01*
G01X4710000Y60000D02*
G03I-40000J0D01*
G01Y335000D02*
G03I-40000J0D01*
G01X5235000Y1900000D02*
G03I-40000J0D01*
G01Y3890000D02*
G03I-40000J0D01*
G01X5510000Y1900000D02*
G03I-40000J0D01*
G01Y3890000D02*
G03I-40000J0D01*
M02*
