G04 ================== begin FILE IDENTIFICATION RECORD ==================*
G04 Layout Name:  F407_BIKE_V10A.brd*
G04 Film Name:    TOP*
G04 File Format:  Gerber RS274X*
G04 File Origin:  Cadence Allegro 17.2-S033*
G04 Origin Date:  Mon Feb 26 21:27:33 2018*
G04 *
G04 Layer:  BOARD GEOMETRY/OUTLINE*
G04 Layer:  VIA CLASS/TOP*
G04 Layer:  PIN/TOP*
G04 Layer:  ETCH/TOP*
G04 *
G04 Offset:    (0.0000 0.0000)*
G04 Mirror:    No*
G04 Mode:      Positive*
G04 Rotation:  0*
G04 FullContactRelief:  No*
G04 UndefLineWidth:     0.1524*
G04 ================== end FILE IDENTIFICATION RECORD ====================*
%FSLAX55Y55*MOMM*%
%IR0*IPPOS*OFA0.00000B0.00000*MIA0B0*SFA1.00000B1.00000*%
%ADD31R,1.X.8*%
%ADD24R,1.1X.6*%
%ADD30R,.8X1.*%
%ADD25R,1.5X.6*%
%ADD37R,1.55X.3*%
%ADD23R,.8X1.4*%
%ADD41R,1.8X.8*%
%ADD26R,2.032X.635*%
%ADD44R,1.016X.6604*%
%ADD45R,.6604X1.016*%
%ADD35C,.762*%
%AMMACRO39*
4,1,3,1.2,1.2,
-1.2,1.2,
1.2,-1.2,
1.2,1.2,
0.0*
%
%ADD39MACRO39*%
%ADD19R,.508X3.099*%
%ADD11C,.6096*%
%ADD48R,1.X1.*%
%ADD21R,1.4X1.*%
%ADD14R,2.2X1.1*%
%ADD17R,1.1X2.2*%
%ADD27R,1.4X2.*%
%ADD42R,1.6X3.*%
%ADD13R,1.8X1.*%
%ADD32R,2.4X2.4*%
%ADD46O,.2X.8*%
%ADD40R,4.1X1.7*%
%ADD47R,.5X.6*%
%ADD29R,.8X.3*%
%ADD38R,1.8X2.5*%
%ADD36R,.6X.5*%
%ADD28R,.3X.8*%
%ADD33R,.8X.25*%
%ADD34R,.25X.8*%
%ADD10R,1.016X1.2192*%
%ADD12C,1.524*%
%ADD22R,1.524X1.524*%
%ADD18C,1.778*%
%ADD20R,.9144X.9144*%
%ADD15R,.9144X.9144*%
%ADD43R,1.1938X1.1938*%
%ADD16R,1.778X1.778*%
%ADD49C,.2032*%
%ADD50C,.17*%
%ADD51C,.127*%
%ADD52C,.7112*%
%ADD53C,.254*%
%ADD54C,.1524*%
%ADD55C,.508*%
%ADD59C,.6328*%
%ADD56C,1.0202*%
%ADD58C,1.4146*%
%ADD57C,1.0774*%
G75*
%LPD*%
G75*
G36*
G01X1645790Y7878440D02*
X1585000Y7817650D01*
X1524210Y7878440D01*
X434450D01*
X400650Y7908950D01*
G03X370000Y7920740I-30650J-33945D01*
G01X150000D01*
G03X104260Y7875000I0J-45740D01*
G01Y7765000D01*
G03X116510Y7733840I45742J-5D01*
G02Y7706160I-14872J-13840D01*
G03X104260Y7675000I33492J-31155D01*
G01Y7565000D01*
G03X116510Y7533840I45742J-5D01*
G02Y7506160I-14872J-13840D01*
G03X104260Y7475000I33492J-31155D01*
G01Y7365000D01*
G03X116510Y7333840I45742J-5D01*
G02Y7306160I-14872J-13840D01*
G03X104260Y7275000I33492J-31155D01*
G01Y7165000D01*
G03X116510Y7133840I45742J-5D01*
G02Y7106160I-14872J-13840D01*
G03X104260Y7075000I33492J-31155D01*
G01Y6965000D01*
G03X116510Y6933840I45742J-5D01*
G02Y6906160I-14872J-13840D01*
G03X104260Y6875000I33492J-31155D01*
G01Y6765000D01*
G03X116510Y6733840I45742J-5D01*
G02Y6706160I-14872J-13840D01*
G03X104260Y6675000I33492J-31155D01*
G01Y6565000D01*
G03X116510Y6533840I45742J-5D01*
G02Y6506160I-14872J-13840D01*
G03X104260Y6475000I33492J-31155D01*
G01Y6365000D01*
G03X144870Y6319550I45738J0D01*
G01X315060Y6300340D01*
Y6166950D01*
X305000Y6154590D01*
G03X294740Y6125720I35488J-28870D01*
G01Y6089150D01*
X88860Y5883270D01*
Y3517420D01*
X88260Y3515750D01*
G03Y3464250I71740J-25750D01*
G01X88860Y3462580D01*
Y612930D01*
X335060Y366730D01*
Y263620D01*
X334460Y261950D01*
G03X477940I71740J-25750D01*
G01X477340Y263620D01*
Y366730D01*
X509470Y398860D01*
X1370530D01*
X1398860Y370530D01*
Y327800D01*
G02X1370090Y309320I-20320J-1D01*
G03X1264660Y220730I-31687J-69320D01*
G01X1266040Y215450D01*
X1253520Y201460D01*
G03X1241860Y170960I34078J-30506D01*
G01Y49040D01*
G03X1243740Y36080I45737J18D01*
G02X1224250Y10000I-19488J-5759D01*
G01X344120D01*
G02X324510Y35660I-5J20320D01*
G03X326120Y47690I-44139J12030D01*
G01Y169610D01*
G03X314460Y200110I-45738J-6D01*
G01X301610Y214470D01*
X303080Y219810D01*
G03X156080I-73500J20190D01*
G01X157550Y214470D01*
X144700Y200110D01*
G03X133040Y169610I34078J-30506D01*
G01Y47690D01*
G03X133960Y38540I45742J-22D01*
G02X108580Y14910I-19908J-4063D01*
G02X10000Y140000I36420J130091D01*
G01Y7960000D01*
X1880000D01*
Y8290000D01*
X2254740D01*
Y8194280D01*
G03X2264190Y8166440I45734J0D01*
G03X2252340Y8135720I33894J-30720D01*
G01Y8044280D01*
G03X2298080Y7998540I45740J0D01*
G01X2389520D01*
G03X2409580Y8003170I7J45742D01*
G02X2424060Y7992400I4456J-9129D01*
G03X2423460Y7985000I45141J-7384D01*
G01Y7935000D01*
G03X2469200Y7889260I45740J0D01*
G01X2491650D01*
X2492150Y7889210D01*
G03X2506250I7050J70790D01*
G01X2506750Y7889260D01*
X2533460D01*
Y7825740D01*
X2517500D01*
G03X2478200Y7803400I0J-45738D01*
G01X2475250Y7798440D01*
X2396730D01*
G03X2357850Y7815550I-48924J-58444D01*
G01X2354440Y7816010D01*
X2347540Y7822910D01*
X2337360Y7910970D01*
G03X2291920Y7951460I-45440J-5253D01*
G01X2200480D01*
G03X2154740Y7905720I0J-45740D01*
G01Y7814280D01*
G03X2165340Y7785000I45740J0D01*
G03X2154740Y7755720I35140J-29280D01*
G01Y7664280D01*
G03X2165340Y7635000I45740J0D01*
G03X2154740Y7605720I35140J-29280D01*
G01Y7514280D01*
G03X2165340Y7485000I45740J0D01*
G03X2154740Y7455720I35140J-29280D01*
G01Y7364280D01*
G03X2154800Y7361910I45741J-28D01*
G02X2143720Y7351270I-10145J-525D01*
G03X2139520Y7351460I-4165J-45552D01*
G01X2084990D01*
X2058010Y7378440D01*
X2005740D01*
Y7475000D01*
G03X1993490Y7506160I-45742J5D01*
G02Y7533840I14872J13840D01*
G03X2005740Y7565000I-33492J31155D01*
G01Y7675000D01*
G03X1993490Y7706160I-45742J5D01*
G02Y7733840I14872J13840D01*
G03X2005740Y7765000I-33492J31155D01*
G01Y7875000D01*
G03X1960000Y7920740I-45740J0D01*
G01X1740000D01*
G03X1709350Y7908950I0J-45735D01*
G01X1675550Y7878440D01*
X1645790D01*
G37*
G36*
G01X451100Y466500D02*
X357840D01*
X406200Y396200D01*
X451100Y441100D01*
Y466500D01*
G37*
G36*
G01X238560Y205880D02*
X251120Y218460D01*
X229580Y243180D01*
X208040Y218460D01*
X220600Y205880D01*
G03X238560I8980J8980D01*
G37*
G36*
G01X221960Y217860D02*
X178780Y169610D01*
X229580Y105480D01*
X280380Y169610D01*
X237200Y217860D01*
G03X221960I-7620J-10160D01*
G37*
G36*
G01X375790Y3328440D02*
X323360Y3276010D01*
X319950Y3275550D01*
G03X375000Y3138480I10049J-75554D01*
G03X474960Y3147190I44999J61520D01*
G01X475040Y3147270D01*
X489340Y3161560D01*
X649860D01*
G02X664230Y3126870I0J-20321D01*
G01X301560Y2764210D01*
Y1185790D01*
X708190Y779170D01*
X704390Y772450D01*
G03X699260Y762320I110639J-62393D01*
G02X680740I-9260J4189D01*
G03X457240Y777240I-115741J-52322D01*
G02X422760I-17240J10760D01*
G03X260220Y824600I-107762J-67240D01*
G02X231140Y842930I-8760J18334D01*
G01Y3438860D01*
X1252580D01*
X1254250Y3438260D01*
G03X1305750I25750J71740D01*
G01X1307420Y3438860D01*
X1649470D01*
X1700920Y3490310D01*
X1702520Y3491060D01*
G03X1601060Y3592520I-32520J68940D01*
G01X1600310Y3590920D01*
X1590530Y3581140D01*
X1307420D01*
X1305750Y3581740D01*
G03X1254250I-25750J-71740D01*
G01X1252580Y3581140D01*
X231140D01*
Y5824330D01*
X294720Y5887910D01*
G02X312060Y5880720I7181J-7186D01*
G01Y5877400D01*
G03X357800Y5831660I45740J0D01*
G01X537800D01*
G03X583540Y5877400I0J45740D01*
G01Y5977400D01*
G03X537800Y6023140I-45740J0D01*
G01X477650D01*
Y6033480D01*
G03X477660Y6034280I-45728J972D01*
G01Y6114720D01*
X488480D01*
X489120Y6114640D01*
G03X495000Y6114260I5884J45360D01*
G01X1605000D01*
G03X1633810Y6124470I0J45752D01*
G01X1640920Y6130240D01*
X1762340Y6008810D01*
Y5954280D01*
G03X1808080Y5908540I45740J0D01*
G01X1899520D01*
G03X1903720Y5908730I35J45742D01*
G02X1914800Y5898090I935J-10115D01*
G03X1914740Y5895720I45681J-2342D01*
G01Y5804280D01*
G03X1914800Y5801910I45741J-28D01*
G02X1903720Y5791270I-10145J-525D01*
G03X1899520Y5791460I-4165J-45552D01*
G01X1808080D01*
G03X1775650Y5777980I0J-45750D01*
G01X1720410Y5722440D01*
X1643050D01*
G02X1622730Y5743140I-3J20320D01*
G03X1622740Y5744000I-45729J962D01*
G01Y5804000D01*
G03X1577000Y5849740I-45740J0D01*
G01X1575310D01*
G02X1555220Y5873120I-2J20320D01*
G03X1555740Y5880000I-45220J6877D01*
G01Y5980000D01*
G03X1510000Y6025740I-45740J0D01*
G01X1370000D01*
G03X1324260Y5980000I0J-45740D01*
G01Y5880000D01*
G03X1370000Y5834260I45740J0D01*
G01X1401690D01*
G02X1421780Y5810880I2J-20320D01*
G03X1421260Y5804000I45220J-6877D01*
G01Y5744000D01*
G03X1421270Y5743140I45739J102D01*
G02X1400950Y5722440I-20317J-380D01*
G01X1389790D01*
X1210920Y5543570D01*
Y3806430D01*
X1355790Y3661560D01*
X1775790D01*
X1985790Y3451560D01*
X2101070D01*
G03X2130370Y3436350I48934J58438D01*
G02X2139510Y3402350I-5229J-19634D01*
G01X2115600Y3378440D01*
X579340D01*
X565040Y3392730D01*
X564960Y3392810D01*
G03X433790Y3338760I-54960J-52810D01*
G01Y3328440D01*
X375790D01*
G37*
G36*
G01X347780Y3230480D02*
X330000D01*
X327750Y3197750D01*
X360480Y3200000D01*
Y3217780D01*
G03X347780Y3230480I-12700J0D01*
G37*
G36*
G01X187180Y3510000D02*
X180000D01*
X154890Y3486240D01*
X181540Y3468460D01*
X205140Y3492040D01*
X187180Y3510000D01*
G37*
G36*
G01X375890Y6169240D02*
X340480Y6125720D01*
X386200Y6073650D01*
X431920Y6125720D01*
X396510Y6169240D01*
G03X375890I-10310J-23210D01*
G37*
G36*
G01X400370Y6366150D02*
X370000Y6475000D01*
X237090Y6430960D01*
X150000Y6365000D01*
X375000Y6339600D01*
G03X400370Y6366150I0J25396D01*
G37*
G36*
G01X422360Y7427740D02*
X370000Y7475000D01*
X256820Y7420000D01*
X370000Y7365000D01*
X422360Y7412260D01*
G03Y7427740I-10070J7740D01*
G37*
G36*
G01Y7827740D02*
X370000Y7875000D01*
X256820Y7820000D01*
X370000Y7765000D01*
X422360Y7812260D01*
G03Y7827740I-10070J7740D01*
G37*
G36*
G01X2035750Y10000D02*
G02X2016260Y36080I-2J20321D01*
G03X2018140Y49040I-43857J12978D01*
G01Y170960D01*
G03X2006480Y201460I-45738J-6D01*
G01X1980040Y231010D01*
Y322610D01*
X1818440Y484210D01*
Y841690D01*
X1731050Y929080D01*
X781050D01*
X468440Y1241690D01*
Y2695790D01*
X844210Y3071560D01*
X2304210D01*
X2756870Y3524230D01*
G02X2791560Y3509860I14369J-14370D01*
G01Y2794210D01*
X2715790Y2718440D01*
X2385140D01*
G02X2370770Y2753130I0J20321D01*
G01X2436640Y2818990D01*
X2440050Y2819450D01*
G03X2354450Y2905050I-10050J75550D01*
G01X2353990Y2901640D01*
X2220790Y2768440D01*
X1466270D01*
X1466220Y2778550D01*
G03X1372470Y2852340I-76220J-388D01*
G02X1348700Y2865160I-4677J19774D01*
G03X1346470Y2870290I-42983J-15635D01*
G01X1345370Y2872460D01*
Y2885060D01*
X1589330D01*
X1610310Y2864080D01*
X1611060Y2862480D01*
G03X1712520Y2963940I68940J32520D01*
G01X1710920Y2964690D01*
X1648270Y3027340D01*
X1346950D01*
X1334590Y3037400D01*
G03X1305720Y3047660I-28870J-35488D01*
G01X1214280D01*
G03X1168540Y3001920I0J-45740D01*
G01Y2965350D01*
X1116550Y2913360D01*
X1050890Y2893260D01*
G03X1035410Y2885000I13394J-43737D01*
G01X1023050Y2874940D01*
X734330D01*
X508860Y2649470D01*
Y1800530D01*
X1000060Y1309330D01*
G02X985700Y1274640I-14364J-14371D01*
G01X860100D01*
G03X814360Y1228900I0J-45740D01*
G01Y1051100D01*
G03X860100Y1005360I45740J0D01*
G01X1037900D01*
G03X1078460Y1029950I0J45746D01*
G02X1110000Y1035730I18020J-9388D01*
G03X1313880Y1054980I93004J104270D01*
G02X1346120I16120J-12364D01*
G03X1567880I110880J85020D01*
G02X1600120I16120J-12364D01*
G03X1850720Y1140000I110878J85020D01*
G01Y1197070D01*
X1945210Y1291560D01*
X2441070D01*
G03X2564520Y1333980I48932J58440D01*
G03X2616200Y1470620I5478J76021D01*
G01X2612200Y1473670D01*
Y1488860D01*
X2640530D01*
X2672660Y1456730D01*
Y1328270D01*
X2458860Y1114470D01*
Y909470D01*
X2270530Y721140D01*
X1987420D01*
X1985750Y721740D01*
G03Y578260I-25750J-71740D01*
G01X1987420Y578860D01*
X2329470D01*
X2560920Y810310D01*
X2562520Y811060D01*
G03X2601740Y905750I-32520J68937D01*
G01X2601140Y907420D01*
Y1055530D01*
X2778270Y1232660D01*
X2968920D01*
G02X2983290Y1197970I0J-20321D01*
G01X2964260Y1178950D01*
Y1011050D01*
X3021050Y954260D01*
X3228950D01*
X3285390Y1010700D01*
G02X3316640Y1007630I14364J-14370D01*
G03X3432830Y995060I63359J42370D01*
G01X3583350D01*
X3583910Y985500D01*
G03X3601560Y941070I76087J4505D01*
G01Y243090D01*
X3563840Y201820D01*
G03X3551860Y170960I33757J-30860D01*
G01Y49040D01*
G03X3553740Y36080I45737J18D01*
G02X3534250Y10000I-19488J-5759D01*
G01X2035750D01*
G37*
G36*
G01X1463810Y1798440D02*
X1344210D01*
X1046010Y2096640D01*
X1045550Y2100050D01*
G03X925000Y2151520I-75554J-10050D01*
G03X835000I-45000J-61520D01*
G03X779950Y2014450I-45001J-61516D01*
G01X783360Y2013990D01*
X1215790Y1581560D01*
X1421900D01*
G02X1436260Y1546870I-4J-20319D01*
G01X1200000Y1310610D01*
X651140Y1859470D01*
Y2590530D01*
X793270Y2732660D01*
X1023050D01*
X1031770Y2725570D01*
X1038860Y2716850D01*
Y2687420D01*
X1038260Y2685750D01*
G03X1037620Y2636130I71741J-25739D01*
G01X1039580Y2630180D01*
X991860Y2582470D01*
Y2222050D01*
G03X1037600Y2176310I45740J0D01*
G01X1604560D01*
Y1954210D01*
X1553360Y1903010D01*
X1549950Y1902550D01*
G03X1484060Y1820490I10050J-75553D01*
G02X1463810Y1798440I-20246J-1730D01*
G37*
G36*
G01X910480Y2072220D02*
Y2090000D01*
X877750Y2092250D01*
X880000Y2059520D01*
X897780D01*
G03X910480Y2072220I0J12700D01*
G37*
G36*
G01X820480D02*
Y2090000D01*
X787750Y2092250D01*
X790000Y2059520D01*
X807780D01*
G03X820480Y2072220I0J12700D01*
G37*
G36*
G01X564120Y3328980D02*
X531540Y3361540D01*
X507100Y3341290D01*
X530000Y3320000D01*
X555140D01*
X564120Y3328980D01*
G37*
G36*
G01X465140Y3220000D02*
X440000D01*
X417100Y3198710D01*
X441540Y3178460D01*
X474120Y3211020D01*
X465140Y3220000D01*
G37*
G36*
G01X434450Y7361560D02*
X1425790D01*
X1469640Y7317710D01*
Y7037710D01*
X1585040Y6922310D01*
Y6425740D01*
X495000D01*
G03X455520Y6403100I0J-45743D01*
G01X454860Y6401970D01*
X446750Y6393860D01*
X437560Y6403040D01*
X414060Y6487290D01*
G03X403490Y6506160I-44061J-12285D01*
G02Y6533840I14872J13840D01*
G03X415740Y6565000I-33492J31155D01*
G01Y6675000D01*
G03X403490Y6706160I-45742J5D01*
G02Y6733840I14872J13840D01*
G03X415740Y6765000I-33492J31155D01*
G01Y6875000D01*
G03X403490Y6906160I-45742J5D01*
G02Y6933840I14872J13840D01*
G03X415740Y6965000I-33492J31155D01*
G01Y7075000D01*
G03X403490Y7106160I-45742J5D01*
G02Y7133840I14872J13840D01*
G03X415740Y7165000I-33492J31155D01*
G01Y7275000D01*
G03X397140Y7311820I-45744J0D01*
G02Y7328180I6023J8180D01*
G03X400650Y7331050I-27163J36801D01*
G01X434450Y7361560D01*
G37*
G36*
G01Y7761560D02*
X1475790D01*
X1510280Y7727070D01*
Y7491420D01*
G02X1475590Y7477050I-20321J0D01*
G01X1474210Y7478440D01*
X434450D01*
X400650Y7508950D01*
G03X397140Y7511820I-30673J-33931D01*
G02Y7528180I6023J8180D01*
G03X415740Y7565000I-27144J36820D01*
G01Y7675000D01*
G03X397140Y7711820I-45744J0D01*
G02Y7728180I6023J8180D01*
G03X400650Y7731050I-27163J36801D01*
G01X434450Y7761560D01*
G37*
G36*
G01X1347380Y205880D02*
X1359940Y218460D01*
X1338400Y243180D01*
X1316860Y218460D01*
X1329420Y205880D01*
G03X1347380I8980J8980D01*
G37*
G36*
G01X1330780Y219210D02*
X1287600Y170960D01*
X1338400Y106820D01*
X1389200Y170960D01*
X1346020Y219210D01*
G03X1330780I-7620J-10160D01*
G37*
G36*
G01X1000480Y2072220D02*
Y2090000D01*
X967750Y2092250D01*
X970000Y2059520D01*
X987780D01*
G03X1000480Y2072220I0J12700D01*
G37*
G36*
G01X1349240Y2966510D02*
X1305720Y3001920D01*
X1253650Y2956200D01*
X1305720Y2910480D01*
X1349240Y2945890D01*
G03Y2966510I-23210J10310D01*
G37*
G36*
G01X1020760Y2793490D02*
X1064280Y2758080D01*
X1116350Y2803800D01*
X1064280Y2849520D01*
X1020760Y2814110D01*
G03Y2793490I23210J-10310D01*
G37*
G36*
G01X1120310Y2714560D02*
X1155720Y2758080D01*
X1110000Y2810150D01*
X1064280Y2758080D01*
X1099690Y2714560D01*
G03X1120310I10310J23210D01*
G37*
G36*
G01X1155050Y2877310D02*
X1064280Y2849520D01*
X1105630Y2799200D01*
X1155720Y2758080D01*
X1181120Y2851920D01*
G03X1155050Y2877310I-25399J0D01*
G37*
G36*
G01X1355880Y2769180D02*
X1368460Y2756620D01*
X1393180Y2778160D01*
X1368460Y2799700D01*
X1355880Y2787140D01*
G03Y2769180I8980J-8980D01*
G37*
G36*
G01X2496700Y3569350D02*
G02X2469210Y3568200I-14370J14367D01*
G03X2375000Y3571520I-49215J-58200D01*
G03X2285000I-45000J-61520D01*
G03X2249860Y3585580I-44998J-61520D01*
G01X2246430Y3586030D01*
X2200520Y3631940D01*
X2030710D01*
X1843570Y3819080D01*
X1443570D01*
X1378440Y3884210D01*
Y4334260D01*
X1510000D01*
G03X1555740Y4380000I0J45740D01*
G01Y4480000D01*
G03X1510000Y4525740I-45740J0D01*
G01X1378440D01*
Y5435780D01*
X1433930Y5491280D01*
X1440910Y5486430D01*
G03X1467000Y5478260I26090J37573D01*
G01X1577000D01*
G03X1606340Y5488910I0J45740D01*
G01X1614290Y5495560D01*
X1720900D01*
X1775170Y5442490D01*
G02X1774480Y5427350I-7106J-7262D01*
G01X1766850Y5421140D01*
X1740520D01*
X1700640Y5381260D01*
X1693460Y5388330D01*
G03X1603790Y5401070I-53459J-54330D01*
G03X1577000Y5409740I-26794J-37069D01*
G01X1467000D01*
G03X1421260Y5364000I0J-45740D01*
G01Y5304000D01*
G03X1428700Y5279000I45739J5D01*
G03X1421260Y5254000I38299J-25005D01*
G01Y5194000D01*
G03X1428700Y5169000I45739J5D01*
G03X1421260Y5144000I38299J-25005D01*
G01Y5084000D01*
G03X1428700Y5059000I45739J5D01*
G03X1421260Y5034000I38299J-25005D01*
G01Y4974000D01*
G03X1428700Y4949000I45739J5D01*
G03X1421260Y4924000I38299J-25005D01*
G01Y4864000D01*
G03X1467000Y4818260I45740J0D01*
G01X1577000D01*
G03X1606340Y4828910I0J45740D01*
G01X1614290Y4835560D01*
X1630950D01*
X1633680Y4833470D01*
G03X1726320I46320J60530D01*
G01X1729050Y4835560D01*
X1752530D01*
X1783390Y4815770D01*
G03X1808080Y4808540I24681J38513D01*
G01X1898860D01*
Y4798300D01*
G03Y4797230I71139J-535D01*
G01Y4730940D01*
G02X1875620Y4710830I-20320J-1D01*
G01X1847760Y4714880D01*
X1824210Y4738440D01*
X1648930D01*
G03Y4621560I-48930J-58440D01*
G01X1766530D01*
X1782020Y4513510D01*
G03X1791640Y4491360I45276J6500D01*
G02Y4478640I-7927J-6360D01*
G03X1781560Y4450000I35647J-28640D01*
G01Y4310000D01*
G03X1791830Y4281120I45741J0D01*
G01X1796160Y4275800D01*
Y4086770D01*
X1720530Y4011140D01*
X1563620D01*
X1561950Y4011740D01*
G03Y3868260I-25750J-71740D01*
G01X1563620Y3868860D01*
X1779470D01*
X1846870Y3936260D01*
G02X1881560Y3921900I14371J-14364D01*
G01Y3845790D01*
X1963990Y3763360D01*
X1964450Y3759950D01*
G03X2050050Y3845550I75550J10050D01*
G01X2046640Y3846010D01*
X1998440Y3894210D01*
Y4375790D01*
X2098440Y4475790D01*
Y4765790D01*
X2158440Y4825790D01*
Y5165790D01*
X2408440Y5415790D01*
Y5725790D01*
X2478060Y5795420D01*
G02X2506650Y5795560I14366J-14371D01*
G03X2585750Y5778260I53348J54440D01*
G01X2587420Y5778860D01*
X2654900D01*
X2656830Y5778020D01*
G03X2675000Y5774260I18162J41982D01*
G01X2825000D01*
G03X2843170Y5778020I8J45742D01*
G01X2845100Y5778860D01*
X2852080D01*
X2902040Y5735050D01*
X2898070Y5727890D01*
G03X2892340Y5705720I40024J-22170D01*
G01Y5654440D01*
X2862290D01*
X2854340Y5661090D01*
G03X2825000Y5671740I-29340J-35090D01*
G01X2675000D01*
G03X2632120Y5641910I0J-45735D01*
G01X2616110Y5598750D01*
X2501560Y5484210D01*
Y5355740D01*
X2420000D01*
G03X2374260Y5310000I0J-45740D01*
G01Y5230000D01*
G03X2384340Y5201360I45727J0D01*
G02Y5188640I-7927J-6360D01*
G03X2374710Y5166390I35660J-28643D01*
G01X2365010Y5097660D01*
X2251560Y4984210D01*
Y4858930D01*
G03X2284760Y4738080I58440J-48931D01*
G01X2291560Y4735690D01*
Y4723400D01*
G02X2265540Y4703900I-20320J4D01*
G03X2252700Y4705740I-12843J-43900D01*
G01X2172700D01*
G03X2126960Y4660000I0J-45740D01*
G01Y4520000D01*
G03X2137040Y4491360I45727J0D01*
G02Y4478640I-7927J-6360D01*
G03X2126960Y4450000I35647J-28640D01*
G01Y4439570D01*
X2113450Y4426020D01*
X2110020Y4425560D01*
G03X2141240Y4276800I9971J-75564D01*
G03X2172700Y4264260I31460J33193D01*
G01X2252700D01*
G03X2298440Y4310000I0J45740D01*
G01Y4450000D01*
G03X2288360Y4478640I-45727J0D01*
G02Y4491360I7927J6360D01*
G03X2288980Y4492140I-35494J28849D01*
G01X2289380Y4492670D01*
X2297030Y4500320D01*
X2388270Y4409080D01*
X2498510D01*
X2517010Y4393000D01*
G03X2544070Y4381870I30016J34516D01*
G02X2553580Y4371740I-648J-10137D01*
G01Y4297570D01*
X2572340Y4278810D01*
Y4224280D01*
G03X2582600Y4195410I45748J0D01*
G01X2592660Y4183050D01*
Y4146730D01*
X2754110Y3985280D01*
X2754860Y3983680D01*
G03X2819560Y3940100I68934J32523D01*
G02X2832800Y3905440I-1130J-20290D01*
G01X2496700Y3569350D01*
G37*
G36*
G01X1533980Y219210D02*
X1490800Y170960D01*
X1541600Y106820D01*
X1592400Y170960D01*
X1549220Y219210D01*
G03X1533980I-7620J-10160D01*
G37*
G36*
G01X1727380Y204280D02*
X1739940Y216860D01*
X1718400Y241580D01*
X1696860Y216860D01*
X1709420Y204280D01*
G03X1727380I8980J8980D01*
G37*
G36*
G01X1710780Y219210D02*
X1667600Y170960D01*
X1718400Y106820D01*
X1769200Y170960D01*
X1726020Y219210D01*
G03X1710780I-7620J-10160D01*
G37*
G36*
G01X1913980D02*
X1870800Y170960D01*
X1921600Y106820D01*
X1972400Y170960D01*
X1929220Y219210D01*
G03X1913980I-7620J-10160D01*
G37*
G36*
G01X1533200Y1228900D02*
X1457000D01*
X1454750Y1137750D01*
X1545900Y1140000D01*
Y1216200D01*
G03X1533200Y1228900I-12700J0D01*
G37*
G36*
G01X1787200D02*
X1711000D01*
X1708750Y1137750D01*
X1799900Y1140000D01*
Y1216200D01*
G03X1787200Y1228900I-12700J0D01*
G37*
G36*
G01X1577780Y1857480D02*
X1560000D01*
X1557750Y1824750D01*
X1590480Y1827000D01*
Y1844780D01*
G03X1577780Y1857480I-12700J0D01*
G37*
G36*
G01X1473820Y2555210D02*
X1483380Y2570790D01*
X1459660Y2593160D01*
X1438460Y2568460D01*
X1454020Y2552880D01*
G03X1473820Y2555210I8980J8980D01*
G37*
G36*
G01X1571980Y2555880D02*
X1584540Y2568460D01*
X1563000Y2593180D01*
X1541460Y2568460D01*
X1554020Y2555880D01*
G03X1571980I8980J8980D01*
G37*
G36*
G01X1876000Y4271550D02*
X1907300Y4310000D01*
X1867300Y4386350D01*
X1827300Y4310000D01*
X1858600Y4271550D01*
G03X1876000I8700J23860D01*
G37*
G36*
G01X1645880Y4885020D02*
X1658460Y4872460D01*
X1683180Y4894000D01*
X1658460Y4915540D01*
X1645880Y4902980D01*
G03Y4885020I8980J-8980D01*
G37*
G36*
G01X1714120Y4902980D02*
X1701540Y4915540D01*
X1676820Y4894000D01*
X1701540Y4872460D01*
X1714120Y4885020D01*
G03Y4902980I-8980J8980D01*
G37*
G36*
G01X1605290Y4900340D02*
X1577000Y4924000D01*
X1518820Y4894000D01*
X1577000Y4864000D01*
X1605290Y4887660D01*
G03Y4900340I-11000J6340D01*
G37*
G36*
G01X1760010Y4885100D02*
X1808080Y4854280D01*
X1856970Y4900220D01*
X1808080Y4945720D01*
X1758930Y4901650D01*
G03X1760010Y4885100I10139J-7649D01*
G37*
G36*
G01X1807320Y4659340D02*
X1827300Y4520000D01*
X1869080Y4587370D01*
X1907300Y4660000D01*
X1820000Y4672700D01*
G03X1807320Y4659340I0J-12697D01*
G37*
G36*
G01X1634120Y4688980D02*
X1621540Y4701540D01*
X1596820Y4680000D01*
X1621540Y4658460D01*
X1634120Y4671020D01*
G03Y4688980I-8980J8980D01*
G37*
G36*
G01X1606700Y5227840D02*
X1577000Y5254000D01*
X1515650Y5224000D01*
X1577000Y5194000D01*
X1606700Y5220160D01*
G03Y5227840I-25110J3840D01*
G37*
G36*
G01X1894720Y5438260D02*
X1808080Y5395720D01*
X1850080Y5344850D01*
X1899520Y5304280D01*
X1924920Y5413320D01*
G03X1894720Y5438260I-25398J0D01*
G37*
G36*
G01X1764560Y5339690D02*
X1808080Y5304280D01*
X1860150Y5350000D01*
X1808080Y5395720D01*
X1764560Y5360310D01*
G03Y5339690I23210J-10310D01*
G37*
G36*
G01X1732220Y5169520D02*
X1750000D01*
X1752250Y5202250D01*
X1719520Y5200000D01*
Y5182220D01*
G03X1732220Y5169520I12700J0D01*
G37*
G36*
G01X1784120Y5208980D02*
X1771540Y5221540D01*
X1746820Y5200000D01*
X1771540Y5178460D01*
X1784120Y5191020D01*
G03Y5208980I-8980J8980D01*
G37*
G36*
G01X1605290Y5120340D02*
X1577000Y5144000D01*
X1518820Y5114000D01*
X1577000Y5084000D01*
X1605290Y5107660D01*
G03Y5120340I-11000J6340D01*
G37*
G36*
G01X1764770Y5192570D02*
X1808080Y5154280D01*
X1856980Y5200000D01*
X1808080Y5245720D01*
X1764770Y5207430D01*
G03Y5192570I10300J-7430D01*
G37*
G36*
G01X1605290Y5340340D02*
X1577000Y5364000D01*
X1518820Y5334000D01*
X1577000Y5304000D01*
X1605290Y5327660D01*
G03Y5340340I-11000J6340D01*
G37*
G36*
G01X1605880Y5325020D02*
X1618460Y5312460D01*
X1643180Y5334000D01*
X1618460Y5355540D01*
X1605880Y5342980D01*
G03Y5325020I8980J-8980D01*
G37*
G36*
G01X1609050Y5006740D02*
X1577000Y5034000D01*
X1518830Y5004170D01*
X1577000Y4974000D01*
X1608120Y4991950D01*
G03X1609050Y5006740I-9830J8042D01*
G37*
G36*
G01X1714120Y5008980D02*
X1701540Y5021540D01*
X1676820Y5000000D01*
X1701540Y4978460D01*
X1714120Y4991020D01*
G03Y5008980I-8980J8980D01*
G37*
G36*
G01X1645880Y4991020D02*
X1658460Y4978460D01*
X1683180Y5000000D01*
X1658460Y5021540D01*
X1645880Y5008980D01*
G03Y4991020I8980J-8980D01*
G37*
G36*
G01X1438710Y5657660D02*
X1467000Y5634000D01*
X1525180Y5664000D01*
X1467000Y5694000D01*
X1438710Y5670340D01*
G03Y5657660I11000J-6340D01*
G37*
G36*
G01X1605290Y5670340D02*
X1577000Y5694000D01*
X1518820Y5664000D01*
X1577000Y5634000D01*
X1605290Y5657660D01*
G03Y5670340I-11000J6340D01*
G37*
G36*
G01X1743780Y5651320D02*
X1899520Y5654280D01*
X1856820Y5700990D01*
X1808080Y5745720D01*
X1734550Y5671790D01*
G03X1743780Y5651320I10030J-7794D01*
G37*
G36*
G01X1438710Y5547660D02*
X1467000Y5524000D01*
X1525180Y5554000D01*
X1467000Y5584000D01*
X1438710Y5560340D01*
G03Y5547660I11000J-6340D01*
G37*
G36*
G01X1605290Y5560340D02*
X1577000Y5584000D01*
X1518820Y5554000D01*
X1577000Y5524000D01*
X1605290Y5547660D01*
G03Y5560340I-11000J6340D01*
G37*
G36*
G01X1734650Y5546090D02*
X1808080Y5474280D01*
X1856830Y5519060D01*
X1899520Y5565720D01*
X1743620Y5566660D01*
G03X1734650Y5546090I963J-12661D01*
G37*
G36*
G01X1910060Y6240230D02*
G03X1899520Y6241460I-10536J-44510D01*
G01X1844990D01*
X1742560Y6343890D01*
Y6519260D01*
X1935060D01*
Y6260000D01*
G02X1910060Y6240230I-20319J3D01*
G37*
G36*
G01X2000770Y6626730D02*
X1960000Y6667970D01*
X1846820Y6620000D01*
X1960000Y6572030D01*
X2000770Y6613270D01*
G03Y6626730I-10770J6730D01*
G37*
G36*
G01X1972700Y6952160D02*
X1960000Y7075000D01*
X1839190Y7026670D01*
X1740000Y6965000D01*
X1959260Y6939480D01*
G03X1972700Y6952160I739J12680D01*
G37*
G36*
G01X1724120Y7328980D02*
X1711540Y7341540D01*
X1686820Y7320000D01*
X1711540Y7298460D01*
X1724120Y7311020D01*
G03Y7328980I-8980J8980D01*
G37*
G36*
G01X1659520Y7337780D02*
Y7320000D01*
X1692250Y7317750D01*
X1690000Y7350480D01*
X1672220D01*
G03X1659520Y7337780I0J-12700D01*
G37*
G36*
G01X1653640Y7067780D02*
Y7050000D01*
X1686370Y7047750D01*
X1684120Y7080480D01*
X1666340D01*
G03X1653640Y7067780I0J-12700D01*
G37*
G36*
G01X1693100Y7015880D02*
X1705660Y7028460D01*
X1684120Y7053180D01*
X1662580Y7028460D01*
X1675140Y7015880D01*
G03X1693100I8980J8980D01*
G37*
G36*
G01X1687640Y7612260D02*
X1740000Y7565000D01*
X1853180Y7620000D01*
X1740000Y7675000D01*
X1687640Y7627740D01*
G03Y7612260I10070J-7740D01*
G37*
G36*
G01Y7812260D02*
X1740000Y7765000D01*
X1853180Y7820000D01*
X1740000Y7875000D01*
X1687640Y7827740D01*
G03Y7812260I10070J-7740D01*
G37*
G36*
G01X2124430Y1949280D02*
G03X2117530Y2040000I-64430J40722D01*
G03X2123180Y2132640I-57529J50001D01*
G01X2121440Y2135210D01*
Y2176310D01*
X2404560D01*
Y1975930D01*
G03X2386790Y1928120I58441J-48929D01*
G01X2386640Y1918110D01*
X2141610D01*
G02X2124430Y1949280I1J20320D01*
G37*
G36*
G01X2029520Y2007780D02*
Y1990000D01*
X2062250Y1987750D01*
X2060000Y2020480D01*
X2042220D01*
G03X2029520Y2007780I0J-12700D01*
G37*
G36*
G01X2054020Y2127120D02*
X2038460Y2111540D01*
X2059660Y2086840D01*
X2083380Y2109210D01*
X2073820Y2124790D01*
G03X2054020Y2127120I-10820J-6650D01*
G37*
G36*
G01X2171980Y2545880D02*
X2184540Y2558460D01*
X2163000Y2583180D01*
X2141460Y2558460D01*
X2154020Y2545880D01*
G03X2171980I8980J8980D01*
G37*
G36*
G01X2271980Y2542880D02*
X2284540Y2555460D01*
X2263000Y2580180D01*
X2241460Y2555460D01*
X2254020Y2542880D01*
G03X2271980I8980J8980D01*
G37*
G36*
G01X2371980D02*
X2384540Y2555460D01*
X2363000Y2580180D01*
X2341460Y2555460D01*
X2354020Y2542880D01*
G03X2371980I8980J8980D01*
G37*
G36*
G01X2009520Y3787780D02*
Y3770000D01*
X2042250Y3767750D01*
X2040000Y3800480D01*
X2022220D01*
G03X2009520Y3787780I0J-12700D01*
G37*
G36*
G01X2312220Y3479520D02*
X2330000D01*
X2332250Y3512250D01*
X2299520Y3510000D01*
Y3492220D01*
G03X2312220Y3479520I12700J0D01*
G37*
G36*
G01X2115880Y3501020D02*
X2128460Y3488460D01*
X2153180Y3510000D01*
X2128460Y3531540D01*
X2115880Y3518980D01*
G03Y3501020I8980J-8980D01*
G37*
G36*
G01X2209330Y3527640D02*
X2209530Y3509860D01*
X2242260Y3507770D01*
X2240000Y3540480D01*
X2222030D01*
G03X2209330Y3527640I0J-12701D01*
G37*
G36*
G01X2114050Y4338780D02*
X2181040Y4317610D01*
X2215720Y4380980D01*
X2172700Y4420670D01*
X2109820Y4357590D01*
G03X2114050Y4338780I10181J-7591D01*
G37*
G36*
G01X2205540Y4487780D02*
X2172700Y4450000D01*
X2212700Y4376820D01*
X2252700Y4450000D01*
X2219860Y4487780D01*
G03X2205540I-7160J-10490D01*
G37*
G36*
G01X2154120Y4358980D02*
X2141540Y4371540D01*
X2116820Y4350000D01*
X2141540Y4328460D01*
X2154120Y4341020D01*
G03Y4358980I-8980J8980D01*
G37*
G36*
G01X2340480Y4792220D02*
Y4810000D01*
X2307750Y4812250D01*
X2310000Y4779520D01*
X2327780D01*
G03X2340480Y4792220I0J12700D01*
G37*
G36*
G01X2301020Y4844120D02*
X2288460Y4831540D01*
X2310000Y4806820D01*
X2331540Y4831540D01*
X2318980Y4844120D01*
G03X2301020I-8980J-8980D01*
G37*
G36*
G01X1984420Y4776860D02*
X2051920Y4854280D01*
X2008320Y4905990D01*
X1960480Y4945720D01*
X1944650Y4796140D01*
G03X1984420Y4776860I25348J1630D01*
G37*
G36*
G01X1995890Y4989240D02*
X1960480Y4945720D01*
X2006200Y4893650D01*
X2051920Y4945720D01*
X2016510Y4989240D01*
G03X1995890I-10310J-23210D01*
G37*
G36*
G01X2219860Y4482220D02*
X2252700Y4520000D01*
X2212700Y4593180D01*
X2172700Y4520000D01*
X2205540Y4482220D01*
G03X2219860I7160J10490D01*
G37*
G36*
G01X2109050Y5281700D02*
G02X2081530Y5280580I-14368J14369D01*
G03X2063870Y5289870I-29611J-34860D01*
G01X1996230Y5308180D01*
X1956620Y5347790D01*
X1963310Y5376500D01*
X2015350Y5428540D01*
X2051920D01*
G03X2097660Y5474280I0J45740D01*
G01Y5565720D01*
G03X2087400Y5594590I-45748J0D01*
G01X2074860Y5610000D01*
X2087400Y5625410D01*
G03X2097660Y5654280I-35488J28870D01*
G01Y5745720D01*
G03X2087060Y5775000I-45740J0D01*
G03X2097660Y5804280I-35140J29280D01*
G01Y5895720D01*
G03X2093620Y5914520I-45741J5D01*
G01X2092720Y5916520D01*
Y5928860D01*
X2109470D01*
X2146240Y5965630D01*
X2322310Y5992530D01*
G03X2350860Y6008860I-6917J45215D01*
G01X2532080D01*
X2533750Y6008260D01*
G03X2628420Y6112560I25753J71740D01*
G02X2646790Y6141560I18370J8682D01*
G01X2664210D01*
X2728810Y6206160D01*
X2731190D01*
X2799290Y6138060D01*
X2840630D01*
G02X2860310Y6112670I2J-20320D01*
G03X2858860Y6101250I44289J-11425D01*
G01Y6037750D01*
G03X2867680Y6010750I45737J0D01*
G02X2851270Y5978440I-16405J-11990D01*
G01X2495790D01*
X2291560Y5774210D01*
Y5464210D01*
X2109050Y5281700D01*
G37*
G36*
G01X1995890Y5139240D02*
X1960480Y5095720D01*
X2006200Y5043650D01*
X2051920Y5095720D01*
X2016510Y5139240D01*
G03X1995890I-10310J-23210D01*
G37*
G36*
G01X2016510Y4960760D02*
X2051920Y5004280D01*
X2006200Y5056350D01*
X1960480Y5004280D01*
X1995890Y4960760D01*
G03X2016510I10310J23210D01*
G37*
G36*
G01Y5110760D02*
X2051920Y5154280D01*
X2006200Y5206350D01*
X1960480Y5154280D01*
X1995890Y5110760D01*
G03X2016510I10310J23210D01*
G37*
G36*
G01X1932690Y5245050D02*
X1960480Y5154280D01*
X2010800Y5195630D01*
X2051920Y5245720D01*
X1958080Y5271120D01*
G03X1932690Y5245050I0J-25399D01*
G37*
G36*
G01X1995890Y5609240D02*
X1960480Y5565720D01*
X2006200Y5513650D01*
X2051920Y5565720D01*
X2016510Y5609240D01*
G03X1995890I-10310J-23210D01*
G37*
G36*
G01X2016510Y5610760D02*
X2051920Y5654280D01*
X2006200Y5706350D01*
X1960480Y5654280D01*
X1995890Y5610760D01*
G03X2016510I10310J23210D01*
G37*
G36*
G01X1995890Y5789240D02*
X1960480Y5745720D01*
X2006200Y5693650D01*
X2051920Y5745720D01*
X2016510Y5789240D01*
G03X1995890I-10310J-23210D01*
G37*
G36*
G01X2016510Y5760760D02*
X2051920Y5804280D01*
X2006200Y5856350D01*
X1960480Y5804280D01*
X1995890Y5760760D01*
G03X2016510I10310J23210D01*
G37*
G36*
G01X1995890Y5939240D02*
X1960480Y5895720D01*
X2006200Y5843650D01*
X2051920Y5895720D01*
X2016510Y5939240D01*
G03X1995890I-10310J-23210D01*
G37*
G36*
G01X2016510Y5910760D02*
X2051920Y5954280D01*
X2006200Y6006350D01*
X1960480Y5954280D01*
X1995890Y5910760D01*
G03X2016510I10310J23210D01*
G37*
G36*
G01X2342380Y6314520D02*
X2354960Y6301960D01*
X2379680Y6323500D01*
X2354960Y6345040D01*
X2342380Y6332480D01*
G03Y6314520I8980J-8980D01*
G37*
G36*
G01X2092130Y6353760D02*
X2112200Y6291750D01*
X2225990Y6319950D01*
X2315400Y6355240D01*
X2104740Y6367940D01*
G03X2092130Y6353760I0J-12697D01*
G37*
G36*
G01X2345330Y6330030D02*
X2315400Y6355250D01*
X2210620Y6323500D01*
X2315400Y6291750D01*
X2345330Y6316970D01*
G03Y6330030I-10890J6530D01*
G37*
G36*
G01X2345880Y6441520D02*
X2358460Y6428960D01*
X2383180Y6450500D01*
X2358460Y6472040D01*
X2345880Y6459480D01*
G03Y6441520I8980J-8980D01*
G37*
G36*
G01X2345330Y6457030D02*
X2315400Y6482250D01*
X2210620Y6450500D01*
X2315400Y6418750D01*
X2345330Y6443970D01*
G03Y6457030I-10890J6530D01*
G37*
G36*
G01X2322580Y6105270D02*
X2112200Y6101250D01*
X2188520Y6067000D01*
X2315400Y6037750D01*
X2345250Y6077250D01*
G03X2322580Y6105270I-25251J2751D01*
G37*
G36*
G01X2112890Y6006810D02*
X2315400Y6037750D01*
X2237640Y6078250D01*
X2112200Y6101250D01*
X2086800Y6032200D01*
G03X2112890Y6006810I25399J0D01*
G37*
G36*
G01X2080950Y6191530D02*
X2112200Y6164750D01*
X2220150Y6196500D01*
X2112200Y6228250D01*
X2080950Y6201470D01*
G03Y6191530I24910J-4970D01*
G37*
G36*
G01X2095440Y6010310D02*
X2051920Y6045720D01*
X1999850Y6000000D01*
X2051920Y5954280D01*
X2095440Y5989690D01*
G03Y6010310I-23210J10310D01*
G37*
G36*
G01X1995890Y6089240D02*
X1960480Y6045720D01*
X2006200Y5993650D01*
X2051920Y6045720D01*
X2016510Y6089240D01*
G03X1995890I-10310J-23210D01*
G37*
G36*
G01Y6239240D02*
X1960480Y6195720D01*
X2006200Y6143650D01*
X2051920Y6195720D01*
X2016510Y6239240D01*
G03X1995890I-10310J-23210D01*
G37*
G36*
G01X2016510Y6060760D02*
X2051920Y6104280D01*
X2006200Y6156350D01*
X1960480Y6104280D01*
X1995890Y6060760D01*
G03X2016510I10310J23210D01*
G37*
G36*
G01X2178100Y6578440D02*
G02X2163740Y6613130I4J20319D01*
G01X2243210Y6692610D01*
X2310480Y6722480D01*
G03X2337660Y6764280I-18552J41800D01*
G01Y6855720D01*
G03X2327060Y6885000I-45740J0D01*
G03X2337660Y6914280I-35140J29280D01*
G01Y7005720D01*
G03X2327060Y7035000I-45740J0D01*
G03X2337660Y7064280I-35140J29280D01*
G01Y7155720D01*
G03X2337200Y7162220I-45742J29D01*
G02X2347580Y7173820I10056J1446D01*
G03X2343730Y7325960I2429J76180D01*
G01X2339600Y7325620D01*
X2328130Y7335120D01*
X2332120Y7342460D01*
G03X2337570Y7361340I-40196J21830D01*
G01X2337810Y7365160D01*
X2404210Y7431560D01*
X2430000D01*
G03X2434460Y7431730I6J58440D01*
G01X2434850Y7431760D01*
X2470000D01*
G03X2479450Y7432750I-15J45738D01*
G02X2488080Y7415030I2097J-9940D01*
G03X2471760Y7380000I29423J-35024D01*
G01Y7344850D01*
X2471730Y7344460D01*
G03X2471560Y7340000I58270J-4454D01*
G01Y6844210D01*
X2313360Y6686010D01*
X2309950Y6685550D01*
G03X2244300Y6601130I10050J-75552D01*
G02X2224120Y6578440I-20182J-2370D01*
G01X2178100D01*
G37*
G36*
G01X2101230Y6720970D02*
X2139520Y6764280D01*
X2093800Y6813180D01*
X2048080Y6764280D01*
X2086370Y6720970D01*
G03X2101230I7430J10300D01*
G37*
G36*
G01X2256510Y6870760D02*
X2291920Y6914280D01*
X2246200Y6966350D01*
X2200480Y6914280D01*
X2235890Y6870760D01*
G03X2256510I10310J23210D01*
G37*
G36*
G01X2204270Y6725360D02*
X2291920Y6764280D01*
X2250070Y6815040D01*
X2200480Y6855720D01*
X2175080Y6750480D01*
G03X2204270Y6725360I25404J0D01*
G37*
G36*
G01X2235890Y6899240D02*
X2200480Y6855720D01*
X2246200Y6803650D01*
X2291920Y6855720D01*
X2256510Y6899240D01*
G03X2235890I-10310J-23210D01*
G37*
G36*
G01X1989330Y6909470D02*
X2139520Y6914280D01*
X2096780Y6961090D01*
X2054470Y7004590D01*
X1980000Y6929970D01*
G03X1989330Y6909470I10003J-7820D01*
G37*
G36*
G01X1959520Y6939930D02*
Y6922150D01*
X1992250Y6919900D01*
X1990000Y6952630D01*
X1972220D01*
G03X1959520Y6939930I0J-12700D01*
G37*
G36*
G01X2024120Y6931130D02*
X2011540Y6943690D01*
X1986820Y6922150D01*
X2011540Y6900610D01*
X2024120Y6913170D01*
G03Y6931130I-8980J8980D01*
G37*
G36*
G01X2337780Y6640480D02*
X2320000D01*
X2317750Y6607750D01*
X2350480Y6610000D01*
Y6627780D01*
G03X2337780Y6640480I-12700J0D01*
G37*
G36*
G01X2344540Y7262140D02*
X2291920Y7305720D01*
X2239900Y7260830D01*
X2291920Y7214280D01*
X2341600Y7233570D01*
G03X2344540Y7262140I-19370J16430D01*
G37*
G36*
G01X2256510Y7170760D02*
X2291920Y7214280D01*
X2246200Y7266350D01*
X2200480Y7214280D01*
X2235890Y7170760D01*
G03X2256510I10310J23210D01*
G37*
G36*
G01X2235890Y7199240D02*
X2200480Y7155720D01*
X2246200Y7103650D01*
X2291920Y7155720D01*
X2256510Y7199240D01*
G03X2235890I-10310J-23210D01*
G37*
G36*
G01X2256510Y7020760D02*
X2291920Y7064280D01*
X2246200Y7116350D01*
X2200480Y7064280D01*
X2235890Y7020760D01*
G03X2256510I10310J23210D01*
G37*
G36*
G01X2235890Y7049240D02*
X2200480Y7005720D01*
X2246200Y6953650D01*
X2291920Y7005720D01*
X2256510Y7049240D01*
G03X2235890I-10310J-23210D01*
G37*
G36*
G01X1965880Y7111020D02*
X1978460Y7098460D01*
X2003180Y7120000D01*
X1978460Y7141540D01*
X1965880Y7128980D01*
G03Y7111020I8980J-8980D01*
G37*
G36*
G01X1995020Y7112240D02*
X2048080Y7064280D01*
X2096960Y7109640D01*
X2048080Y7155720D01*
X1996960Y7129770D01*
G03X1995020Y7112240I8111J-9770D01*
G37*
G36*
G01X2312130Y7413770D02*
X2291910Y7436040D01*
X2243020Y7410000D01*
X2291910Y7383960D01*
X2312130Y7406230D01*
G03Y7413770I-12130J3770D01*
G37*
G36*
G01X2317320Y7757780D02*
Y7740000D01*
X2350050Y7737750D01*
X2347800Y7770480D01*
X2330020D01*
G03X2317320Y7757780I0J-12700D01*
G37*
G36*
G01X2381920Y7748980D02*
X2369340Y7761540D01*
X2344620Y7740000D01*
X2369340Y7718460D01*
X2381920Y7731020D01*
G03Y7748980I-8980J8980D01*
G37*
G36*
G01X2304620Y7795880D02*
X2291920Y7905720D01*
X2244360Y7862590D01*
X2200480Y7814280D01*
X2289410Y7783430D01*
G03X2304620Y7795880I2510J12450D01*
G37*
G36*
G01X2305880Y7531020D02*
X2318460Y7518460D01*
X2343180Y7540000D01*
X2318460Y7561540D01*
X2305880Y7548980D01*
G03Y7531020I8980J-8980D01*
G37*
G36*
G01X2374120Y7548980D02*
X2361540Y7561540D01*
X2336820Y7540000D01*
X2361540Y7518460D01*
X2374120Y7531020D01*
G03Y7548980I-8980J8980D01*
G37*
G36*
G01X2350250Y7547500D02*
X2291920Y7605720D01*
X2243090Y7560660D01*
X2291920Y7514280D01*
X2345990Y7528800D01*
G03X2350250Y7547500I-5990J11200D01*
G37*
G36*
G01X2360130Y8340370D02*
X2420000Y8410000D01*
X2350160Y8516350D01*
X2280000Y8410000D01*
X2331210Y8341100D01*
G03X2360130Y8340370I14987J20509D01*
G37*
G36*
G01X2333490Y8179240D02*
X2298080Y8135720D01*
X2343800Y8083650D01*
X2389520Y8135720D01*
X2354110Y8179240D01*
G03X2333490I-10310J-23210D01*
G37*
G36*
G01X2335890Y8329240D02*
X2300480Y8285720D01*
X2346200Y8233650D01*
X2391920Y8285720D01*
X2356510Y8329240D01*
G03X2335890I-10310J-23210D01*
G37*
G36*
G01X2354640Y8148600D02*
X2391920Y8194280D01*
X2346420Y8246350D01*
X2300480Y8194280D01*
X2332010Y8149070D01*
G03X2354640Y8148600I11787J22500D01*
G37*
G36*
G01X2743800Y1328380D02*
Y1321200D01*
X2758300Y1304580D01*
X2776540Y1331540D01*
X2761760Y1346340D01*
X2743800Y1328380D01*
G37*
G36*
G01X2786340Y1321760D02*
X2776540Y1331540D01*
X2749240Y1312670D01*
X2761200Y1303800D01*
X2768380D01*
X2786340Y1321760D01*
G37*
G36*
G01X2811020Y1414120D02*
X2798460Y1401540D01*
X2820000Y1376820D01*
X2841540Y1401540D01*
X2828980Y1414120D01*
G03X2811020I-8980J-8980D01*
G37*
G36*
G01X2525880Y1411020D02*
X2548460Y1388460D01*
X2573050Y1409130D01*
X2555990Y1435180D01*
X2533420Y1432620D01*
G03X2525880Y1411020I1440J-12619D01*
G37*
G36*
G01X2455880Y1341020D02*
X2468460Y1328460D01*
X2493180Y1350000D01*
X2468460Y1371540D01*
X2455880Y1358980D01*
G03Y1341020I8980J-8980D01*
G37*
G36*
G01X2825590Y1850690D02*
X2838440Y1837860D01*
X2863150Y1859370D01*
X2838630Y1881130D01*
X2825780Y1868840D01*
G03X2825590Y1850690I8790J-9168D01*
G37*
G36*
G01X2454020Y1961120D02*
X2441460Y1948540D01*
X2463000Y1923820D01*
X2484540Y1948540D01*
X2471980Y1961120D01*
G03X2454020I-8980J-8980D01*
G37*
G36*
G01X2554020Y1967120D02*
X2538460Y1951540D01*
X2559660Y1926840D01*
X2583380Y1949210D01*
X2573820Y1964790D01*
G03X2554020Y1967120I-10820J-6650D01*
G37*
G36*
G01X2654020D02*
X2641460Y1954540D01*
X2663000Y1929820D01*
X2684540Y1954540D01*
X2671980Y1967120D01*
G03X2654020I-8980J-8980D01*
G37*
G36*
G01X2754020D02*
X2741460Y1954540D01*
X2763000Y1929820D01*
X2784540Y1954540D01*
X2771980Y1967120D01*
G03X2754020I-8980J-8980D01*
G37*
G36*
G01X2854020D02*
X2841460Y1954540D01*
X2863000Y1929820D01*
X2884540Y1954540D01*
X2871980Y1967120D01*
G03X2854020I-8980J-8980D01*
G37*
G36*
G01X3066250Y1374940D02*
X3066220Y1385070D01*
G03X3048440Y1433740I-76219J-262D01*
G01Y1654210D01*
X2947650Y1755000D01*
X2976640Y1783990D01*
X2980050Y1784450D01*
G03X3042760Y1837290I-10046J75554D01*
G02X3053700Y1844350I9699J-3023D01*
G03X3078720Y1845420I9298J75650D01*
G02X3090130Y1839540I2097J-9941D01*
G03X3167920Y1794190I69871J30459D01*
G02X3189600Y1779460I2114J-20209D01*
G03X3321440Y1848930I73400J20539D01*
G01Y2190420D01*
G03X3334140Y2222050I-33038J31630D01*
G01Y2531950D01*
G03X3288400Y2577690I-45740J0D01*
G01X2439740D01*
X2438620Y2586570D01*
G03X2438150Y2589710I-75599J-9711D01*
G01X2438010Y2590550D01*
Y2601560D01*
X2764210D01*
X2908440Y2745790D01*
Y3605790D01*
X3064210Y3761560D01*
X3234210D01*
X3336640Y3863990D01*
X3340050Y3864450D01*
G03X3405390Y3928780I-10048J75553D01*
G03X3356070Y4063440I-390J76219D01*
G01X2990790D01*
X2934560Y4007200D01*
G02X2899900Y4020440I-14370J14370D01*
G03X2856320Y4085140I-76103J-4234D01*
G01X2854720Y4085890D01*
X2745550Y4195060D01*
X2749340Y4201780D01*
G03X2755260Y4224280I-39819J22506D01*
G01Y4278810D01*
X2770460Y4294010D01*
Y4404680D01*
X2775530Y4409080D01*
X2871730D01*
X2938440Y4475790D01*
Y5024210D01*
X2864990Y5097660D01*
X2855290Y5166390D01*
G03X2853900Y5172840I-45291J-6386D01*
G02X2873400Y5198860I19504J5700D01*
G01X2902930D01*
X2921520Y5191640D01*
G03X2938080Y5188540I16553J42641D01*
G01X3029520D01*
G03X3075260Y5234280I0J45740D01*
G01Y5270850D01*
X3207340Y5402930D01*
Y5423050D01*
X3217400Y5435410D01*
G03X3227660Y5464280I-35488J28870D01*
G01Y5555720D01*
G03X3217060Y5585000I-45740J0D01*
G03X3227660Y5614280I-35140J29280D01*
G01Y5705720D01*
G03X3181920Y5751460I-45740J0D01*
G01X3145350D01*
X3093360Y5803450D01*
X3083610Y5835290D01*
G02X3103040Y5861560I19429J5950D01*
G01X3162950D01*
X3250920Y5773590D01*
Y4956430D01*
X4411050Y3796310D01*
G02X4405170Y3763480I-14369J-14368D01*
G03X4395000Y3757060I19120J-41553D01*
G03X4365720Y3767660I-29280J-35140D01*
G01X4274280D01*
G03X4228540Y3721920I0J-45740D01*
G01Y3630480D01*
G03X4274280Y3584740I45740J0D01*
G01X4365720D01*
G03X4368090Y3584800I28J45741D01*
G02X4378730Y3573720I525J-10145D01*
G03X4378540Y3569520I45552J-4165D01*
G01Y3478080D01*
G03X4400950Y3438740I45735J0D01*
G02Y3421260I-5185J-8740D01*
G03X4395000Y3417060I23318J-39348D01*
G03X4365720Y3427660I-29280J-35140D01*
G01X4321270D01*
G02X4300960Y3447350I1J20321D01*
G03X4166340Y3396070I-76182J-2348D01*
G01Y3268990D01*
X4130580Y3233230D01*
G02X4113240Y3240410I-7181J7186D01*
G01Y3242500D01*
G03X4109760Y3260000I-45741J0D01*
G03X4113240Y3277500I-42261J17500D01*
G01Y3307500D01*
G03X4109760Y3325000I-45741J0D01*
G03X4113240Y3342500I-42261J17500D01*
G01Y3372500D01*
G03X4109760Y3390000I-45741J0D01*
G03X4113240Y3407500I-42261J17500D01*
G01Y3437500D01*
G03X4090000Y3477320I-45734J0D01*
G01Y3660000D01*
X3880000D01*
Y3482650D01*
X3689490Y3292130D01*
G02X3655100Y3303030I-14368J14370D01*
G03X3638440Y3338930I-75098J-13035D01*
G01Y3464250D01*
X3556750Y3545940D01*
X3553240D01*
Y3567500D01*
G03X3549760Y3585000I-45741J0D01*
G03X3553240Y3602500I-42261J17500D01*
G01Y3632500D01*
G03X3507500Y3678240I-45740J0D01*
G01X3352500D01*
G03X3339510Y3676360I-11J-45742D01*
G01X3338100Y3675940D01*
X3323290D01*
X3313360Y3666010D01*
X3309950Y3665550D01*
G03X3308580Y3665360I9785J-75588D01*
G01X3303920Y3664650D01*
X3252080Y3710110D01*
G03X3221920Y3721460I-30160J-34397D01*
G01X3130480D01*
G03X3086740Y3689110I0J-45745D01*
G01X3066640Y3623450D01*
X3014650Y3571460D01*
X2978080D01*
G03X2932340Y3525720I0J-45740D01*
G01Y3434280D01*
G03X2942600Y3405410I45748J0D01*
G01X2952660Y3393050D01*
Y3387420D01*
X2952060Y3385750D01*
G03Y3334250I71740J-25750D01*
G01X2952660Y3332580D01*
Y3316950D01*
X2942600Y3304590D01*
G03X2932340Y3275720I35488J-28870D01*
G01Y3184280D01*
G03X2978080Y3138540I45740J0D01*
G01X3069520D01*
G03X3079170Y3139570I-2J45740D01*
G02X3103780Y3119770I4290J-19862D01*
G03X3250890Y3147990I76218J226D01*
G01X3253350Y3150770D01*
X3276920Y3169060D01*
X3306760D01*
Y3147500D01*
G03X3352500Y3101760I45740J0D01*
G01X3501560D01*
Y2634210D01*
X3445040Y2577690D01*
X3437600D01*
G03X3391860Y2531950I0J-45740D01*
G01Y2222050D01*
G03X3437600Y2176310I45740J0D01*
G01X4313080D01*
X4344700Y2144700D01*
G03X4395000Y2123860I50306J50297D01*
G01X4425000D01*
G03X4475300Y2144700I-6J71137D01*
G01X4513300Y2182700D01*
G03X4516080Y2185640I-50278J50326D01*
G03X4534140Y2222050I-27672J36410D01*
G01Y2517330D01*
X5109150Y3092340D01*
X5128860D01*
Y2859470D01*
X4769080Y2499690D01*
X4767480Y2498940D01*
G03X4743100Y2379280I32518J-68939D01*
G02X4742700Y2365340I-7583J-6758D01*
G01X4333180Y1955810D01*
G02X4299020Y1965580I-14368J14369D01*
G03X4231770Y2024200I-74237J-17281D01*
G01X4228110Y2024540D01*
X4210710Y2041940D01*
X3839290D01*
X3741560Y1944210D01*
Y1675790D01*
X3845790Y1571560D01*
X4161900D01*
G02X4176260Y1536870I-4J-20319D01*
G01X4021730Y1382340D01*
X3332420D01*
X3330750Y1382940D01*
G03X3263210Y1374940I-25746J-71740D01*
G01X3066250D01*
G37*
G36*
G01X2412220Y2864520D02*
X2430000D01*
X2432250Y2897250D01*
X2399520Y2895000D01*
Y2877220D01*
G03X2412220Y2864520I12700J0D01*
G37*
G36*
G01X2402220Y3479520D02*
X2420000D01*
X2422250Y3512250D01*
X2389520Y3510000D01*
Y3492220D01*
G03X2402220Y3479520I12700J0D01*
G37*
G36*
G01X2509240Y4460360D02*
X2547020Y4427520D01*
X2565200Y4467520D01*
X2547020Y4507520D01*
X2509240Y4474680D01*
G03Y4460360I10490J-7160D01*
G37*
G36*
G01X2613940Y4412680D02*
X2627020Y4427520D01*
X2612020Y4470700D01*
X2597020Y4427520D01*
X2610100Y4412680D01*
G03X2613940I1920J12550D01*
G37*
G36*
G01X2764800Y4474680D02*
X2727020Y4507520D01*
X2708840Y4467520D01*
X2727020Y4427520D01*
X2764800Y4460360D01*
G03Y4474680I-10490J7160D01*
G37*
G36*
G01X2713940Y4412680D02*
X2727020Y4427520D01*
X2712020Y4470700D01*
X2697020Y4427520D01*
X2710100Y4412680D01*
G03X2713940I1920J12550D01*
G37*
G36*
G01X2674110Y4180760D02*
X2709520Y4224280D01*
X2663800Y4276350D01*
X2618080Y4224280D01*
X2653490Y4180760D01*
G03X2674110I10310J23210D01*
G37*
G36*
G01X2538250Y4888060D02*
G03X2565290Y4923610I-18250J41940D01*
G01X2574990Y4992340D01*
X2640550Y5057900D01*
G02X2671860Y5054750I14368J-14367D01*
G03X2674340Y5051360I38117J25283D01*
G02Y5038640I-7927J-6360D01*
G03X2664260Y5010000I35647J-28640D01*
G01Y4944000D01*
G02X2655030Y4933880I-10159J-3D01*
G03X2588460Y4877960I6987J-75901D01*
G02X2561410Y4864380I-19607J5325D01*
G03X2540000Y4868440I-21402J-54381D01*
G01X2538930D01*
G03X2536150Y4870660I-48939J-58433D01*
G02X2538250Y4888060I6155J8084D01*
G37*
G36*
G01X2722760Y4773460D02*
Y4807520D01*
G03X2722570Y4811690I-45740J5D01*
G03X2738090Y4862690I-60552J46288D01*
G02X2758380Y4884260I20283J1249D01*
G01X2810000D01*
G03X2811150Y4884270I177J45742D01*
G02X2821560Y4874120I252J-10155D01*
G01Y4753260D01*
X2747020D01*
G03X2744290Y4753180I-26J-45741D01*
G02X2722760Y4773460I-1211J20283D01*
G37*
G36*
G01X2391020Y4844120D02*
X2378460Y4831540D01*
X2400000Y4806820D01*
X2421540Y4831540D01*
X2408980Y4844120D01*
G03X2391020I-8980J-8980D01*
G37*
G36*
G01X2408980Y4775880D02*
X2421540Y4788460D01*
X2400000Y4813180D01*
X2378460Y4788460D01*
X2391020Y4775880D01*
G03X2408980I8980J8980D01*
G37*
G36*
G01X2518740Y5032640D02*
X2420000Y5010000D01*
X2467750Y4967750D01*
X2520000Y4930000D01*
X2532700Y5020000D01*
G03X2518740Y5032640I-12702J0D01*
G37*
G36*
G01X2421260Y4907360D02*
X2520000Y4930000D01*
X2472250Y4972250D01*
X2420000Y5010000D01*
X2407300Y4920000D01*
G03X2421260Y4907360I12702J0D01*
G37*
G36*
G01X2432180Y4540600D02*
X2447020Y4527520D01*
X2490200Y4542520D01*
X2447020Y4557520D01*
X2432180Y4544440D01*
G03Y4540600I12550J-1920D01*
G37*
G36*
G01X2610100Y4522360D02*
X2597020Y4507520D01*
X2612020Y4464340D01*
X2627020Y4507520D01*
X2613940Y4522360D01*
G03X2610100I-1920J-12550D01*
G37*
G36*
G01X2541860Y4694440D02*
X2527020Y4707520D01*
X2483840Y4692520D01*
X2527020Y4677520D01*
X2541860Y4690600D01*
G03Y4694440I-12550J1920D01*
G37*
G36*
G01X2671000Y4823860D02*
X2683560Y4836440D01*
X2662020Y4861160D01*
X2640480Y4836440D01*
X2653040Y4823860D01*
G03X2671000I8980J8980D01*
G37*
G36*
G01X2660100Y4822360D02*
X2647020Y4807520D01*
X2662020Y4764340D01*
X2677020Y4807520D01*
X2663940Y4822360D01*
G03X2660100I-1920J-12550D01*
G37*
G36*
G01X2697780Y4670480D02*
X2680000D01*
X2677750Y4637750D01*
X2710480Y4640000D01*
Y4657780D01*
G03X2697780Y4670480I-12700J0D01*
G37*
G36*
G01X2732180Y4690600D02*
X2747020Y4677520D01*
X2790200Y4692520D01*
X2747020Y4707520D01*
X2732180Y4694440D01*
G03Y4690600I12550J-1920D01*
G37*
G36*
G01X2524120Y4818980D02*
X2511540Y4831540D01*
X2486820Y4810000D01*
X2511540Y4788460D01*
X2524120Y4801020D01*
G03Y4818980I-8980J8980D01*
G37*
G36*
G01X2529800Y4806800D02*
X2547020Y4727520D01*
X2567590Y4756110D01*
X2577020Y4807520D01*
X2542480Y4820220D01*
G03X2529800Y4806800I0J-12700D01*
G37*
G36*
G01X2938080Y5371460D02*
G03X2908900Y5360950I-7J-45743D01*
G01X2884990Y5341140D01*
X2844200D01*
X2838880Y5345470D01*
G03X2810000Y5355740I-28880J-35471D01*
G01X2710000D01*
G03X2684310Y5347840I5J-45738D01*
G01X2681720Y5346090D01*
X2668440D01*
Y5365790D01*
X2685070Y5382420D01*
X2828490Y5393390D01*
G03X2854340Y5403910I-3495J45607D01*
G01X2862290Y5410560D01*
X2967010D01*
X2971970Y5415530D01*
X2994860Y5416700D01*
G02X3002560Y5399370I518J-10145D01*
G01X2974650Y5371460D01*
X2938080D01*
G37*
G36*
G01X2421260Y5057360D02*
X2520000Y5080000D01*
X2472250Y5122250D01*
X2420000Y5160000D01*
X2407300Y5070000D01*
G03X2421260Y5057360I12702J0D01*
G37*
G36*
G01X2659000Y5426300D02*
X2825000Y5439000D01*
X2762060Y5472980D01*
X2675000Y5499000D01*
X2646730Y5442270D01*
G03X2659000Y5426300I12270J-3271D01*
G37*
G36*
G01X2853290Y5475340D02*
X2825000Y5499000D01*
X2746820Y5469000D01*
X2825000Y5439000D01*
X2853290Y5462660D01*
G03Y5475340I-11000J6340D01*
G37*
G36*
G01X2822700Y5070000D02*
X2810000Y5160000D01*
X2757750Y5122250D01*
X2710000Y5080000D01*
X2808740Y5057360D01*
G03X2822700Y5070000I1258J12640D01*
G37*
G36*
G01X2748790Y5207380D02*
X2710000Y5160000D01*
X2760000Y5113650D01*
X2810000Y5160000D01*
X2771210Y5207380D01*
G03X2748790I-11210J-22790D01*
G37*
G36*
G01X2848450Y5278700D02*
X2810000Y5310000D01*
X2753650Y5270000D01*
X2810000Y5230000D01*
X2848450Y5261300D01*
G03Y5278700I-23860J8700D01*
G37*
G36*
G01X2771210Y5182620D02*
X2810000Y5230000D01*
X2760000Y5276350D01*
X2710000Y5230000D01*
X2748790Y5182620D01*
G03X2771210I11210J22790D01*
G37*
G36*
G01X2666000Y5553300D02*
X2825000Y5566000D01*
X2761960Y5600270D01*
X2675000Y5626000D01*
X2653440Y5567880D01*
G03X2666000Y5553300I12560J-1880D01*
G37*
G36*
G01X2853290Y5602340D02*
X2825000Y5626000D01*
X2746820Y5596000D01*
X2825000Y5566000D01*
X2853290Y5589660D01*
G03Y5602340I-11000J6340D01*
G37*
G36*
G01X2874190Y5456310D02*
X3029520Y5464280D01*
X2986770Y5511120D01*
X2938080Y5555720D01*
X2864330Y5476500D01*
G03X2874190Y5456310I10250J-7497D01*
G37*
G36*
G01X2645300Y5846160D02*
X2675000Y5820000D01*
X2756350Y5850000D01*
X2675000Y5880000D01*
X2645300Y5853840D01*
G03Y5846160I25110J-3840D01*
G37*
G36*
G01X2854700Y5853840D02*
X2825000Y5880000D01*
X2743650Y5850000D01*
X2825000Y5820000D01*
X2854700Y5846160D01*
G03Y5853840I-25110J3840D01*
G37*
G36*
G01X2857000Y5835380D02*
X2938080Y5764280D01*
X2989740Y5807760D01*
X3029520Y5855720D01*
X2876810Y5875380D01*
G03X2857000Y5835380I960J-25381D01*
G37*
G36*
G01X2869470Y6394640D02*
X2854480Y6409630D01*
Y6643940D01*
G02X2882550Y6662720I20320J-4D01*
G03X2900000Y6659260I17450J42273D01*
G01X3080000D01*
G03X3125680Y6702720I0J45737D01*
G01X3137230Y6934580D01*
X3144640Y6941990D01*
Y7009610D01*
X3166190Y7033980D01*
G03X3171260Y7040950I-34290J30272D01*
G02X3188740I8740J-5185D01*
G03X3193810Y7033980I39360J23302D01*
G01X3215360Y7009610D01*
Y6941990D01*
X3222770Y6934580D01*
X3234320Y6702720D01*
G03X3280000Y6659260I45680J2277D01*
G01X3433760D01*
G02X3448130Y6624570I0J-20321D01*
G01X3415010Y6591460D01*
X3360480D01*
G03X3330000Y6579820I0J-45727D01*
G03X3299520Y6591460I-30480J-34087D01*
G01X3208080D01*
G03X3163070Y6553880I0J-45744D01*
G01X3150190Y6482830D01*
X3080920Y6413570D01*
Y6400990D01*
X2904600D01*
G03X2883430Y6395790I11J-45737D01*
G01X2881220Y6394640D01*
X2869470D01*
G37*
G36*
G01X2755400Y6264600D02*
X2730000Y6290000D01*
X2704600Y6251900D01*
X2755400D01*
Y6264600D01*
G37*
G36*
G01X2874670Y6189970D02*
X2904600Y6164750D01*
X3009380Y6196500D01*
X2904600Y6228250D01*
X2874670Y6203030D01*
G03Y6189970I10890J-6530D01*
G37*
G36*
G01X2414120Y6208980D02*
X2401540Y6221540D01*
X2376820Y6200000D01*
X2401540Y6178460D01*
X2414120Y6191020D01*
G03Y6208980I-8980J8980D01*
G37*
G36*
G01Y6459480D02*
X2401540Y6472040D01*
X2376820Y6450500D01*
X2401540Y6428960D01*
X2414120Y6441520D01*
G03Y6459480I-8980J8980D01*
G37*
G36*
G01X2873350Y6318530D02*
X2904600Y6291750D01*
X3012550Y6323500D01*
X2904600Y6355250D01*
X2873350Y6328470D01*
G03Y6318530I24910J-4970D01*
G37*
G36*
G01X2437780Y6640480D02*
X2420000D01*
X2417750Y6607750D01*
X2450480Y6610000D01*
Y6627780D01*
G03X2437780Y6640480I-12700J0D01*
G37*
G36*
G01X3006210Y7033980D02*
X3011390Y7028120D01*
G02X3004780Y7011280I-7612J-6730D01*
G01X2895520Y7000520D01*
G03X2882550Y6997280I4481J-45520D01*
G02X2854480Y7016060I-7750J18784D01*
G01Y7149570D01*
G02X2878880Y7169470I20318J-4D01*
G03X2888080Y7168540I9177J44812D01*
G01X2979520D01*
G03X2983720Y7168730I35J45742D01*
G02X2994800Y7158090I935J-10115D01*
G03X2994740Y7155720I45681J-2342D01*
G01Y7064280D01*
G03X3006210Y7033980I45742J-5D01*
G37*
G36*
G01X2499420Y7442470D02*
G03X2515740Y7477500I-29423J35024D01*
G01Y7502500D01*
G03X2514000Y7515000I-45741J4D01*
G03X2515740Y7527500I-44001J12496D01*
G01Y7552500D01*
G03X2503920Y7583180I-45727J0D01*
G02Y7596820I7535J6820D01*
G03X2515740Y7627500I-33907J30680D01*
G01Y7654260D01*
X2642500D01*
G03X2655000Y7656000I4J45741D01*
G03X2667500Y7654260I12496J44001D01*
G01X2744260D01*
Y7627500D01*
G03X2746000Y7615000I45741J-4D01*
G03X2744260Y7602500I44001J-12496D01*
G01Y7577500D01*
G03X2756080Y7546820I45727J0D01*
G02Y7533180I-7535J-6820D01*
G03X2744260Y7502500I33907J-30680D01*
G01Y7477500D01*
G03X2746000Y7465000I45741J-4D01*
G03X2744260Y7452500I44001J-12496D01*
G01Y7425740D01*
X2517500D01*
G03X2508050Y7424750I15J-45738D01*
G02X2499420Y7442470I-2097J9940D01*
G37*
G36*
G01X2817640Y7365820D02*
X2812830Y7345500D01*
X2838480Y7326910D01*
X2859290Y7351540D01*
X2838980Y7371870D01*
G03X2817640Y7365820I-8982J-8980D01*
G37*
G36*
G01X5485310Y3817330D02*
X5234210Y4068440D01*
X5185150D01*
G02X5171440Y4103750I4J20318D01*
G03X5071070Y4218440I-51438J56248D01*
G01X4544210D01*
X3736010Y5026640D01*
X3735550Y5030050D01*
G03X3610000Y5077530I-75554J-10050D01*
G03X3535340Y5092120I-49998J-57530D01*
G02X3508440Y5111350I-6580J19225D01*
G01Y5867050D01*
X3399860Y5975630D01*
G02X3412540Y6010240I14370J14363D01*
G03X3479170Y6108220I-6341J75957D01*
G01X3477610Y6113380D01*
X3487400Y6125410D01*
G03X3493720Y6135720I-35493J28849D01*
G01X3521780Y6198900D01*
X3531000Y6194950D01*
G03X3549000Y6191260I18000J42057D01*
G01X3729000D01*
G03X3774740Y6237000I0J45740D01*
G01Y6304260D01*
X3931050D01*
X3944260Y6291050D01*
Y6058950D01*
X3941050Y6055740D01*
X3664260D01*
Y6040740D01*
X3644100D01*
G03X3636920Y6023400I5J-10159D01*
G01X3664260Y5996050D01*
Y5831050D01*
X3801050Y5694260D01*
X3966050D01*
X3998400Y5661920D01*
G03X4015740Y5669100I7181J7185D01*
G01Y5694260D01*
X4101560D01*
Y5550000D01*
G03X4147300Y5504260I45740J0D01*
G01X4227300D01*
G03X4269660Y5532750I0J45736D01*
G01X4317060Y5649150D01*
X4337340Y5669430D01*
Y5723050D01*
X4347400Y5735410D01*
G03X4357660Y5764280I-35488J28870D01*
G01Y5855720D01*
G03X4311920Y5901460I-45740J0D01*
G01X4220480D01*
G03X4216730Y5901310I-48J-45742D01*
G02X4205740Y5911430I-831J10124D01*
G01Y6368950D01*
X4098950Y6475740D01*
X3774740D01*
Y6537000D01*
G03X3772210Y6552000I-45731J0D01*
G03X3774740Y6567000I-43201J15000D01*
G01Y6647000D01*
G03X3774730Y6648150I-45742J177D01*
G01X3774720Y6648270D01*
Y6658560D01*
X4328790D01*
X4410920Y6576430D01*
Y6066430D01*
X4558550Y5918800D01*
G02X4551370Y5901460I-7186J-7181D01*
G01X4550480D01*
G03X4504740Y5855720I0J-45740D01*
G01Y5764280D01*
G03X4505120Y5758360I45742J-36D01*
G02X4488560Y5735730I-20146J-2632D01*
G01X4484620Y5735020D01*
G03X4446960Y5690000I8079J-45020D01*
G01Y5550000D01*
G03X4485960Y5504760I45739J0D01*
G01X4558070Y5494020D01*
X4563230Y5488860D01*
X4694900D01*
X4696830Y5488020D01*
G03X4715000Y5484260I18162J41982D01*
G01X4865000D01*
G03X4883170Y5488020I8J45742D01*
G01X4885100Y5488860D01*
X5030530D01*
X5058860Y5460530D01*
Y5420800D01*
G02X5024170Y5406440I-20319J4D01*
G01X4979470Y5451140D01*
X3933620D01*
X3931950Y5451740D01*
G03Y5308260I-25750J-71740D01*
G01X3933620Y5308860D01*
X4236680D01*
G02X4253610Y5277300I3J-20319D01*
G03X4467380Y5099810I116390J-77297D01*
G01X4467540Y5099960D01*
X4510710Y5138560D01*
X4676930D01*
X4706480Y5112120D01*
G03X4736980Y5100460I30506J34078D01*
G01X4803020D01*
G03X4848760Y5146200I0J45740D01*
G01Y5247800D01*
G03X4839030Y5276010I-45742J6D01*
G02X4855020Y5308860I15993J12532D01*
G01X4920530D01*
X4990280Y5239110D01*
Y5200000D01*
G03X5227330Y5300240I139719J0D01*
G01X5227280Y5300290D01*
X5201140Y5326440D01*
Y5519470D01*
X5089470Y5631140D01*
X4885100D01*
X4883170Y5631980D01*
G03X4865000Y5635740I-18162J-41982D01*
G01X4715000D01*
G03X4696830Y5631980I-8J-45742D01*
G01X4694900Y5631140D01*
X4668980D01*
G02X4661790Y5648480I-4J10159D01*
G01X4667340Y5654030D01*
Y5682820D01*
G03Y5684180I-71138J680D01*
G01Y5723050D01*
X4677400Y5735410D01*
G03X4680590Y5739850I-35486J28861D01*
G02X4693870Y5743430I8586J-5429D01*
G03X4715000Y5738260I21124J40571D01*
G01X4865000D01*
G03X4910740Y5784000I0J45740D01*
G01Y5844000D01*
G03X4901620Y5871410I-45750J0D01*
G02Y5883590I8130J6090D01*
G03X4910740Y5911000I-36630J27410D01*
G01Y5971000D01*
G03X4868710Y6016590I-45741J0D01*
G01X4735190Y6027460D01*
X4568440Y6194210D01*
Y6285830D01*
G02X4593230Y6305650I20320J-3D01*
G03X4658930Y6321560I16771J74351D01*
G01X4723260D01*
Y6235000D01*
G03X4725790Y6220000I45731J0D01*
G03X4723260Y6205000I43201J-15000D01*
G01Y6125000D01*
G03X4769000Y6079260I45740J0D01*
G01X4949000D01*
G03X4994740Y6125000I0J45740D01*
G01Y6205000D01*
G03X4992210Y6220000I-45731J0D01*
G03X4994740Y6235000I-43201J15000D01*
G01Y6284620D01*
G02X5018200Y6304700I20320J4D01*
G03Y6455300I11800J75300D01*
G02X4994740Y6475380I-3140J20076D01*
G01Y6535000D01*
G03X4992210Y6550000I-45731J0D01*
G03X4994740Y6565000I-43201J15000D01*
G01Y6645000D01*
G03X4992210Y6660000I-45731J0D01*
G03X4994740Y6675000I-43201J15000D01*
G01Y6755000D01*
G03X4949000Y6800740I-45740J0D01*
G01X4769000D01*
G03X4723260Y6755000I0J-45740D01*
G01Y6675000D01*
G03X4725790Y6660000I45731J0D01*
G03X4723260Y6645000I43201J-15000D01*
G01Y6565000D01*
G03X4725790Y6550000I45731J0D01*
G03X4723260Y6535000I43201J-15000D01*
G01Y6455000D01*
G03X4723420Y6451230I45738J53D01*
G01X4723840Y6446150D01*
X4715100Y6438440D01*
X4658930D01*
G03X4593230Y6454350I-48929J-58441D01*
G02X4568440Y6474170I-4470J19823D01*
G01Y6744210D01*
X4427210Y6885440D01*
X3777510D01*
X3759010Y6901520D01*
G03X3729000Y6912740I-30010J-34524D01*
G01X3549000D01*
G03X3533120Y6909890I13J-45738D01*
G02X3505740Y6928950I-7059J19056D01*
G01Y6955000D01*
G03X3464480Y7000520I-45740J0D01*
G01X3355220Y7011280D01*
G02X3348610Y7028120I1002J10110D01*
G01X3353790Y7033980D01*
G03X3364640Y7056800I-34276J30286D01*
G01X3376360Y7127520D01*
X3417390Y7168540D01*
X3471920D01*
G03X3479550Y7169180I5J45740D01*
G02X3503260Y7149150I3391J-20035D01*
G01Y7091000D01*
G03X3549000Y7045260I45740J0D01*
G01X3729000D01*
G03X3774740Y7091000I0J45740D01*
G01Y7171000D01*
G03X3772210Y7186000I-45731J0D01*
G03X3774740Y7201000I-43201J15000D01*
G01Y7281000D01*
G03X3772210Y7296000I-45731J0D01*
G03X3774740Y7311000I-43201J15000D01*
G01Y7391000D01*
G03X3772210Y7406000I-45731J0D01*
G03X3774740Y7421000I-43201J15000D01*
G01Y7501000D01*
G03X3729000Y7546740I-45740J0D01*
G01X3549000D01*
G03X3518510Y7535090I5J-45738D01*
G02X3484640Y7550240I-13549J15145D01*
G01Y7608010D01*
X3394210Y7698440D01*
X2870140D01*
G02X2855770Y7733130I0J20321D01*
G01X2868440Y7745790D01*
Y7888860D01*
X2886850D01*
X2899210Y7878800D01*
G03X2928080Y7868540I28870J35488D01*
G01X3019520D01*
G03X3065260Y7914280I0J45740D01*
G01Y8005720D01*
G03X3054660Y8035000I-45740J0D01*
G03X3065260Y8064280I-35140J29280D01*
G01Y8155720D01*
G03X3019520Y8201460I-45740J0D01*
G01X2928080D01*
G03X2882340Y8155720I0J-45740D01*
G01Y8064280D01*
G03X2883210Y8055400I45754J0D01*
G02X2863280Y8031140I-19934J-3940D01*
G01X2810800D01*
G03X2803750Y8030790I-2J-71140D01*
G01X2803250Y8030740D01*
X2780800D01*
G03X2760000Y8025740I-5J-45741D01*
G03X2739200Y8030740I-20795J-40741D01*
G01X2716750D01*
X2716250Y8030790D01*
G03X2702150I-7050J-70790D01*
G01X2701650Y8030740D01*
X2679200D01*
G03X2655000Y8023810I6J-45738D01*
G03X2630800Y8030740I-24206J-38808D01*
G01X2608350D01*
X2607850Y8030790D01*
G03X2598120Y8031090I-7052J-70790D01*
G02X2587590Y8041790I-384J10153D01*
G03X2587660Y8044280I-45669J2530D01*
G01Y8135720D01*
G03X2541920Y8181460I-45740J0D01*
G01X2450480D01*
G03X2448250Y8181410I-90J-45742D01*
G02X2437610Y8192050I-495J10145D01*
G03X2437660Y8194280I-45692J2140D01*
G01Y8290000D01*
X4482340D01*
Y8204280D01*
G03X4485470Y8187660I45738J9D01*
G01X4486160Y8185880D01*
Y8120800D01*
G03X4486270Y8116430I83842J-76D01*
G01X4486290Y8116160D01*
Y8105740D01*
X4484260D01*
Y7915740D01*
X4114260D01*
Y7907590D01*
X4101310D01*
X4098910Y7909010D01*
G03X4075550Y7915430I-23368J-39318D01*
G01X3956170D01*
G03X3926850Y7904790I7J-45737D01*
G01X3898530Y7881140D01*
X3897360D01*
G03Y7738860I-27360J-71140D01*
G01X3898530D01*
X3926850Y7715210D01*
G03X3956170Y7704570I29327J35097D01*
G01X4075550D01*
G03X4088280Y7706380I-10J45739D01*
G02X4114260Y7686860I5659J-19517D01*
G01Y7621050D01*
X4161050Y7574260D01*
X4658950D01*
X4705740Y7621050D01*
Y7682380D01*
X4706140Y7683770D01*
G03X4708440Y7700000I-56139J16234D01*
G01Y7710900D01*
X4717330Y7712020D01*
G03X4726230Y7713860I-7346J57977D01*
G01X4727620Y7714260D01*
X4785810D01*
X4787920Y7713220D01*
G03X4808080Y7708540I20155J41061D01*
G01X4935360D01*
Y7542740D01*
X4771000D01*
G03X4725260Y7497000I0J-45740D01*
G01Y7417000D01*
G03X4771000Y7371260I45740J0D01*
G01X4951000D01*
G03X4962820Y7372810I13J45742D01*
G01X4964110Y7373160D01*
X5016200D01*
G03X5024940Y7373620I-30J83838D01*
G01X5025470Y7373670D01*
X5036160D01*
Y7347350D01*
X5034780Y7344970D01*
G03X5028540Y7321920I39497J-23062D01*
G01Y7230480D01*
G03X5029200Y7222720I45742J-18D01*
G01X5029350Y7221870D01*
Y7210840D01*
X4996740D01*
Y7277000D01*
G03X4951000Y7322740I-45740J0D01*
G01X4771000D01*
G03X4725260Y7277000I0J-45740D01*
G01Y7197000D01*
G03X4727790Y7182000I45731J0D01*
G03X4725260Y7167000I43201J-15000D01*
G01Y7087000D01*
G03X4771000Y7041260I45740J0D01*
G01X4951000D01*
G03X4962820Y7042810I13J45742D01*
G01X4964110Y7043160D01*
X5044740D01*
G03X5074280Y7032340I29540J34914D01*
G01X5165720D01*
G03X5211460Y7078080I0J45740D01*
G01Y7169520D01*
G03X5199820Y7200000I-45727J0D01*
G03X5211460Y7230480I-34087J30480D01*
G01Y7321920D01*
G03X5205220Y7344970I-45737J-12D01*
G01X5203840Y7347350D01*
Y7448430D01*
X5203930Y7449090D01*
G03X5193040Y7502560I-83129J10913D01*
G03X5175680Y7523380I-42233J-17567D01*
G03X5122860Y7543810I-54876J-63383D01*
G02X5103040Y7564130I501J20315D01*
G01Y7684270D01*
G02X5125370Y7704490I20321J-2D01*
G03X5129910Y7704260I4581J45508D01*
G01X5229910D01*
G03X5275650Y7750000I0J45740D01*
G01Y7850000D01*
G03X5229910Y7895740I-45740J0D01*
G01X5129910D01*
G03X5099140Y7883840I0J-45731D01*
G01X5077350D01*
X5074970Y7885220D01*
G03X5051920Y7891460I-23062J-39497D01*
G01X4808080D01*
G03X4787920Y7886780I-5J-45741D01*
G01X4785810Y7885740D01*
X4767620D01*
X4766230Y7886140D01*
G03X4750000Y7888440I-16234J-56139D01*
G01X4730000D01*
Y7970000D01*
X4658440D01*
Y7988640D01*
G03X4657350Y8000470I-58442J580D01*
G01X4657340Y8000490D01*
X4657250Y8000930D01*
G03X4656140Y8005430I-57249J-11735D01*
G01X4655740Y8006820D01*
Y8105740D01*
X4653710D01*
Y8116160D01*
X4653730Y8116430D01*
G03X4653840Y8120800I-83732J4294D01*
G01Y8158540D01*
X4771920D01*
G03X4817660Y8204280I0J45740D01*
G01Y8290000D01*
X5142340D01*
Y8204280D01*
G03X5188080Y8158540I45740J0D01*
G01X5279520D01*
G03X5286570Y8159090I-22J45738D01*
G02X5310010Y8138420I3129J-20078D01*
G03X5459060Y8158580I76188J-2218D01*
G01X5457390Y8164030D01*
X5466190Y8173980D01*
G03X5477660Y8204280I-34272J30295D01*
G01Y8290000D01*
X5520000D01*
Y7905830D01*
G02X5509320Y7895680I-10160J-3D01*
G03X5507000Y7895740I-2342J-45679D01*
G01X5407000D01*
G03X5361260Y7850000I0J-45740D01*
G01Y7750000D01*
G03X5407000Y7704260I45740J0D01*
G01X5507000D01*
G03X5509320Y7704320I-22J45739D01*
G02X5520000Y7694170I520J-10147D01*
G01Y3831700D01*
G02X5485310Y3817330I-20321J0D01*
G37*
G36*
G01X2642630Y7795590D02*
X2639200Y7885000D01*
X2608210Y7863020D01*
X2579200Y7835000D01*
X2622380Y7786750D01*
G03X2642630Y7795590I7619J10160D01*
G37*
G36*
G01X2681850Y7817340D02*
X2740800Y7835000D01*
X2713050Y7862250D01*
X2680800Y7885000D01*
X2668100Y7830000D01*
G03X2681850Y7817340I12703J0D01*
G37*
G36*
G01X2816430Y7905960D02*
X2840800Y7935000D01*
X2810860Y7963170D01*
X2780800Y7935000D01*
X2803310Y7906110D01*
G03X2816430Y7905960I6684J10800D01*
G37*
G36*
G01X2511370Y7998670D02*
X2541920Y8044280D01*
X2495920Y8096340D01*
X2450480Y8044280D01*
X2488240Y7998060D01*
G03X2511370Y7998670I10969J22910D01*
G37*
G36*
G01X3290420Y1303800D02*
X3297600D01*
X3310660Y1314070D01*
X3283460Y1332740D01*
X3272460Y1321760D01*
X3290420Y1303800D01*
G37*
G36*
G01X2981020Y1418930D02*
X2968460Y1406350D01*
X2990000Y1381640D01*
X3011540Y1406350D01*
X2998980Y1418930D01*
G03X2981020I-8980J-8980D01*
G37*
G36*
G01X2896020Y1414120D02*
X2883460Y1401540D01*
X2905000Y1376820D01*
X2926540Y1401540D01*
X2913980Y1414120D01*
G03X2896020I-8980J-8980D01*
G37*
G36*
G01X3332260Y1240000D02*
X4710000D01*
X4730000Y1220000D01*
Y1120000D01*
X4721940Y1111940D01*
X3424420D01*
G03X3335540Y1111910I-44419J-61940D01*
G01X3332880Y1110000D01*
X3320000D01*
X3210000Y1000000D01*
X3040000D01*
X3010000Y1030000D01*
Y1160000D01*
X3023550Y1173550D01*
G02X3055190Y1169880I14366J-14369D01*
G03X3195840Y1217640I64812J40115D01*
G02X3200420Y1232660I20216J2044D01*
G01X3297600D01*
G03X3321440Y1236780I-18J71137D01*
G03X3330610Y1239410I-16386J74436D01*
G01X3332260Y1240000D01*
G37*
G36*
G01X2952220Y1829520D02*
X2970000D01*
X2972250Y1862250D01*
X2939520Y1860000D01*
Y1842220D01*
G03X2952220Y1829520I12700J0D01*
G37*
G36*
G01X3054020Y1954120D02*
X3041460Y1941540D01*
X3063000Y1916820D01*
X3084540Y1941540D01*
X3071980Y1954120D01*
G03X3054020I-8980J-8980D01*
G37*
G36*
G01X3154020Y1907120D02*
X3138460Y1891540D01*
X3159660Y1866840D01*
X3183380Y1889210D01*
X3173820Y1904790D01*
G03X3154020Y1907120I-10820J-6650D01*
G37*
G36*
G01X3254020Y1834120D02*
X3241460Y1821540D01*
X3263000Y1796820D01*
X3284540Y1821540D01*
X3271980Y1834120D01*
G03X3254020I-8980J-8980D01*
G37*
G36*
G01X2954020Y1971120D02*
X2941460Y1958540D01*
X2963000Y1933820D01*
X2984540Y1958540D01*
X2971980Y1971120D01*
G03X2954020I-8980J-8980D01*
G37*
G36*
G01X3013490Y3319240D02*
X2978080Y3275720D01*
X3023800Y3223650D01*
X3069520Y3275720D01*
X3034110Y3319240D01*
G03X3013490I-10310J-23210D01*
G37*
G36*
G01X3034110Y3390760D02*
X3069520Y3434280D01*
X3023800Y3486350D01*
X2978080Y3434280D01*
X3013490Y3390760D01*
G03X3034110I10310J23210D01*
G37*
G36*
G01X3165010Y3154940D02*
X3156240Y3138560D01*
X3180410Y3116850D01*
X3201540Y3141540D01*
X3185180Y3157920D01*
G03X3165010Y3154940I-8978J-8981D01*
G37*
G36*
G01X3337660Y3225580D02*
X3352500Y3212500D01*
X3433180Y3227500D01*
X3352500Y3242500D01*
X3337660Y3229420D01*
G03Y3225580I12550J-1920D01*
G37*
G36*
G01X3183630Y3140970D02*
X3221920Y3184280D01*
X3176200Y3233180D01*
X3130480Y3184280D01*
X3168770Y3140970D01*
G03X3183630I7430J10300D01*
G37*
G36*
G01X3267660Y3235030D02*
X3221920Y3275720D01*
X3173030Y3230100D01*
X3221920Y3184280D01*
X3267240Y3219440D01*
G03X3267660Y3235030I-9810J8065D01*
G37*
G36*
G01X3346620Y3301480D02*
X3334040Y3314040D01*
X3309320Y3292500D01*
X3334040Y3270960D01*
X3346620Y3283520D01*
G03Y3301480I-8980J8980D01*
G37*
G36*
G01X3337660Y3290580D02*
X3352500Y3277500D01*
X3433180Y3292500D01*
X3352500Y3307500D01*
X3337660Y3294420D01*
G03Y3290580I12550J-1920D01*
G37*
G36*
G01X3271150Y3496740D02*
X3221920Y3525720D01*
X3173040Y3479720D01*
X3221920Y3434280D01*
X3272540Y3479810D01*
G03X3271150Y3496740I-10109J7692D01*
G37*
G36*
G01X3314400Y3400480D02*
X3296620D01*
X3294370Y3367750D01*
X3327100Y3370000D01*
Y3387780D01*
G03X3314400Y3400480I-12700J0D01*
G37*
G36*
G01X3337660Y3420580D02*
X3352500Y3407500D01*
X3433180Y3422500D01*
X3352500Y3437500D01*
X3337660Y3424420D01*
G03Y3420580I12550J-1920D01*
G37*
G36*
G01X3025880Y3921020D02*
X3038460Y3908460D01*
X3063180Y3930000D01*
X3038460Y3951540D01*
X3025880Y3938980D01*
G03Y3921020I8980J-8980D01*
G37*
G36*
G01X3350480Y3572220D02*
Y3590000D01*
X3317750Y3592250D01*
X3320000Y3559520D01*
X3337780D01*
G03X3350480Y3572220I0J12700D01*
G37*
G36*
G01X3337780Y3620480D02*
X3320000D01*
X3317750Y3587750D01*
X3350480Y3590000D01*
Y3607780D01*
G03X3337780Y3620480I-12700J0D01*
G37*
G36*
G01X3337660Y3615580D02*
X3352500Y3602500D01*
X3433180Y3617500D01*
X3352500Y3632500D01*
X3337660Y3619420D01*
G03Y3615580I12550J-1920D01*
G37*
G36*
G01X3128080Y3558880D02*
X3221920Y3584280D01*
X3180800Y3634370D01*
X3130480Y3675720D01*
X3102690Y3584950D01*
G03X3128080Y3558880I25390J-671D01*
G37*
G36*
G01X3303000Y3604620D02*
X3221920Y3675720D01*
X3170260Y3632240D01*
X3130480Y3584280D01*
X3283190Y3564620D01*
G03X3303000Y3604620I-960J25381D01*
G37*
G36*
G01X3330450Y3563480D02*
X3352500Y3537500D01*
X3442520Y3550350D01*
X3507500Y3567500D01*
X3342500Y3580200D01*
G03X3330450Y3563480I0J-12702D01*
G37*
G36*
G01X3128360Y3891290D02*
X3146130Y3901110D01*
X3141720Y3932670D01*
X3109520Y3930000D01*
Y3902410D01*
G03X3128360Y3891290I12702J0D01*
G37*
G36*
G01X3337660Y3485580D02*
X3352500Y3472500D01*
X3433180Y3487500D01*
X3352500Y3502500D01*
X3337660Y3489420D01*
G03Y3485580I12550J-1920D01*
G37*
G36*
G01X3312220Y3909520D02*
X3330000D01*
X3332250Y3942250D01*
X3299520Y3940000D01*
Y3922220D01*
G03X3312220Y3909520I12700J0D01*
G37*
G36*
G01X3370880Y3996020D02*
X3383460Y3983460D01*
X3408180Y4005000D01*
X3383460Y4026540D01*
X3370880Y4013980D01*
G03Y3996020I8980J-8980D01*
G37*
G36*
G01X2888400Y5253570D02*
X2938080Y5234280D01*
X2990100Y5280830D01*
X2938080Y5325720D01*
X2885460Y5282140D01*
G03X2888400Y5253570I22310J-12140D01*
G37*
G36*
G01X3146510Y5420760D02*
X3181920Y5464280D01*
X3136200Y5516350D01*
X3090480Y5464280D01*
X3125890Y5420760D01*
G03X3146510I10310J23210D01*
G37*
G36*
G01X3057310Y5764950D02*
X3029520Y5855720D01*
X2979200Y5814370D01*
X2938080Y5764280D01*
X3031920Y5738880D01*
G03X3057310Y5764950I0J25399D01*
G37*
G36*
G01X3146510Y5570760D02*
X3181920Y5614280D01*
X3136200Y5666350D01*
X3090480Y5614280D01*
X3125890Y5570760D01*
G03X3146510I10310J23210D01*
G37*
G36*
G01X3125890Y5599240D02*
X3090480Y5555720D01*
X3136200Y5503650D01*
X3181920Y5555720D01*
X3146510Y5599240D01*
G03X3125890I-10310J-23210D01*
G37*
G36*
G01X3295630Y6079860D02*
X3238440Y6137050D01*
Y6249990D01*
X3313380Y6259980D01*
X3314850Y6248990D01*
X3314800Y6248050D01*
G03X3314740Y6245720I45680J-2342D01*
G01Y6154280D01*
G03X3325000Y6125410I45748J0D01*
G01X3334790Y6113380D01*
X3333230Y6108220D01*
G03X3330240Y6092540I72966J-22039D01*
G02X3295630Y6079860I-20247J1690D01*
G37*
G36*
G01X3416510Y6110760D02*
X3451920Y6154280D01*
X3406200Y6206350D01*
X3360480Y6154280D01*
X3395890Y6110760D01*
G03X3416510I10310J23210D01*
G37*
G36*
G01X3465720Y6271120D02*
X3360480Y6245720D01*
X3401160Y6196130D01*
X3451920Y6154280D01*
X3490840Y6241930D01*
G03X3465720Y6271120I-25120J3786D01*
G37*
G36*
G01X3204280Y6291580D02*
X3299520Y6304280D01*
X3256130Y6352150D01*
X3208080Y6395720D01*
X3191590Y6304810D01*
G03X3204280Y6291580I12690J-529D01*
G37*
G36*
G01X3079650Y6972700D02*
X2900000Y6955000D01*
X2988190Y6827390D01*
X3080000Y6705000D01*
X3092700Y6960000D01*
G03X3079650Y6972700I-12705J0D01*
G37*
G36*
G01X3267300Y6960000D02*
X3280000Y6705000D01*
X3371810Y6827390D01*
X3460000Y6955000D01*
X3280350Y6972700D01*
G03X3267300Y6960000I-345J-12700D01*
G37*
G36*
G01X3204280Y6441580D02*
X3299520Y6454280D01*
X3256130Y6502150D01*
X3208080Y6545720D01*
X3191590Y6454810D01*
G03X3204280Y6441580I12690J-529D01*
G37*
G36*
G01X3193810Y7336020D02*
G03X3185740Y7323040I34266J-30303D01*
G01X3154850Y7247490D01*
X3118570Y7211220D01*
X3026480Y7200100D01*
X3025150Y7211060D01*
X3025200Y7211930D01*
G03X3025260Y7214280I-45680J2342D01*
G01Y7305720D01*
G03X3015000Y7334590I-45748J0D01*
G01X3004940Y7346950D01*
Y7426650D01*
X3005540Y7428320D01*
G03X2995220Y7499210I-71739J25753D01*
G02X3011590Y7531560I16373J12032D01*
G01X3195790D01*
X3215360Y7511990D01*
Y7360390D01*
X3193810Y7336020D01*
G37*
G36*
G01X2923490Y7349240D02*
X2888080Y7305720D01*
X2933800Y7253650D01*
X2979520Y7305720D01*
X2944110Y7349240D01*
G03X2923490I-10310J-23210D01*
G37*
G36*
G01X3266370Y7349030D02*
X3228080Y7305720D01*
X3273800Y7256820D01*
X3319520Y7305720D01*
X3281230Y7349030D01*
G03X3266370I-7430J-10300D01*
G37*
G36*
G01X3204280Y7201580D02*
X3319520Y7214280D01*
X3276450Y7261740D01*
X3228080Y7305720D01*
X3191990Y7217480D01*
G03X3204280Y7201580I12290J-3200D01*
G37*
G36*
G01X3145720Y7168420D02*
X3040480Y7155720D01*
X3083680Y7108070D01*
X3131920Y7064280D01*
X3158280Y7153820D01*
G03X3145720Y7168420I-12560J1897D01*
G37*
G36*
G01X3093630Y7020970D02*
X3131920Y7064280D01*
X3086200Y7113180D01*
X3040480Y7064280D01*
X3078770Y7020970D01*
G03X3093630I7430J10300D01*
G37*
G36*
G01X3321920Y7168420D02*
X3228080Y7155720D01*
X3271500Y7107810D01*
X3319520Y7064280D01*
X3334620Y7155390D01*
G03X3321920Y7168420I-12700J326D01*
G37*
G36*
G01X3281230Y7020970D02*
X3319520Y7064280D01*
X3273800Y7113180D01*
X3228080Y7064280D01*
X3266370Y7020970D01*
G03X3281230I7430J10300D01*
G37*
G36*
G01X2903320Y7471850D02*
Y7454070D01*
X2936050Y7451820D01*
X2933800Y7484550D01*
X2916020D01*
G03X2903320Y7471850I0J-12700D01*
G37*
G36*
G01X2884560Y7949690D02*
X2928080Y7914280D01*
X2980150Y7960000D01*
X2928080Y8005720D01*
X2884560Y7970310D01*
G03Y7949690I23210J-10310D01*
G37*
G36*
G01X2984110Y8020760D02*
X3019520Y8064280D01*
X2973800Y8116350D01*
X2928080Y8064280D01*
X2963490Y8020760D01*
G03X2984110I10310J23210D01*
G37*
G36*
G01X2963490Y8049240D02*
X2928080Y8005720D01*
X2973800Y7953650D01*
X3019520Y8005720D01*
X2984110Y8049240D01*
G03X2963490I-10310J-23210D01*
G37*
G36*
G01X4345750Y10000D02*
G02X4326260Y36080I-2J20321D01*
G03X4328140Y49040I-43857J12978D01*
G01Y170960D01*
G03X4316480Y201460I-45738J-6D01*
G01X4304350Y215030D01*
X4305620Y220230D01*
G03X4157580I-74020J18170D01*
G01X4158850Y215030D01*
X4146720Y201460D01*
G03X4145630Y200200I34040J-30549D01*
G02X4114370I-15630J12988D01*
G03X4113280Y201460I-35130J-29289D01*
G01X4086840Y231010D01*
Y624190D01*
X4224210Y761560D01*
X4551070D01*
G03Y878440I48930J58440D01*
G01X4175790D01*
X3969960Y672610D01*
Y231010D01*
X3947570Y205990D01*
G02X3932430I-7570J6779D01*
G01X3924350Y215030D01*
X3925620Y220230D01*
G03X3777580I-74020J18170D01*
G01X3778850Y215030D01*
X3766720Y201460D01*
G03X3759230Y190050I34064J-30525D01*
G02X3740770I-9230J4237D01*
G03X3739980Y191670I-41499J-19235D01*
G01X3718440Y234090D01*
Y941070D01*
G03X3736090Y985500I-58437J48935D01*
G01X3736650Y995060D01*
X5117710D01*
X5246870Y1124230D01*
G02X5281560Y1109860I14369J-14370D01*
G01Y934210D01*
X5123360Y776010D01*
X5119950Y775550D01*
G03X5088600Y636000I10050J-75554D01*
G02X5091930Y604580I-11040J-17057D01*
G01X5021560Y534210D01*
Y328930D01*
G03X5138440I58440J-48930D01*
G01Y485790D01*
X5193870Y541220D01*
G02X5228480Y525160I14363J-14371D01*
G03X5286570Y410860I121517J-10154D01*
G01X5291440Y407890D01*
Y392020D01*
X5273800D01*
G03X5222980Y341200I0J-50820D01*
G01Y188800D01*
G03X5273800Y137980I50820J0D01*
G01X5426200D01*
G03X5477020Y188800I0J50820D01*
G01Y341200D01*
G03X5426200Y392020I-50820J0D01*
G01X5408560D01*
Y407890D01*
X5413430Y410860D01*
G03X5339840Y636520I-63431J104144D01*
G02X5323780Y671130I-1689J20247D01*
G01X5448440Y795790D01*
Y1925790D01*
X5485310Y1962670D01*
G02X5520000Y1948300I14369J-14370D01*
G01Y140000D01*
G02X5390000Y10000I-137000J7000D01*
G01X4345750D01*
G37*
G36*
G01X3652090Y230580D02*
X3597600Y170960D01*
X3648070Y106840D01*
X3699200Y170960D01*
X3669970Y228520D01*
G03X3652090Y230580I-9966J-7871D01*
G37*
G36*
G01X3860580Y204280D02*
X3873140Y216860D01*
X3851600Y241580D01*
X3830060Y216860D01*
X3842620Y204280D01*
G03X3860580I8980J8980D01*
G37*
G36*
G01X3843980Y219210D02*
X3800800Y170960D01*
X3851600Y106820D01*
X3902400Y170960D01*
X3859220Y219210D01*
G03X3843980I-7620J-10160D01*
G37*
G36*
G01X3668980Y955880D02*
X3681540Y968460D01*
X3660000Y993180D01*
X3638460Y968460D01*
X3651020Y955880D01*
G03X3668980I8980J8980D01*
G37*
G36*
G01X3414880Y1064560D02*
X3398810Y1073620D01*
X3376850Y1049610D01*
X3401540Y1028460D01*
X3417620Y1044520D01*
G03X3414880Y1064560I-8980J8979D01*
G37*
G36*
G01X3774960Y2577690D02*
X3768440Y2584210D01*
Y3005790D01*
X3864240Y3101590D01*
G02X3893360Y3101200I14370J-14367D01*
G01X3906500Y3087330D01*
X3896650Y3076500D01*
G03X3884740Y3045720I33819J-30780D01*
G01Y2954280D01*
G03X3910540Y2913110I45748J0D01*
G02X3916050Y2880460I-8858J-18285D01*
G01X3791860Y2756270D01*
Y2577690D01*
X3774960D01*
G37*
G36*
G01X3516560Y3153520D02*
X3529140Y3140960D01*
X3553860Y3162500D01*
X3529140Y3184040D01*
X3516560Y3171480D01*
G03Y3153520I8980J-8980D01*
G37*
G36*
G01X3522340Y3164420D02*
X3507500Y3177500D01*
X3426820Y3162500D01*
X3507500Y3147500D01*
X3522340Y3160580D01*
G03Y3164420I-12550J1920D01*
G37*
G36*
G01X3571020Y3324120D02*
X3558460Y3311540D01*
X3580000Y3286820D01*
X3601540Y3311540D01*
X3588980Y3324120D01*
G03X3571020I-8980J-8980D01*
G37*
G36*
G01X3522340Y3489420D02*
X3507500Y3502500D01*
X3426820Y3487500D01*
X3507500Y3472500D01*
X3522340Y3485580D01*
G03Y3489420I-12550J1920D01*
G37*
G36*
G01X3590480Y5002220D02*
Y5020000D01*
X3557750Y5022250D01*
X3560000Y4989520D01*
X3577780D01*
G03X3590480Y5002220I0J12700D01*
G37*
G36*
G01X3690480D02*
Y5020000D01*
X3657750Y5022250D01*
X3660000Y4989520D01*
X3677780D01*
G03X3690480Y5002220I0J12700D01*
G37*
G36*
G01X3550000Y6362740D02*
Y6400650D01*
X3731690Y6411340D01*
G03X3765920Y6430000I-2690J45660D01*
G01X4080000D01*
X4160000Y6350000D01*
Y5740000D01*
X3820000D01*
X3710000Y5850000D01*
Y6010000D01*
X3960000D01*
X3990000Y6040000D01*
Y6310000D01*
X3950000Y6350000D01*
X3760670D01*
G03X3729000Y6362740I-31670J-32994D01*
G01X3550000D01*
G37*
G36*
G01X3510550Y6268300D02*
X3549000Y6237000D01*
X3645350Y6277000D01*
X3549000Y6317000D01*
X3510550Y6285700D01*
G03Y6268300I23860J-8700D01*
G37*
G36*
G01X3766780Y6724160D02*
X3729000Y6757000D01*
X3635820Y6717000D01*
X3729000Y6677000D01*
X3766780Y6709840D01*
G03Y6724160I-10490J7160D01*
G37*
G36*
G01Y6834160D02*
X3729000Y6867000D01*
X3635820Y6827000D01*
X3729000Y6787000D01*
X3766780Y6819840D01*
G03Y6834160I-10490J7160D01*
G37*
G36*
G01X3511220Y6599840D02*
X3549000Y6567000D01*
X3642180Y6607000D01*
X3549000Y6647000D01*
X3511220Y6614160D01*
G03Y6599840I10490J-7160D01*
G37*
G36*
G01X3513200Y6444300D02*
X3729000Y6457000D01*
X3651100Y6500850D01*
X3549000Y6537000D01*
X3501610Y6462190D01*
G03X3513200Y6444300I11590J-5191D01*
G37*
G36*
G01X3418770Y7349030D02*
X3380480Y7305720D01*
X3426200Y7256820D01*
X3471920Y7305720D01*
X3433630Y7349030D01*
G03X3418770I-7430J-10300D01*
G37*
G36*
G01X4240580Y204280D02*
X4253140Y216860D01*
X4231600Y241580D01*
X4210060Y216860D01*
X4222620Y204280D01*
G03X4240580I8980J8980D01*
G37*
G36*
G01X4223980Y219210D02*
X4180800Y170960D01*
X4231600Y106820D01*
X4282400Y170960D01*
X4239220Y219210D01*
G03X4223980I-7620J-10160D01*
G37*
G36*
G01X4020780D02*
X3977600Y170960D01*
X4028400Y106820D01*
X4079200Y170960D01*
X4036020Y219210D01*
G03X4020780I-7620J-10160D01*
G37*
G36*
G01X5221560Y2054030D02*
Y1264210D01*
X5069290Y1111940D01*
X4775740D01*
Y1238950D01*
X4728950Y1285740D01*
X4175400D01*
G02X4161040Y1320430I4J20319D01*
G01X4429470Y1588860D01*
X4436450D01*
X4451050Y1574260D01*
X4708950D01*
X4905740Y1771050D01*
Y1868950D01*
X4848950Y1925740D01*
X4697440D01*
G02X4683070Y1960430I0J20321D01*
G01X5366870Y2644230D01*
G02X5401560Y2629860I14369J-14370D01*
G01Y2210140D01*
G02X5366870Y2195770I-20321J0D01*
G01X5256220Y2306430D01*
Y2312180D01*
G03X5108020Y2287130I-76217J0D01*
G03X5127770Y2145550I36098J-67132D01*
G01X5130680Y2144920D01*
X5221560Y2054030D01*
G37*
G36*
G01X3944120Y1758980D02*
X3931540Y1771540D01*
X3906820Y1750000D01*
X3931540Y1728460D01*
X3944120Y1741020D01*
G03Y1758980I-8980J8980D01*
G37*
G36*
G01Y1838980D02*
X3931540Y1851540D01*
X3906820Y1830000D01*
X3931540Y1808460D01*
X3944120Y1821020D01*
G03Y1838980I-8980J8980D01*
G37*
G36*
G01X4191410Y1963910D02*
X4194500Y1946130D01*
X4227200Y1946240D01*
X4224780Y1978780D01*
X4203920D01*
G03X4191410Y1963910I0J-12697D01*
G37*
G36*
G01X3892220Y1889520D02*
X3910000D01*
X3912250Y1922250D01*
X3879520Y1920000D01*
Y1902220D01*
G03X3892220Y1889520I12700J0D01*
G37*
G36*
G01X3897660Y3225580D02*
X3912500Y3212500D01*
X3993180Y3227500D01*
X3912500Y3242500D01*
X3897660Y3229420D01*
G03Y3225580I12550J-1920D01*
G37*
G36*
G01X3897500Y3264800D02*
X4067500Y3277500D01*
X4002540Y3294530D01*
X3912500Y3307500D01*
X3886140Y3283180D01*
G03X3897500Y3264800I11360J-5679D01*
G37*
G36*
G01X3897660Y3355580D02*
X3912500Y3342500D01*
X3993180Y3357500D01*
X3912500Y3372500D01*
X3897660Y3359420D01*
G03Y3355580I12550J-1920D01*
G37*
G36*
G01Y3420580D02*
X3912500Y3407500D01*
X3993180Y3422500D01*
X3912500Y3437500D01*
X3897660Y3424420D01*
G03Y3420580I12550J-1920D01*
G37*
G36*
G01X4233760Y3410880D02*
X4246320Y3423460D01*
X4224780Y3448180D01*
X4203240Y3423460D01*
X4215800Y3410880D01*
G03X4233760I8980J8980D01*
G37*
G36*
G01X4082340Y3164420D02*
X4067500Y3177500D01*
X3986820Y3162500D01*
X4067500Y3147500D01*
X4082340Y3160580D01*
G03Y3164420I-12550J1920D01*
G37*
G36*
G01X3998050Y3074180D02*
X4067500Y3147500D01*
X3990000Y3165680D01*
X3912500Y3147500D01*
X3981950Y3074180D01*
G03X3998050I8050J9820D01*
G37*
G36*
G01X3982150Y3102510D02*
X3930480Y3045720D01*
X3975730Y2996860D01*
X4021920Y3045720D01*
X4000490Y3099690D01*
G03X3982150Y3102510I-10488J-7161D01*
G37*
G36*
G01X4409240Y3346510D02*
X4365720Y3381920D01*
X4313650Y3336200D01*
X4365720Y3290480D01*
X4409240Y3325890D01*
G03Y3346510I-23210J10310D01*
G37*
G36*
G01X3897660Y3485580D02*
X3912500Y3472500D01*
X3993180Y3487500D01*
X3912500Y3502500D01*
X3897660Y3489420D01*
G03Y3485580I12550J-1920D01*
G37*
G36*
G01X4082340Y3489420D02*
X4067500Y3502500D01*
X3986820Y3487500D01*
X4067500Y3472500D01*
X4082340Y3485580D01*
G03Y3489420I-12550J1920D01*
G37*
G36*
G01X3897660Y3550580D02*
X3912500Y3537500D01*
X3993180Y3552500D01*
X3912500Y3567500D01*
X3897660Y3554420D01*
G03Y3550580I12550J-1920D01*
G37*
G36*
G01X4082340Y3554420D02*
X4067500Y3567500D01*
X3986820Y3552500D01*
X4067500Y3537500D01*
X4082340Y3550580D01*
G03Y3554420I-12550J1920D01*
G37*
G36*
G01X3897660Y3615580D02*
X3912500Y3602500D01*
X3993180Y3617500D01*
X3912500Y3632500D01*
X3897660Y3619420D01*
G03Y3615580I12550J-1920D01*
G37*
G36*
G01X4082340Y3619420D02*
X4067500Y3632500D01*
X3986820Y3617500D01*
X4067500Y3602500D01*
X4082340Y3615580D01*
G03Y3619420I-12550J1920D01*
G37*
G36*
G01X3982540Y3690280D02*
X3924530Y3632500D01*
X3990000Y3614320D01*
X4055470Y3632500D01*
X3997460Y3690280D01*
G03X3982540I-7460J-10280D01*
G37*
G36*
G01X4409030Y3683630D02*
X4365720Y3721920D01*
X4316820Y3676200D01*
X4365720Y3630480D01*
X4409030Y3668770D01*
G03Y3683630I-10300J7430D01*
G37*
G36*
G01X4276510Y5720760D02*
X4311920Y5764280D01*
X4266200Y5816350D01*
X4220480Y5764280D01*
X4255890Y5720760D01*
G03X4276510I10310J23210D01*
G37*
G36*
G01X4257300Y5715400D02*
X4147300Y5690000D01*
X4182810Y5615510D01*
X4227300Y5550000D01*
X4282140Y5684680D01*
G03X4257300Y5715400I-24840J5317D01*
G37*
G36*
G01X3899860Y7797350D02*
X3956170Y7750310D01*
X4022210Y7810000D01*
X3956170Y7869690D01*
X3899860Y7822650D01*
G03Y7797350I22030J-12650D01*
G37*
G36*
G01X4450000Y7870000D02*
Y7750000D01*
X4490000Y7710000D01*
X4660000D01*
Y7640000D01*
X4640000Y7620000D01*
X4180000D01*
X4160000Y7640000D01*
Y7870000D01*
X4450000D01*
G37*
G36*
G01X4565880Y811020D02*
X4578460Y798460D01*
X4603180Y820000D01*
X4578460Y841540D01*
X4565880Y828980D01*
G03Y811020I8980J-8980D01*
G37*
G36*
G01X4460000Y1630000D02*
Y1670000D01*
X4670000Y1880000D01*
X4830000D01*
X4860000Y1850000D01*
Y1790000D01*
X4690000Y1620000D01*
X4470000D01*
X4460000Y1630000D01*
G37*
G36*
G01X4545000Y3417060D02*
G03X4539050Y3421260I-29268J-35148D01*
G02Y3438740I5185J8740D01*
G03X4560730Y3469920I-23326J39346D01*
G01X4573720Y3541560D01*
X4774210D01*
X4813120Y3580470D01*
G02X4830460Y3573290I7181J-7186D01*
G01Y3566980D01*
G03X4840830Y3537980I45735J0D01*
G01X4855860Y3519640D01*
Y3431510D01*
X4844860Y3418150D01*
X4837500Y3422140D01*
G03X4815720Y3427660I-21780J-40208D01*
G01X4724280D01*
G03X4695000Y3417060I0J-45740D01*
G03X4665720Y3427660I-29280J-35140D01*
G01X4574280D01*
G03X4545000Y3417060I0J-45740D01*
G37*
G36*
G01X4380760Y3325890D02*
X4424280Y3290480D01*
X4476350Y3336200D01*
X4424280Y3381920D01*
X4380760Y3346510D01*
G03Y3325890I23210J-10310D01*
G37*
G36*
G01X4559240Y3346510D02*
X4515720Y3381920D01*
X4463650Y3336200D01*
X4515720Y3290480D01*
X4559240Y3325890D01*
G03Y3346510I-23210J10310D01*
G37*
G36*
G01X4530760Y3325890D02*
X4574280Y3290480D01*
X4626350Y3336200D01*
X4574280Y3381920D01*
X4530760Y3346510D01*
G03Y3325890I23210J-10310D01*
G37*
G36*
G01X4709240Y3346510D02*
X4665720Y3381920D01*
X4613650Y3336200D01*
X4665720Y3290480D01*
X4709240Y3325890D01*
G03Y3346510I-23210J10310D01*
G37*
G36*
G01X4680760Y3325890D02*
X4724280Y3290480D01*
X4776350Y3336200D01*
X4724280Y3381920D01*
X4680760Y3346510D01*
G03Y3325890I23210J-10310D01*
G37*
G36*
G01X4859240Y3346510D02*
X4815720Y3381920D01*
X4763650Y3336200D01*
X4815720Y3290480D01*
X4859240Y3325890D01*
G03Y3346510I-23210J10310D01*
G37*
G36*
G01X4830760Y3325890D02*
X4874280Y3290480D01*
X4926350Y3336200D01*
X4874280Y3381920D01*
X4830760Y3346510D01*
G03Y3325890I23210J-10310D01*
G37*
G36*
G01X4519520Y3582220D02*
X4424280Y3569520D01*
X4467670Y3521650D01*
X4515720Y3478080D01*
X4532210Y3568990D01*
G03X4519520Y3582220I-12690J529D01*
G37*
G36*
G01X4591070Y3694950D02*
X4622200Y3668580D01*
X4676180Y3701600D01*
X4622200Y3734620D01*
X4591070Y3708250D01*
G03Y3694950I10820J-6650D01*
G37*
G36*
G01X4578300Y3713590D02*
X4515720Y3721920D01*
X4466920Y3675450D01*
X4515720Y3630480D01*
X4583940Y3693540D01*
G03X4578300Y3713590I-9812J8058D01*
G37*
G36*
G01X4380970Y3668770D02*
X4424280Y3630480D01*
X4473180Y3676200D01*
X4424280Y3721920D01*
X4380970Y3683630D01*
G03Y3668770I10300J-7430D01*
G37*
G36*
G01X4688730Y5189380D02*
X4736980Y5146200D01*
X4773180Y5197000D01*
X4736980Y5247800D01*
X4688730Y5204620D01*
G03Y5189380I10160J-7620D01*
G37*
G36*
G01X4489740Y5205980D02*
X4432850Y5262850D01*
X4366830Y5200090D01*
X4432340Y5136660D01*
X4489230Y5187530D01*
G03X4489740Y5205980I-8469J9466D01*
G37*
G36*
G01X4894700Y5563840D02*
X4865000Y5590000D01*
X4783650Y5560000D01*
X4865000Y5530000D01*
X4894700Y5556160D01*
G03Y5563840I-25110J3840D01*
G37*
G36*
G01X4685300Y5556160D02*
X4715000Y5530000D01*
X4796350Y5560000D01*
X4715000Y5590000D01*
X4685300Y5563840D01*
G03Y5556160I25110J-3840D01*
G37*
G36*
G01X4606510Y5720760D02*
X4641920Y5764280D01*
X4596200Y5816350D01*
X4550480Y5764280D01*
X4585890Y5720760D01*
G03X4606510I10310J23210D01*
G37*
G36*
G01X4617800Y5563860D02*
X4572700Y5690000D01*
X4528210Y5624490D01*
X4492700Y5550000D01*
X4595230Y5534730D01*
G03X4617800Y5563860I-2532J25271D01*
G37*
G36*
G01X4597790Y5708850D02*
X4492700Y5690000D01*
X4528210Y5615510D01*
X4572700Y5550000D01*
X4621220Y5679100D01*
G03X4597790Y5708850I-25018J4398D01*
G37*
G36*
G01X4702300Y5845000D02*
X4715000Y5784000D01*
X4801740Y5809150D01*
X4865000Y5844000D01*
X4715080Y5857700D01*
G03X4702300Y5845000I-80J-12700D01*
G37*
G36*
G01X4696360Y5969740D02*
X4715000Y5911000D01*
X4801910Y5936590D01*
X4865000Y5971000D01*
X4709000Y5983700D01*
G03X4696360Y5969740I0J-12702D01*
G37*
G36*
G01X4991610Y6387400D02*
X4949000Y6425000D01*
X4855830Y6385130D01*
X4949000Y6345000D01*
X4990620Y6371390D01*
G03X4991610Y6387400I-9331J8613D01*
G37*
G36*
G01X4727380Y6371390D02*
X4769000Y6345000D01*
X4862170Y6385130D01*
X4769000Y6425000D01*
X4726390Y6387400D01*
G03X4727380Y6371390I10321J-7397D01*
G37*
G36*
G01X4644120Y6388980D02*
X4631540Y6401540D01*
X4606820Y6380000D01*
X4631540Y6358460D01*
X4644120Y6371020D01*
G03Y6388980I-8980J8980D01*
G37*
G36*
G01X4554160Y8038470D02*
G03X4585840I15840J82330D01*
G02X4610000Y8018520I3840J-19954D01*
G01Y7900000D01*
X4594260D01*
Y7886010D01*
X4586550Y7884090D01*
G03X4553020Y7860000I13445J-54094D01*
G01X4530000D01*
Y8018520D01*
G02X4554160Y8038470I20320J-4D01*
G37*
G36*
G01X4900000Y7840000D02*
Y7760000D01*
X4690000D01*
Y7800000D01*
X4705740D01*
Y7813990D01*
X4713450Y7815910D01*
G03X4746980Y7840000I-13445J54094D01*
G01X4900000D01*
G37*
G36*
G01X4612660Y7990250D02*
X4595000Y8049200D01*
X4567750Y8021450D01*
X4545000Y7989200D01*
X4600000Y7976500D01*
G03X4612660Y7990250I0J12703D01*
G37*
G36*
G01X5071020Y314120D02*
X5058460Y301540D01*
X5080000Y276820D01*
X5101540Y301540D01*
X5088980Y314120D01*
G03X5071020I-8980J-8980D01*
G37*
G36*
G01X5147780Y730480D02*
X5130000D01*
X5127750Y697750D01*
X5160480Y700000D01*
Y717780D01*
G03X5147780Y730480I-12700J0D01*
G37*
G36*
G01X5210480Y2282220D02*
Y2312180D01*
X5178380Y2314910D01*
X5172830Y2283930D01*
X5190600Y2271740D01*
G03X5210480Y2282220I7178J10480D01*
G37*
G36*
G01X5174600Y2196340D02*
Y2220000D01*
X5142210Y2222540D01*
X5140140Y2190170D01*
X5157910Y2184280D01*
G03X5174600Y2196340I3988J12060D01*
G37*
G36*
G01X5194100Y3296880D02*
X5145720Y3381920D01*
X5094690Y3339690D01*
X5054280Y3290480D01*
X5169520Y3265080D01*
G03X5194100Y3296880I0J25400D01*
G37*
G36*
G01X5089690Y3425440D02*
X5054280Y3381920D01*
X5100000Y3329850D01*
X5145720Y3381920D01*
X5110310Y3425440D01*
G03X5089690I-10310J-23210D01*
G37*
G36*
G01X4915320Y3431780D02*
X4874280Y3381920D01*
X4919390Y3329880D01*
X4965720Y3381920D01*
X4941640Y3429990D01*
G03X4915320Y3431780I-14633J-20761D01*
G37*
G36*
G01X4865880Y3761020D02*
X4878460Y3748460D01*
X4903180Y3770000D01*
X4878460Y3791540D01*
X4865880Y3778980D01*
G03Y3761020I8980J-8980D01*
G37*
G36*
G01X4938360Y3518870D02*
X4977800Y3566980D01*
X4927000Y3606350D01*
X4876200Y3566980D01*
X4915640Y3518870D01*
G03X4938360I11360J22720D01*
G37*
G36*
G01X5085880Y4151020D02*
X5098460Y4138460D01*
X5123180Y4160000D01*
X5098460Y4181540D01*
X5085880Y4168980D01*
G03Y4151020I8980J-8980D01*
G37*
G36*
G01X5041100Y5263500D02*
Y5200000D01*
X5134490Y5195510D01*
X5130000Y5288900D01*
X5066500D01*
G03X5041100Y5263500I0J-25400D01*
G37*
G36*
G01X5112040Y5307760D02*
X5067150Y5262850D01*
X5130000Y5193650D01*
X5192850Y5262850D01*
X5147960Y5307760D01*
G03X5112040I-17960J-17960D01*
G37*
G36*
G01X4995880Y6371020D02*
X5008460Y6358460D01*
X5033180Y6380000D01*
X5008460Y6401540D01*
X4995880Y6388980D01*
G03Y6371020I8980J-8980D01*
G37*
G36*
G01X5393630Y8160970D02*
X5431920Y8204280D01*
X5386200Y8253180D01*
X5340480Y8204280D01*
X5378770Y8160970D01*
G03X5393630I7430J10300D01*
G37*
G36*
G01X5317780Y8400480D02*
X5300000D01*
X5297750Y8367750D01*
X5330480Y8370000D01*
Y8387780D01*
G03X5317780Y8400480I-12700J0D01*
G37*
G36*
G01X5353040Y8408300D02*
X5452400Y8439040D01*
X5403310Y8502670D01*
X5350800Y8560960D01*
X5338100Y8420800D01*
G03X5353040Y8408300I12699J0D01*
G37*
G36*
G01X5226370Y8339030D02*
X5188080Y8295720D01*
X5233800Y8246820D01*
X5279520Y8295720D01*
X5241230Y8339030D01*
G03X5226370I-7430J-10300D01*
G37*
G36*
G01X5377220Y8170320D02*
X5364660Y8157740D01*
X5386200Y8133020D01*
X5407740Y8157740D01*
X5395180Y8170320D01*
G03X5377220I-8980J-8980D01*
G37*
%LPC*%
G75*
G36*
G01X339820Y4199740D02*
G03X332400Y4224560I-18709J7926D01*
G02X312060Y4262600I25401J38040D01*
G01Y4362600D01*
G02X357800Y4408340I45740J0D01*
G01X537800D01*
G02X583540Y4362600I0J-45740D01*
G01Y4262600D01*
G02X582520Y4253020I-45737J25D01*
G03X602390Y4228440I19870J-4259D01*
G01X861070D01*
G02Y4111560I48930J-58440D01*
G01X458930D01*
G02X339820Y4199740I-48931J58440D01*
G37*
G36*
G01X4747160Y4897360D02*
X4774420Y4867940D01*
X4781690Y4873080D01*
G02X4808080Y4881460I26390J-37363D01*
G01X4899520D01*
G02X4945260Y4835720I0J-45740D01*
G01Y4744280D01*
G02X4899520Y4698540I-45740J0D01*
G01X4808080D01*
G02X4781010Y4707410I0J45742D01*
G03X4768990I-6010J-8191D01*
G02X4741920Y4698540I-27070J36872D01*
G01X4650480D01*
G02X4640460Y4699650I-4J45740D01*
G03X4615800Y4681970I-4455J-19823D01*
G02X4465420Y4705710I-75796J8032D01*
G01X4466340Y4710110D01*
X4461020Y4717470D01*
G02X4452340Y4744280I37064J26810D01*
G01Y4835720D01*
G02X4498080Y4881460I45740J0D01*
G01X4589640D01*
Y4891730D01*
Y4993800D01*
G02X4635380Y5039540I45740J0D01*
G01X4701420D01*
G02X4747160Y4993800I0J-45740D01*
G01Y4897360D01*
G37*
G54D59*
X2620000Y430000D03*
X3020000D03*
G54D56*
X420000Y4820000D03*
G54D58*
X1080000Y4830000D03*
Y5580000D03*
G54D57*
X420000Y5620000D03*
%LPD*%
G75*
G36*
G01X444120Y4178980D02*
X431540Y4191540D01*
X406820Y4170000D01*
X431540Y4148460D01*
X444120Y4161020D01*
G03Y4178980I-8980J8980D01*
G37*
G36*
G01X875880Y4161020D02*
X888460Y4148460D01*
X913180Y4170000D01*
X888460Y4191540D01*
X875880Y4178980D01*
G03Y4161020I8980J-8980D01*
G37*
G36*
G01X2034120Y7128980D02*
X2021540Y7141540D01*
X1996820Y7120000D01*
X2021540Y7098460D01*
X2034120Y7111020D01*
G03Y7128980I-8980J8980D01*
G37*
G36*
G01X4675050Y4861070D02*
X4701420Y4892200D01*
X4668400Y4946180D01*
X4635380Y4892200D01*
X4661750Y4861070D01*
G03X4675050I6650J10820D01*
G37*
G36*
G01X4764770Y4782570D02*
X4808080Y4744280D01*
X4856980Y4790000D01*
X4808080Y4835720D01*
X4764770Y4797430D01*
G03Y4782570I10300J-7430D01*
G37*
G36*
G01X4656220Y4900120D02*
X4650480Y4835720D01*
X4697000Y4786930D01*
X4741920Y4835720D01*
X4676490Y4906320D01*
G03X4656220Y4900120I-8089J-9790D01*
G37*
G36*
G01X4785230Y4797430D02*
X4741920Y4835720D01*
X4693020Y4790000D01*
X4741920Y4744280D01*
X4785230Y4782570D01*
G03Y4797430I-10300J7430D01*
G37*
G36*
G01X4547580Y4697280D02*
X4589520Y4744280D01*
X4543950Y4793170D01*
X4498080Y4744280D01*
X4531620Y4697930D01*
G03X4547580Y4697280I8382J9540D01*
G37*
G36*
G01X4531020Y4724120D02*
X4518460Y4711540D01*
X4540000Y4686820D01*
X4561540Y4711540D01*
X4548980Y4724120D01*
G03X4531020I-8980J-8980D01*
G37*
G54D10*
X229580Y108650D03*
X432780D03*
X1338400Y110000D03*
X1541600D03*
X1718400D03*
X1921600D03*
X3851600D03*
X3648400D03*
X4231600D03*
X4028400D03*
X5198400Y8500000D03*
X5401600D03*
G54D20*
X1110000Y2803800D03*
Y2956200D03*
X1260000D03*
Y2803800D03*
X4320000Y3183800D03*
Y3336200D03*
Y3523800D03*
Y3676200D03*
X4400000Y7803800D03*
Y7956200D03*
X4470000Y3183800D03*
Y3336200D03*
X4620000Y3183800D03*
Y3336200D03*
X4770000Y3183800D03*
Y3336200D03*
X4470000Y3523800D03*
Y3676200D03*
X4920000Y3183800D03*
Y3336200D03*
X5100000D03*
Y3183800D03*
X5120000Y7276200D03*
Y7123800D03*
G54D11*
X100000Y300000D03*
Y460000D03*
X406200Y236200D03*
X229580Y240000D03*
X280000Y1980000D03*
Y1830000D03*
X320000Y3390000D03*
X330000Y3200000D03*
X160000Y3490000D03*
X420000Y3200000D03*
X418850Y3627620D03*
Y3827620D03*
Y4027620D03*
X410000Y4170000D03*
X328850Y4947620D03*
Y5147620D03*
Y5347620D03*
Y5547620D03*
X272380Y7930880D03*
X72380Y7928850D03*
X790000Y150000D03*
X780000Y360000D03*
X790000Y1980000D03*
X690000D03*
X880000Y2090000D03*
X790000D03*
X590000Y2780000D03*
Y3410000D03*
Y3110000D03*
X510000Y3340000D03*
X588850Y3627620D03*
Y3827620D03*
Y4027620D03*
X910000Y4170000D03*
X498850Y4947620D03*
Y5147620D03*
Y5347620D03*
Y5547620D03*
X468850Y6527620D03*
X638850D03*
X468850Y6927620D03*
X638850D03*
X468850Y6727620D03*
X638850D03*
X852380Y7298850D03*
Y7128850D03*
X652380Y7298850D03*
Y7128850D03*
X872380Y7928850D03*
X672380D03*
X472380D03*
X852380Y7708850D03*
Y7538850D03*
X652380Y7708850D03*
Y7538850D03*
X950000Y150000D03*
X980000Y360000D03*
X1338400Y240000D03*
X940000Y1610000D03*
X1170000Y1510000D03*
X1330000D03*
X970000Y2090000D03*
X1110000Y2660000D03*
X1390000Y2778160D03*
X1280000Y3410000D03*
Y3640000D03*
Y3510000D03*
X1078850Y5217620D03*
Y5017620D03*
Y5417620D03*
X1077620Y5721150D03*
X1277620D03*
X1287620Y6811150D03*
X1052380Y7298850D03*
X1252380D03*
X1052380Y7128850D03*
X1252380D03*
X1272380Y7928850D03*
X1072380D03*
X1052380Y7708850D03*
X1252380D03*
X1052380Y7538850D03*
X1252380D03*
X1470000Y240000D03*
X1718400Y238400D03*
X1650000Y970000D03*
X1810000D03*
X1900000Y760000D03*
X1560000Y1827000D03*
X1680000Y2895000D03*
X1460000Y2590000D03*
X1563000D03*
X1536200Y3940000D03*
X1670000Y3560000D03*
X1680000Y4894000D03*
X1600000Y4680000D03*
X1750000Y5200000D03*
X1640000Y5334000D03*
X1680000Y5000000D03*
X1910000Y6300000D03*
X1830000D03*
X1427620Y6061150D03*
X1627620D03*
X1487620Y6811150D03*
X1690000Y7320000D03*
X1684120Y7050000D03*
X1672380Y7928850D03*
X1472380D03*
X2260000Y350000D03*
X2060000D03*
X2260000Y200000D03*
X2060000D03*
X2260000Y70000D03*
X2060000D03*
X2320000Y880000D03*
X1960000Y650000D03*
X2080000Y1080000D03*
X2240000D03*
X2380000Y1140000D03*
X2160000Y1950000D03*
X1960000Y1560000D03*
X2060000Y1990000D03*
X2160000Y2140000D03*
Y2040000D03*
X2380000Y2140000D03*
Y2050000D03*
X2060000Y2090000D03*
X2055000Y2845000D03*
X2163000Y2580000D03*
X2263000Y2577000D03*
X2363000D03*
X2060000Y3020000D03*
X2040000Y3770000D03*
X2330000Y3510000D03*
X2150000D03*
X2240000D03*
X2380000Y4330000D03*
X2120000Y4230000D03*
Y4350000D03*
X2310000Y4810000D03*
X2400000D03*
X2320000Y5190000D03*
X2350000Y5890000D03*
X2376500Y6323500D03*
X2380000Y6200000D03*
Y6450500D03*
X1990000Y6922150D03*
X2320000Y6610000D03*
X2350000Y7250000D03*
X2000000Y7120000D03*
X2380000Y7960000D03*
Y7850000D03*
X2340000Y7540000D03*
X2347800Y7740000D03*
X1921150Y8012380D03*
Y8212380D03*
X2061150Y8012380D03*
Y8212380D03*
X2210000Y8010000D03*
Y8140000D03*
X2730000Y720000D03*
X2570000D03*
X2530000Y880000D03*
X2470000Y1240000D03*
X2690000Y1060000D03*
X2820000D03*
X2755000Y1310000D03*
X2905000Y1380000D03*
X2820000D03*
X2570000Y1410000D03*
X2490000Y1350000D03*
X2859980Y1859400D03*
X2463000Y1927000D03*
X2560000Y1930000D03*
X2663000Y1933000D03*
X2763000D03*
X2863000D03*
X2810000Y2600000D03*
X2430000Y2895000D03*
X2542380Y2998850D03*
X2742380D03*
X2462380Y3158850D03*
X2662380D03*
X2750000Y3440000D03*
X2420000Y3510000D03*
X2880000Y4370000D03*
X2650000Y4020000D03*
X2823800Y4016200D03*
X2780000Y4820000D03*
X2662020Y4857980D03*
X2680000Y4640000D03*
X2490000Y4810000D03*
X2880000Y5380000D03*
X2487620Y5581150D03*
Y5751150D03*
X2560000Y5850000D03*
X2680000Y6030000D03*
X2820000D03*
X2840000Y6323500D03*
X2559500Y6080000D03*
X2420000Y6610000D03*
Y7350000D03*
Y7090000D03*
X2810000Y7250000D03*
X2837750Y7330000D03*
X2532380Y8248850D03*
X2732380Y8250880D03*
X2650000Y8080000D03*
X2810000D03*
X3400000Y80000D03*
X3390000Y1410000D03*
X3120000Y1210000D03*
X2930000Y1060000D03*
X3305000Y1311200D03*
X2990000Y1384810D03*
X3050000Y1090000D03*
X3100000Y1040000D03*
X3150000Y1090000D03*
X3200000Y1040000D03*
X3380000Y1050000D03*
X2970000Y1860000D03*
X3063000Y1920000D03*
X3160000Y1870000D03*
X3263000Y1800000D03*
X2963000Y1937000D03*
X3360000Y2600000D03*
X3110000D03*
X3082380Y3008850D03*
X3282380D03*
X3023800Y3360000D03*
X3180000Y3120000D03*
X3312500Y3292500D03*
X3296620Y3370000D03*
X3060000Y3930000D03*
X3320000Y3590000D03*
X3140000Y3930000D03*
X3330000Y3940000D03*
X3240000Y4390000D03*
X2940000Y4020000D03*
X3405000Y4005000D03*
X2987620Y4791150D03*
Y4961150D03*
X3167620Y4791150D03*
Y4961150D03*
X3340000Y4790000D03*
X3230000Y4560000D03*
X2987620Y5131150D03*
X3167620D03*
X3406200Y6086200D03*
X3180000Y6840000D03*
Y6680000D03*
X3090000Y7370000D03*
X3180000Y6980000D03*
X2933800Y7454070D03*
X2932380Y7808850D03*
X3132380D03*
X3332380D03*
X3090000Y7490000D03*
X2932380Y8248850D03*
X3132380D03*
X3332380D03*
X3342380Y7978850D03*
X3560000Y340000D03*
X3410000D03*
Y220000D03*
X3770000Y380000D03*
X3851600Y238400D03*
X3890000Y820000D03*
X3840000Y770000D03*
Y870000D03*
X3660000Y990000D03*
X3800000Y2810000D03*
X3550680Y3162500D03*
X3580000Y3290000D03*
X3460000Y4140000D03*
X3562380Y5388850D03*
X3762380D03*
X3562380Y5208850D03*
X3762380D03*
X3560000Y5020000D03*
X3660000D03*
X3578850Y5767620D03*
Y5967620D03*
X3880000Y6170000D03*
X3540000Y7000000D03*
X3730000D03*
X3532380Y7808850D03*
X3732380D03*
X3870000Y7810000D03*
X3532380Y8248850D03*
X3732380D03*
X3422380Y8108850D03*
X3622380D03*
X3822380D03*
X3542380Y7978850D03*
X3742380D03*
X3920000Y380000D03*
X4231600Y238400D03*
X3940000Y770000D03*
Y870000D03*
X3990000Y1420000D03*
Y1530000D03*
X3910000Y1750000D03*
Y1830000D03*
X4224780Y1948300D03*
X3910000Y1920000D03*
X4240000Y2150000D03*
Y2070000D03*
X4224780Y3445000D03*
X4200000Y3620000D03*
X4192380Y4858850D03*
X4392380D03*
X4192380Y5008850D03*
X4392380D03*
X3906200Y5380000D03*
X4282380Y5938850D03*
Y6278850D03*
Y6108850D03*
X4052380Y7338850D03*
X4252380D03*
X4052380Y7168850D03*
Y6998850D03*
X4252380Y7168850D03*
Y6998850D03*
X4052380Y7508850D03*
X4252380D03*
X4132380Y8248850D03*
X3932380D03*
X4340000Y8250000D03*
X4022380Y8108850D03*
X4222380D03*
X3942380Y7978850D03*
X4142380D03*
X4560000Y140000D03*
X4770000D03*
X4600000Y720000D03*
X4790000D03*
X4600000Y820000D03*
Y1200000D03*
X4680000D03*
Y1130000D03*
X4600000D03*
X4420000Y1520090D03*
X4740000Y1820000D03*
Y1740000D03*
X4660000Y1660000D03*
X4580000D03*
X4500000D03*
X4800000Y2430000D03*
X4780000Y2530000D03*
Y2680000D03*
X4790000Y3480000D03*
X4822380Y4428850D03*
Y4638850D03*
X4540000Y4690000D03*
X4822380Y5048850D03*
X4610000Y6380000D03*
X4652380Y7338850D03*
X4452380D03*
Y7168850D03*
X4652380D03*
X4452380Y6998850D03*
X4652380D03*
Y7508850D03*
X4452380D03*
X4892380Y8238850D03*
X4762380Y7988850D03*
Y8118850D03*
X4430000Y8110000D03*
X5080000Y280000D03*
X5130000Y700000D03*
X5180000Y2312180D03*
X5144120Y2220000D03*
X4910000Y2840000D03*
X5000000Y2750000D03*
X5100000Y3040000D03*
Y3440000D03*
X4900000Y3770000D03*
X5022380Y4428850D03*
X5120000Y4160000D03*
X5022380Y4638850D03*
Y5048850D03*
X5072380Y5738850D03*
Y5908850D03*
X5272380Y6078850D03*
Y6248850D03*
Y6418850D03*
X5072380Y6078850D03*
X5030000Y6380000D03*
X5112380Y6628850D03*
Y6798850D03*
Y6968850D03*
X5100000Y8240000D03*
X4942380Y8118850D03*
X5150000Y8120000D03*
X4942380Y7988850D03*
X5150000Y7990000D03*
X5386200Y8136200D03*
X5300000Y8370000D03*
X5402380Y4648850D03*
Y4858850D03*
Y5288850D03*
Y5078850D03*
G54D12*
X315000Y710000D03*
X565000D03*
X815000D03*
X1315000D03*
X1065000D03*
X5350000Y515000D03*
G54D21*
X1440000Y4430000D03*
Y5930000D03*
G54D30*
X2615000Y4970000D03*
G54D22*
X1565000Y710000D03*
X5350000Y265000D03*
G54D40*
X3765000Y5539990D03*
G54D13*
X447800Y4312600D03*
Y5927400D03*
G54D31*
X2470000Y4970000D03*
X2760000D03*
X2470000Y5120000D03*
Y5270000D03*
X2760000D03*
Y5120000D03*
G54D50*
G01X2650000Y430000D02*
G03I-30000J0D01*
G01X3050000D02*
G03I-30000J0D01*
G54D32*
X2630000Y7540000D03*
G54D14*
X260000Y6420000D03*
Y6620000D03*
Y6820000D03*
Y7020000D03*
Y7220000D03*
Y7420000D03*
Y7620000D03*
Y7820000D03*
X1850000Y6420000D03*
Y6820000D03*
Y6620000D03*
Y7420000D03*
Y7220000D03*
Y7020000D03*
Y7820000D03*
Y7620000D03*
X5330000Y7947290D03*
Y7652710D03*
G54D41*
X3639000Y6387000D03*
Y6277000D03*
Y6167000D03*
Y6827000D03*
Y6717000D03*
Y6607000D03*
Y6497000D03*
Y7461000D03*
Y7351000D03*
Y7241000D03*
Y7131000D03*
Y7571000D03*
X4859000Y6165000D03*
Y6275000D03*
Y6385000D03*
Y6495000D03*
Y6605000D03*
Y6715000D03*
Y6825000D03*
X4861000Y7127000D03*
Y7237000D03*
Y7347000D03*
Y7457000D03*
Y7567000D03*
G54D23*
X1867300Y4380000D03*
Y4590000D03*
X2212700Y4380000D03*
Y4590000D03*
X4187300Y5620000D03*
X4532700D03*
G54D51*
G01X1155000Y4830000D02*
G03I-75000J0D01*
G01Y5580000D02*
G03I-75000J0D01*
G54D15*
X233800Y6080000D03*
X386200D03*
X1853800Y4900000D03*
Y5350000D03*
Y5050000D03*
Y5200000D03*
Y5850000D03*
Y5520000D03*
Y5700000D03*
Y6000000D03*
Y6150000D03*
X2006200Y4900000D03*
Y5350000D03*
Y5050000D03*
Y5200000D03*
Y5850000D03*
Y5520000D03*
Y5700000D03*
Y6000000D03*
Y6150000D03*
X2093800Y6960000D03*
X2246200D03*
X2093800Y6810000D03*
X2246200D03*
Y7410000D03*
X2093800D03*
Y7110000D03*
X2246200D03*
X2093800Y7260000D03*
X2246200D03*
X2093800Y7560000D03*
X2246200D03*
X2093800Y7860000D03*
X2246200D03*
Y7710000D03*
X2093800D03*
X2343800Y8090000D03*
X2193800Y8240000D03*
X2346200D03*
X2816200Y4270000D03*
X2663800D03*
X2496200Y8090000D03*
X3023800Y3230000D03*
X3176200D03*
X3023800Y3480000D03*
X3176200D03*
X3023800Y3630000D03*
X3176200D03*
X3136200Y5280000D03*
X2983800D03*
Y5810000D03*
X3136200D03*
Y5510000D03*
X2983800D03*
X3136200Y5660000D03*
X2983800D03*
X3253800Y6200000D03*
X3406200D03*
Y6350000D03*
X3253800D03*
X3406200Y6500000D03*
X3253800D03*
X3086200Y7110000D03*
X2933800D03*
X3273800D03*
X3086200Y7260000D03*
X2933800D03*
X3273800D03*
X3126200Y7960000D03*
X2973800D03*
X3126200Y8110000D03*
X2973800D03*
X3823800Y3000000D03*
X3426200Y7110000D03*
Y7260000D03*
X3976200Y3000000D03*
X4266200Y5810000D03*
X4113800D03*
X4853800Y4790000D03*
X4543800D03*
X4696200D03*
X4443800Y5810000D03*
X4596200D03*
X4853800Y7800000D03*
X4573800Y8250000D03*
X4726200D03*
X5006200Y4790000D03*
Y7800000D03*
X5386200Y8250000D03*
X5233800D03*
G54D33*
X2430000Y7440000D03*
X2830000D03*
X2430000Y7490000D03*
Y7540000D03*
Y7590000D03*
Y7640000D03*
X2830000D03*
Y7590000D03*
Y7540000D03*
Y7490000D03*
G54D42*
X3750000Y8510000D03*
X4750000D03*
G54D24*
X1522000Y4894000D03*
Y5444000D03*
Y5334000D03*
Y5224000D03*
Y5114000D03*
Y5004000D03*
Y5774000D03*
Y5664000D03*
Y5554000D03*
G54D52*
G01X804200Y1140000D02*
X949000D01*
G01Y995200D02*
Y1140000D01*
G01D02*
Y1284800D01*
G01X5350000Y515000D02*
Y647100D01*
G01X5217900Y515000D02*
X5350000D01*
G01D02*
X5482100D01*
G54D16*
X949000Y1140000D03*
G54D43*
X4015860Y7810000D03*
X4224140D03*
G54D34*
X2730000Y7340000D03*
X2680000D03*
X2630000D03*
X2580000D03*
X2530000D03*
Y7740000D03*
X2580000D03*
X2630000D03*
X2680000D03*
X2730000D03*
G54D25*
X2210000Y5469000D03*
Y5596000D03*
Y5723000D03*
Y5850000D03*
X2750000Y5469000D03*
Y5850000D03*
Y5723000D03*
Y5596000D03*
X4790000Y5560000D03*
Y5687000D03*
Y5814000D03*
Y5941000D03*
X5330000D03*
Y5814000D03*
Y5687000D03*
Y5560000D03*
G54D53*
G01X229580Y108650D02*
Y240000D01*
G01X3060000Y3930000D02*
X3010000D01*
X2250640Y3170640D01*
X803160D01*
X802520Y3170000D01*
X790000D01*
X360000Y2740000D01*
Y1210000D01*
X740000Y830000D01*
X1684600D01*
X1710000Y804600D01*
Y460010D01*
X1541600Y291610D01*
Y110000D01*
G01X330000Y3200000D02*
X400000Y3270000D01*
X2180000D01*
X2420000Y3510000D01*
G01X260000Y7420000D02*
X1450000D01*
X1528080Y7341920D01*
Y7061920D01*
X1643480Y6946520D01*
Y6210320D01*
X1853800Y6000000D01*
G01X1684120Y7050000D02*
X1568720Y7165400D01*
Y7751280D01*
X1500000Y7820000D01*
X260000D01*
G01X3140000Y3930000D02*
Y3920190D01*
X3086310Y3866500D01*
X3016500D01*
X2280000Y3130000D01*
X820000D01*
X410000Y2720000D01*
Y1217480D01*
X756840Y870640D01*
X1706840D01*
X1760000Y817480D01*
Y460000D01*
X1921600Y298400D01*
Y110000D01*
G01X880000Y2090000D02*
X1280000Y1690000D01*
X2830000D01*
X2905000Y1615000D01*
Y1380000D01*
G01X790000Y2090000D02*
X1240000Y1640000D01*
X2720000D01*
X2820000Y1540000D01*
Y1380000D01*
G01X510000Y3340000D02*
X530000Y3320000D01*
X2139810D01*
X2269810Y3450000D01*
X2270000D01*
X2330000Y3510000D01*
G01X420000Y3200000D02*
X440000Y3220000D01*
X2230000D01*
X3015000Y4005000D01*
X3405000D01*
G01X910000Y4170000D02*
X410000D01*
G01X1338400Y110000D02*
Y240000D01*
G01X970000Y2090000D02*
X1320000Y1740000D01*
X2880000D01*
X2990000Y1630000D01*
Y1384810D01*
G01X2430000Y2895000D02*
X2245000Y2710000D01*
X1450000D01*
X1363000Y2623000D01*
Y2377000D01*
G01X1263000D02*
Y2800800D01*
G01D02*
X1260000Y2803800D01*
G01X1390000Y2778160D02*
X1285640D01*
X1263000Y2800800D01*
G01X1522000Y5664000D02*
X1414000D01*
X1269360Y5519360D01*
Y3830640D01*
X1380000Y3720000D01*
X1800000D01*
X2010000Y3510000D01*
X2150000D01*
G01X2240000D02*
X2239810D01*
X2176310Y3573500D01*
X2006500D01*
X1819360Y3760640D01*
X1419360D01*
X1320000Y3860000D01*
Y5459990D01*
X1414010Y5554000D01*
X1522000D01*
G01X1718400Y110000D02*
Y238400D01*
G01X1457000Y1140000D02*
X1737000Y1420000D01*
X2560000D01*
X2570000Y1410000D01*
G01X1711000Y1140000D02*
X1921000Y1350000D01*
X2490000D01*
G01X1763000Y2377000D02*
Y2070000D01*
X2043000Y1790000D01*
X2900000D01*
X2970000Y1860000D01*
G01X1663000Y2377000D02*
Y1930000D01*
X1560000Y1827000D01*
G01X1863000Y2377000D02*
Y2046670D01*
X2050000Y1859670D01*
X2859710D01*
X2859980Y1859400D01*
G01X1463000Y2377000D02*
Y2587000D01*
X1460000Y2590000D01*
G01X1563000Y2377000D02*
Y2590000D01*
G01X1663000Y2377000D02*
Y2583000D01*
X1740000Y2660000D01*
X2740000D01*
X2850000Y2770000D01*
Y3630000D01*
X3040000Y3820000D01*
X3210000D01*
X3330000Y3940000D01*
G01X1522000Y4894000D02*
X1680000D01*
G01D02*
X1847800D01*
X1853800Y4900000D01*
G01X1600000Y4680000D02*
X1800000D01*
X1867300Y4612700D01*
Y4590000D01*
G01X1750000Y5200000D02*
X1853800D01*
G01X1522000Y5114000D02*
X1664000D01*
X1750000Y5200000D01*
G01X1640000Y5334000D02*
X1522000D01*
G01Y5004000D02*
X1526000Y5000000D01*
X1680000D01*
G01D02*
X1803800D01*
X1853800Y5050000D01*
G01X1522000Y5664000D02*
X1817800D01*
X1853800Y5700000D01*
G01X1522000Y5554000D02*
X1819800D01*
X1853800Y5520000D01*
G01X1684120Y7050000D02*
Y6319680D01*
X1853800Y6150000D01*
G01X2093800Y6810000D02*
Y6723800D01*
X1990000Y6620000D01*
X1850000D01*
G01Y7020000D02*
X1892150D01*
X1990000Y6922150D01*
G01X2093800Y7260000D02*
X2033800Y7320000D01*
X1690000D01*
G01D02*
X1650000Y7360000D01*
Y7580000D01*
X1690000Y7620000D01*
X1850000D01*
G01Y7820000D02*
X1670000D01*
X1609360Y7759360D01*
Y7220640D01*
X1710000Y7120000D01*
X2000000D01*
G01X2060000Y1990000D02*
X1963000Y2087000D01*
Y2377000D01*
G01X2063000D02*
Y2093000D01*
X2060000Y2090000D01*
G01X2163000Y2377000D02*
Y2580000D01*
G01X2263000Y2377000D02*
Y2577000D01*
G01X2363000Y2377000D02*
Y2577000D01*
G01X2040000Y3770000D02*
X1940000Y3870000D01*
Y4400000D01*
X2040000Y4500000D01*
Y4790000D01*
X2100000Y4850000D01*
Y5190000D01*
X2350000Y5440000D01*
Y5750000D01*
X2520000Y5920000D01*
X3187160D01*
X3309360Y5797800D01*
Y4980640D01*
X4520000Y3770000D01*
X4900000D01*
G01X2212700Y4590000D02*
Y4380000D01*
G01X2120000Y4350000D02*
X2182700D01*
X2212700Y4380000D01*
G01X2300000Y4480000D02*
Y4700000D01*
X2270000Y4730000D01*
G01X2310000Y4810000D02*
Y4960000D01*
X2470000Y5120000D01*
G01X2562020Y4467520D02*
X2412480D01*
X2350000Y4530000D01*
Y4770000D01*
X2310000Y4810000D01*
G01X2213800Y6323500D02*
X2376500D01*
G01X2630000Y7340000D02*
Y6680000D01*
X2470000Y6520000D01*
X2110000D01*
X2080000Y6490000D01*
Y6379990D01*
X2136490Y6323500D01*
X2213800D01*
G01X2380000Y6200000D02*
X2640000D01*
X2730000Y6290000D01*
G01X2213800Y6450500D02*
X2380000D01*
G01D02*
X2510500D01*
X2680000Y6620000D01*
Y7340000D01*
G01X1990000Y6922150D02*
X2055950D01*
X2093800Y6960000D01*
G01X2530000Y7340000D02*
Y6820000D01*
X2320000Y6610000D01*
G01X2000000Y7120000D02*
X2083800D01*
X2093800Y7110000D01*
G01X2430000Y7490000D02*
X2380000D01*
X2300000Y7410000D01*
X2246200D01*
G01Y7560000D02*
X2266200Y7540000D01*
X2340000D01*
G01D02*
X2430000D01*
G01X2347800Y7740000D02*
X2530000D01*
G01X2246200Y7860000D02*
Y7841600D01*
X2347800Y7740000D01*
G01X2430000Y7640000D02*
X2316200D01*
X2246200Y7710000D01*
G01X2463000Y2377000D02*
Y1927000D01*
G01X2560000Y1930000D02*
X2563000Y1933000D01*
Y2377000D01*
G01X2663000D02*
Y1933000D01*
G01X2763000Y2377000D02*
Y1933000D01*
G01X2863000Y2377000D02*
Y1933000D01*
G01X2612020Y4467520D02*
Y4321780D01*
X2663800Y4270000D01*
G01X2712020Y4467520D02*
Y4318220D01*
X2663800Y4270000D01*
G01X2760000Y5120000D02*
X2880000Y5000000D01*
Y4500000D01*
X2847520Y4467520D01*
X2712020D01*
G01X2560000Y4880000D02*
Y4870190D01*
G01X2740000Y4790000D02*
X2717520Y4767520D01*
X2712020D01*
G01X2560000Y4870190D02*
X2612020Y4818170D01*
Y4767520D01*
G01X2470000Y4970000D02*
X2400000Y4900000D01*
Y4810000D01*
G01D02*
Y4567920D01*
X2425400Y4542520D01*
X2487020D01*
G01X2612020Y4467520D02*
Y4617980D01*
X2537480Y4692520D01*
X2487020D01*
G01X2662020Y4767520D02*
Y4857980D01*
G01X2787020Y4692520D02*
X2732520D01*
X2680000Y4640000D01*
G01X2490000Y4810000D02*
X2540000D01*
X2562020Y4787980D01*
Y4767520D01*
G01X2700000Y5370000D02*
X2660640Y5330640D01*
Y5070640D01*
X2615000Y5025000D01*
G01D02*
Y4970000D01*
G01X2750000Y5596000D02*
X2696000D01*
X2560000Y5460000D01*
Y5200000D01*
X2480000Y5120000D01*
X2470000D01*
G01Y4970000D02*
X2610000Y5110000D01*
Y5390000D01*
X2689000Y5469000D01*
X2750000D01*
G01X2983800Y5660000D02*
X2919800Y5596000D01*
X2750000D01*
G01X2983800Y5510000D02*
X2942800Y5469000D01*
X2750000D01*
G01X3006200Y6196500D02*
X2823500D01*
X2730000Y6290000D01*
G01D02*
Y7340000D01*
G01X2870000Y7010000D02*
X2850000Y6990000D01*
Y6680000D01*
X2900000Y6630000D01*
G01X2420000Y6610000D02*
X2580000Y6770000D01*
Y7340000D01*
G01X2430000Y7440000D02*
Y7420000D01*
G01X2560000Y7470000D02*
X2530000Y7440000D01*
G01X2870000Y7030000D02*
Y7010000D01*
G01X2530000Y7440000D02*
X2430000D01*
G01X2837750Y7330000D02*
Y7332250D01*
X2830000Y7340000D01*
Y7440000D01*
G01Y7540000D02*
X2630000D01*
G01X2520000Y7840000D02*
X2522020D01*
G01X2580000Y7740000D02*
Y7679810D01*
X2630000Y7629810D01*
G01X2430000Y7590000D02*
X2490190D01*
X2540190Y7540000D01*
G01X2522020Y7840000D02*
X2580000Y7782020D01*
Y7740000D01*
G01X2630000Y7629810D02*
Y7540000D01*
G01X2540190D02*
X2630000D01*
G01X2933800Y7454070D02*
X2897870Y7490000D01*
X2830000D01*
G01X3273800Y7260000D02*
Y7536200D01*
X3220000Y7590000D01*
X2830000D01*
G01X3426200Y7260000D02*
Y7583800D01*
X3370000Y7640000D01*
X2830000D01*
G01X2630000Y7740000D02*
Y7839200D01*
X2609200Y7860000D01*
G01X2680000Y7740000D02*
Y7829200D01*
X2710800Y7860000D01*
G01X2810800Y7960000D02*
X2810000Y7959200D01*
Y7770000D01*
X2780000Y7740000D01*
X2730000D01*
G01X3380000Y1050000D02*
X3390000D01*
X3393500Y1053500D01*
X5093500D01*
X5280000Y1240000D01*
Y2078240D01*
X5144120Y2214120D01*
Y2220000D01*
G01X3063000Y2377000D02*
Y1920000D01*
G01X3163000Y2377000D02*
Y1873000D01*
X3160000Y1870000D01*
G01X3263000Y2377000D02*
Y1800000D01*
G01X2963000Y2377000D02*
Y1937000D01*
G01X3430000Y3227500D02*
X3178700D01*
X3176200Y3230000D01*
G01D02*
Y3123800D01*
X3180000Y3120000D01*
G01X3430000Y3292500D02*
X3312500D01*
G01X3430000Y3422500D02*
X3349120D01*
X3296620Y3370000D01*
G01X3320000Y3590000D02*
X3357500Y3552500D01*
X3430000D01*
G01X3320000Y3590000D02*
X3347500Y3617500D01*
X3430000D01*
G01Y3487500D02*
X3183700D01*
X3176200Y3480000D01*
G01X3910000Y1750000D02*
X4270000D01*
X5310000Y2790000D01*
Y3470000D01*
X4946500Y3833500D01*
X4526500D01*
X3350000Y5010000D01*
Y5820000D01*
X3100500Y6069500D01*
X3006200D01*
G01X4224780Y1948300D02*
X4221700D01*
X4186500Y1983500D01*
X3863500D01*
X3800000Y1920000D01*
Y1700000D01*
X3870000Y1630000D01*
X4270000D01*
X5410000Y2770000D01*
Y3520000D01*
X4980000Y3950000D01*
X4540000D01*
X3450000Y5040000D01*
Y5842840D01*
X3180000Y6112840D01*
Y6280000D01*
X3250000Y6350000D01*
X3253800D01*
G01X3910000Y1920000D02*
X3846500Y1856500D01*
Y1723690D01*
X3890190Y1680000D01*
X4260000D01*
X5360000Y2780000D01*
Y3500000D01*
X4970000Y3890000D01*
X4540000D01*
X3400000Y5030000D01*
Y5835360D01*
X3139360Y6096000D01*
Y6389360D01*
X3250000Y6500000D01*
X3253800D01*
G01Y6200000D02*
Y6136200D01*
G01D02*
X3410000Y5980000D01*
G01X3086200Y7110000D02*
Y6966200D01*
X2990000Y6870000D01*
Y6830000D01*
G01X3273800Y7110000D02*
Y6966200D01*
X3370000Y6870000D01*
Y6830000D01*
G01X3086200Y7110000D02*
X3100000D01*
X3250000Y7260000D01*
X3273800D01*
G01Y7110000D02*
X3276200D01*
X3426200Y7260000D01*
G01X3660000Y990000D02*
Y121600D01*
X3648400Y110000D01*
G01X3851600D02*
Y238400D01*
G01X3990000Y3227500D02*
X3907500D01*
X3710000Y3030000D01*
Y2560000D01*
X3763000Y2507000D01*
Y2377000D01*
G01X3990000Y3292500D02*
X3912500D01*
X3663000Y3043000D01*
Y2377000D01*
G01X3990000Y3357500D02*
X3907500D01*
X3610000Y3060000D01*
Y2560000D01*
X3563000Y2513000D01*
Y2377000D01*
G01X3990000Y3422500D02*
X3902500D01*
X3560000Y3080000D01*
Y2610000D01*
X3463000Y2513000D01*
Y2377000D01*
G01X3430000Y3162500D02*
X3550680D01*
G01X3430000Y3487500D02*
X3532540D01*
X3580000Y3440040D01*
Y3290000D01*
G01X3830000Y3490000D02*
X3832500Y3487500D01*
G01X3850000Y3550000D02*
X3852500Y3552500D01*
G01X3840000Y3620000D02*
X3842500Y3617500D01*
G01X3832500Y3487500D02*
X3990000D01*
G01X3852500Y3552500D02*
X3990000D01*
G01X3842500Y3617500D02*
X3990000D01*
G01X5080000Y280000D02*
Y510000D01*
X5390000Y820000D01*
Y1950000D01*
X5460000Y2020000D01*
Y3760000D01*
X5210000Y4010000D01*
X4570000D01*
X3560000Y5020000D01*
G01X5120000Y4160000D02*
X4520000D01*
X3660000Y5020000D01*
G01X3639000Y6497000D02*
X3553200D01*
X3406200Y6350000D01*
G01X3450000Y6640000D02*
X3500000Y6690000D01*
Y6990000D01*
G01X4790000Y5814000D02*
X4746000D01*
X4469360Y6090640D01*
Y6600640D01*
X4353000Y6717000D01*
X3639000D01*
G01X4790000Y5941000D02*
X4739000D01*
X4510000Y6170000D01*
Y6720000D01*
X4403000Y6827000D01*
X3639000D01*
G01Y6607000D02*
X3513200D01*
X3406200Y6500000D01*
G01X3500000Y7070000D02*
Y7560000D01*
G01X4231600Y110000D02*
Y238400D01*
G01X4028400Y110000D02*
Y648400D01*
X4200000Y820000D01*
X4600000D01*
G01X3910000Y1830000D02*
X4290010D01*
X5260000Y2799990D01*
Y3420000D01*
X4990000Y3690000D01*
X4840000D01*
X4750000Y3600000D01*
X4550000D01*
X4473800Y3523800D01*
X4470000D01*
G01X3990000Y3162500D02*
Y3013800D01*
X3976200Y3000000D01*
G01X4224780Y3445000D02*
Y3244780D01*
X4142500Y3162500D01*
X3990000D01*
G01X4110000Y3620000D02*
X4107500Y3617500D01*
G01X4110000Y3550000D02*
X4107500Y3552500D01*
G01X4120000Y3490000D02*
X4117500Y3487500D01*
G01X3990000Y3617500D02*
Y3680000D01*
G01X4107500Y3617500D02*
X3990000D01*
G01X4107500Y3552500D02*
X3990000D01*
G01X4117500Y3487500D02*
X3990000D01*
G01X4470000Y3676200D02*
X4320000D01*
G01X4770000Y5197000D02*
X4373000D01*
X4370000Y5200000D01*
G01X4673000Y3701600D02*
X4495400D01*
X4470000Y3676200D01*
G01X4853800Y4790000D02*
X4696200D01*
G01X4668400Y4943000D02*
Y4817800D01*
X4696200Y4790000D01*
G01X4540000Y4690000D02*
Y4786200D01*
X4543800Y4790000D01*
G01X4610000Y6380000D02*
X4854000D01*
X4859000Y6385000D01*
G01X5030000Y6380000D02*
X4864000D01*
X4859000Y6385000D01*
G01X4700000Y7900000D02*
X4740000D01*
G01X4700000D02*
Y7970000D01*
G01X4680000Y7990000D02*
X4650000Y7960000D01*
Y7900000D01*
G01Y7800000D02*
Y7700000D01*
G01X4600000Y7800000D02*
Y7700000D01*
G01X4550000Y7870000D02*
X4580000D01*
X4600000Y7890000D01*
Y7900000D01*
G01D02*
Y7989200D01*
G01X4750000Y7830000D02*
X4720000D01*
X4700000Y7810000D01*
Y7800000D01*
G01X4710000Y7770000D02*
X4700000Y7780000D01*
Y7800000D01*
G01X4600000Y7989200D02*
X4570000Y8019200D01*
G01X5130000Y700000D02*
X5340000Y910000D01*
Y2140000D01*
X5180000Y2300000D01*
Y2312180D01*
G01X5300000Y8370000D02*
X5401600Y8471600D01*
Y8500000D01*
G01X5233800Y8250000D02*
Y8464600D01*
X5198400Y8500000D01*
G01X5386200Y8250000D02*
Y8136200D01*
G54D17*
X750000Y6270000D03*
X550000D03*
X1350000D03*
X1150000D03*
X950000D03*
X1550000D03*
G54D35*
G01X4861000Y7457000D02*
X5016200D01*
X5019200Y7460000D01*
G01X4861000Y7237000D02*
Y7127000D01*
G01D02*
X5116800D01*
X5120000Y7123800D01*
G01X4726200Y8250000D02*
Y8486200D01*
X4750000Y8510000D01*
G01X4570000Y8120800D02*
Y8246200D01*
X4573800Y8250000D01*
G01X5019200Y7460000D02*
Y7787000D01*
X5006200Y7800000D01*
G01X5120000Y7276200D02*
Y7459200D01*
X5120800Y7460000D01*
G01X5006200Y7800000D02*
X5179910D01*
X2560000Y7470000D03*
X2700000D03*
X2630000Y7540000D03*
X2700000Y7610000D03*
X2560000D03*
G54D44*
X4673000Y3498400D03*
Y3701600D03*
X4927000Y3600000D03*
G54D26*
X2213800Y6069500D03*
Y6196500D03*
Y6323500D03*
Y6450500D03*
X3006200D03*
Y6323500D03*
Y6196500D03*
Y6069500D03*
G54D54*
G01X5390000Y0D02*
X140000D01*
G02X0Y140000I0J140000D01*
G01Y8560000D01*
G02X140000Y8700000I140000J0D01*
G01X5390000D01*
G02X5530000Y8560000I0J-140000D01*
G01Y140000D01*
G02X5390000Y0I-140000J0D01*
G01X100000Y1360000D02*
G03I-40000J0D01*
G01X375000D02*
G03I-40000J0D01*
G01X100000Y2430000D02*
G03I-40000J0D01*
G01X375000D02*
G03I-40000J0D01*
G01X100000Y3900000D02*
G03I-40000J0D01*
G01X375000D02*
G03I-40000J0D01*
G01X920000Y60000D02*
G03I-40000J0D01*
G01Y335000D02*
G03I-40000J0D01*
G01X4710000Y60000D02*
G03I-40000J0D01*
G01Y335000D02*
G03I-40000J0D01*
G01X5235000Y1900000D02*
G03I-40000J0D01*
G01Y3890000D02*
G03I-40000J0D01*
G01X5510000Y1900000D02*
G03I-40000J0D01*
G01Y3890000D02*
G03I-40000J0D01*
G54D18*
X1457000Y1140000D03*
X1203000D03*
X1711000D03*
X4370000Y5200000D03*
X5130000D03*
G54D36*
X2609200Y7860000D03*
X2710800D03*
X2499200Y7960000D03*
X2600800D03*
X2810800D03*
X2709200D03*
X5120800Y7460000D03*
X5019200D03*
G54D27*
X2350000Y8510000D03*
X3300000D03*
G54D45*
X4871600Y4943000D03*
X4668400D03*
X4770000Y5197000D03*
G54D55*
G01X1470000Y240000D02*
Y400000D01*
X1400000Y470000D01*
X480000D01*
X406200Y396200D01*
G01D02*
Y236200D01*
G01X160000Y3490000D02*
Y642400D01*
X406200Y396200D01*
G01X1280000Y3510000D02*
X180000D01*
X160000Y3490000D01*
G01D02*
Y5853800D01*
X386200Y6080000D01*
G01D02*
Y6353800D01*
X320000Y6420000D01*
X260000D01*
G01X1203000Y1207000D02*
X580000Y1830000D01*
Y2620000D01*
X763800Y2803800D01*
X1110000D01*
G01X1203000Y1207000D02*
Y1140000D01*
G01X1960000Y1560000D02*
X1550000D01*
X1203000Y1213000D01*
Y1207000D01*
G01X1163000Y2377000D02*
Y2567000D01*
X1120000Y2610000D01*
G01D02*
X1063000Y2553000D01*
Y2377000D01*
G01X1120000Y2610000D02*
X1110000Y2620000D01*
Y2660000D01*
G01Y2803800D02*
Y2806200D01*
X1260000Y2956200D01*
G01D02*
X1618800D01*
X1680000Y2895000D01*
G01X1110000Y2660000D02*
Y2803800D01*
G01X1670000Y3560000D02*
X1620000Y3510000D01*
X1280000D01*
G01X1536200Y3940000D02*
X1750000D01*
X1867300Y4057300D01*
Y4380000D01*
G01D02*
Y4407300D01*
X1970000Y4510000D01*
Y4863800D01*
X2006200Y4900000D01*
G01X1853800Y5350000D02*
X1769990D01*
X1643990Y5224000D01*
X1522000D01*
G01X1853800Y5350000D02*
Y5367600D01*
X2006200Y5520000D01*
G01Y5200000D02*
X2003800D01*
X1853800Y5350000D01*
G01X1960000Y650000D02*
X2300000D01*
X2530000Y880000D01*
G01X1960000Y1560000D02*
X2670000D01*
X2743800Y1486200D01*
Y1321200D01*
X2755000Y1310000D01*
G01X2006200Y5050000D02*
Y4900000D01*
G01Y5200000D02*
Y5050000D01*
G01Y5850000D02*
Y6000000D01*
G01Y5700000D02*
Y5850000D01*
G01Y5520000D02*
Y5700000D01*
G01Y6000000D02*
Y6150000D01*
G01X2213800Y6196500D02*
X2052700D01*
X2006200Y6150000D01*
G01Y6000000D02*
X2080000D01*
X2149500Y6069500D01*
X2213800D01*
G01X2246200Y6810000D02*
Y6796200D01*
X2006200Y6556200D01*
Y6150000D01*
G01X2213800Y6069500D02*
X2309500D01*
X2320000Y6080000D01*
X2559500D01*
G01X2246200Y6960000D02*
Y6810000D01*
G01Y7110000D02*
Y6960000D01*
G01Y7260000D02*
Y7110000D01*
G01Y7260000D02*
X2256200Y7250000D01*
X2350000D01*
G01X2343800Y8090000D02*
Y8237600D01*
X2346200Y8240000D01*
G01D02*
Y8506200D01*
X2350000Y8510000D01*
G01X2530000Y880000D02*
Y1085000D01*
X2755000Y1310000D01*
G01D02*
X2761200Y1303800D01*
X3297600D01*
X3305000Y1311200D01*
G01X2663800Y4270000D02*
Y4176200D01*
X2823800Y4016200D01*
G01X2760000Y5120000D02*
Y5270000D01*
G01D02*
X2973800D01*
X2983800Y5280000D01*
G01X2750000Y5850000D02*
X2943800D01*
X2983800Y5810000D01*
G01X2560000Y5850000D02*
X2750000D01*
G01X2840000Y6323500D02*
X3006200D01*
G01X2810000Y7250000D02*
X2783340Y7223340D01*
Y6380160D01*
X2840000Y6323500D01*
G01X2933800Y7260000D02*
X2910000D01*
X2900000Y7250000D01*
X2810000D01*
G01X2609200Y7860000D02*
Y7951600D01*
X2600800Y7960000D01*
G01X2710800Y7860000D02*
Y7958400D01*
X2709200Y7960000D01*
G01X2810800D02*
X2973800D01*
G01X2499200D02*
Y8087000D01*
X2496200Y8090000D01*
G01X4500000Y1660000D02*
X4400000D01*
X4051200Y1311200D01*
X3305000D01*
G01X3176200Y3630000D02*
X3173800D01*
X3023800Y3480000D01*
G01D02*
Y3360000D01*
G01D02*
Y3230000D01*
G01X3176200Y3630000D02*
X3216200Y3590000D01*
X3320000D01*
G01X3136200Y5510000D02*
Y5432400D01*
X2983800Y5280000D01*
G01X3136200Y5660000D02*
Y5510000D01*
G01X2983800Y5810000D02*
X2986200D01*
X3136200Y5660000D01*
G01X2933800Y7260000D02*
Y7454070D01*
G01X2973800Y8110000D02*
Y7960000D01*
G01X4320000Y3183800D02*
X3863000Y2726800D01*
Y2377000D01*
G01X3639000Y6277000D02*
X3497000D01*
X3420000Y6200000D01*
X3406200D01*
G01D02*
Y6086200D01*
G01X4015860Y7810000D02*
X3870000D01*
G01X4263000Y2377000D02*
Y2526800D01*
X4920000Y3183800D01*
G01X4063000Y2377000D02*
Y2626800D01*
X4620000Y3183800D01*
G01X4463000Y2377000D02*
Y2233000D01*
X4425000Y2195000D01*
X4395000D01*
X4363000Y2227000D01*
Y2377000D01*
G01X3963000D02*
Y2676800D01*
X4470000Y3183800D01*
G01X4163000Y2377000D02*
Y2576800D01*
X4770000Y3183800D01*
G01X4560000Y3430000D02*
X4329980D01*
G01X4320000Y3336200D02*
X4470000D01*
G01X3906200Y5380000D02*
X4950000D01*
X5130000Y5200000D01*
G01X4266200Y5810000D02*
Y5698900D01*
X4187300Y5620000D01*
G01X4800000Y2430000D02*
X5200000Y2830000D01*
Y3260000D01*
X5123800Y3336200D01*
X5100000D01*
G01X4463000Y2377000D02*
Y2546800D01*
X5100000Y3183800D01*
G01X4570000Y3440000D02*
X4560000Y3430000D01*
G01X4770000Y3336200D02*
X4920000D01*
G01X4620000D02*
X4770000D01*
G01X4470000D02*
X4620000D01*
G01X4596200Y5810000D02*
Y5683500D01*
X4532700Y5620000D01*
G01X4790000Y5560000D02*
X4592700D01*
X4532700Y5620000D01*
G01X5130000Y5200000D02*
Y5490000D01*
X5060000Y5560000D01*
X4790000D01*
G01X5100000Y3336200D02*
Y3440000D01*
G01X4927000Y3600000D02*
Y3343200D01*
X4920000Y3336200D01*
G54D28*
X2712020Y4467520D03*
X2662020D03*
X2612020D03*
X2562020D03*
Y4767520D03*
X2612020D03*
X2662020D03*
X2712020D03*
G54D46*
X4700000Y7800000D03*
X4650000D03*
X4600000D03*
Y7900000D03*
X4650000D03*
X4700000D03*
G54D19*
X963000Y2377000D03*
X1063000D03*
X1163000D03*
X1263000D03*
X1363000D03*
X1463000D03*
X1563000D03*
X1663000D03*
X1763000D03*
X1863000D03*
X1963000D03*
X2063000D03*
X2163000D03*
X2263000D03*
X2363000D03*
X2463000D03*
X2563000D03*
X2663000D03*
X2763000D03*
X2863000D03*
X2963000D03*
X3063000D03*
X3163000D03*
X3263000D03*
X3363000D03*
X3463000D03*
X3563000D03*
X3663000D03*
X3763000D03*
X3863000D03*
X3963000D03*
X4063000D03*
X4163000D03*
X4263000D03*
X4363000D03*
X4463000D03*
X4563000D03*
G54D37*
X3430000Y3162500D03*
Y3227500D03*
Y3292500D03*
Y3357500D03*
Y3422500D03*
Y3487500D03*
Y3552500D03*
Y3617500D03*
X3990000Y3422500D03*
Y3357500D03*
Y3292500D03*
Y3227500D03*
Y3162500D03*
Y3617500D03*
Y3552500D03*
Y3487500D03*
G54D38*
X2990000Y6830000D03*
X3370000D03*
G54D29*
X2487020Y4542520D03*
Y4592520D03*
Y4642520D03*
Y4692520D03*
X2787020D03*
Y4642520D03*
Y4592520D03*
Y4542520D03*
G54D47*
X4570000Y8019200D03*
Y8120800D03*
G54D48*
X5179910Y7800000D03*
X5457000D03*
G54D39*
X3850000Y5875000D03*
G54D49*
G01X470000Y4820000D02*
G03I-50000J0D01*
G01Y5620000D02*
G03I-50000J0D01*
M02*
